<svg width="39" height="57" viewBox="0 0 39 57" fill="none" xmlns="http://www.w3.org/2000/svg">
<circle cx="19.4084" cy="19.4084" r="14.4177" fill="#2B4A5F"/>
<path d="M22.8853 9.00023C22.408 8.99304 21.9667 9.15548 21.5763 9.59558L21.5676 9.60532L19.2952 11.8558L19.3234 11.8874C19.4759 12.0536 19.4629 12.3125 19.2946 12.4626C19.1262 12.6127 18.8676 12.596 18.7199 12.4255L18.451 12.124C18.4158 12.1732 18.3779 12.221 18.3367 12.2668C18.1069 12.5219 17.8091 12.6912 17.4972 12.7619L17.7415 13.6739C17.8556 14.0773 17.356 14.3665 17.0631 14.0665L15.2123 15.8994C15.2757 15.8957 15.3395 15.8934 15.4037 15.8934C17.2289 15.8934 18.7107 17.4034 18.7107 19.2478C18.7107 19.2838 18.7091 19.3195 18.708 19.3553L25.0842 12.4491C25.4549 11.9856 25.5194 11.5107 25.398 11.0191C25.2761 10.5253 24.94 10.0262 24.4932 9.65236C24.3546 9.53632 24.2059 9.43291 24.0514 9.34446L18.6043 15.0321C18.4507 15.1976 18.1913 15.2053 18.0282 15.0492C17.8651 14.8929 17.8615 14.6334 18.0203 14.4728L23.2282 9.03504C23.1454 9.01977 23.0629 9.00881 22.9814 9.00387C22.9493 9.00198 22.9173 9.00072 22.8854 9.00027L22.8853 9.00023ZM17.4251 10.6689C17.2353 10.6668 17.0263 10.7517 16.8598 10.9367C16.5756 11.2522 16.594 11.6604 16.8188 11.863C17.0437 12.0655 17.4517 12.0412 17.7359 11.7256C18.02 11.4101 18.0017 11.0019 17.7768 10.7993C17.6924 10.7234 17.5823 10.6793 17.4627 10.6706C17.4502 10.6697 17.4377 10.6691 17.4251 10.669V10.6689ZM16.1695 13.5412C15.8465 13.5359 15.5572 13.6411 15.2901 13.9422L15.2815 13.9519L10.8013 18.3889C11.2905 18.4127 11.7432 18.5785 12.1214 18.8456C12.1845 18.314 12.3705 17.8196 12.6508 17.3932L12.6705 17.3631L12.9576 16.9943C13.0436 16.8982 13.1356 16.8079 13.2321 16.7225L16.4173 13.5679C16.3557 13.5558 16.2945 13.5475 16.2345 13.5439C16.2127 13.5425 16.191 13.5416 16.1694 13.5413L16.1695 13.5412ZM24.8529 14.1888C24.7529 14.1896 24.6542 14.1972 24.5569 14.2122L18.0285 21.2832C17.8952 21.4598 17.7449 21.6221 17.5804 21.7686L17.3237 22.0467C17.7684 22.1438 18.1833 22.3234 18.5518 22.5691C18.5517 22.5576 18.5509 22.5464 18.5509 22.5349C18.5509 21.9788 18.7551 21.4678 19.0913 21.0751L19.0874 21.0713L19.1484 21.0109C19.1937 20.9619 19.241 20.915 19.2904 20.8703L24.1049 16.1022C24.4877 15.6815 25.0058 15.5041 25.4893 15.5334C25.9793 15.563 26.4368 15.777 26.8068 16.0866C27.1769 16.3962 27.4664 16.8069 27.583 17.2787C27.6184 17.4222 27.635 17.5725 27.6314 17.7245C27.8389 17.3012 27.8515 16.8667 27.7321 16.4254C27.5756 15.8473 27.1655 15.2721 26.6329 14.8546V14.8547C26.13 14.4608 25.5252 14.2117 24.9586 14.1903C24.9231 14.1891 24.888 14.1885 24.8529 14.1888ZM25.3886 16.3384C25.132 16.3336 24.9081 16.4143 24.694 16.6557L24.6853 16.6654L20.9986 20.3167C21.9993 20.4297 22.7987 21.2277 22.9356 22.2297L26.6331 18.2248C26.8332 17.9741 26.8633 17.7381 26.7978 17.4727C26.7318 17.2056 26.5429 16.9201 26.2879 16.7068C26.0329 16.4934 25.7188 16.3574 25.4404 16.3405C25.423 16.3394 25.4058 16.3387 25.3886 16.3384ZM15.4037 16.7021C15.1836 16.7021 14.9704 16.7312 14.7673 16.7852C14.8555 16.7735 14.9452 16.7668 15.0365 16.7668C16.1468 16.7668 17.061 17.6648 17.061 18.7688C17.061 19.8728 16.1466 20.7708 15.0365 20.7708C13.9261 20.7708 13.0118 19.8728 13.0118 18.7688C13.0118 18.6417 13.0245 18.5176 13.0476 18.397C12.9558 18.6627 12.9054 18.9488 12.9054 19.2478C12.9054 20.662 14.0228 21.7934 15.4037 21.7934C16.7846 21.7934 17.9018 20.6621 17.9018 19.2478C17.9018 17.8336 16.7846 16.7022 15.4037 16.7022V16.7021ZM15.0365 17.5754C14.3573 17.5754 13.8205 18.108 13.8205 18.7688C13.8205 19.4296 14.3571 19.9622 15.0365 19.9622C15.7156 19.9622 16.2524 19.4296 16.2524 18.7688C16.2524 18.108 15.7159 17.5754 15.0365 17.5754H15.0365ZM14.8843 17.9059C15.277 17.9059 15.6041 18.2328 15.6041 18.6255C15.6041 19.0183 15.2768 19.3452 14.8843 19.3452C14.4916 19.3452 14.1644 19.0184 14.1644 18.6255C14.1644 18.2328 14.4918 17.9059 14.8843 17.9059ZM10.6792 19.1943C9.7246 19.1943 8.95297 19.9743 8.95297 20.9552C8.95297 21.9361 9.7246 22.7161 10.6791 22.7161C11.6337 22.7161 12.4053 21.9361 12.4053 20.9552C12.4053 20.82 12.3901 20.6887 12.3623 20.5626C12.3081 20.4342 12.2621 20.3014 12.224 20.1656C11.9411 19.5871 11.3563 19.1942 10.6791 19.1942L10.6792 19.1943ZM10.663 19.6891C11.3633 19.6891 11.8797 20.3225 11.8797 21.0288C11.8797 21.7352 11.3632 22.3684 10.663 22.3684C9.96264 22.3684 9.44617 21.7351 9.44617 21.0288C9.44617 20.3223 9.96277 19.6891 10.663 19.6891V19.6891ZM27.4 19.7037C27.0897 19.6984 26.813 19.7989 26.5559 20.0886L26.5473 20.0984L22.2193 24.3847C23.4449 24.4578 24.4317 25.4437 24.5348 26.6724L28.8761 21.9703C29.118 21.6677 29.1564 21.3736 29.0773 21.053C29.0668 21.0106 29.0537 20.968 29.0384 20.9252L26.1911 23.9054C26.0379 24.0718 25.778 24.0801 25.6144 23.9239C25.4509 23.7675 25.4473 23.5076 25.6065 23.3469L28.5311 20.2857C28.5466 20.2691 28.5634 20.2538 28.5815 20.24C28.5462 20.2059 28.5094 20.1727 28.4716 20.141C28.1699 19.8886 27.7983 19.7265 27.4625 19.7062C27.4415 19.7049 27.4207 19.7041 27.4001 19.7038L27.4 19.7037ZM10.6486 20.3654C10.3077 20.3654 10.0314 20.6819 10.0314 21.0724C10.0314 21.4628 10.3077 21.7793 10.6486 21.7793C10.9896 21.7793 11.266 21.4628 11.266 21.0724C11.266 20.682 10.9896 20.3655 10.6487 20.3655L10.6486 20.3654ZM20.7539 21.1111C19.9826 21.1111 19.3595 21.7402 19.3595 22.5349C19.3595 23.3295 19.9826 23.9587 20.7539 23.9587C21.5252 23.9587 22.1483 23.3295 22.1483 22.5348C22.1483 21.7402 21.5252 21.1111 20.7539 21.1111ZM20.6513 21.6122C21.1633 21.6122 21.5174 22.074 21.5174 22.5597C21.5174 23.0455 21.1632 23.5071 20.6513 23.5071C20.1391 23.5071 19.7851 23.0455 19.7851 22.5597C19.7851 22.0739 20.1392 21.6122 20.6512 21.6122H20.6513ZM13.312 21.8427L12.6819 22.5251C12.5844 22.6525 12.4757 22.7704 12.3569 22.8772L12.1778 23.0712C12.6102 23.3314 12.9793 23.6886 13.2562 24.1127C13.5579 23.4514 14.0469 22.895 14.6539 22.514C14.1537 22.3957 13.6967 22.1624 13.3121 21.8426L13.312 21.8427ZM16.5603 22.7727C14.9957 22.7727 13.7296 24.0554 13.7296 25.6564C13.7296 27.2574 14.9957 28.5401 16.5604 28.5401C18.125 28.5401 19.3912 27.2574 19.3912 25.6564C19.3912 24.0554 18.1249 22.7727 16.5604 22.7727L16.5603 22.7727ZM10.0745 23.45C8.89583 23.6537 8 24.6926 8 25.9587C8 26.5889 8.22236 27.1627 8.59054 27.6055C8.36189 27.2613 8.2282 26.8478 8.22829 26.405V26.4048C8.22807 25.2229 9.1801 24.2488 10.3526 24.2488C11.5253 24.2488 12.4774 25.2229 12.4771 26.4049C12.4773 27.3443 11.8758 28.1519 11.0402 28.444C12.0564 28.2165 12.8393 27.3625 12.9753 26.2919C12.9397 26.0853 12.9211 25.8731 12.9211 25.6565C12.9211 25.5635 12.9245 25.4712 12.9312 25.3798C12.7201 24.4471 12.0097 23.7164 11.1024 23.4881C10.9648 23.5118 10.8235 23.5248 10.6792 23.5248C10.4707 23.5248 10.2683 23.4985 10.0744 23.45L10.0745 23.45ZM16.3851 23.4789C17.6064 23.4789 18.5953 24.4987 18.5953 25.7341C18.5953 26.9696 17.6063 27.9893 16.3851 27.9893C15.1638 27.9893 14.175 26.9695 14.175 25.7341C14.175 24.4988 15.164 23.479 16.3851 23.479V23.4789ZM16.3851 24.2874C15.612 24.2874 14.9836 24.925 14.9836 25.7341C14.9836 26.5432 15.6117 27.1808 16.3851 27.1808C17.1583 27.1808 17.7867 26.5432 17.7867 25.7341C17.7867 24.9251 17.1586 24.2875 16.3851 24.2875V24.2874ZM20.0622 24.6534C20.1187 24.8554 20.1593 25.0641 20.1809 25.2783C20.3458 25.0792 20.5408 24.9067 20.7583 24.7671C20.7568 24.7672 20.7555 24.7673 20.754 24.7673C20.5124 24.7673 20.2799 24.7268 20.0622 24.6533V24.6534ZM10.3528 25.0573C9.62509 25.0573 9.03684 25.652 9.03707 26.4048V26.405C9.03684 27.1577 9.62509 27.7524 10.3528 27.7524C11.0804 27.7524 11.6688 27.1576 11.6686 26.4049V26.4048C11.6688 25.652 11.0804 25.0574 10.3528 25.0574V25.0573ZM16.3592 25.0688C16.762 25.0688 17.0312 25.4257 17.0312 25.7855C17.0312 26.1453 16.762 26.5021 16.3592 26.5021C15.9564 26.5021 15.6871 26.1452 15.6871 25.7855C15.6871 25.4257 15.9564 25.0688 16.3592 25.0688ZM22.0733 25.1885C21.1538 25.1885 20.4107 25.9397 20.4107 26.885C20.4107 27.8303 21.1538 28.5815 22.0733 28.5815C22.9929 28.5815 23.736 27.8303 23.736 26.885C23.736 25.9398 22.9929 25.1885 22.0733 25.1885ZM10.2161 25.7983C10.6189 25.7983 10.8881 26.1551 10.8881 26.5149C10.8881 26.8747 10.6189 27.2315 10.2161 27.2315C9.81336 27.2315 9.5441 26.8747 9.5441 26.5149C9.5441 26.1551 9.81336 25.7983 10.2161 25.7983V25.7983ZM22.2517 25.8622C22.9133 25.8622 23.4504 26.4151 23.4504 27.0768C23.4504 27.7385 22.9132 28.2913 22.2517 28.2913C21.5901 28.2913 21.0531 27.7384 21.0531 27.0768C21.0531 26.4151 21.5901 25.8622 22.2517 25.8622L22.2517 25.8622ZM22.2517 26.6708C22.036 26.6708 21.8617 26.8436 21.8617 27.0768C21.8617 27.31 22.0359 27.4827 22.2517 27.4827C22.4674 27.4827 22.6418 27.31 22.6418 27.0768C22.6418 26.8435 22.4675 26.6708 22.2517 26.6708L22.2517 26.6708Z" fill="#C7E6FF"/>
<path d="M19.3315 33.2619C11.6384 33.2619 5.40108 27.0253 5.40108 19.3322C5.40108 11.6384 11.6384 5.40182 19.3315 5.40182C27.0246 5.40182 33.2619 11.6384 33.2619 19.3322C33.2619 27.0253 27.0246 33.2619 19.3315 33.2619ZM38.663 19.3322C38.663 8.65503 30.0079 0 19.3315 0C8.65503 0 0 8.65503 0 19.3322C0 30.0087 8.65503 38.6637 19.3315 38.6637V57L35.7691 29.5052C35.8571 29.3632 35.9421 29.219 36.0264 29.0741L36.0464 29.0409H36.0456C37.707 26.1869 38.663 22.8723 38.663 19.3322Z" fill="#2B4A5F"/>
</svg>
