<svg width="39" height="57" viewBox="0 0 39 57" fill="none" xmlns="http://www.w3.org/2000/svg">
<circle cx="19.4084" cy="19.4084" r="14.4177" fill="#2B4A5F"/>
<path d="M21.9344 11L17.6582 15.3391L16.4485 19.239L17.2364 20.8887L18.1536 21.3058L19.6441 18.8315L20.1516 18.6693L22.9256 19.8754L23.8357 19.2915L24.0365 17.3285L24.5495 19.7378L24.0723 20.374L24.2418 20.4477L24.4771 20.7396L24.784 22.2824L27.2986 19.2827L27.9266 19.2931L28.9327 20.5767L28.508 18.2298L27.1581 13.6012L21.9345 11H21.9344ZM13.2143 11.5387L11.8878 13.8793L11.681 15.1201L12.8481 14.7408L13.3738 15.0722L13.3776 15.1007L14.6487 17.7899L15.2674 17.5859L15.7588 17.7956L15.935 18.1644L16.8117 15.338L16.7635 13.8405L14.9599 13.8171L13.6243 12.7488L15.1543 13.2379L17.063 12.8908L18.2325 13.6042L19.8624 11.9504C19.7376 11.8974 19.6101 11.8445 19.4769 11.7922L15.9021 12.2471L15.7436 12.2359L13.2142 11.5387H13.2143ZM24.4147 13.1748L26.5286 16.1406L26.6233 18.9487L25.4875 16.2669L22.5531 13.5534L24.4147 13.1748V13.1748ZM12.6362 15.6599L9.75064 16.5977L9 20.1264L11.2818 20.3772L11.3085 20.0564L13.0004 18.4075L12.6362 15.6601V15.6599ZM15.1827 18.4653L13.5457 19.0051L12.1242 20.3905L13.1389 21.7771L15.7141 21.8552L16.4553 21.1293L15.1827 18.4653V18.4653ZM20.154 19.552L18.1637 22.8558L18.1622 25.4226L22.5315 25.9714L24.5189 25.0941L23.7253 21.1048L20.154 19.552V19.552ZM27.5978 20.1845L25.4936 22.6946L25.5065 22.7743L28.433 23.3981L29.5911 22.7276L27.5979 20.1845L27.5978 20.1845ZM21.3815 20.8984L23.1437 21.9245L23.7461 24.2001L22.5413 25.271L20.5192 25.1563L22.2515 23.8876L22.363 22.1253L21.3815 20.8984V20.8984ZM10.6734 23.3169L10.2795 24.5976L10.8703 26.7762L14.9598 26.2412L15.0191 25.0544L12.2078 23.6172L10.6735 23.3169L10.6734 23.3169Z" fill="#C7E6FF"/>
<path d="M19.3315 33.2619C11.6384 33.2619 5.40108 27.0253 5.40108 19.3322C5.40108 11.6384 11.6384 5.40182 19.3315 5.40182C27.0246 5.40182 33.2619 11.6384 33.2619 19.3322C33.2619 27.0253 27.0246 33.2619 19.3315 33.2619ZM38.663 19.3322C38.663 8.65503 30.0079 1.52202e-06 19.3315 1.52202e-06C8.65503 1.52202e-06 0 8.65503 0 19.3322C0 30.0087 8.65503 38.6637 19.3315 38.6637V57L35.7691 29.5052C35.8571 29.3632 35.9421 29.219 36.0264 29.0741L36.0464 29.0409H36.0456C37.707 26.1869 38.663 22.8723 38.663 19.3322" fill="#2B4A5F"/>
</svg>
