<svg width="36" height="57" viewBox="0 0 36 57" fill="none" xmlns="http://www.w3.org/2000/svg">
<circle cx="18" cy="18" r="13" fill="#DD3730"/>
<path d="M24.1836 19.4513C24.0402 19.6398 23.8717 20.158 23.7672 20.7686C23.6626 21.3789 23.6543 21.8952 23.7337 22.0811C23.8771 21.8925 24.0458 21.3739 24.1503 20.7637C24.2549 20.1534 24.2632 19.6369 24.1836 19.4513Z" fill="#51843E"/>
<path d="M25.2855 18.5862C25.142 18.7747 24.9733 19.293 24.869 19.9034C24.7643 20.5139 24.7562 21.0301 24.8355 21.2158C24.9789 21.0274 25.1477 20.509 25.2521 19.8986C25.3566 19.2882 25.3649 18.7718 25.2855 18.5862Z" fill="#51843E"/>
<path d="M21.9739 22.0319C21.1844 21.2957 21.1098 20.3626 21.4013 19.7658C21.6928 19.169 22.1342 19.0414 22.203 19.169C22.203 19.169 22.6037 20.2009 22.9444 20.0062C23.2851 19.8115 23.1951 19.251 22.7664 19.1873C22.7664 19.1873 22.8896 18.5209 23.7012 18.7243C23.7012 18.7243 23.7676 19.2929 24.2796 19.1969C24.5916 19.1384 24.3453 18.5776 24.1142 18.602C24.1142 18.602 26.1387 18.1509 26.5437 18.5171C27.0317 18.9579 26.1539 20.3205 26.1539 20.3205C26.0351 20.1409 25.5473 19.8965 25.4467 20.2514C25.3242 20.6854 25.9541 20.7594 25.9541 20.7594C26.1444 21.4612 25.356 21.5264 25.356 21.5264C25.3065 21.1582 24.6545 21.0487 24.4064 21.3267C24.1579 21.6048 25.344 22.0065 25.344 22.0065C25.4895 22.0723 25.314 22.4402 24.5971 22.6526C23.8803 22.8651 22.6519 22.6445 21.9739 22.0319Z" fill="#8FCD3C"/>
<path d="M26.1358 18.9483C25.9102 19.1318 25.1164 19.7066 24.159 20.3805C23.9153 20.5446 23.6813 20.7021 23.4634 20.8485C23.3544 20.9212 23.249 20.9913 23.1487 21.0579C23.0451 21.1209 22.9466 21.181 22.8539 21.2375C22.483 21.4619 22.2042 21.6255 22.0726 21.6958C22.1914 21.6095 22.4582 21.4323 22.8202 21.1987C22.9105 21.1404 23.0071 21.0784 23.1083 21.0132C23.207 20.9449 23.3108 20.8736 23.4181 20.7993C23.6343 20.6519 23.8669 20.4935 24.1089 20.3283C25.0654 19.6548 25.8816 19.1015 26.1358 18.9483Z" fill="#76A633"/>
<path d="M22.8882 20.3136C22.917 20.3595 22.9548 20.5207 22.9756 20.7136C22.9884 20.8095 22.993 20.8984 22.9989 20.969C23.0041 21.0393 23.0038 21.0928 22.9967 21.1187C22.9814 21.0965 22.9621 21.0454 22.9424 20.9755C22.9226 20.9055 22.9095 20.8169 22.8968 20.7201C22.8759 20.5268 22.8717 20.3645 22.8882 20.3136Z" fill="#76A633"/>
<path d="M23.9889 21.5332C23.9197 21.5241 23.716 21.4472 23.4815 21.3446C23.3627 21.2966 23.2574 21.2447 23.1709 21.2087C23.0853 21.1709 23.0229 21.139 22.9967 21.1187C23.0313 21.1207 23.1014 21.1371 23.1941 21.1643C23.2872 21.19 23.3971 21.2359 23.5174 21.2841C23.7535 21.3877 23.9412 21.4897 23.9889 21.5332Z" fill="#76A633"/>
<path d="M24.8175 20.5758C24.7655 20.5898 24.596 20.5912 24.3959 20.5621C24.2963 20.5468 24.2054 20.5259 24.136 20.4998C24.066 20.4757 24.0209 20.4436 24.004 20.4267C24.0329 20.427 24.0827 20.4422 24.1537 20.4539C24.2234 20.4674 24.3126 20.4808 24.4098 20.4955C24.6048 20.5239 24.7703 20.551 24.8175 20.5758Z" fill="#76A633"/>
<path d="M23.8685 19.7187C23.8946 19.7605 23.9168 19.9027 23.9384 20.07C23.9499 20.1537 23.9604 20.2302 23.9723 20.2902C23.9819 20.3512 23.9966 20.3943 23.9951 20.4189C23.9764 20.4038 23.9415 20.3634 23.9173 20.3025C23.8909 20.2421 23.8715 20.1634 23.8595 20.0778C23.8373 19.9063 23.849 19.7622 23.8685 19.7187Z" fill="#76A633"/>
<path d="M25.3869 18.9104C25.4091 18.9462 25.4235 19.0623 25.4211 19.1996C25.4245 19.3375 25.41 19.4538 25.3881 19.4888C25.3646 19.4548 25.345 19.3386 25.3418 19.2C25.3443 19.0607 25.3635 18.9442 25.3869 18.9104Z" fill="#76A633"/>
<path d="M26.04 19.5007C25.9993 19.5188 25.8616 19.5282 25.6979 19.522C25.5357 19.5111 25.4006 19.4877 25.3622 19.4656C25.4046 19.449 25.5418 19.4437 25.7033 19.4546C25.8645 19.4606 25.9996 19.4797 26.04 19.5007Z" fill="#76A633"/>
<path d="M21.9889 15.8543C21.5714 15.1921 21.719 14.4983 22.0615 14.1079C22.4038 13.7174 22.7542 13.6935 22.7768 13.7976C22.7768 13.7976 22.8461 14.6149 23.1374 14.5261C23.4286 14.4373 23.4842 14.0135 23.1849 13.8995C23.1849 13.8995 23.4192 13.4317 23.9684 13.7079C23.9684 13.7079 23.8937 14.134 24.2887 14.1443C24.5295 14.1505 24.4709 13.702 24.2969 13.6835C24.2969 13.6835 25.8743 13.6718 26.091 14.0032C26.3522 14.4021 25.4153 15.2601 25.4153 15.2601C25.3673 15.1101 25.0637 14.8548 24.9133 15.0985C24.7296 15.3965 25.174 15.5495 25.174 15.5495C25.161 16.0925 24.5707 16.0161 24.5707 16.0161C24.6144 15.7392 24.1615 15.5569 23.9199 15.7209C23.6779 15.8853 24.4578 16.3653 24.4578 16.3653C24.55 16.4363 24.3418 16.6775 23.7717 16.7202C23.2019 16.7628 22.3517 16.4085 21.9889 15.8543Z" fill="#8FCD3C"/>
<path d="M25.6993 14.2548C25.4946 14.3535 24.7897 14.6488 23.9439 14.9909C23.7301 15.0726 23.5251 15.151 23.3339 15.2238C23.2385 15.2597 23.1463 15.2943 23.0586 15.3274C22.9692 15.3572 22.8842 15.3855 22.8042 15.4123C22.4844 15.5181 22.2452 15.5939 22.1338 15.6245C22.2392 15.5801 22.4726 15.4925 22.7879 15.3786C22.8665 15.3502 22.9506 15.3201 23.0386 15.2882C23.1256 15.254 23.2169 15.2181 23.3115 15.1808C23.5016 15.1068 23.7059 15.0276 23.9185 14.945C24.7636 14.6029 25.4803 14.3267 25.6993 14.2548Z" fill="#76A633"/>
<path d="M23.0293 14.7422C23.0403 14.7803 23.0331 14.904 23.0064 15.0484C22.9951 15.1205 22.9791 15.1862 22.9682 15.2386C22.9567 15.2909 22.9449 15.33 22.9341 15.3477C22.9277 15.329 22.9246 15.2887 22.9256 15.2345C22.9262 15.1802 22.9358 15.1134 22.9474 15.0407C22.974 14.8962 23.0061 14.7769 23.0293 14.7422Z" fill="#76A633"/>
<path d="M23.5697 15.8066C23.5211 15.7891 23.389 15.7009 23.2398 15.589C23.1633 15.5353 23.0976 15.4809 23.0422 15.4409C22.9878 15.3997 22.9491 15.3666 22.9343 15.3477C22.9591 15.3547 23.0068 15.3776 23.0687 15.4121C23.1312 15.4455 23.2017 15.4962 23.279 15.5504C23.4292 15.6632 23.5444 15.7673 23.5697 15.8066Z" fill="#76A633"/>
<path d="M24.3829 15.2372C24.3418 15.2391 24.2178 15.2134 24.0778 15.1608C24.0082 15.1341 23.9463 15.1043 23.9012 15.0745C23.8553 15.0458 23.8293 15.0152 23.8206 15.0003C23.8417 15.0051 23.8748 15.024 23.9242 15.0437C23.9722 15.0645 24.0344 15.0882 24.1023 15.1143C24.2386 15.1658 24.3538 15.2115 24.3829 15.2372Z" fill="#76A633"/>
<path d="M23.8749 14.4614C23.8851 14.496 23.8706 14.6034 23.8499 14.7291C23.8402 14.792 23.8314 14.8496 23.8271 14.8953C23.8209 14.9417 23.8222 14.9753 23.8157 14.9932C23.8054 14.9791 23.7887 14.9442 23.7841 14.8957C23.778 14.8475 23.7808 14.7869 23.7907 14.7223C23.8116 14.5936 23.8513 14.49 23.8749 14.4614Z" fill="#76A633"/>
<path d="M25.1599 14.1093C25.1685 14.1389 25.1538 14.226 25.1223 14.326C25.0948 14.4273 25.0591 14.5101 25.0354 14.5322C25.0256 14.5037 25.0365 14.4157 25.0642 14.3139C25.0962 14.2124 25.1355 14.1302 25.1599 14.1093Z" fill="#76A633"/>
<path d="M25.5096 14.6429C25.4759 14.6496 25.3731 14.6349 25.2549 14.6047C25.1386 14.5712 25.0449 14.5329 25.0217 14.5107C25.0563 14.5051 25.1577 14.523 25.2735 14.5563C25.3901 14.586 25.4845 14.6213 25.5096 14.6429Z" fill="#76A633"/>
<path d="M20.5599 18.8357L22.1258 19.1528L22.1409 19.1212L20.5756 18.8042L20.5599 18.8357Z" fill="#51843E"/>
<path d="M21.8808 16.1112C21.7368 16.2205 21.5 16.5582 21.2878 16.9715C21.0755 17.3847 20.9522 17.7476 20.9662 17.8916C21.1099 17.7823 21.3468 17.4445 21.5591 17.0314C21.7717 16.618 21.8946 16.2552 21.8808 16.1112Z" fill="#51843E"/>
<path d="M20.5291 18.7843L21.1313 17.5131L21.1705 17.5208L20.5684 18.792L20.5291 18.7843Z" fill="#51843E"/>
<path d="M22.8157 15.6994C22.6716 15.8087 22.435 16.1464 22.2226 16.5597C22.0103 16.9731 21.887 17.3358 21.9008 17.48C22.0448 17.3705 22.2816 17.0325 22.4938 16.6195C22.7063 16.2063 22.8296 15.8434 22.8157 15.6994Z" fill="#51843E"/>
<path d="M21.4641 18.3732L22.0663 17.1019L22.1054 17.1094L21.5033 18.3809L21.4641 18.3732Z" fill="#51843E"/>
<path d="M22.4268 26.639C21.7479 25.5902 21.9687 24.4826 22.506 23.8555C23.0433 23.2283 23.6011 23.185 23.6392 23.3506C23.6392 23.3506 23.7666 24.6514 24.2287 24.5057C24.6909 24.3598 24.7707 23.6837 24.2912 23.5065C24.2912 23.5065 24.655 22.7579 25.5356 23.1896C25.5356 23.1896 25.4253 23.8697 26.0551 23.8801C26.4386 23.8865 26.3362 23.1726 26.0582 23.1457C26.0582 23.1457 28.5712 23.1036 28.9235 23.6281C29.3478 24.2595 27.873 25.6407 27.873 25.6407C27.7935 25.4024 27.3044 25.0002 27.0699 25.3908C26.7835 25.8683 27.4947 26.1053 27.4947 26.1053C27.4855 26.9703 26.5432 26.8579 26.5432 26.8579C26.6068 26.4161 25.8818 26.1322 25.5001 26.3976C25.1181 26.6628 26.3706 27.4156 26.3706 27.4156C26.5189 27.5274 26.1925 27.915 25.2851 27.9914C24.378 28.0681 23.0162 27.5163 22.4268 26.639Z" fill="#8FCD3C"/>
<path d="M28.3046 24.0339C27.9804 24.1943 26.8637 24.6754 25.5232 25.2336C25.1844 25.3667 24.8592 25.4945 24.5566 25.6134C24.405 25.6721 24.259 25.7287 24.1199 25.7825C23.9781 25.8315 23.8432 25.878 23.7166 25.9218C23.2092 26.0951 22.8295 26.2194 22.6526 26.27C22.8197 26.1977 23.1899 26.0545 23.6896 25.8684C23.8146 25.822 23.9476 25.7726 24.0874 25.7207C24.2252 25.6648 24.3698 25.6061 24.52 25.5452C24.8211 25.4247 25.1447 25.2953 25.4819 25.1604C26.8212 24.6028 27.957 24.152 28.3046 24.0339Z" fill="#76A633"/>
<path d="M24.0613 24.8509C24.0797 24.9113 24.0708 25.1087 24.0315 25.3388C24.0147 25.4538 23.9908 25.5591 23.9742 25.6426C23.9572 25.726 23.939 25.7885 23.9224 25.8169C23.9117 25.7873 23.9061 25.7233 23.9063 25.6368C23.9063 25.5503 23.9202 25.4438 23.937 25.3276C23.9765 25.0968 24.0251 24.9063 24.0613 24.8509Z" fill="#76A633"/>
<path d="M24.9443 26.5386C24.8665 26.5113 24.6539 26.3728 24.414 26.1968C24.291 26.1126 24.1851 26.0267 24.0962 25.9638C24.0087 25.8991 23.9465 25.847 23.9225 25.817C23.9623 25.8277 24.0386 25.8638 24.1376 25.9176C24.2382 25.97 24.3513 26.0497 24.4757 26.1349C24.7174 26.3121 24.9029 26.4762 24.9443 26.5386Z" fill="#76A633"/>
<path d="M26.2279 25.6189C26.1624 25.6227 25.964 25.5837 25.7401 25.502C25.6288 25.4604 25.5295 25.4139 25.457 25.367C25.3834 25.3221 25.3411 25.2738 25.327 25.2501C25.3608 25.2574 25.4139 25.2869 25.4929 25.3176C25.57 25.35 25.6695 25.3871 25.7783 25.4276C25.9965 25.5073 26.1809 25.5788 26.2279 25.6189Z" fill="#76A633"/>
<path d="M25.4027 24.3907C25.4194 24.4456 25.3983 24.6172 25.3682 24.8177C25.3542 24.9181 25.3413 25.0099 25.3352 25.083C25.3263 25.1565 25.3292 25.2104 25.3192 25.2388C25.3025 25.2165 25.275 25.161 25.2671 25.084C25.256 25.0072 25.2593 24.9108 25.2737 24.8079C25.3044 24.6022 25.3655 24.4368 25.4027 24.3907Z" fill="#76A633"/>
<path d="M27.4424 23.8106C27.4565 23.8576 27.4352 23.9965 27.387 24.1562C27.3452 24.3181 27.2903 24.4505 27.2529 24.4863C27.2366 24.4408 27.2522 24.3006 27.2941 24.1379C27.343 23.9757 27.4039 23.8443 27.4424 23.8106Z" fill="#76A633"/>
<path d="M28.0104 24.6558C27.9568 24.667 27.7928 24.6451 27.6039 24.5987C27.4178 24.5472 27.2681 24.4875 27.2303 24.4525C27.2854 24.4433 27.4473 24.47 27.6324 24.5214C27.8186 24.5669 27.9699 24.6215 28.0104 24.6558Z" fill="#76A633"/>
<path d="M11.8164 19.4513C11.9597 19.6398 12.1283 20.158 12.2328 20.7686C12.3374 21.3789 12.3457 21.8952 12.2663 22.0811C12.1228 21.8925 11.9541 21.3739 11.8497 20.7637C11.7451 20.1534 11.7367 19.6369 11.8164 19.4513Z" fill="#51843E"/>
<path d="M10.7144 18.5862C10.8579 18.7747 11.0266 19.293 11.1309 19.9034C11.2356 20.5139 11.2437 21.0301 11.1644 21.2158C11.021 21.0274 10.8522 20.509 10.7478 19.8986C10.6433 19.2882 10.635 18.7718 10.7144 18.5862Z" fill="#51843E"/>
<path d="M14.0261 22.0319C14.8157 21.2957 14.8903 20.3626 14.5987 19.7658C14.3073 19.169 13.8659 19.0414 13.7971 19.169C13.7971 19.169 13.3964 20.2009 13.0557 20.0062C12.7149 19.8115 12.805 19.251 13.2336 19.1873C13.2336 19.1873 13.1104 18.5209 12.2989 18.7243C12.2989 18.7243 12.2325 19.2929 11.7205 19.1969C11.4084 19.1384 11.6547 18.5776 11.8858 18.602C11.8858 18.602 9.8614 18.1509 9.45638 18.5171C8.9684 18.9579 9.8462 20.3205 9.8462 20.3205C9.965 20.1409 10.4528 19.8965 10.5533 20.2514C10.6759 20.6854 10.046 20.7594 10.046 20.7594C9.85565 21.4612 10.6441 21.5264 10.6441 21.5264C10.6935 21.1582 11.3455 21.0487 11.5936 21.3267C11.8421 21.6048 10.6561 22.0065 10.6561 22.0065C10.5105 22.0723 10.6861 22.4402 11.403 22.6526C12.1197 22.8651 13.3482 22.6445 14.0261 22.0319Z" fill="#8FCD3C"/>
<path d="M9.86414 18.9483C10.0897 19.1318 10.8836 19.7066 11.8409 20.3805C12.0847 20.5446 12.3186 20.7021 12.5365 20.8485C12.6455 20.9212 12.7509 20.9913 12.8512 21.0579C12.9548 21.1209 13.0534 21.181 13.146 21.2375C13.5169 21.4619 13.7957 21.6255 13.9273 21.6958C13.8086 21.6095 13.5417 21.4323 13.1797 21.1987C13.0894 21.1404 12.9929 21.0784 12.8917 21.0132C12.7929 20.9449 12.6892 20.8736 12.5818 20.7993C12.3656 20.6519 12.1331 20.4935 11.8911 20.3283C10.9345 19.6548 10.1182 19.1015 9.86414 18.9483Z" fill="#76A633"/>
<path d="M13.112 20.3136C13.0832 20.3595 13.0453 20.5207 13.0245 20.7136C13.0118 20.8095 13.0072 20.8984 13.0013 20.969C12.996 21.0393 12.9963 21.0928 13.0034 21.1187C13.0188 21.0965 13.0381 21.0454 13.0577 20.9755C13.0776 20.9055 13.0906 20.8169 13.1033 20.7201C13.1243 20.5268 13.1285 20.3645 13.112 20.3136Z" fill="#76A633"/>
<path d="M12.0111 21.5332C12.0804 21.5241 12.284 21.4472 12.5185 21.3446C12.6373 21.2966 12.7426 21.2447 12.8291 21.2087C12.9148 21.1709 12.9771 21.139 13.0033 21.1187C12.9688 21.1207 12.8986 21.1371 12.806 21.1643C12.7128 21.19 12.6029 21.2359 12.4827 21.2841C12.2465 21.3877 12.0588 21.4897 12.0111 21.5332Z" fill="#76A633"/>
<path d="M11.1825 20.5758C11.2345 20.5898 11.404 20.5912 11.6041 20.5621C11.7037 20.5468 11.7946 20.5259 11.864 20.4998C11.9339 20.4757 11.9791 20.4436 11.9959 20.4267C11.9671 20.427 11.9172 20.4422 11.8463 20.4539C11.7766 20.4674 11.6874 20.4808 11.5902 20.4955C11.3951 20.5239 11.2297 20.551 11.1825 20.5758Z" fill="#76A633"/>
<path d="M12.1313 19.7187C12.1052 19.7605 12.083 19.9027 12.0615 20.07C12.05 20.1537 12.0394 20.2302 12.0275 20.2902C12.0179 20.3512 12.0032 20.3943 12.0047 20.4189C12.0234 20.4038 12.0584 20.3634 12.0825 20.3025C12.1089 20.2421 12.1283 20.1634 12.1403 20.0778C12.1626 19.9063 12.1508 19.7622 12.1313 19.7187Z" fill="#76A633"/>
<path d="M10.6131 18.9104C10.5909 18.9462 10.5764 19.0623 10.5788 19.1996C10.5755 19.3375 10.59 19.4538 10.6119 19.4888C10.6354 19.4548 10.655 19.3386 10.6582 19.2C10.6557 19.0607 10.6365 18.9442 10.6131 18.9104Z" fill="#76A633"/>
<path d="M9.95996 19.5007C10.0007 19.5188 10.1384 19.5282 10.3021 19.522C10.4643 19.5111 10.5994 19.4877 10.6378 19.4656C10.5954 19.449 10.4582 19.4437 10.2967 19.4546C10.1355 19.4606 10.0004 19.4797 9.95996 19.5007Z" fill="#76A633"/>
<path d="M14.0114 15.8543C14.4289 15.1921 14.2813 14.4983 13.9388 14.1079C13.5965 13.7174 13.2461 13.6935 13.2235 13.7976C13.2235 13.7976 13.1542 14.6149 12.8629 14.5261C12.5717 14.4373 12.5161 14.0135 12.8155 13.8995C12.8155 13.8995 12.5811 13.4317 12.0319 13.7079C12.0319 13.7079 12.1066 14.134 11.7116 14.1443C11.4708 14.1505 11.5293 13.702 11.7034 13.6835C11.7034 13.6835 10.126 13.6718 9.90926 14.0032C9.64806 14.4021 10.585 15.2601 10.585 15.2601C10.6329 15.1101 10.9366 14.8548 11.087 15.0985C11.2707 15.3965 10.8263 15.5495 10.8263 15.5495C10.8392 16.0925 11.4296 16.0161 11.4296 16.0161C11.3859 15.7392 11.8388 15.5569 12.0804 15.7209C12.3224 15.8853 11.5425 16.3653 11.5425 16.3653C11.4503 16.4363 11.6585 16.6775 12.2285 16.7202C12.7984 16.7628 13.6486 16.4085 14.0114 15.8543Z" fill="#8FCD3C"/>
<path d="M10.3007 14.2548C10.5054 14.3535 11.2102 14.6488 12.056 14.9909C12.2698 15.0726 12.475 15.151 12.6661 15.2238C12.7614 15.2597 12.8536 15.2943 12.9413 15.3274C13.0308 15.3572 13.1158 15.3855 13.1957 15.4123C13.5155 15.5181 13.7548 15.5939 13.8662 15.6245C13.7608 15.5801 13.5272 15.4925 13.212 15.3786C13.1334 15.3502 13.0494 15.3201 12.9614 15.2882C12.8743 15.254 12.7831 15.2181 12.6885 15.1808C12.4983 15.1068 12.294 15.0276 12.0814 14.945C11.2363 14.6029 10.5197 14.3267 10.3007 14.2548Z" fill="#76A633"/>
<path d="M12.9705 14.7422C12.9595 14.7803 12.9667 14.904 12.9934 15.0484C13.0048 15.1205 13.0207 15.1862 13.0317 15.2386C13.0431 15.2909 13.055 15.33 13.0657 15.3477C13.0721 15.329 13.0752 15.2887 13.0743 15.2345C13.0737 15.1802 13.064 15.1134 13.0524 15.0407C13.0259 14.8962 12.9938 14.7769 12.9705 14.7422Z" fill="#76A633"/>
<path d="M12.4302 15.8066C12.4787 15.7891 12.6109 15.7009 12.7601 15.589C12.8366 15.5353 12.9023 15.4809 12.9577 15.4409C13.0121 15.3997 13.0508 15.3666 13.0655 15.3477C13.0407 15.3547 12.9929 15.3776 12.9312 15.4121C12.8686 15.4455 12.7981 15.4962 12.7209 15.5504C12.5707 15.6632 12.4555 15.7673 12.4302 15.8066Z" fill="#76A633"/>
<path d="M11.6169 15.2372C11.6581 15.2391 11.7821 15.2134 11.9221 15.1608C11.9916 15.1341 12.0536 15.1043 12.0986 15.0745C12.1445 15.0458 12.1706 15.0152 12.1793 15.0003C12.1582 15.0051 12.1251 15.024 12.0757 15.0437C12.0277 15.0645 11.9655 15.0882 11.8976 15.1143C11.7613 15.1658 11.6461 15.2115 11.6169 15.2372Z" fill="#76A633"/>
<path d="M12.1249 14.4614C12.1148 14.496 12.1293 14.6034 12.1499 14.7291C12.1597 14.792 12.1684 14.8496 12.1727 14.8953C12.179 14.9417 12.1776 14.9753 12.1841 14.9932C12.1944 14.9791 12.2112 14.9442 12.2157 14.8957C12.2218 14.8475 12.219 14.7869 12.2091 14.7223C12.1883 14.5936 12.1485 14.49 12.1249 14.4614Z" fill="#76A633"/>
<path d="M10.8399 14.1093C10.8314 14.1389 10.846 14.226 10.8776 14.326C10.905 14.4273 10.9408 14.5101 10.9645 14.5322C10.9743 14.5037 10.9633 14.4157 10.9357 14.3139C10.9037 14.2124 10.8643 14.1302 10.8399 14.1093Z" fill="#76A633"/>
<path d="M15.471 18.7843L14.8688 17.5131L14.8296 17.5208L15.4317 18.792L15.471 18.7843Z" fill="#51843E"/>
<path d="M13.1844 15.6995C13.3285 15.8088 13.5651 16.1465 13.7774 16.5597C13.9898 16.9731 14.1131 17.3358 14.0993 17.48C13.9553 17.3705 13.7185 17.0326 13.5063 16.6196C13.2938 16.2063 13.1705 15.8434 13.1844 15.6995Z" fill="#51843E"/>
<path d="M14.536 18.3732L13.9338 17.1019L13.8947 17.1094L14.4968 18.3809L14.536 18.3732Z" fill="#51843E"/>
<path d="M13.5733 26.639C14.2523 25.5902 14.0314 24.4826 13.4942 23.8555C12.9569 23.2283 12.3991 23.185 12.361 23.3506C12.361 23.3506 12.2336 24.6514 11.7714 24.5057C11.3093 24.3598 11.2295 23.6837 11.709 23.5065C11.709 23.5065 11.3452 22.7579 10.4646 23.1896C10.4646 23.1896 10.5748 23.8697 9.94506 23.8801C9.56159 23.8865 9.66398 23.1726 9.94196 23.1457C9.94196 23.1457 7.42901 23.1036 7.0767 23.6281C6.65235 24.2595 8.12722 25.6407 8.12722 25.6407C8.20669 25.4024 8.69573 25.0002 8.93023 25.3908C9.21661 25.8683 8.50547 26.1053 8.50547 26.1053C8.5147 26.9703 9.457 26.8579 9.457 26.8579C9.39341 26.4161 10.1183 26.1322 10.5001 26.3976C10.8821 26.6628 9.62949 27.4156 9.62949 27.4156C9.48128 27.5274 9.80766 27.915 10.7151 27.9914C11.6222 28.0681 12.9839 27.5163 13.5733 26.639Z" fill="#8FCD3C"/>
<path d="M7.69531 24.0339C8.0195 24.1943 9.13619 24.6754 10.4767 25.2336C10.8155 25.3667 11.1407 25.4945 11.4434 25.6134C11.5949 25.6721 11.7409 25.7287 11.88 25.7825C12.0218 25.8315 12.1568 25.878 12.2833 25.9218C12.7908 26.0951 13.1705 26.2194 13.3473 26.27C13.1802 26.1977 12.8101 26.0545 12.3103 25.8684C12.1853 25.822 12.0523 25.7726 11.9125 25.7207C11.7747 25.6648 11.6302 25.6061 11.48 25.5452C11.1788 25.4247 10.8552 25.2953 10.518 25.1604C9.17876 24.6028 8.04294 24.152 7.69531 24.0339Z" fill="#76A633"/>
<path d="M11.9387 24.8509C11.9202 24.9113 11.9291 25.1087 11.9685 25.3388C11.9852 25.4538 12.0091 25.5591 12.0258 25.6426C12.0427 25.726 12.0609 25.7885 12.0775 25.8169C12.0882 25.7873 12.0938 25.7233 12.0937 25.6368C12.0937 25.5503 12.0798 25.4438 12.0629 25.3276C12.0234 25.0968 11.9749 24.9063 11.9387 24.8509Z" fill="#76A633"/>
<path d="M11.0558 26.5386C11.1336 26.5113 11.3462 26.3728 11.5861 26.1968C11.7091 26.1126 11.815 26.0267 11.9039 25.9638C11.9914 25.8991 12.0537 25.847 12.0776 25.817C12.0379 25.8277 11.9615 25.8638 11.8625 25.9176C11.7619 25.97 11.6489 26.0497 11.5244 26.1349C11.2827 26.3121 11.0972 26.4762 11.0558 26.5386Z" fill="#76A633"/>
<path d="M9.77222 25.6189C9.8377 25.6227 10.0361 25.5837 10.26 25.502C10.3713 25.4604 10.4706 25.4139 10.5431 25.367C10.6167 25.3221 10.659 25.2738 10.6731 25.2501C10.6393 25.2574 10.5862 25.2869 10.5072 25.3176C10.4301 25.35 10.3306 25.3871 10.2219 25.4276C10.0036 25.5073 9.81918 25.5788 9.77222 25.6189Z" fill="#76A633"/>
<path d="M10.5972 24.3907C10.5805 24.4456 10.6016 24.6172 10.6316 24.8177C10.6457 24.9181 10.6586 25.0099 10.6647 25.083C10.6736 25.1565 10.6707 25.2104 10.6806 25.2388C10.6974 25.2165 10.7249 25.161 10.7328 25.084C10.7438 25.0072 10.7405 24.9108 10.7262 24.8079C10.6955 24.6022 10.6344 24.4368 10.5972 24.3907Z" fill="#76A633"/>
<path d="M8.55764 23.8106C8.5435 23.8576 8.56483 23.9965 8.61307 24.1562C8.65489 24.3181 8.70979 24.4505 8.74715 24.4863C8.76341 24.4408 8.74783 24.3006 8.70594 24.1379C8.65693 23.9757 8.59613 23.8443 8.55764 23.8106Z" fill="#76A633"/>
<path d="M7.98962 24.6558C8.04316 24.667 8.20718 24.6451 8.39608 24.5987C8.58219 24.5472 8.73192 24.4875 8.76965 24.4525C8.7146 24.4433 8.55269 24.47 8.36758 24.5214C8.1814 24.5669 8.03008 24.6215 7.98962 24.6558Z" fill="#76A633"/>
<path d="M13.2034 22.1738C13.2034 22.1738 15.1083 16.7824 11.4595 12.3963C11.4595 12.3963 12.5864 11.1628 15.1889 10.7745L15.9132 11.9396L15.6718 10.6144C15.6718 10.6144 17.4693 9.7921 20.4206 10.4089L20.2595 11.8938L20.823 10.683C20.823 10.683 23.1304 10.8202 24.4987 12.1679C24.4987 12.1679 21.1717 17.5135 22.9022 22.1738C22.9022 22.1738 18.2742 25.0864 13.2034 22.1738Z" fill="#C74F39"/>
<path d="M21.4399 27.6335L21.7004 28.0655C23.2826 27.6013 24.2302 26.9938 24.2302 26.9938L22.3789 22.2154H13.6057L11.9958 27.0167C12.8989 27.4954 13.7811 27.8432 14.632 28.0885L14.8398 27.6335L14.9467 28.1751C17.4417 28.8267 19.6483 28.6011 21.2836 28.1802L21.4399 27.6335Z" fill="#963532"/>
<path d="M24.2302 26.9938L23.7074 25.6449C18.6453 27.6214 13.876 26.2203 12.4365 25.7026L11.9958 27.0167C12.8989 27.4954 13.7811 27.8432 14.632 28.0885L14.8398 27.6335L14.9467 28.1751C17.4417 28.8267 19.6483 28.6011 21.2836 28.1802L21.4399 27.6335L21.7004 28.0655C23.2826 27.6013 24.2302 26.9938 24.2302 26.9938Z" fill="#FBCA3B"/>
<path d="M12.5862 13.2871H13.1764V12.3505H12.5862V13.2871Z" fill="#A14130"/>
<path d="M15.7788 13.333C15.7393 13.2935 15.6697 13.1991 15.5832 13.0688C15.5619 13.036 15.5392 13.0011 15.5153 12.9645C15.4944 12.9267 15.4724 12.8871 15.4497 12.8459C15.4045 12.7634 15.3573 12.6741 15.3094 12.5806C15.129 12.2036 14.9934 11.8834 14.9739 11.7796C15.0465 11.8634 15.2227 12.1718 15.4023 12.5475C15.45 12.6403 15.4944 12.7298 15.5347 12.8135C15.5545 12.8554 15.5736 12.8958 15.5917 12.9343C15.6115 12.9722 15.6304 13.0082 15.648 13.042C15.7179 13.1778 15.7649 13.2815 15.7788 13.333Z" fill="#A14130"/>
<path d="M14.5939 14.2695C14.5439 14.2395 14.4439 14.11 14.3476 13.9461C14.2513 13.7821 14.1896 13.6362 14.1914 13.5842C14.2416 13.6141 14.3414 13.7437 14.4377 13.9077C14.5341 14.0716 14.5958 14.2174 14.5939 14.2695Z" fill="#A14130"/>
<path d="M17.013 12.3965C16.9776 12.3087 16.9296 12.0048 16.919 11.6434C16.9142 11.5536 16.9108 11.467 16.9088 11.3867C16.9081 11.3464 16.9076 11.3076 16.907 11.2706C16.905 11.234 16.903 11.1989 16.9013 11.1662C16.8952 11.0346 16.8966 10.9355 16.9056 10.8887C16.9252 10.932 16.949 11.029 16.9732 11.1609C16.9788 11.194 16.9847 11.2291 16.9911 11.266C16.9945 11.303 16.9982 11.3418 17.0019 11.3822C17.0088 11.463 17.0148 11.55 17.0197 11.6404C17.0304 12.002 17.0354 12.3035 17.013 12.3965Z" fill="#A14130"/>
<path d="M18.7568 13.8354C18.754 13.8168 18.7542 13.7883 18.7568 13.752C18.7586 13.734 18.7607 13.7139 18.763 13.6919C18.7643 13.6699 18.7659 13.6461 18.7676 13.6207C18.778 13.5196 18.7833 13.3918 18.7941 13.2526C18.8034 13.1131 18.8147 12.9841 18.8328 12.8816C18.8489 12.7792 18.8735 12.7039 18.8909 12.6704C18.9023 12.707 18.9029 12.7833 18.905 12.8859C18.9047 12.9882 18.9041 13.1171 18.8947 13.2574C18.8839 13.3981 18.8676 13.5279 18.839 13.6296C18.832 13.6548 18.8255 13.6786 18.8194 13.7004C18.8111 13.7217 18.8032 13.7414 18.7963 13.759C18.7816 13.7937 18.768 13.8198 18.7568 13.8354Z" fill="#A14130"/>
<path d="M19.4543 11.2085C19.432 11.1612 19.4323 11.0072 19.4582 10.8258C19.4836 10.6465 19.5263 10.4977 19.5618 10.4546C19.5843 10.502 19.5839 10.6559 19.5579 10.8374C19.5325 11.0166 19.4897 11.1655 19.4543 11.2085Z" fill="#A14130"/>
<path d="M16.9536 13.8931C16.9191 13.8513 16.8785 13.7011 16.8556 13.5196C16.8327 13.3399 16.8348 13.1868 16.8579 13.1381C16.8923 13.1798 16.9329 13.3299 16.9558 13.5116C16.9787 13.6912 16.9766 13.8443 16.9536 13.8931Z" fill="#A14130"/>
<path d="M20.7422 12.853C20.7447 12.8094 20.7684 12.7187 20.8085 12.598C20.8188 12.5679 20.8299 12.5359 20.8416 12.5023C20.8557 12.4695 20.8707 12.4352 20.8861 12.3997C20.9177 12.3285 20.9529 12.2527 20.9908 12.1739C21.0286 12.0957 21.0659 12.0211 21.1018 11.9521C21.1202 11.9177 21.1378 11.8846 21.1546 11.853C21.1699 11.821 21.1845 11.7908 21.1983 11.7622C21.2544 11.6483 21.3022 11.5646 21.3324 11.528C21.3299 11.5717 21.306 11.6625 21.2661 11.7832C21.2558 11.8134 21.2446 11.8454 21.233 11.8789C21.2187 11.9117 21.2039 11.9459 21.1885 11.9815C21.1569 12.0526 21.1217 12.1285 21.0838 12.2073C21.046 12.2854 21.0087 12.3599 20.9727 12.4291C20.9544 12.4635 20.9368 12.4967 20.92 12.5283C20.9046 12.5601 20.89 12.5905 20.8763 12.619C20.8202 12.7328 20.7725 12.8166 20.7422 12.853Z" fill="#A14130"/>
<path d="M23.1569 12.8076C23.16 12.7759 23.1801 12.7106 23.2211 12.6291C23.2607 12.5468 23.3184 12.4477 23.3825 12.3418C23.4443 12.2351 23.5043 12.1388 23.5445 12.0594C23.5556 12.0398 23.566 12.0214 23.5756 12.0044C23.5842 11.9871 23.5921 11.9713 23.5992 11.9571C23.6144 11.9288 23.6283 11.9072 23.6398 11.894C23.6424 11.9098 23.6417 11.9343 23.6381 11.9661C23.6362 11.982 23.6336 11.9998 23.6302 12.0191C23.6248 12.038 23.6189 12.0583 23.6125 12.0801C23.5879 12.1681 23.5354 12.2718 23.4723 12.3806C23.4072 12.4883 23.3401 12.5832 23.2851 12.6574C23.2287 12.7313 23.1864 12.786 23.1569 12.8076Z" fill="#A14130"/>
<path d="M21.6276 14.1328C21.622 14.1073 21.6282 14.0556 21.6449 13.9872C21.652 13.9526 21.6649 13.9151 21.6829 13.8756C21.6998 13.8358 21.719 13.7932 21.741 13.7496C21.8372 13.5787 21.9517 13.4525 22.0032 13.4245C22.0011 13.4782 21.9255 13.6203 21.8324 13.7859C21.8112 13.828 21.7903 13.8682 21.7693 13.9051C21.7475 13.9418 21.7283 13.9762 21.7131 14.0072C21.6804 14.0688 21.65 14.1138 21.6276 14.1328Z" fill="#A14130"/>
<path d="M13.8739 24.3213C13.8578 24.2525 13.8775 24.0348 13.9263 23.7795C13.9677 23.5225 14.0227 23.3089 14.0619 23.2477C14.0802 23.3154 14.0675 23.5341 14.026 23.7917C13.977 24.0491 13.9148 24.2619 13.8739 24.3213Z" fill="#7B2C2A"/>
<path d="M15.0008 25.646C14.9855 25.5561 15.0091 25.2589 15.0634 24.9074C15.1251 24.5585 15.198 24.268 15.2423 24.1839C15.2557 24.2747 15.2249 24.5707 15.163 24.9204C15.1091 25.2693 15.0434 25.5604 15.0008 25.646Z" fill="#7B2C2A"/>
<path d="M18.0326 25.395C18.0045 25.2706 17.9858 24.8522 17.9889 24.3553C17.9874 24.2312 17.9872 24.1121 17.9881 24.0011C17.9891 23.9458 17.9899 23.8923 17.9906 23.8415C17.9902 23.7906 17.9898 23.7422 17.9894 23.6969C17.9891 23.5151 17.9946 23.3793 18.0058 23.3162C18.0235 23.3775 18.0431 23.5126 18.0616 23.6947C18.0657 23.7403 18.0701 23.7887 18.0748 23.8397C18.0769 23.8907 18.0791 23.9443 18.0813 23.9998C18.0853 24.1111 18.0881 24.2308 18.0896 24.3553C18.0865 24.8533 18.0625 25.2704 18.0326 25.395Z" fill="#7B2C2A"/>
<path d="M21.7886 24.9834C21.7404 24.9264 21.6553 24.7215 21.5697 24.4717C21.485 24.2207 21.4549 24.0003 21.4667 23.9327C21.5121 23.992 21.5828 24.1996 21.6666 24.4483C21.7522 24.6975 21.7969 24.9148 21.7886 24.9834Z" fill="#7B2C2A"/>
<path d="M22.218 23.4531C22.1626 23.3889 22.054 23.1591 21.9344 22.8785C21.9074 22.8071 21.8829 22.7382 21.8612 22.6738C21.8508 22.6416 21.8406 22.6106 21.831 22.581C21.8248 22.5506 21.819 22.5215 21.8136 22.4942C21.7931 22.3849 21.7842 22.3035 21.7888 22.2652C21.8128 22.2995 21.8465 22.3762 21.8836 22.4793C21.8925 22.505 21.902 22.5325 21.912 22.5615C21.9242 22.5899 21.937 22.6198 21.9504 22.6507C21.9764 22.7129 22.0031 22.78 22.0295 22.8505C22.1487 23.1294 22.2187 23.3757 22.218 23.4531Z" fill="#7B2C2A"/>
<path d="M17.8309 26.666C17.797 26.6654 17.7637 26.6647 17.7299 26.6638C17.7122 26.3863 17.7143 26.1514 17.7374 26.08C17.7717 26.1493 17.8122 26.3828 17.8309 26.666Z" fill="#7B2C2A"/>
<path d="M17.7643 27.2681C17.7525 27.231 17.7457 27.153 17.7445 27.0498C17.7445 27.024 17.7443 26.9966 17.7441 26.9678C17.7423 26.9388 17.7401 26.9084 17.7381 26.8769C17.7344 26.8139 17.7319 26.7463 17.7306 26.6757C17.7304 26.6718 17.7302 26.668 17.7299 26.664C17.7637 26.6649 17.7969 26.6656 17.8309 26.6662C17.831 26.6682 17.8311 26.6702 17.8313 26.6721C17.8327 26.7438 17.8326 26.8128 17.8313 26.8768C17.8304 26.9088 17.8294 26.9396 17.8284 26.969C17.8254 26.9983 17.8206 27.0263 17.8166 27.0525C17.7998 27.1572 17.7813 27.234 17.7643 27.2681Z" fill="#CEA732"/>
<path d="M22.6473 27.1084C22.6098 27.0855 22.5545 26.9917 22.5231 26.8687C22.4936 26.7444 22.5139 26.6356 22.54 26.6058C22.5721 26.6371 22.5942 26.735 22.6219 26.8517C22.6519 26.9684 22.6656 27.0719 22.6473 27.1084Z" fill="#CEA732"/>
<path d="M13.7934 27.291C13.7714 27.245 13.7731 27.0944 13.8011 26.9172C13.8378 26.7425 13.8898 26.5991 13.9275 26.5599C13.9469 26.6081 13.9371 26.7572 13.9004 26.9313C13.8733 27.1051 13.8293 27.249 13.7934 27.291Z" fill="#CEA732"/>
<path d="M15.618 18.2676C15.5754 18.1915 15.5045 17.9274 15.4576 17.6066C15.4486 17.5261 15.4415 17.4486 15.4362 17.3766C15.4338 17.3405 15.4315 17.3059 15.4294 17.2727C15.4291 17.2395 15.4303 17.2079 15.4311 17.1783C15.4352 17.0593 15.4441 16.9713 15.457 16.9311C15.4732 16.9713 15.4895 17.0586 15.5032 17.1751C15.5065 17.2043 15.5098 17.2353 15.5135 17.2679C15.5184 17.3005 15.5237 17.3345 15.529 17.3701C15.5393 17.441 15.5488 17.5173 15.5578 17.5968C15.6041 17.9145 15.6327 18.184 15.618 18.2676Z" fill="#A14130"/>
<path d="M18.113 19.4326C18.0768 19.3693 18.0313 19.1508 18.0025 18.8883C17.9735 18.6259 17.9705 18.4039 17.9922 18.336C18.0285 18.3995 18.074 18.6179 18.1027 18.8802C18.1316 19.1424 18.1347 19.3644 18.113 19.4326Z" fill="#A14130"/>
<path d="M20.6483 18.1304C20.6122 18.0544 20.5666 17.7943 20.5378 17.4826C20.5089 17.1712 20.5059 16.9081 20.5276 16.8283C20.5638 16.9043 20.6094 17.1644 20.6383 17.4759C20.6672 17.7873 20.6701 18.0503 20.6483 18.1304Z" fill="#A14130"/>
<path d="M20.0448 16.0059C20.0157 15.9401 19.9944 15.72 19.9944 15.4577C19.9944 15.1953 20.0157 14.9751 20.0448 14.9094C20.0739 14.9751 20.0952 15.1953 20.0952 15.4577C20.0952 15.72 20.0739 15.9401 20.0448 16.0059Z" fill="#A14130"/>
<path d="M16.2619 15.6631C16.2222 15.6332 16.153 15.508 16.1224 15.348C16.1122 15.2679 16.1031 15.194 16.1108 15.1346C16.1171 15.0753 16.1275 15.0317 16.1412 15.012C16.1566 15.0318 16.1712 15.0744 16.1829 15.131C16.193 15.1876 16.2124 15.2578 16.222 15.3348C16.2513 15.4879 16.277 15.6165 16.2619 15.6631Z" fill="#A14130"/>
<path d="M14.2898 18.0957C14.2602 18.0463 14.2369 17.8815 14.2344 17.6854C14.2176 17.4909 14.225 17.3258 14.2496 17.2733C14.2826 17.3191 14.3182 17.484 14.3352 17.6827C14.3377 17.8803 14.3183 18.0464 14.2898 18.0957Z" fill="#A14130"/>
<path d="M21.9765 17.9932C21.9468 17.9315 21.9235 17.7253 21.921 17.4797C21.9042 17.2359 21.9114 17.0293 21.9362 16.9651C21.9693 17.0239 22.0049 17.2302 22.0218 17.4776C22.0243 17.7243 22.0049 17.9316 21.9765 17.9932Z" fill="#A14130"/>
<path d="M17 14.8614L16.9826 17.3283C16.9826 17.3283 16.4895 17.3457 16.3437 17.5512C16.1979 17.7568 17.3402 18.7515 17.9783 18.7857C18.6162 18.8199 19.6282 17.8425 19.6266 17.5855C19.6251 17.3285 18.981 17.2579 18.981 17.2579L18.9659 14.9748L17 14.8614Z" fill="#A8E2DA"/>
<path d="M12.9979 16.32C12.9979 16.32 14.2029 15.5151 16.4678 15.5882C16.4678 15.5882 16.8473 17.2348 15.0635 17.5092C13.2797 17.7836 12.9979 16.32 12.9979 16.32Z" fill="#FBCA3B"/>
<path d="M13.8483 16.5662C13.8483 16.5662 14.6071 16.1401 15.733 16.1551C15.733 16.1551 15.7483 16.8771 15.0152 16.983C14.0772 17.1184 13.8483 16.5662 13.8483 16.5662Z" fill="#522B25"/>
<path d="M17.4288 15.0368C17.4288 15.0368 17.2613 18.1304 17.9789 18.1304C18.6966 18.1304 18.5557 15.0368 18.5557 15.0368C18.5557 15.0368 17.86 14.873 17.4288 15.0368Z" fill="#76D0BB"/>
<path d="M14.0482 17.8734L15.7329 17.6507V18.1304L14.1489 18.2847L14.0482 17.8734Z" fill="white"/>
<path d="M22.9643 16.32C22.9643 16.32 21.7594 15.5151 19.4945 15.5882C19.4945 15.5882 19.115 17.2348 20.8988 17.5092C22.6827 17.7836 22.9643 16.32 22.9643 16.32Z" fill="#FBCA3B"/>
<path d="M22.1142 16.5662C22.1142 16.5662 21.3553 16.1401 20.2294 16.1551C20.2294 16.1551 20.2142 16.8771 20.9473 16.983C21.8852 17.1184 22.1142 16.5662 22.1142 16.5662Z" fill="#522B25"/>
<path d="M21.9141 17.8734L20.2294 17.6507V18.1304L21.8135 18.2847L21.9141 17.8734Z" fill="white"/>
<path d="M17.4888 21.1151C17.4888 21.1151 16.5021 23.853 16.5839 24.0929C16.6655 24.3327 19.3565 24.4125 19.5271 24.0072C19.6208 23.7844 18.7796 21.1151 18.7796 21.1151C18.7796 21.1151 18.0051 20.7724 17.4888 21.1151Z" fill="#A8E2DA"/>
<path d="M19.3024 21.4765C19.3024 21.4765 19.8945 23.6163 20.0425 23.7609C20.1907 23.9058 21.765 23.2767 21.6912 22.9537C21.6506 22.7762 20.0412 21.1484 20.0412 21.1484C20.0412 21.1484 19.4532 21.1088 19.3024 21.4765Z" fill="#A8E2DA"/>
<path d="M16.9287 21.5224C16.9287 21.5224 16.3367 23.6621 16.1886 23.8068C16.0404 23.9517 14.4661 23.3227 14.5399 22.9996C14.5803 22.822 16.1898 21.1943 16.1898 21.1943C16.1898 21.1943 16.7779 21.1548 16.9287 21.5224Z" fill="#A8E2DA"/>
<path d="M23.1835 24.2915C23.1835 24.2915 23.5998 24.5378 23.6803 25.2346L21.8559 25.9999C21.8559 25.9999 21.6001 26.6709 21.4359 26.7645C21.2717 26.858 19.7342 27.479 19.7342 27.479L19.4275 27.0595L20.5899 26.4733L19.2691 26.8594L19.109 26.4296L20.4595 25.9517L19.0631 26.1569L18.8605 25.7311L20.3474 25.317L20.1509 25.1383L19.344 25.3052C19.344 25.3052 18.9668 24.9872 19.1759 24.6936L20.2896 24.5072L21.2254 24.9263L23.1835 24.2915Z" fill="#C74F39"/>
<path d="M23.1302 24.5266C23.1302 24.5266 23.4387 24.8578 23.4254 25.1434L21.6936 25.7944L21.1985 25.6803L21.4399 25.2119L23.1302 24.5266Z" fill="#A8E2DA"/>
<path d="M12.8939 24.2915C12.8939 24.2915 12.4776 24.5378 12.3971 25.2346L14.2216 25.9999C14.2216 25.9999 14.4774 26.6709 14.6416 26.7645C14.8058 26.858 16.3434 27.479 16.3434 27.479L16.65 27.0595L15.4875 26.4733L16.8084 26.8594L16.9684 26.4296L15.6179 25.9517L17.0144 26.1569L17.217 25.7311L15.7301 25.317L15.9266 25.1383L16.7334 25.3052C16.7334 25.3052 17.1107 24.9872 16.9017 24.6936L15.7878 24.5072L14.852 24.9263L12.8939 24.2915Z" fill="#C74F39"/>
<path d="M12.9474 24.5266C12.9474 24.5266 12.6388 24.8578 12.6522 25.1434L14.3839 25.7944L14.879 25.6803L14.6376 25.2119L12.9474 24.5266Z" fill="#A8E2DA"/>
<path d="M12.3782 14.5839C12.3782 14.5839 12.68 15.4406 13.0019 15.9375C13.0019 15.9375 18.0929 13.9671 23.2442 15.9375C23.2442 15.9375 23.6668 15.235 23.8076 14.4297C23.8076 14.4297 18.2481 12.3354 12.3782 14.5839Z" fill="#FBCA3B"/>
<path d="M14.143 14.8839C14.1391 15.0075 13.9863 15.1043 13.8411 15.101C13.6958 15.0977 13.5492 14.9941 13.5531 14.8705C13.5571 14.747 13.7109 14.6181 13.8561 14.6216C14.0013 14.6248 14.1469 14.7604 14.143 14.8839Z" fill="#F57830"/>
<path d="M15.3023 14.5836C15.2983 14.7073 15.1455 14.804 15.0003 14.8007C14.855 14.7975 14.7084 14.6939 14.7122 14.5701C14.7162 14.4468 14.8701 14.3179 15.0152 14.3212C15.1604 14.3245 15.3061 14.4601 15.3023 14.5836Z" fill="#F57830"/>
<path d="M16.3957 14.4043C16.3918 14.528 16.2389 14.6248 16.0937 14.6215C15.9484 14.6182 15.802 14.5146 15.8057 14.3909C15.8097 14.2675 15.9636 14.1386 16.1087 14.142C16.2539 14.1453 16.3997 14.2808 16.3957 14.4043Z" fill="#F57830"/>
<path d="M17.5236 14.3437C17.5197 14.4674 17.3669 14.5642 17.2217 14.561C17.0764 14.5577 16.9298 14.454 16.9337 14.3304C16.9376 14.2069 17.0915 14.0781 17.2367 14.0814C17.3819 14.0847 17.5275 14.2203 17.5236 14.3437Z" fill="#F57830"/>
<path d="M18.5196 14.3437C18.5157 14.4674 18.3629 14.5642 18.2177 14.561C18.0724 14.5577 17.9259 14.454 17.9296 14.3304C17.9336 14.2069 18.0875 14.0781 18.2326 14.0814C18.3778 14.0847 18.5236 14.2203 18.5196 14.3437Z" fill="#F57830"/>
<path d="M19.6267 14.3437C19.6228 14.4674 19.4699 14.5642 19.3247 14.561C19.1795 14.5577 19.0328 14.454 19.0367 14.3304C19.0406 14.2069 19.1945 14.0781 19.3397 14.0814C19.4849 14.0847 19.6306 14.2203 19.6267 14.3437Z" fill="#F57830"/>
<path d="M20.6617 14.4043C20.6578 14.528 20.505 14.6248 20.3598 14.6215C20.2145 14.6182 20.0679 14.5146 20.0717 14.3909C20.0756 14.2675 20.2296 14.1386 20.3747 14.142C20.5199 14.1453 20.6656 14.2808 20.6617 14.4043Z" fill="#F57830"/>
<path d="M21.7619 14.5836C21.758 14.7073 21.6052 14.804 21.46 14.8007C21.3147 14.7975 21.1681 14.6938 21.1719 14.5702C21.1759 14.4467 21.3298 14.3179 21.475 14.3213C21.6202 14.3245 21.7658 14.4601 21.7619 14.5836Z" fill="#F57830"/>
<path d="M22.8008 14.8738C22.8027 14.9976 22.6545 15.0994 22.5092 15.1011C22.3639 15.1027 22.2126 15.004 22.2107 14.8803C22.2088 14.7568 22.3566 14.6229 22.5019 14.6214C22.647 14.6198 22.7989 14.7503 22.8008 14.8738Z" fill="#F57830"/>
<path d="M22.4948 9.96112L22.7657 10.0189L22.6856 9.69378C22.8503 9.48233 23.028 9.29521 23.2033 9.13289L23.3769 9.29856L23.3998 8.95969C23.8683 8.56699 24.2693 8.36358 24.2693 8.36358C24.129 8.53537 24.2328 8.90071 24.1368 9.22207L23.8726 9.46526L24.1388 9.48284C24.1391 9.72545 24.1316 9.99885 24.0927 10.3032L23.7837 10.4553L24.0385 10.6338C24.0323 10.6651 24.0272 10.6959 24.0201 10.7275C23.7539 11.9595 22.1183 12.6958 22.1183 12.6958C21.7634 11.5762 22.038 10.6589 22.4948 9.96112Z" fill="#FBCA3B"/>
<path d="M23.5451 9.48758C23.4566 9.6407 23.2268 10.1692 22.9441 10.7976C22.8775 10.9563 22.8134 11.1084 22.754 11.2501C22.7249 11.3211 22.6971 11.3895 22.6706 11.4546C22.6473 11.5209 22.6253 11.5838 22.6045 11.643C22.5233 11.8803 22.4679 12.0576 22.4492 12.1406C22.4908 12.0632 22.5661 11.8912 22.6609 11.6589C22.6845 11.6007 22.7094 11.539 22.7357 11.474C22.7646 11.4096 22.7947 11.3422 22.8261 11.2719C22.8874 11.1312 22.9532 10.98 23.0217 10.8224C23.3044 10.194 23.5022 9.65261 23.5451 9.48758Z" fill="#D7A628"/>
<path d="M23.5235 11.1346C23.4714 11.1297 23.3155 11.1646 23.1401 11.2205C23.0959 11.2329 23.0537 11.2447 23.0146 11.257C22.9756 11.2695 22.9398 11.2822 22.9072 11.2888C22.8425 11.3053 22.7938 11.322 22.7716 11.3358C22.7958 11.3422 22.8484 11.3431 22.9199 11.3382C22.9563 11.3372 22.9948 11.3291 23.0362 11.3196C23.0776 11.3102 23.1223 11.2998 23.1679 11.2868C23.3467 11.23 23.4873 11.168 23.5235 11.1346Z" fill="#D7A628"/>
<path d="M22.5997 10.6406C22.5862 10.6856 22.6022 10.8289 22.6422 10.9964C22.6843 11.1623 22.7376 11.2983 22.7717 11.3359C22.7844 11.2905 22.7654 11.1477 22.7229 10.9812C22.6837 10.8157 22.6333 10.6791 22.5997 10.6406Z" fill="#D7A628"/>
<path d="M23.7815 10.0002C23.7428 9.9928 23.6368 10.0173 23.5188 10.0627C23.4019 10.1047 23.3099 10.1531 23.2872 10.1831C23.3241 10.1919 23.4324 10.1703 23.5532 10.1269C23.6701 10.0818 23.7614 10.0302 23.7815 10.0002Z" fill="#D7A628"/>
<path d="M23.2227 9.67085C23.2032 9.70169 23.1995 9.79988 23.216 9.91488C23.2405 10.0299 23.2796 10.1234 23.3088 10.1465C23.3258 10.1129 23.3217 10.0163 23.298 9.9049C23.2817 9.79106 23.2507 9.69731 23.2227 9.67085Z" fill="#D7A628"/>
<path d="M13.8915 10.0172L13.6206 10.075L13.7008 9.74993C13.5361 9.53848 13.3582 9.35136 13.183 9.18911L13.0094 9.35465L12.9864 9.01577C12.5181 8.62314 12.1168 8.4198 12.1168 8.4198C12.2572 8.59146 12.1535 8.9568 12.2494 9.27822L12.5136 9.52148L12.2474 9.53899C12.2471 9.78167 12.2546 10.0549 12.2935 10.3594L12.6026 10.5114L12.3478 10.6899C12.354 10.7212 12.359 10.7521 12.3661 10.7837C12.6324 12.0156 14.2679 12.752 14.2679 12.752C14.6229 11.6324 14.3482 10.715 13.8915 10.0172Z" fill="#FBCA3B"/>
<path d="M12.8408 9.5438C12.9294 9.69672 13.1591 10.2254 13.4419 10.8539C13.5085 11.0124 13.5725 11.1646 13.632 11.3062C13.661 11.3772 13.6888 11.4456 13.7154 11.5108C13.7385 11.577 13.7607 11.6399 13.7815 11.6992C13.8627 11.9364 13.9181 12.1138 13.9368 12.1968C13.8952 12.1193 13.8199 11.9473 13.7251 11.715C13.7015 11.6569 13.6765 11.5951 13.6502 11.5302C13.6214 11.4658 13.5913 11.3982 13.5599 11.3281C13.4987 11.1874 13.4328 11.0361 13.3643 10.8785C13.0815 10.2503 12.8839 9.70883 12.8408 9.5438Z" fill="#D7A628"/>
<path d="M12.8625 11.1902C12.9147 11.1854 13.0706 11.2203 13.246 11.2761C13.2902 11.2885 13.3324 11.3004 13.3715 11.3127C13.4106 11.3252 13.4463 11.3379 13.4789 11.3445C13.5436 11.361 13.5923 11.3777 13.6145 11.3914C13.5903 11.3979 13.5378 11.3988 13.4662 11.3937C13.4298 11.3928 13.3913 11.3847 13.3498 11.3752C13.3085 11.3658 13.2637 11.3554 13.2183 11.3425C13.0393 11.2856 12.8988 11.2236 12.8625 11.1902Z" fill="#D7A628"/>
<path d="M13.7866 10.6963C13.8002 10.7413 13.7841 10.8845 13.7442 11.0521C13.7019 11.2181 13.6486 11.3539 13.6146 11.3916C13.6019 11.3462 13.621 11.2034 13.6633 11.037C13.7027 10.8714 13.7531 10.7349 13.7866 10.6963Z" fill="#D7A628"/>
<path d="M12.6045 10.0559C12.6431 10.0484 12.7491 10.073 12.8671 10.1184C12.984 10.1604 13.0761 10.2089 13.0987 10.2388C13.0617 10.2476 12.9536 10.2259 12.8328 10.1825C12.7158 10.1375 12.6245 10.0859 12.6045 10.0559Z" fill="#D7A628"/>
<path d="M13.1633 9.72694C13.1829 9.75778 13.1866 9.85597 13.1701 9.97097C13.1456 10.086 13.1065 10.1795 13.0773 10.2026C13.0604 10.169 13.0642 10.0724 13.0881 9.96092C13.1044 9.84709 13.1354 9.7534 13.1633 9.72694Z" fill="#D7A628"/>
<path d="M19.2457 8.56178L18.8988 8.52186L19.1694 8.17507C19.0928 7.86362 18.9877 7.57542 18.8721 7.31723L18.5797 7.4415L18.7376 7.03778C18.4064 6.39545 18.05 6.00004 18.05 6.00004C18.1199 6.25553 17.7999 6.63993 17.7364 7.05208L17.9113 7.43976L17.5919 7.35509C17.4594 7.63756 17.319 7.95872 17.1983 8.32844L17.4755 8.62778L17.0815 8.73505C17.0715 8.77388 17.0605 8.8118 17.0516 8.85153C16.6901 10.3914 18.1935 11.895 18.1935 11.895C19.217 10.7317 19.3973 9.55484 19.2457 8.56178Z" fill="#FBCA3B"/>
<path d="M18.2804 7.5955C18.3001 7.80869 18.2795 8.51502 18.2662 9.35857C18.2574 9.56963 18.249 9.77213 18.2411 9.96053C18.2361 10.0547 18.2312 10.1454 18.2267 10.2318C18.2175 10.3181 18.209 10.4002 18.2009 10.4774C18.1661 10.7857 18.134 11.0141 18.1106 11.1182C18.1043 11.0114 18.1104 10.7814 18.1265 10.4734C18.1308 10.3965 18.1354 10.3145 18.1401 10.2285C18.1417 10.1421 18.1433 10.0517 18.1451 9.95757C18.1505 9.76949 18.1564 9.56738 18.1623 9.35683C18.1757 8.51335 18.2406 7.80469 18.2804 7.5955Z" fill="#D7A628"/>
<path d="M17.408 9.52128C17.4713 9.53628 17.6339 9.63846 17.8078 9.7729C17.8524 9.80478 17.8951 9.83523 17.9339 9.86498C17.9727 9.89498 18.0073 9.92396 18.0417 9.94456C18.1081 9.98925 18.1555 10.0278 18.1741 10.0527C18.1423 10.0507 18.0806 10.031 18 9.99691C17.958 9.98139 17.9177 9.9568 17.8746 9.92924C17.8315 9.902 17.7852 9.87225 17.7392 9.83922C17.5619 9.70221 17.4319 9.57446 17.408 9.52128Z" fill="#D7A628"/>
<path d="M18.7532 9.31092C18.7446 9.36887 18.6476 9.52932 18.5098 9.70852C18.3702 9.88526 18.234 10.0223 18.174 10.0527C18.1839 9.99472 18.2838 9.83607 18.424 9.65907C18.56 9.48168 18.6932 9.34273 18.7532 9.31092Z" fill="#D7A628"/>
<path d="M17.726 8.09842C17.775 8.10512 17.885 8.17549 17.9977 8.2751C18.1109 8.37007 18.1917 8.46286 18.2017 8.50684C18.154 8.50246 18.0396 8.4344 17.9227 8.33614C17.811 8.2375 17.7328 8.14124 17.726 8.09842Z" fill="#D7A628"/>
<path d="M18.556 7.93557C18.5621 7.97916 18.5129 8.09506 18.431 8.22242C18.3396 8.34675 18.2432 8.44018 18.1967 8.45557C18.1952 8.40972 18.2525 8.29885 18.3411 8.17844C18.4219 8.05243 18.5092 7.95534 18.556 7.93557Z" fill="#D7A628"/>
<path d="M19.2207 11.821C19.2207 11.9582 18.4158 12.6948 18.2648 12.6948C18.0535 12.6948 17.2285 12.0267 17.2285 11.821C17.2285 11.6497 18.0334 10.9473 18.2648 10.9473C18.4559 10.9473 19.2207 11.6326 19.2207 11.821Z" fill="#A8E2DA"/>
<path d="M22.8128 12.8886C22.7746 12.9924 21.9605 13.3882 21.8463 13.3577C21.6864 13.3151 21.2474 12.6431 21.3045 12.4875C21.3521 12.3579 22.1566 11.988 22.3317 12.0346C22.4764 12.0732 22.8651 12.746 22.8128 12.8886Z" fill="#A8E2DA"/>
<path d="M13.4134 12.998C13.4516 13.1017 14.2655 13.4975 14.3798 13.4671C14.5397 13.4245 14.9787 12.7525 14.9216 12.5969C14.874 12.4672 14.0695 12.0974 13.8944 12.144C13.7497 12.1825 13.3611 12.8553 13.4134 12.998Z" fill="#A8E2DA"/>
<path d="M18.8104 11.821C18.8104 11.9016 18.337 12.335 18.2482 12.335C18.1239 12.335 17.6387 11.9419 17.6387 11.821C17.6387 11.7202 18.1121 11.3069 18.2482 11.3069C18.3608 11.3069 18.8104 11.7101 18.8104 11.821Z" fill="#76D0BB"/>
<path d="M22.5021 12.8061C22.4797 12.8672 22.001 13.1 21.9337 13.082C21.8395 13.057 21.5814 12.6617 21.6151 12.5702C21.643 12.4938 22.1163 12.2762 22.2193 12.3037C22.3044 12.3264 22.5329 12.7221 22.5021 12.8061Z" fill="#76D0BB"/>
<path d="M13.7238 12.9155C13.7463 12.9766 14.225 13.2094 14.2922 13.1914C14.3864 13.1664 14.6444 12.7711 14.6109 12.6796C14.5829 12.6033 14.1098 12.3856 14.0066 12.4131C13.9215 12.4358 13.6931 12.8315 13.7238 12.9155Z" fill="#76D0BB"/>
<path d="M17.7479 21.0456C17.7479 21.0456 17.2119 23.2295 17.2564 23.3599C17.3008 23.4904 18.7646 23.5338 18.8572 23.3134C18.9083 23.1922 18.4499 21.0456 18.4499 21.0456C18.4499 21.0456 18.0288 20.8592 17.7479 21.0456Z" fill="#76D0BB"/>
<path d="M19.6332 21.5772C19.6332 21.5772 20.0668 22.9545 20.1363 23.0179C20.2058 23.0815 21.0554 22.7469 21.0337 22.5986C21.0218 22.5169 20.0336 21.4049 20.0336 21.4049C20.0336 21.4049 19.7302 21.402 19.6332 21.5772Z" fill="#76D0BB"/>
<path d="M16.6375 21.5772C16.6375 21.5772 16.2039 22.9545 16.1344 23.0179C16.0648 23.0815 15.2152 22.7469 15.237 22.5986C15.2489 22.5169 16.2371 21.4049 16.2371 21.4049C16.2371 21.4049 16.5405 21.402 16.6375 21.5772Z" fill="#76D0BB"/>
<path d="M18.0357 20.8206C18.1628 20.8206 18.8269 20.8575 19.6703 21.5517C19.7346 21.6046 19.9311 21.6665 20.2733 21.6665C20.8332 21.6665 21.4302 21.5068 21.586 21.4095C21.7482 21.0729 21.939 19.5302 21.8852 19.0627C21.6677 19.0066 21.1552 18.9424 20.6573 18.9424C20.3088 18.9424 20.1531 18.9743 20.1023 18.988C19.9872 19.019 19.8735 19.1001 19.7296 19.2025C19.3958 19.4403 18.9387 19.7658 18.0311 19.7658C17.1234 19.7658 16.6663 19.4403 16.3326 19.2025C16.1888 19.1001 16.075 19.019 15.96 18.988C15.9092 18.9743 15.7534 18.9424 15.4051 18.9424C14.9071 18.9424 14.3944 19.0066 14.1772 19.0627C14.1231 19.5306 14.3143 21.0754 14.4767 21.4104C14.6193 21.4989 15.1926 21.654 15.7755 21.654C16.1265 21.654 16.3325 21.5948 16.4083 21.5391C17.3187 20.8723 17.8759 20.8205 18.0249 20.8205L18.0357 20.8206ZM20.238 22.1025C19.7522 22.1025 19.3902 22.0204 19.1619 21.8584C18.4846 21.3779 17.9872 21.368 17.9823 21.368L17.9649 21.3684C17.9041 21.3726 17.4947 21.4182 16.7797 21.8694C16.5461 22.0169 16.1849 22.0917 15.7064 22.0917C15.1437 22.0917 14.2021 21.9682 13.8706 21.6934C13.8027 21.6371 13.5963 21.4661 13.4307 20.2861C13.2628 19.0885 13.4319 18.8906 13.4954 18.8161C13.5922 18.7027 13.7608 18.6192 14.3015 18.553C14.6219 18.5139 14.998 18.4913 15.3331 18.4913C15.6563 18.4913 15.9091 18.5121 16.0849 18.553C16.3286 18.6094 16.5152 18.7241 16.6957 18.8347C16.9931 19.0174 17.3007 19.2062 17.979 19.2062C18.6573 19.2062 18.965 19.0174 19.2624 18.8347C19.4429 18.7241 19.6295 18.6094 19.8732 18.553C20.049 18.5121 20.3019 18.4913 20.6249 18.4913C20.9601 18.4913 21.3362 18.5139 21.6567 18.553C22.1973 18.6192 22.3659 18.7027 22.4626 18.8161C22.5263 18.8906 22.6952 19.0885 22.5273 20.2861C22.3618 21.4661 22.1553 21.6371 22.0876 21.6934C21.7826 21.9461 20.89 22.1025 20.238 22.1025Z" fill="#F0384B"/>
<path d="M18.0355 20.8206C18.1627 20.8206 18.8268 20.8575 19.6701 21.5517C19.7345 21.6046 19.931 21.6665 20.2732 21.6665C20.833 21.6665 21.4301 21.5068 21.5858 21.4095C21.748 21.0729 21.9389 19.5302 21.8851 19.0627C21.6676 19.0066 21.155 18.9424 20.6572 18.9424C20.3087 18.9424 20.153 18.9743 20.1022 18.988C19.9871 19.019 19.8734 19.1001 19.7295 19.2025C19.3957 19.4403 18.9386 19.7658 18.031 19.7658C17.1233 19.7658 16.6662 19.4403 16.3325 19.2025C16.1887 19.1001 16.0748 19.019 15.9599 18.988C15.9091 18.9743 15.7533 18.9424 15.405 18.9424C14.907 18.9424 14.3943 19.0066 14.1771 19.0627C14.123 19.5306 14.3142 21.0754 14.4766 21.4104C14.6192 21.4989 15.1925 21.654 15.7754 21.654C16.1263 21.654 16.3323 21.5948 16.4082 21.5391C17.3186 20.8723 17.8757 20.8205 18.0248 20.8205L18.0355 20.8206Z" fill="#522B25"/>
<path d="M21.5535 18.8931C21.5753 19.1501 21.5316 19.6037 21.0737 19.5865C20.6593 19.5865 20.5285 19.1411 20.4194 18.9012C20.4194 19.1753 20.463 19.7236 20.0705 19.7922C19.5333 19.886 19.2855 19.638 19.1984 19.3295C19.1547 19.6037 19.2359 19.9714 18.8929 20.0834C18.2387 20.297 18.1298 19.8949 17.9116 19.6721C17.9116 19.6721 17.8832 20.2015 17.2138 20.1576C16.9521 20.1405 16.734 19.6893 16.734 19.4494C16.3414 20.297 15.5127 19.7922 15.5345 18.9354C15.5564 19.2096 15.3819 19.7236 14.9021 19.6209C14.5314 19.5351 14.5532 19.0897 14.5532 18.8498C14.5532 18.8498 15.5977 18.5345 16.1007 18.7864C16.6038 19.0383 17.9152 20.2385 19.7647 18.8931C20.1252 18.747 21.5535 18.8931 21.5535 18.8931Z" fill="white"/>
<path d="M21.5577 21.8248C21.5577 21.5848 21.5796 21.1394 21.2088 21.0537C20.729 20.9509 20.5546 21.4649 20.5763 21.739C20.5982 20.8824 19.7695 20.3773 19.377 21.2251C19.377 20.9852 19.1588 20.534 18.8972 20.5169C18.2278 20.473 18.1994 21.0024 18.1994 21.0024C17.9812 20.7796 17.8722 20.3773 17.218 20.5912C16.8751 20.7031 16.9562 21.0709 16.9126 21.345C16.8255 21.0366 16.5776 20.7885 16.0404 20.8824C15.6478 20.9509 15.6915 21.4992 15.6915 21.7733C15.5824 21.5334 15.4515 21.088 15.0371 21.088C14.5793 21.0709 14.5356 21.5244 14.5574 21.7814C14.5574 21.7814 16.1612 22.1907 17.3483 21.2654C17.8916 21.0256 18.8173 21.2826 19.4007 21.6424C19.9843 22.0022 21.5577 21.8248 21.5577 21.8248Z" fill="white"/>
<path d="M17.9997 30.6524C11.1291 30.6524 5.55907 25.0437 5.55907 18.1247C5.55907 11.2065 11.1291 5.59768 17.9997 5.59768C24.8709 5.59768 30.4409 11.2065 30.4409 18.1247C30.4409 25.0437 24.8709 30.6524 17.9997 30.6524V30.6524ZM17.9997 -1.78531e-06C8.05875 -1.78531e-06 0 8.11475 0 18.1247C0 26.6977 5.91292 33.8752 13.8539 35.7614L17.9997 57L22.1454 35.7614C30.0871 33.8752 36 26.6977 36 18.1247C36 8.11475 27.9406 -1.78531e-06 17.9997 -1.78531e-06" fill="#DD3730"/>
</svg>
