<svg width="36" height="57" viewBox="0 0 36 57" fill="none" xmlns="http://www.w3.org/2000/svg">
<circle cx="18" cy="18" r="13" fill="#008672"/>
<g filter="url(#filter0_d_84_10928)">
<path d="M24.1836 19.4516C24.0402 19.64 23.8717 20.1583 23.7672 20.7689C23.6626 21.3791 23.6543 21.8954 23.7337 22.0813C23.8771 21.8928 24.0458 21.3742 24.1503 20.764C24.2549 20.1537 24.2632 19.6372 24.1836 19.4516Z" fill="#51843E"/>
<path d="M25.2855 18.5864C25.142 18.775 24.9733 19.2932 24.869 19.9036C24.7643 20.5141 24.7562 21.0303 24.8355 21.2161C24.9789 21.0277 25.1477 20.5093 25.2521 19.8989C25.3566 19.2885 25.3649 18.7721 25.2855 18.5864" fill="#51843E"/>
<path d="M21.9739 22.0319C21.1844 21.2957 21.1098 20.3626 21.4013 19.7658C21.6928 19.169 22.1342 19.0414 22.203 19.169C22.203 19.169 22.6037 20.2009 22.9444 20.0062C23.2851 19.8115 23.1951 19.251 22.7664 19.1873C22.7664 19.1873 22.8896 18.5209 23.7012 18.7243C23.7012 18.7243 23.7676 19.2929 24.2796 19.1969C24.5916 19.1384 24.3453 18.5776 24.1142 18.602C24.1142 18.602 26.1387 18.1509 26.5437 18.5171C27.0317 18.9579 26.1539 20.3205 26.1539 20.3205C26.0351 20.1409 25.5473 19.8965 25.4467 20.2514C25.3242 20.6854 25.9541 20.7594 25.9541 20.7594C26.1444 21.4612 25.356 21.5264 25.356 21.5264C25.3065 21.1582 24.6545 21.0487 24.4064 21.3267C24.1579 21.6048 25.344 22.0065 25.344 22.0065C25.4895 22.0723 25.314 22.4402 24.5971 22.6526C23.8803 22.8651 22.6519 22.6445 21.9739 22.0319" fill="#8FCD3C"/>
<path d="M26.1358 18.9485C25.9102 19.1321 25.1164 19.7068 24.159 20.3808C23.9153 20.5449 23.6813 20.7023 23.4634 20.8488C23.3544 20.9215 23.249 20.9915 23.1487 21.0582C23.0451 21.1211 22.9466 21.1813 22.8539 21.2377C22.483 21.4622 22.2042 21.6257 22.0726 21.696C22.1914 21.6098 22.4582 21.4325 22.8202 21.199C22.9105 21.1406 23.0071 21.0787 23.1083 21.0134C23.207 20.9452 23.3108 20.8738 23.4181 20.7996C23.6343 20.6521 23.8669 20.4937 24.1089 20.3286C25.0654 19.6551 25.8816 19.1018 26.1358 18.9485" fill="#76A633"/>
<path d="M22.8882 20.3137C22.917 20.3596 22.9548 20.5209 22.9756 20.7137C22.9884 20.8096 22.993 20.8985 22.9989 20.9691C23.0041 21.0394 23.0038 21.093 22.9967 21.1188C22.9814 21.0966 22.9621 21.0456 22.9424 20.9756C22.9226 20.9057 22.9095 20.817 22.8968 20.7202C22.8759 20.5269 22.8717 20.3647 22.8882 20.3137Z" fill="#76A633"/>
<path d="M23.9889 21.5332C23.9197 21.5241 23.716 21.4472 23.4815 21.3446C23.3627 21.2966 23.2574 21.2447 23.1709 21.2087C23.0853 21.1709 23.0229 21.139 22.9967 21.1187C23.0313 21.1207 23.1014 21.1371 23.1941 21.1643C23.2872 21.19 23.3971 21.2359 23.5174 21.2841C23.7535 21.3877 23.9412 21.4897 23.9889 21.5332Z" fill="#76A633"/>
<path d="M24.8175 20.5759C24.7655 20.5899 24.596 20.5913 24.3959 20.5622C24.2963 20.547 24.2054 20.526 24.136 20.5C24.066 20.4758 24.0209 20.4437 24.004 20.4268C24.0329 20.4271 24.0827 20.4423 24.1537 20.454C24.2234 20.4675 24.3126 20.4809 24.4098 20.4956C24.6048 20.524 24.7703 20.5512 24.8175 20.5759" fill="#76A633"/>
<path d="M23.8685 19.7187C23.8946 19.7605 23.9168 19.9027 23.9384 20.07C23.9499 20.1537 23.9604 20.2302 23.9723 20.2902C23.9819 20.3512 23.9966 20.3943 23.9951 20.4189C23.9764 20.4038 23.9415 20.3634 23.9173 20.3025C23.8909 20.2421 23.8715 20.1634 23.8595 20.0778C23.8373 19.9063 23.849 19.7622 23.8685 19.7187Z" fill="#76A633"/>
<path d="M25.3869 18.9107C25.4091 18.9465 25.4235 19.0625 25.4211 19.1998C25.4245 19.3377 25.41 19.4541 25.3881 19.489C25.3646 19.4551 25.345 19.3389 25.3418 19.2002C25.3443 19.0609 25.3635 18.9445 25.3869 18.9107" fill="#76A633"/>
<path d="M26.04 19.5007C25.9993 19.5188 25.8616 19.5282 25.6979 19.522C25.5357 19.5111 25.4006 19.4877 25.3622 19.4656C25.4046 19.449 25.5418 19.4437 25.7033 19.4546C25.8645 19.4606 25.9996 19.4797 26.04 19.5007" fill="#76A633"/>
<path d="M21.9889 15.8545C21.5714 15.1923 21.719 14.4985 22.0615 14.1081C22.4038 13.7176 22.7542 13.6937 22.7768 13.7978C22.7768 13.7978 22.8461 14.6151 23.1374 14.5263C23.4286 14.4375 23.4842 14.0137 23.1849 13.8998C23.1849 13.8998 23.4192 13.4319 23.9684 13.7081C23.9684 13.7081 23.8937 14.1342 24.2887 14.1446C24.5295 14.1507 24.4709 13.7022 24.2969 13.6837C24.2969 13.6837 25.8743 13.672 26.091 14.0034C26.3522 14.4023 25.4153 15.2603 25.4153 15.2603C25.3673 15.1104 25.0637 14.855 24.9133 15.0987C24.7296 15.3967 25.174 15.5498 25.174 15.5498C25.161 16.0927 24.5707 16.0164 24.5707 16.0164C24.6144 15.7395 24.1615 15.5571 23.9199 15.7212C23.6779 15.8855 24.4578 16.3655 24.4578 16.3655C24.55 16.4365 24.3418 16.6778 23.7717 16.7204C23.2019 16.7631 22.3517 16.4088 21.9889 15.8545" fill="#8FCD3C"/>
<path d="M25.6993 14.2548C25.4946 14.3535 24.7897 14.6488 23.9439 14.9909C23.7301 15.0726 23.5251 15.151 23.3339 15.2238C23.2385 15.2597 23.1463 15.2943 23.0586 15.3274C22.9692 15.3572 22.8842 15.3855 22.8042 15.4123C22.4844 15.5181 22.2452 15.5939 22.1338 15.6245C22.2392 15.5801 22.4726 15.4925 22.7879 15.3786C22.8665 15.3502 22.9506 15.3201 23.0386 15.2882C23.1256 15.254 23.2169 15.2181 23.3115 15.1808C23.5016 15.1068 23.7059 15.0276 23.9185 14.945C24.7636 14.6029 25.4803 14.3267 25.6993 14.2548" fill="#76A633"/>
<path d="M23.0293 14.7422C23.0403 14.7803 23.0331 14.904 23.0064 15.0484C22.9951 15.1205 22.9791 15.1862 22.9682 15.2386C22.9567 15.2909 22.9449 15.33 22.9341 15.3477C22.9277 15.329 22.9246 15.2887 22.9256 15.2345C22.9262 15.1802 22.9358 15.1134 22.9474 15.0407C22.974 14.8962 23.0061 14.7769 23.0293 14.7422" fill="#76A633"/>
<path d="M23.5697 15.8066C23.5211 15.7891 23.389 15.7009 23.2398 15.589C23.1633 15.5353 23.0976 15.4809 23.0422 15.4409C22.9878 15.3997 22.9491 15.3666 22.9343 15.3477C22.9591 15.3547 23.0068 15.3776 23.0687 15.4121C23.1312 15.4455 23.2017 15.4962 23.279 15.5504C23.4292 15.6632 23.5444 15.7673 23.5697 15.8066" fill="#76A633"/>
<path d="M24.3829 15.2372C24.3418 15.2391 24.2178 15.2134 24.0778 15.1608C24.0082 15.1341 23.9463 15.1043 23.9012 15.0745C23.8553 15.0458 23.8293 15.0152 23.8206 15.0003C23.8417 15.0051 23.8748 15.024 23.9242 15.0437C23.9722 15.0645 24.0344 15.0882 24.1023 15.1143C24.2386 15.1658 24.3538 15.2115 24.3829 15.2372Z" fill="#76A633"/>
<path d="M23.8749 14.4614C23.8851 14.496 23.8706 14.6034 23.8499 14.7291C23.8402 14.792 23.8314 14.8496 23.8271 14.8953C23.8209 14.9417 23.8222 14.9753 23.8157 14.9932C23.8054 14.9791 23.7887 14.9442 23.7841 14.8957C23.778 14.8475 23.7808 14.7869 23.7907 14.7223C23.8116 14.5936 23.8513 14.49 23.8749 14.4614" fill="#76A633"/>
<path d="M25.1599 14.1093C25.1685 14.1389 25.1538 14.226 25.1223 14.326C25.0948 14.4273 25.0591 14.5101 25.0354 14.5322C25.0256 14.5037 25.0365 14.4157 25.0642 14.3139C25.0962 14.2124 25.1355 14.1302 25.1599 14.1093Z" fill="#76A633"/>
<path d="M25.5096 14.6433C25.4759 14.65 25.3731 14.6353 25.2549 14.6051C25.1386 14.5716 25.0449 14.5333 25.0217 14.5111C25.0563 14.5055 25.1577 14.5234 25.2735 14.5567C25.3901 14.5864 25.4845 14.6217 25.5096 14.6433" fill="#76A633"/>
<path d="M20.5599 18.8357L22.1258 19.1528L22.1409 19.1212L20.5756 18.8042L20.5599 18.8357Z" fill="#51843E"/>
<path d="M21.8808 16.1112C21.7368 16.2205 21.5 16.5582 21.2878 16.9715C21.0755 17.3847 20.9522 17.7476 20.9662 17.8916C21.1099 17.7823 21.3468 17.4445 21.5591 17.0314C21.7717 16.618 21.8946 16.2552 21.8808 16.1112" fill="#51843E"/>
<path d="M20.5291 18.7846L21.1313 17.5133L21.1705 17.5211L20.5684 18.7922L20.5291 18.7846Z" fill="#51843E"/>
<path d="M22.8157 15.6998C22.6716 15.8091 22.435 16.1467 22.2226 16.56C22.0103 16.9734 21.887 17.3361 21.9008 17.4803C22.0448 17.3708 22.2816 17.0329 22.4938 16.6199C22.7063 16.2066 22.8296 15.8437 22.8157 15.6998Z" fill="#51843E"/>
<path d="M21.4641 18.3732L22.0663 17.1019L22.1054 17.1094L21.5033 18.3809L21.4641 18.3732" fill="#51843E"/>
<path d="M22.4268 26.6389C21.7479 25.5901 21.9687 24.4824 22.506 23.8554C23.0433 23.2282 23.6011 23.1849 23.6392 23.3505C23.6392 23.3505 23.7666 24.6513 24.2287 24.5056C24.6909 24.3597 24.7707 23.6836 24.2912 23.5064C24.2912 23.5064 24.655 22.7578 25.5356 23.1895C25.5356 23.1895 25.4253 23.8696 26.0551 23.88C26.4386 23.8863 26.3362 23.1725 26.0582 23.1456C26.0582 23.1456 28.5712 23.1034 28.9235 23.628C29.3478 24.2593 27.873 25.6406 27.873 25.6406C27.7935 25.4023 27.3044 25.0001 27.0699 25.3906C26.7835 25.8681 27.4947 26.1052 27.4947 26.1052C27.4855 26.9702 26.5432 26.8578 26.5432 26.8578C26.6068 26.416 25.8818 26.1321 25.5001 26.3975C25.1181 26.6627 26.3706 27.4155 26.3706 27.4155C26.5189 27.5273 26.1925 27.9148 25.2851 27.9913C24.378 28.068 23.0162 27.5162 22.4268 26.6389" fill="#8FCD3C"/>
<path d="M28.3046 24.0341C27.9804 24.1945 26.8637 24.6756 25.5232 25.2338C25.1844 25.3669 24.8592 25.4948 24.5566 25.6136C24.405 25.6724 24.259 25.729 24.1199 25.7828C23.9781 25.8317 23.8432 25.8782 23.7166 25.9221C23.2092 26.0953 22.8295 26.2197 22.6526 26.2703C22.8197 26.198 23.1899 26.0548 23.6896 25.8687C23.8146 25.8223 23.9476 25.7729 24.0874 25.721C24.2252 25.665 24.3698 25.6064 24.52 25.5454C24.8211 25.425 25.1447 25.2956 25.4819 25.1607C26.8212 24.6031 27.957 24.1522 28.3046 24.0341" fill="#76A633"/>
<path d="M24.0613 24.8512C24.0797 24.9116 24.0708 25.1089 24.0315 25.3391C24.0147 25.4541 23.9908 25.5593 23.9742 25.6428C23.9572 25.7263 23.939 25.7887 23.9224 25.8171C23.9117 25.7876 23.9061 25.7235 23.9063 25.637C23.9063 25.5506 23.9202 25.444 23.937 25.3279C23.9765 25.097 24.0251 24.9065 24.0613 24.8512Z" fill="#76A633"/>
<path d="M24.9443 26.5387C24.8665 26.5114 24.6539 26.3729 24.414 26.1969C24.291 26.1127 24.1851 26.0268 24.0962 25.9639C24.0087 25.8992 23.9465 25.8471 23.9225 25.8172C23.9623 25.8279 24.0386 25.8639 24.1376 25.9177C24.2382 25.9701 24.3513 26.0499 24.4757 26.135C24.7174 26.3122 24.9029 26.4763 24.9443 26.5387" fill="#76A633"/>
<path d="M26.2279 25.6191C26.1624 25.6229 25.964 25.5839 25.7401 25.5022C25.6288 25.4607 25.5295 25.4142 25.457 25.3672C25.3834 25.3223 25.3411 25.2741 25.327 25.2504C25.3608 25.2577 25.4139 25.2871 25.4929 25.3178C25.57 25.3502 25.6695 25.3873 25.7783 25.4278C25.9965 25.5075 26.1809 25.579 26.2279 25.6191" fill="#76A633"/>
<path d="M25.4027 24.3909C25.4194 24.4458 25.3983 24.6174 25.3682 24.8179C25.3542 24.9184 25.3413 25.0102 25.3352 25.0833C25.3263 25.1567 25.3292 25.2107 25.3192 25.239C25.3025 25.2167 25.275 25.1612 25.2671 25.0843C25.256 25.0075 25.2593 24.911 25.2737 24.8081C25.3044 24.6024 25.3655 24.437 25.4027 24.3909Z" fill="#76A633"/>
<path d="M27.4424 23.8107C27.4565 23.8577 27.4352 23.9966 27.387 24.1563C27.3452 24.3183 27.2903 24.4506 27.2529 24.4865C27.2366 24.4409 27.2522 24.3007 27.2941 24.138C27.343 23.9759 27.4039 23.8444 27.4424 23.8107" fill="#76A633"/>
<path d="M28.0104 24.656C27.9568 24.6673 27.7928 24.6454 27.6039 24.5989C27.4178 24.5475 27.2681 24.4877 27.2303 24.4528C27.2854 24.4435 27.4473 24.4703 27.6324 24.5216C27.8186 24.5671 27.9699 24.6218 28.0104 24.656" fill="#76A633"/>
<path d="M11.8164 19.4516C11.9597 19.64 12.1283 20.1583 12.2328 20.7689C12.3374 21.3791 12.3457 21.8954 12.2663 22.0813C12.1228 21.8928 11.9541 21.3742 11.8497 20.764C11.7451 20.1537 11.7367 19.6372 11.8164 19.4516Z" fill="#51843E"/>
<path d="M10.7144 18.5864C10.8579 18.775 11.0266 19.2932 11.1309 19.9036C11.2356 20.5141 11.2437 21.0303 11.1644 21.2161C11.021 21.0277 10.8522 20.5093 10.7478 19.8989C10.6433 19.2885 10.635 18.7721 10.7144 18.5864" fill="#51843E"/>
<path d="M14.0261 22.0319C14.8157 21.2957 14.8903 20.3626 14.5987 19.7658C14.3073 19.169 13.8659 19.0414 13.7971 19.169C13.7971 19.169 13.3964 20.2009 13.0557 20.0062C12.7149 19.8115 12.805 19.251 13.2336 19.1873C13.2336 19.1873 13.1104 18.5209 12.2989 18.7243C12.2989 18.7243 12.2325 19.2929 11.7205 19.1969C11.4084 19.1384 11.6547 18.5776 11.8858 18.602C11.8858 18.602 9.8614 18.1509 9.45638 18.5171C8.9684 18.9579 9.8462 20.3205 9.8462 20.3205C9.965 20.1409 10.4528 19.8965 10.5533 20.2514C10.6759 20.6854 10.046 20.7594 10.046 20.7594C9.85565 21.4612 10.6441 21.5264 10.6441 21.5264C10.6935 21.1582 11.3455 21.0487 11.5936 21.3267C11.8421 21.6048 10.6561 22.0065 10.6561 22.0065C10.5105 22.0723 10.6861 22.4402 11.403 22.6526C12.1197 22.8651 13.3482 22.6445 14.0261 22.0319" fill="#8FCD3C"/>
<path d="M9.86414 18.9485C10.0897 19.1321 10.8836 19.7068 11.8409 20.3808C12.0847 20.5449 12.3186 20.7023 12.5365 20.8488C12.6455 20.9215 12.7509 20.9915 12.8512 21.0582C12.9548 21.1211 13.0534 21.1813 13.146 21.2377C13.5169 21.4622 13.7957 21.6257 13.9273 21.696C13.8086 21.6098 13.5417 21.4325 13.1797 21.199C13.0894 21.1406 12.9929 21.0787 12.8917 21.0134C12.7929 20.9452 12.6892 20.8738 12.5818 20.7996C12.3656 20.6521 12.1331 20.4937 11.8911 20.3286C10.9345 19.6551 10.1182 19.1018 9.86414 18.9485" fill="#76A633"/>
<path d="M13.112 20.3137C13.0832 20.3596 13.0453 20.5209 13.0245 20.7137C13.0118 20.8096 13.0072 20.8985 13.0013 20.9691C12.996 21.0394 12.9963 21.093 13.0034 21.1188C13.0188 21.0966 13.0381 21.0456 13.0577 20.9756C13.0776 20.9057 13.0906 20.817 13.1033 20.7202C13.1243 20.5269 13.1285 20.3647 13.112 20.3137" fill="#76A633"/>
<path d="M12.0111 21.5332C12.0804 21.5241 12.284 21.4472 12.5185 21.3446C12.6373 21.2966 12.7426 21.2447 12.8291 21.2087C12.9148 21.1709 12.9771 21.139 13.0033 21.1187C12.9688 21.1207 12.8986 21.1371 12.806 21.1643C12.7128 21.19 12.6029 21.2359 12.4827 21.2841C12.2465 21.3877 12.0588 21.4897 12.0111 21.5332Z" fill="#76A633"/>
<path d="M11.1825 20.5759C11.2345 20.5899 11.404 20.5913 11.6041 20.5622C11.7037 20.547 11.7946 20.526 11.864 20.5C11.9339 20.4758 11.9791 20.4437 11.9959 20.4268C11.9671 20.4271 11.9172 20.4423 11.8463 20.454C11.7766 20.4675 11.6874 20.4809 11.5902 20.4956C11.3951 20.524 11.2297 20.5512 11.1825 20.5759" fill="#76A633"/>
<path d="M12.1313 19.7187C12.1052 19.7605 12.083 19.9027 12.0615 20.07C12.05 20.1537 12.0394 20.2302 12.0275 20.2902C12.0179 20.3512 12.0032 20.3943 12.0047 20.4189C12.0234 20.4038 12.0584 20.3634 12.0825 20.3025C12.1089 20.2421 12.1283 20.1634 12.1403 20.0778C12.1626 19.9063 12.1508 19.7622 12.1313 19.7187Z" fill="#76A633"/>
<path d="M10.6131 18.9107C10.5909 18.9465 10.5764 19.0625 10.5788 19.1998C10.5755 19.3377 10.59 19.4541 10.6119 19.489C10.6354 19.4551 10.655 19.3389 10.6582 19.2002C10.6557 19.0609 10.6365 18.9445 10.6131 18.9107" fill="#76A633"/>
<path d="M9.95996 19.5007C10.0007 19.5188 10.1384 19.5282 10.3021 19.522C10.4643 19.5111 10.5994 19.4877 10.6378 19.4656C10.5954 19.449 10.4582 19.4437 10.2967 19.4546C10.1355 19.4606 10.0004 19.4797 9.95996 19.5007" fill="#76A633"/>
<path d="M14.0114 15.8545C14.4289 15.1923 14.2813 14.4985 13.9388 14.1081C13.5965 13.7176 13.2461 13.6937 13.2235 13.7978C13.2235 13.7978 13.1542 14.6151 12.8629 14.5263C12.5717 14.4375 12.5161 14.0137 12.8155 13.8998C12.8155 13.8998 12.5811 13.4319 12.0319 13.7081C12.0319 13.7081 12.1066 14.1342 11.7116 14.1446C11.4708 14.1507 11.5293 13.7022 11.7034 13.6837C11.7034 13.6837 10.126 13.672 9.90926 14.0034C9.64806 14.4023 10.585 15.2603 10.585 15.2603C10.6329 15.1104 10.9366 14.855 11.087 15.0987C11.2707 15.3967 10.8263 15.5498 10.8263 15.5498C10.8392 16.0927 11.4296 16.0164 11.4296 16.0164C11.3859 15.7395 11.8388 15.5571 12.0804 15.7212C12.3224 15.8855 11.5425 16.3655 11.5425 16.3655C11.4503 16.4365 11.6585 16.6778 12.2285 16.7204C12.7984 16.7631 13.6486 16.4088 14.0114 15.8545Z" fill="#8FCD3C"/>
<path d="M10.3007 14.2548C10.5054 14.3535 11.2102 14.6488 12.056 14.9909C12.2698 15.0726 12.475 15.151 12.6661 15.2238C12.7614 15.2597 12.8536 15.2943 12.9413 15.3274C13.0308 15.3572 13.1158 15.3855 13.1957 15.4123C13.5155 15.5181 13.7548 15.5939 13.8662 15.6245C13.7608 15.5801 13.5272 15.4925 13.212 15.3786C13.1334 15.3502 13.0494 15.3201 12.9614 15.2882C12.8743 15.254 12.7831 15.2181 12.6885 15.1808C12.4983 15.1068 12.294 15.0276 12.0814 14.945C11.2363 14.6029 10.5197 14.3267 10.3007 14.2548" fill="#76A633"/>
<path d="M12.9705 14.7422C12.9595 14.7803 12.9667 14.904 12.9934 15.0484C13.0048 15.1205 13.0207 15.1862 13.0317 15.2386C13.0431 15.2909 13.055 15.33 13.0657 15.3477C13.0721 15.329 13.0752 15.2887 13.0743 15.2345C13.0737 15.1802 13.064 15.1134 13.0524 15.0407C13.0259 14.8962 12.9938 14.7769 12.9705 14.7422" fill="#76A633"/>
<path d="M12.4302 15.8066C12.4787 15.7891 12.6109 15.7009 12.7601 15.589C12.8366 15.5353 12.9023 15.4809 12.9577 15.4409C13.0121 15.3997 13.0508 15.3666 13.0655 15.3477C13.0407 15.3547 12.9929 15.3776 12.9312 15.4121C12.8686 15.4455 12.7981 15.4962 12.7209 15.5504C12.5707 15.6632 12.4555 15.7673 12.4302 15.8066" fill="#76A633"/>
<path d="M11.6169 15.2372C11.6581 15.2391 11.7821 15.2134 11.9221 15.1608C11.9916 15.1341 12.0536 15.1043 12.0986 15.0745C12.1445 15.0458 12.1706 15.0152 12.1793 15.0003C12.1582 15.0051 12.1251 15.024 12.0757 15.0437C12.0277 15.0645 11.9655 15.0882 11.8976 15.1143C11.7613 15.1658 11.6461 15.2115 11.6169 15.2372Z" fill="#76A633"/>
<path d="M12.1249 14.4614C12.1148 14.496 12.1293 14.6034 12.1499 14.7291C12.1597 14.792 12.1684 14.8496 12.1727 14.8953C12.179 14.9417 12.1776 14.9753 12.1841 14.9932C12.1944 14.9791 12.2112 14.9442 12.2157 14.8957C12.2218 14.8475 12.219 14.7869 12.2091 14.7223C12.1883 14.5936 12.1485 14.49 12.1249 14.4614" fill="#76A633"/>
<path d="M10.8399 14.1093C10.8314 14.1389 10.846 14.226 10.8776 14.326C10.905 14.4273 10.9408 14.5101 10.9645 14.5322C10.9743 14.5037 10.9633 14.4157 10.9357 14.3139C10.9037 14.2124 10.8643 14.1302 10.8399 14.1093Z" fill="#76A633"/>
<path d="M15.471 18.7846L14.8688 17.5133L14.8296 17.5211L15.4317 18.7922L15.471 18.7846Z" fill="#51843E"/>
<path d="M13.1844 15.6997C13.3285 15.809 13.5651 16.1467 13.7774 16.56C13.9898 16.9733 14.1131 17.3361 14.0993 17.4802C13.9553 17.3708 13.7185 17.0329 13.5063 16.6198C13.2938 16.2066 13.1705 15.8437 13.1844 15.6997Z" fill="#51843E"/>
<path d="M14.536 18.3732L13.9338 17.1019L13.8947 17.1094L14.4968 18.3809L14.536 18.3732" fill="#51843E"/>
<path d="M13.5733 26.6389C14.2523 25.5901 14.0314 24.4824 13.4942 23.8554C12.9569 23.2282 12.3991 23.1849 12.361 23.3505C12.361 23.3505 12.2336 24.6513 11.7714 24.5056C11.3093 24.3597 11.2295 23.6836 11.709 23.5064C11.709 23.5064 11.3452 22.7578 10.4646 23.1895C10.4646 23.1895 10.5748 23.8696 9.94506 23.88C9.56159 23.8863 9.66398 23.1725 9.94196 23.1456C9.94196 23.1456 7.42901 23.1034 7.0767 23.628C6.65235 24.2593 8.12722 25.6406 8.12722 25.6406C8.20669 25.4023 8.69573 25.0001 8.93023 25.3906C9.21661 25.8681 8.50547 26.1052 8.50547 26.1052C8.5147 26.9702 9.457 26.8578 9.457 26.8578C9.39341 26.416 10.1183 26.1321 10.5001 26.3975C10.8821 26.6627 9.62949 27.4155 9.62949 27.4155C9.48128 27.5273 9.80766 27.9148 10.7151 27.9913C11.6222 28.068 12.9839 27.5162 13.5733 26.6389" fill="#8FCD3C"/>
<path d="M7.69531 24.0341C8.0195 24.1945 9.13619 24.6756 10.4767 25.2338C10.8155 25.3669 11.1407 25.4948 11.4434 25.6136C11.5949 25.6724 11.7409 25.729 11.88 25.7828C12.0218 25.8317 12.1568 25.8782 12.2833 25.9221C12.7908 26.0953 13.1705 26.2197 13.3473 26.2703C13.1802 26.198 12.8101 26.0548 12.3103 25.8687C12.1853 25.8223 12.0523 25.7729 11.9125 25.721C11.7747 25.665 11.6302 25.6064 11.48 25.5454C11.1788 25.425 10.8552 25.2956 10.518 25.1607C9.17876 24.6031 8.04294 24.1522 7.69531 24.0341Z" fill="#76A633"/>
<path d="M11.9387 24.8512C11.9202 24.9116 11.9291 25.1089 11.9685 25.3391C11.9852 25.4541 12.0091 25.5593 12.0258 25.6428C12.0427 25.7263 12.0609 25.7887 12.0775 25.8171C12.0882 25.7876 12.0938 25.7235 12.0937 25.637C12.0937 25.5506 12.0798 25.444 12.0629 25.3279C12.0234 25.097 11.9749 24.9065 11.9387 24.8512Z" fill="#76A633"/>
<path d="M11.0558 26.5387C11.1336 26.5114 11.3462 26.3729 11.5861 26.1969C11.7091 26.1127 11.815 26.0268 11.9039 25.9639C11.9914 25.8992 12.0537 25.8471 12.0776 25.8172C12.0379 25.8279 11.9615 25.8639 11.8625 25.9177C11.7619 25.9701 11.6489 26.0499 11.5244 26.135C11.2827 26.3122 11.0972 26.4763 11.0558 26.5387Z" fill="#76A633"/>
<path d="M9.77222 25.6191C9.8377 25.6229 10.0361 25.5839 10.26 25.5022C10.3713 25.4607 10.4706 25.4142 10.5431 25.3672C10.6167 25.3223 10.659 25.2741 10.6731 25.2504C10.6393 25.2577 10.5862 25.2871 10.5072 25.3178C10.4301 25.3502 10.3306 25.3873 10.2219 25.4278C10.0036 25.5075 9.81918 25.579 9.77222 25.6191" fill="#76A633"/>
<path d="M10.5972 24.3909C10.5805 24.4458 10.6016 24.6174 10.6316 24.8179C10.6457 24.9184 10.6586 25.0102 10.6647 25.0833C10.6736 25.1567 10.6707 25.2107 10.6806 25.239C10.6974 25.2167 10.7249 25.1612 10.7328 25.0843C10.7438 25.0075 10.7405 24.911 10.7262 24.8081C10.6955 24.6024 10.6344 24.437 10.5972 24.3909Z" fill="#76A633"/>
<path d="M8.55764 23.8107C8.5435 23.8577 8.56483 23.9966 8.61307 24.1563C8.65489 24.3183 8.70979 24.4506 8.74715 24.4865C8.76341 24.4409 8.74783 24.3007 8.70594 24.138C8.65693 23.9759 8.59613 23.8444 8.55764 23.8107" fill="#76A633"/>
<path d="M7.98962 24.656C8.04316 24.6673 8.20718 24.6454 8.39608 24.5989C8.58219 24.5475 8.73192 24.4877 8.76965 24.4528C8.7146 24.4435 8.55269 24.4703 8.36758 24.5216C8.1814 24.5671 8.03008 24.6218 7.98962 24.656" fill="#76A633"/>
<path d="M13.2034 22.1738C13.2034 22.1738 15.1083 16.7824 11.4595 12.3963C11.4595 12.3963 12.5864 11.1628 15.1889 10.7745L15.9132 11.9396L15.6718 10.6144C15.6718 10.6144 17.4693 9.7921 20.4206 10.4089L20.2595 11.8938L20.823 10.683C20.823 10.683 23.1304 10.8202 24.4987 12.1679C24.4987 12.1679 21.1717 17.5135 22.9022 22.1738C22.9022 22.1738 18.2742 25.0864 13.2034 22.1738" fill="#C74F39"/>
<path d="M21.4399 27.6336L21.7004 28.0656C23.2826 27.6014 24.2302 26.9939 24.2302 26.9939L22.3789 22.2156H13.6057L11.9958 27.0169C12.8989 27.4955 13.7811 27.8433 14.632 28.0887L14.8398 27.6336L14.9467 28.1753C17.4417 28.8268 19.6483 28.6012 21.2836 28.1803L21.4399 27.6336" fill="#963532"/>
<path d="M24.2302 26.9939L23.7074 25.645C18.6453 27.6215 13.876 26.2204 12.4365 25.7027L11.9958 27.0169C12.8989 27.4955 13.7811 27.8433 14.632 28.0887L14.8398 27.6336L14.9467 28.1753C17.4417 28.8268 19.6483 28.6012 21.2836 28.1803L21.4399 27.6336L21.7004 28.0656C23.2826 27.6014 24.2302 26.9939 24.2302 26.9939" fill="#FBCA3B"/>
<path d="M12.5862 13.2874H13.1764V12.3508H12.5862V13.2874Z" fill="#A14130"/>
<path d="M15.7788 13.3331C15.7393 13.2936 15.6697 13.1993 15.5832 13.0689C15.5619 13.0361 15.5392 13.0012 15.5153 12.9646C15.4944 12.9268 15.4724 12.8872 15.4497 12.846C15.4045 12.7635 15.3573 12.6742 15.3094 12.5808C15.129 12.2037 14.9934 11.8836 14.9739 11.7797C15.0465 11.8635 15.2227 12.1719 15.4023 12.5477C15.45 12.6404 15.4944 12.7299 15.5347 12.8136C15.5545 12.8555 15.5736 12.8959 15.5917 12.9344C15.6115 12.9724 15.6304 13.0083 15.648 13.0421C15.7179 13.1779 15.7649 13.2816 15.7788 13.3331" fill="#A14130"/>
<path d="M14.5939 14.2697C14.5439 14.2396 14.4439 14.1102 14.3476 13.9462C14.2513 13.7822 14.1896 13.6363 14.1914 13.5844C14.2416 13.6142 14.3414 13.7438 14.4377 13.9078C14.5341 14.0717 14.5958 14.2175 14.5939 14.2697Z" fill="#A14130"/>
<path d="M17.013 12.3965C16.9776 12.3087 16.9296 12.0048 16.919 11.6434C16.9142 11.5536 16.9108 11.467 16.9088 11.3867C16.9081 11.3464 16.9076 11.3076 16.907 11.2706C16.905 11.234 16.903 11.1989 16.9013 11.1662C16.8952 11.0346 16.8966 10.9355 16.9056 10.8887C16.9252 10.932 16.949 11.029 16.9732 11.1609C16.9788 11.194 16.9847 11.2291 16.9911 11.266C16.9945 11.303 16.9982 11.3418 17.0019 11.3822C17.0088 11.463 17.0148 11.55 17.0197 11.6404C17.0304 12.002 17.0354 12.3035 17.013 12.3965" fill="#A14130"/>
<path d="M18.7568 13.8357C18.754 13.8171 18.7542 13.7886 18.7568 13.7522C18.7586 13.7342 18.7607 13.7142 18.763 13.6922C18.7643 13.6702 18.7659 13.6464 18.7676 13.6209C18.778 13.5198 18.7833 13.392 18.7941 13.2529C18.8034 13.1133 18.8147 12.9844 18.8328 12.8819C18.8489 12.7795 18.8735 12.7041 18.8909 12.6707C18.9023 12.7072 18.9029 12.7836 18.905 12.8862C18.9047 12.9884 18.9041 13.1174 18.8947 13.2577C18.8839 13.3983 18.8676 13.5282 18.839 13.6298C18.832 13.6551 18.8255 13.6788 18.8194 13.7006C18.8111 13.722 18.8032 13.7416 18.7963 13.7592C18.7816 13.794 18.768 13.82 18.7568 13.8357" fill="#A14130"/>
<path d="M19.4543 11.2085C19.432 11.1612 19.4323 11.0072 19.4582 10.8258C19.4836 10.6465 19.5263 10.4977 19.5618 10.4546C19.5843 10.502 19.5839 10.6559 19.5579 10.8374C19.5325 11.0166 19.4897 11.1655 19.4543 11.2085" fill="#A14130"/>
<path d="M16.9536 13.8933C16.9191 13.8516 16.8785 13.7014 16.8556 13.5198C16.8327 13.3402 16.8348 13.187 16.8579 13.1384C16.8923 13.18 16.9329 13.3301 16.9558 13.5119C16.9787 13.6915 16.9766 13.8445 16.9536 13.8933" fill="#A14130"/>
<path d="M20.7422 12.8534C20.7447 12.8098 20.7684 12.719 20.8085 12.5984C20.8188 12.5682 20.8299 12.5362 20.8416 12.5027C20.8557 12.4698 20.8707 12.4356 20.8861 12.4C20.9177 12.3289 20.9529 12.253 20.9908 12.1743C21.0286 12.0961 21.0659 12.0215 21.1018 11.9525C21.1202 11.918 21.1378 11.8849 21.1546 11.8533C21.1699 11.8214 21.1845 11.7911 21.1983 11.7625C21.2544 11.6486 21.3022 11.565 21.3324 11.5284C21.3299 11.5721 21.306 11.6629 21.2661 11.7836C21.2558 11.8137 21.2446 11.8457 21.233 11.8793C21.2187 11.912 21.2039 11.9463 21.1885 11.9819C21.1569 12.0529 21.1217 12.1289 21.0838 12.2076C21.046 12.2858 21.0087 12.3603 20.9727 12.4295C20.9544 12.4639 20.9368 12.4971 20.92 12.5286C20.9046 12.5605 20.89 12.5908 20.8763 12.6193C20.8202 12.7331 20.7725 12.8169 20.7422 12.8534Z" fill="#A14130"/>
<path d="M23.1569 12.8077C23.16 12.776 23.1801 12.7107 23.2211 12.6293C23.2607 12.5469 23.3184 12.4478 23.3825 12.3419C23.4443 12.2352 23.5043 12.1389 23.5445 12.0596C23.5556 12.0399 23.566 12.0215 23.5756 12.0045C23.5842 11.9872 23.5921 11.9715 23.5992 11.9572C23.6144 11.9289 23.6283 11.9073 23.6398 11.8941C23.6424 11.9099 23.6417 11.9344 23.6381 11.9663C23.6362 11.9822 23.6336 11.9999 23.6302 12.0192C23.6248 12.0381 23.6189 12.0584 23.6125 12.0802C23.5879 12.1682 23.5354 12.272 23.4723 12.3807C23.4072 12.4884 23.3401 12.5833 23.2851 12.6575C23.2287 12.7314 23.1864 12.7861 23.1569 12.8077" fill="#A14130"/>
<path d="M21.6276 14.1327C21.622 14.1072 21.6282 14.0555 21.6449 13.9871C21.652 13.9525 21.6649 13.9149 21.6829 13.8755C21.6998 13.8357 21.719 13.7931 21.741 13.7495C21.8372 13.5786 21.9517 13.4524 22.0032 13.4244C22.0011 13.4781 21.9255 13.6202 21.8324 13.7858C21.8112 13.8279 21.7903 13.8681 21.7693 13.905C21.7475 13.9417 21.7283 13.976 21.7131 14.0071C21.6804 14.0687 21.65 14.1136 21.6276 14.1327" fill="#A14130"/>
<path d="M13.8739 24.3212C13.8578 24.2524 13.8775 24.0347 13.9263 23.7794C13.9677 23.5224 14.0227 23.3088 14.0619 23.2476C14.0802 23.3153 14.0675 23.534 14.026 23.7916C13.977 24.0489 13.9148 24.2617 13.8739 24.3212" fill="#7B2C2A"/>
<path d="M15.0008 25.6462C14.9855 25.5564 15.0091 25.2591 15.0634 24.9076C15.1251 24.5588 15.198 24.2683 15.2423 24.1842C15.2557 24.2749 15.2249 24.571 15.163 24.9207C15.1091 25.2696 15.0434 25.5607 15.0008 25.6462" fill="#7B2C2A"/>
<path d="M18.0326 25.3949C18.0045 25.2704 17.9858 24.8521 17.9889 24.3552C17.9874 24.2311 17.9872 24.112 17.9881 24.001C17.9891 23.9457 17.9899 23.8922 17.9906 23.8414C17.9902 23.7905 17.9898 23.7421 17.9894 23.6968C17.9891 23.515 17.9946 23.3792 18.0058 23.3161C18.0235 23.3774 18.0431 23.5125 18.0616 23.6946C18.0657 23.7402 18.0701 23.7885 18.0748 23.8396C18.0769 23.8906 18.0791 23.9442 18.0813 23.9997C18.0853 24.1109 18.0881 24.2306 18.0896 24.3552C18.0865 24.8532 18.0625 25.2702 18.0326 25.3949" fill="#7B2C2A"/>
<path d="M21.7886 24.9836C21.7404 24.9267 21.6553 24.7217 21.5697 24.472C21.485 24.221 21.4549 24.0005 21.4667 23.9329C21.5121 23.9922 21.5828 24.1998 21.6666 24.4485C21.7522 24.6977 21.7969 24.9151 21.7886 24.9836" fill="#7B2C2A"/>
<path d="M22.218 23.4531C22.1626 23.3889 22.054 23.1591 21.9344 22.8785C21.9074 22.8071 21.8829 22.7382 21.8612 22.6738C21.8508 22.6416 21.8406 22.6106 21.831 22.581C21.8248 22.5506 21.819 22.5215 21.8136 22.4942C21.7931 22.3849 21.7842 22.3035 21.7888 22.2652C21.8128 22.2995 21.8465 22.3762 21.8836 22.4793C21.8925 22.505 21.902 22.5325 21.912 22.5615C21.9242 22.5899 21.937 22.6198 21.9504 22.6507C21.9764 22.7129 22.0031 22.78 22.0295 22.8505C22.1487 23.1294 22.2187 23.3757 22.218 23.4531" fill="#7B2C2A"/>
<path d="M17.8309 26.6664C17.797 26.6657 17.7637 26.665 17.7299 26.6642C17.7122 26.3867 17.7143 26.1518 17.7374 26.0803C17.7717 26.1497 17.8122 26.3831 17.8309 26.6664" fill="#7B2C2A"/>
<path d="M17.7643 27.2682C17.7525 27.2312 17.7457 27.1531 17.7445 27.0499C17.7445 27.0241 17.7443 26.9967 17.7441 26.9679C17.7423 26.9389 17.7401 26.9085 17.7381 26.877C17.7344 26.814 17.7319 26.7465 17.7306 26.6758C17.7304 26.672 17.7302 26.6681 17.7299 26.6642C17.7637 26.665 17.7969 26.6657 17.8309 26.6664C17.831 26.6683 17.8311 26.6703 17.8313 26.6722C17.8327 26.7439 17.8326 26.8129 17.8313 26.8769C17.8304 26.909 17.8294 26.9397 17.8284 26.9692C17.8254 26.9985 17.8206 27.0264 17.8166 27.0526C17.7998 27.1573 17.7813 27.2341 17.7643 27.2682Z" fill="#CEA732"/>
<path d="M22.6473 27.1083C22.6098 27.0854 22.5545 26.9915 22.5231 26.8686C22.4936 26.7443 22.5139 26.6355 22.54 26.6057C22.5721 26.637 22.5942 26.7349 22.6219 26.8516C22.6519 26.9683 22.6656 27.0718 22.6473 27.1083Z" fill="#CEA732"/>
<path d="M13.7934 27.2911C13.7714 27.2452 13.7731 27.0945 13.8011 26.9173C13.8378 26.7426 13.8898 26.5992 13.9275 26.56C13.9469 26.6082 13.9371 26.7574 13.9004 26.9314C13.8733 27.1052 13.8293 27.2492 13.7934 27.2911Z" fill="#CEA732"/>
<path d="M15.618 18.2675C15.5754 18.1914 15.5045 17.9273 15.4576 17.6065C15.4486 17.526 15.4415 17.4485 15.4362 17.3765C15.4338 17.3404 15.4315 17.3058 15.4294 17.2726C15.4291 17.2394 15.4303 17.2078 15.4311 17.1781C15.4352 17.0592 15.4441 16.9711 15.457 16.931C15.4732 16.9712 15.4895 17.0584 15.5032 17.175C15.5065 17.2042 15.5098 17.2352 15.5135 17.2678C15.5184 17.3003 15.5237 17.3344 15.529 17.37C15.5393 17.4408 15.5488 17.5172 15.5578 17.5967C15.6041 17.9144 15.6327 18.1839 15.618 18.2675" fill="#A14130"/>
<path d="M18.113 19.4325C18.0768 19.3692 18.0313 19.1507 18.0025 18.8882C17.9735 18.6258 17.9705 18.4038 17.9922 18.3358C18.0285 18.3994 18.074 18.6178 18.1027 18.88C18.1316 19.1422 18.1347 19.3642 18.113 19.4325" fill="#A14130"/>
<path d="M20.6483 18.1304C20.6122 18.0544 20.5666 17.7943 20.5378 17.4826C20.5089 17.1712 20.5059 16.9081 20.5276 16.8283C20.5638 16.9043 20.6094 17.1644 20.6383 17.4759C20.6672 17.7873 20.6701 18.0503 20.6483 18.1304Z" fill="#A14130"/>
<path d="M20.0448 16.0057C20.0157 15.94 19.9944 15.7199 19.9944 15.4575C19.9944 15.1952 20.0157 14.9749 20.0448 14.9093C20.0739 14.9749 20.0952 15.1952 20.0952 15.4575C20.0952 15.7199 20.0739 15.94 20.0448 16.0057Z" fill="#A14130"/>
<path d="M16.2619 15.6632C16.2222 15.6333 16.153 15.5081 16.1224 15.3482C16.1122 15.2681 16.1031 15.1941 16.1108 15.1347C16.1171 15.0754 16.1275 15.0318 16.1412 15.0121C16.1566 15.0319 16.1712 15.0745 16.1829 15.1311C16.193 15.1878 16.2124 15.258 16.222 15.335C16.2513 15.488 16.277 15.6166 16.2619 15.6632" fill="#A14130"/>
<path d="M14.2898 18.0961C14.2602 18.0466 14.2369 17.8819 14.2344 17.6857C14.2176 17.4913 14.225 17.3261 14.2496 17.2737C14.2826 17.3195 14.3182 17.4843 14.3352 17.683C14.3377 17.8807 14.3183 18.0467 14.2898 18.0961" fill="#A14130"/>
<path d="M21.9765 17.9933C21.9468 17.9316 21.9235 17.7254 21.921 17.4799C21.9042 17.236 21.9114 17.0295 21.9362 16.9653C21.9693 17.024 22.0049 17.2303 22.0218 17.4777C22.0243 17.7244 22.0049 17.9317 21.9765 17.9933" fill="#A14130"/>
<path d="M17 14.8614L16.9826 17.3283C16.9826 17.3283 16.4895 17.3457 16.3437 17.5512C16.1979 17.7568 17.3402 18.7515 17.9783 18.7857C18.6162 18.8199 19.6282 17.8425 19.6266 17.5855C19.6251 17.3285 18.981 17.2579 18.981 17.2579L18.9659 14.9748L17 14.8614Z" fill="#A8E2DA"/>
<path d="M12.9979 16.3198C12.9979 16.3198 14.2029 15.515 16.4678 15.5881C16.4678 15.5881 16.8473 17.2347 15.0635 17.5091C13.2797 17.7834 12.9979 16.3198 12.9979 16.3198" fill="#FBCA3B"/>
<path d="M13.8483 16.5664C13.8483 16.5664 14.6071 16.1402 15.733 16.1552C15.733 16.1552 15.7483 16.8772 15.0152 16.9831C14.0772 17.1185 13.8483 16.5664 13.8483 16.5664Z" fill="#522B25"/>
<path d="M17.4288 15.0368C17.4288 15.0368 17.2613 18.1304 17.9789 18.1304C18.6966 18.1304 18.5557 15.0368 18.5557 15.0368C18.5557 15.0368 17.86 14.873 17.4288 15.0368Z" fill="#76D0BB"/>
<path d="M14.0482 17.8734L15.7329 17.6507V18.1304L14.1489 18.2847L14.0482 17.8734Z" fill="white"/>
<path d="M22.9643 16.3198C22.9643 16.3198 21.7594 15.515 19.4945 15.5881C19.4945 15.5881 19.115 17.2347 20.8988 17.5091C22.6827 17.7834 22.9643 16.3198 22.9643 16.3198" fill="#FBCA3B"/>
<path d="M22.1142 16.5664C22.1142 16.5664 21.3553 16.1402 20.2294 16.1552C20.2294 16.1552 20.2142 16.8772 20.9473 16.9831C21.8852 17.1185 22.1142 16.5664 22.1142 16.5664Z" fill="#522B25"/>
<path d="M21.9141 17.8734L20.2294 17.6507V18.1304L21.8135 18.2847L21.9141 17.8734" fill="white"/>
<path d="M17.4888 21.115C17.4888 21.115 16.5021 23.8529 16.5839 24.0928C16.6655 24.3326 19.3565 24.4124 19.5271 24.0071C19.6208 23.7843 18.7796 21.115 18.7796 21.115C18.7796 21.115 18.0051 20.7723 17.4888 21.115Z" fill="#A8E2DA"/>
<path d="M19.3024 21.4766C19.3024 21.4766 19.8945 23.6164 20.0425 23.761C20.1907 23.9059 21.765 23.2768 21.6912 22.9539C21.6506 22.7763 20.0412 21.1485 20.0412 21.1485C20.0412 21.1485 19.4532 21.1089 19.3024 21.4766" fill="#A8E2DA"/>
<path d="M16.9287 21.5225C16.9287 21.5225 16.3367 23.6622 16.1886 23.8069C16.0404 23.9518 14.4661 23.3228 14.5399 22.9998C14.5803 22.8221 16.1898 21.1944 16.1898 21.1944C16.1898 21.1944 16.7779 21.1549 16.9287 21.5225" fill="#A8E2DA"/>
<path d="M23.1835 24.2919C23.1835 24.2919 23.5998 24.5382 23.6803 25.235L21.8559 26.0002C21.8559 26.0002 21.6001 26.6712 21.4359 26.7649C21.2717 26.8583 19.7342 27.4794 19.7342 27.4794L19.4275 27.0598L20.5899 26.4737L19.2691 26.8598L19.109 26.43L20.4595 25.952L19.0631 26.1573L18.8605 25.7314L20.3474 25.3173L20.1509 25.1387L19.344 25.3056C19.344 25.3056 18.9668 24.9876 19.1759 24.694L20.2896 24.5076L21.2254 24.9266L23.1835 24.2919" fill="#C74F39"/>
<path d="M23.1302 24.5268C23.1302 24.5268 23.4387 24.8579 23.4254 25.1435L21.6936 25.7946L21.1985 25.6804L21.4399 25.212L23.1302 24.5268" fill="#A8E2DA"/>
<path d="M12.8939 24.2919C12.8939 24.2919 12.4776 24.5382 12.3971 25.235L14.2216 26.0002C14.2216 26.0002 14.4774 26.6712 14.6416 26.7649C14.8058 26.8583 16.3434 27.4794 16.3434 27.4794L16.65 27.0598L15.4875 26.4737L16.8084 26.8598L16.9684 26.43L15.6179 25.952L17.0144 26.1573L17.217 25.7314L15.7301 25.3173L15.9266 25.1387L16.7334 25.3056C16.7334 25.3056 17.1107 24.9876 16.9017 24.694L15.7878 24.5076L14.852 24.9266L12.8939 24.2919" fill="#C74F39"/>
<path d="M12.9474 24.5268C12.9474 24.5268 12.6388 24.8579 12.6522 25.1435L14.3839 25.7946L14.879 25.6804L14.6376 25.212L12.9474 24.5268" fill="#A8E2DA"/>
<path d="M12.3782 14.5838C12.3782 14.5838 12.68 15.4404 13.0019 15.9374C13.0019 15.9374 18.0929 13.967 23.2442 15.9374C23.2442 15.9374 23.6668 15.2348 23.8076 14.4296C23.8076 14.4296 18.2481 12.3353 12.3782 14.5838" fill="#FBCA3B"/>
<path d="M14.143 14.884C14.1391 15.0076 13.9863 15.1045 13.8411 15.1011C13.6958 15.0978 13.5492 14.9942 13.5531 14.8706C13.5571 14.7471 13.7109 14.6183 13.8561 14.6217C14.0013 14.6249 14.1469 14.7605 14.143 14.884" fill="#F57830"/>
<path d="M15.3023 14.5838C15.2983 14.7075 15.1455 14.8043 15.0003 14.8009C14.855 14.7977 14.7084 14.6941 14.7122 14.5704C14.7162 14.447 14.8701 14.3181 15.0152 14.3214C15.1604 14.3248 15.3061 14.4603 15.3023 14.5838Z" fill="#F57830"/>
<path d="M16.3957 14.4042C16.3918 14.5279 16.2389 14.6247 16.0937 14.6214C15.9484 14.6181 15.802 14.5145 15.8057 14.3907C15.8097 14.2674 15.9636 14.1385 16.1087 14.1419C16.2539 14.1452 16.3997 14.2807 16.3957 14.4042" fill="#F57830"/>
<path d="M17.5236 14.344C17.5197 14.4676 17.3669 14.5645 17.2217 14.5612C17.0764 14.5579 16.9298 14.4542 16.9337 14.3306C16.9376 14.2071 17.0915 14.0784 17.2367 14.0816C17.3819 14.0849 17.5275 14.2205 17.5236 14.344" fill="#F57830"/>
<path d="M18.5196 14.344C18.5157 14.4676 18.3629 14.5645 18.2177 14.5612C18.0724 14.5579 17.9259 14.4542 17.9296 14.3306C17.9336 14.2071 18.0875 14.0784 18.2326 14.0816C18.3778 14.0849 18.5236 14.2205 18.5196 14.344" fill="#F57830"/>
<path d="M19.6267 14.344C19.6228 14.4676 19.4699 14.5645 19.3247 14.5612C19.1795 14.5579 19.0328 14.4542 19.0367 14.3306C19.0406 14.2071 19.1945 14.0784 19.3397 14.0816C19.4849 14.0849 19.6306 14.2205 19.6267 14.344" fill="#F57830"/>
<path d="M20.6617 14.4042C20.6578 14.5279 20.505 14.6247 20.3598 14.6214C20.2145 14.6181 20.0679 14.5145 20.0717 14.3907C20.0756 14.2674 20.2296 14.1385 20.3747 14.1419C20.5199 14.1452 20.6656 14.2807 20.6617 14.4042" fill="#F57830"/>
<path d="M21.7619 14.5838C21.758 14.7075 21.6052 14.8043 21.46 14.8009C21.3147 14.7977 21.1681 14.6941 21.1719 14.5704C21.1759 14.4469 21.3298 14.3181 21.475 14.3215C21.6202 14.3247 21.7658 14.4603 21.7619 14.5838" fill="#F57830"/>
<path d="M22.8008 14.874C22.8027 14.9977 22.6545 15.0996 22.5092 15.1012C22.3639 15.1028 22.2126 15.0041 22.2107 14.8805C22.2088 14.757 22.3566 14.623 22.5019 14.6215C22.647 14.6199 22.7989 14.7505 22.8008 14.874" fill="#F57830"/>
<path d="M22.4948 9.96136L22.7657 10.0191L22.6856 9.69402C22.8503 9.48257 23.028 9.29546 23.2033 9.13314L23.3769 9.29881L23.3998 8.95993C23.8683 8.56723 24.2693 8.36383 24.2693 8.36383C24.129 8.53561 24.2328 8.90095 24.1368 9.22231L23.8726 9.46551L24.1388 9.48308C24.1391 9.7257 24.1316 9.99909 24.0927 10.3035L23.7837 10.4555L24.0385 10.6341C24.0323 10.6654 24.0272 10.6962 24.0201 10.7278C23.7539 11.9598 22.1183 12.696 22.1183 12.696C21.7634 11.5765 22.038 10.6591 22.4948 9.96136Z" fill="#FBCA3B"/>
<path d="M23.5451 9.48795C23.4566 9.64106 23.2268 10.1696 22.9441 10.798C22.8775 10.9566 22.8134 11.1088 22.754 11.2505C22.7249 11.3215 22.6971 11.3898 22.6706 11.4549C22.6473 11.5213 22.6253 11.5842 22.6045 11.6434C22.5233 11.8807 22.4679 12.058 22.4492 12.141C22.4908 12.0635 22.5661 11.8916 22.6609 11.6592C22.6845 11.6011 22.7094 11.5393 22.7357 11.4744C22.7646 11.41 22.7947 11.3425 22.8261 11.2723C22.8874 11.1316 22.9532 10.9803 23.0217 10.8228C23.3044 10.1944 23.5022 9.65298 23.5451 9.48795" fill="#D7A628"/>
<path d="M23.5235 11.1347C23.4714 11.1299 23.3155 11.1647 23.1401 11.2206C23.0959 11.233 23.0537 11.2449 23.0146 11.2572C22.9756 11.2696 22.9398 11.2823 22.9072 11.289C22.8425 11.3054 22.7938 11.3221 22.7716 11.336C22.7958 11.3423 22.8484 11.3432 22.9199 11.3383C22.9563 11.3373 22.9948 11.3293 23.0362 11.3197C23.0776 11.3103 23.1223 11.2999 23.1679 11.287C23.3467 11.2301 23.4873 11.1682 23.5235 11.1347" fill="#D7A628"/>
<path d="M22.5997 10.6406C22.5862 10.6856 22.6022 10.8289 22.6422 10.9964C22.6843 11.1623 22.7376 11.2983 22.7717 11.3359C22.7844 11.2905 22.7654 11.1477 22.7229 10.9812C22.6837 10.8157 22.6333 10.6791 22.5997 10.6406Z" fill="#D7A628"/>
<path d="M23.7815 10.0002C23.7428 9.9928 23.6368 10.0173 23.5188 10.0627C23.4019 10.1047 23.3099 10.1531 23.2872 10.1831C23.3241 10.1919 23.4324 10.1703 23.5532 10.1269C23.6701 10.0818 23.7614 10.0302 23.7815 10.0002" fill="#D7A628"/>
<path d="M23.2227 9.67097C23.2032 9.70181 23.1995 9.8 23.216 9.915C23.2405 10.0301 23.2796 10.1236 23.3088 10.1466C23.3258 10.113 23.3217 10.0164 23.298 9.90502C23.2817 9.79118 23.2507 9.69744 23.2227 9.67097" fill="#D7A628"/>
<path d="M13.8915 10.0171L13.6206 10.0749L13.7008 9.7498C13.5361 9.53835 13.3582 9.35124 13.183 9.18898L13.0094 9.35453L12.9864 9.01565C12.5181 8.62301 12.1168 8.41968 12.1168 8.41968C12.2572 8.59134 12.1535 8.95667 12.2494 9.2781L12.5136 9.52136L12.2474 9.53887C12.2471 9.78155 12.2546 10.0548 12.2935 10.3592L12.6026 10.5113L12.3478 10.6898C12.354 10.7211 12.359 10.7519 12.3661 10.7836C12.6324 12.0155 14.2679 12.7518 14.2679 12.7518C14.6229 11.6323 14.3482 10.7149 13.8915 10.0171" fill="#FBCA3B"/>
<path d="M12.8408 9.54392C12.9294 9.69684 13.1591 10.2255 13.4419 10.854C13.5085 11.0125 13.5725 11.1647 13.632 11.3064C13.661 11.3774 13.6888 11.4457 13.7154 11.5109C13.7385 11.5772 13.7607 11.6401 13.7815 11.6993C13.8627 11.9365 13.9181 12.1139 13.9368 12.1969C13.8952 12.1194 13.8199 11.9475 13.7251 11.7151C13.7015 11.6571 13.6765 11.5952 13.6502 11.5303C13.6214 11.4659 13.5913 11.3984 13.5599 11.3282C13.4987 11.1875 13.4328 11.0362 13.3643 10.8786C13.0815 10.2504 12.8839 9.70895 12.8408 9.54392Z" fill="#D7A628"/>
<path d="M12.8625 11.1904C12.9147 11.1856 13.0706 11.2205 13.246 11.2764C13.2902 11.2888 13.3324 11.3006 13.3715 11.3129C13.4106 11.3254 13.4463 11.3381 13.4789 11.3447C13.5436 11.3612 13.5923 11.3779 13.6145 11.3917C13.5903 11.3981 13.5378 11.399 13.4662 11.394C13.4298 11.3931 13.3913 11.385 13.3498 11.3755C13.3085 11.366 13.2637 11.3556 13.2183 11.3427C13.0393 11.2859 12.8988 11.2239 12.8625 11.1904Z" fill="#D7A628"/>
<path d="M13.7866 10.6965C13.8002 10.7414 13.7841 10.8847 13.7442 11.0522C13.7019 11.2182 13.6486 11.3541 13.6146 11.3917C13.6019 11.3463 13.621 11.2035 13.6633 11.0371C13.7027 10.8715 13.7531 10.735 13.7866 10.6965Z" fill="#D7A628"/>
<path d="M12.6045 10.0562C12.6431 10.0488 12.7491 10.0734 12.8671 10.1188C12.984 10.1607 13.0761 10.2092 13.0987 10.2392C13.0617 10.2479 12.9536 10.2263 12.8328 10.1829C12.7158 10.1378 12.6245 10.0863 12.6045 10.0562" fill="#D7A628"/>
<path d="M13.1633 9.72681C13.1829 9.75766 13.1866 9.85585 13.1701 9.97085C13.1456 10.0859 13.1065 10.1794 13.0773 10.2025C13.0604 10.1689 13.0642 10.0723 13.0881 9.9608C13.1044 9.84696 13.1354 9.75328 13.1633 9.72681" fill="#D7A628"/>
<path d="M19.2457 8.56178L18.8988 8.52186L19.1694 8.17507C19.0928 7.86362 18.9877 7.57542 18.8721 7.31723L18.5797 7.4415L18.7376 7.03778C18.4064 6.39545 18.05 6.00004 18.05 6.00004C18.1199 6.25553 17.7999 6.63993 17.7364 7.05208L17.9113 7.43976L17.5919 7.35509C17.4594 7.63756 17.319 7.95872 17.1983 8.32844L17.4755 8.62778L17.0815 8.73505C17.0715 8.77388 17.0605 8.8118 17.0516 8.85153C16.6901 10.3914 18.1935 11.895 18.1935 11.895C19.217 10.7317 19.3973 9.55484 19.2457 8.56178" fill="#FBCA3B"/>
<path d="M18.2804 7.59537C18.3001 7.80856 18.2795 8.5149 18.2662 9.35845C18.2574 9.56951 18.249 9.77201 18.2411 9.96041C18.2361 10.0545 18.2312 10.1453 18.2267 10.2317C18.2175 10.318 18.209 10.4 18.2009 10.4773C18.1661 10.7855 18.134 11.014 18.1106 11.118C18.1043 11.0113 18.1104 10.7813 18.1265 10.4733C18.1308 10.3964 18.1354 10.3144 18.1401 10.2284C18.1417 10.142 18.1433 10.0516 18.1451 9.95745C18.1505 9.76937 18.1564 9.56726 18.1623 9.35671C18.1757 8.51322 18.2406 7.80457 18.2804 7.59537" fill="#D7A628"/>
<path d="M17.408 9.52152C17.4713 9.53652 17.6339 9.63871 17.8078 9.77315C17.8524 9.80502 17.8951 9.83547 17.9339 9.86522C17.9727 9.89523 18.0073 9.9242 18.0417 9.94481C18.1081 9.98949 18.1555 10.0281 18.1741 10.053C18.1423 10.0509 18.0806 10.0312 18 9.99715C17.958 9.98164 17.9177 9.95704 17.8746 9.92948C17.8315 9.90225 17.7852 9.8725 17.7392 9.83947C17.5619 9.70245 17.4319 9.5747 17.408 9.52152Z" fill="#D7A628"/>
<path d="M18.7532 9.31116C18.7446 9.36911 18.6476 9.52957 18.5098 9.70876C18.3702 9.88551 18.234 10.0225 18.174 10.053C18.1839 9.99496 18.2838 9.83631 18.424 9.65931C18.56 9.48192 18.6932 9.34297 18.7532 9.31116Z" fill="#D7A628"/>
<path d="M17.726 8.09854C17.775 8.10524 17.885 8.17562 17.9977 8.27522C18.1109 8.3702 18.1917 8.46298 18.2017 8.50696C18.154 8.50258 18.0396 8.43452 17.9227 8.33626C17.811 8.23762 17.7328 8.14136 17.726 8.09854" fill="#D7A628"/>
<path d="M18.556 7.93581C18.5621 7.97941 18.5129 8.0953 18.431 8.22266C18.3396 8.347 18.2432 8.44042 18.1967 8.45581C18.1952 8.40997 18.2525 8.29909 18.3411 8.17868C18.4219 8.05268 18.5092 7.95558 18.556 7.93581Z" fill="#D7A628"/>
<path d="M19.2207 11.8213C19.2207 11.9584 18.4158 12.6951 18.2648 12.6951C18.0535 12.6951 17.2285 12.0269 17.2285 11.8213C17.2285 11.65 18.0334 10.9475 18.2648 10.9475C18.4559 10.9475 19.2207 11.6329 19.2207 11.8213Z" fill="#A8E2DA"/>
<path d="M22.8128 12.8888C22.7746 12.9925 21.9605 13.3883 21.8463 13.3578C21.6864 13.3153 21.2474 12.6433 21.3045 12.4876C21.3521 12.358 22.1566 11.9882 22.3317 12.0347C22.4764 12.0733 22.8651 12.7461 22.8128 12.8888" fill="#A8E2DA"/>
<path d="M13.4134 12.9984C13.4516 13.1021 14.2655 13.4979 14.3798 13.4674C14.5397 13.4248 14.9787 12.7529 14.9216 12.5973C14.874 12.4676 14.0695 12.0977 13.8944 12.1443C13.7497 12.1828 13.3611 12.8556 13.4134 12.9984Z" fill="#A8E2DA"/>
<path d="M18.8104 11.8213C18.8104 11.902 18.337 12.3353 18.2482 12.3353C18.1239 12.3353 17.6387 11.9423 17.6387 11.8213C17.6387 11.7206 18.1121 11.3073 18.2482 11.3073C18.3608 11.3073 18.8104 11.7105 18.8104 11.8213Z" fill="#76D0BB"/>
<path d="M22.5021 12.8062C22.4797 12.8673 22.001 13.1001 21.9337 13.0821C21.8395 13.0571 21.5814 12.6618 21.6151 12.5703C21.643 12.494 22.1163 12.2763 22.2193 12.3038C22.3044 12.3265 22.5329 12.7222 22.5021 12.8062" fill="#76D0BB"/>
<path d="M13.7238 12.9157C13.7463 12.9768 14.225 13.2096 14.2922 13.1916C14.3864 13.1667 14.6444 12.7714 14.6109 12.6798C14.5829 12.6036 14.1098 12.3859 14.0066 12.4134C13.9215 12.436 13.6931 12.8318 13.7238 12.9157Z" fill="#76D0BB"/>
<path d="M17.7479 21.0456C17.7479 21.0456 17.2119 23.2295 17.2564 23.3599C17.3008 23.4904 18.7646 23.5338 18.8572 23.3134C18.9083 23.1922 18.4499 21.0456 18.4499 21.0456C18.4499 21.0456 18.0288 20.8592 17.7479 21.0456Z" fill="#76D0BB"/>
<path d="M19.6332 21.5774C19.6332 21.5774 20.0668 22.9546 20.1363 23.0181C20.2058 23.0817 21.0554 22.747 21.0337 22.5987C21.0218 22.517 20.0336 21.405 20.0336 21.405C20.0336 21.405 19.7302 21.4022 19.6332 21.5774" fill="#76D0BB"/>
<path d="M16.6375 21.5774C16.6375 21.5774 16.2039 22.9546 16.1344 23.0181C16.0648 23.0817 15.2152 22.747 15.237 22.5987C15.2489 22.517 16.2371 21.405 16.2371 21.405C16.2371 21.405 16.5405 21.4022 16.6375 21.5774Z" fill="#76D0BB"/>
<path d="M18.0357 20.8208C18.1628 20.8209 18.8269 20.8578 19.6703 21.5519C19.7346 21.6049 19.9311 21.6667 20.2733 21.6667C20.8332 21.6667 21.4302 21.5071 21.586 21.4097C21.7482 21.0732 21.939 19.5304 21.8852 19.063C21.6677 19.0069 21.1552 18.9427 20.6573 18.9427C20.3088 18.9427 20.1531 18.9746 20.1023 18.9883C19.9872 19.0192 19.8735 19.1004 19.7296 19.2027C19.3958 19.4405 18.9387 19.7661 18.0311 19.7661C17.1234 19.7661 16.6663 19.4405 16.3326 19.2027C16.1888 19.1004 16.075 19.0192 15.96 18.9883C15.9092 18.9746 15.7534 18.9427 15.4051 18.9427C14.9071 18.9427 14.3944 19.0069 14.1772 19.063C14.1231 19.5308 14.3143 21.0756 14.4767 21.4106C14.6193 21.4991 15.1926 21.6543 15.7755 21.6543C16.1265 21.6543 16.3325 21.595 16.4083 21.5393C17.3187 20.8725 17.8759 20.8208 18.0249 20.8208L18.0357 20.8208ZM20.238 22.1028C19.7522 22.1028 19.3902 22.0207 19.1619 21.8587C18.4846 21.3781 17.9872 21.3682 17.9823 21.3682L17.9649 21.3686C17.9041 21.3729 17.4947 21.4185 16.7797 21.8696C16.5461 22.0171 16.1849 22.0919 15.7064 22.0919C15.1437 22.0919 14.2021 21.9684 13.8706 21.6936C13.8027 21.6374 13.5963 21.4663 13.4307 20.2863C13.2628 19.0888 13.4319 18.8909 13.4954 18.8164C13.5922 18.703 13.7608 18.6195 14.3015 18.5533C14.6219 18.5141 14.998 18.4916 15.3331 18.4916C15.6563 18.4916 15.9091 18.5123 16.0849 18.5532C16.3286 18.6097 16.5152 18.7243 16.6957 18.835C16.9931 19.0176 17.3007 19.2065 17.979 19.2065C18.6573 19.2065 18.965 19.0176 19.2624 18.835C19.4429 18.7243 19.6295 18.6097 19.8732 18.5532C20.049 18.5123 20.3019 18.4916 20.6249 18.4916C20.9601 18.4916 21.3362 18.5141 21.6567 18.5533C22.1973 18.6195 22.3659 18.703 22.4626 18.8164C22.5263 18.8909 22.6952 19.0888 22.5273 20.2863C22.3618 21.4663 22.1553 21.6374 22.0876 21.6936C21.7826 21.9464 20.89 22.1028 20.238 22.1028Z" fill="#F0384B"/>
<path d="M18.0355 20.8208C18.1627 20.8209 18.8268 20.8578 19.6701 21.5519C19.7345 21.6049 19.931 21.6667 20.2732 21.6667C20.833 21.6667 21.4301 21.5071 21.5858 21.4097C21.748 21.0732 21.9389 19.5304 21.8851 19.063C21.6676 19.0069 21.155 18.9427 20.6572 18.9427C20.3087 18.9427 20.153 18.9746 20.1022 18.9883C19.9871 19.0192 19.8734 19.1004 19.7295 19.2027C19.3957 19.4405 18.9386 19.7661 18.031 19.7661C17.1233 19.7661 16.6662 19.4405 16.3325 19.2027C16.1887 19.1004 16.0748 19.0192 15.9599 18.9883C15.9091 18.9746 15.7533 18.9427 15.405 18.9427C14.907 18.9427 14.3943 19.0069 14.1771 19.063C14.123 19.5308 14.3142 21.0756 14.4766 21.4106C14.6192 21.4991 15.1925 21.6543 15.7754 21.6543C16.1263 21.6543 16.3323 21.595 16.4082 21.5393C17.3186 20.8725 17.8757 20.8208 18.0248 20.8208L18.0355 20.8208" fill="#522B25"/>
<path d="M21.5535 18.8932C21.5753 19.1502 21.5316 19.6038 21.0737 19.5866C20.6594 19.5866 20.5285 19.1412 20.4194 18.9014C20.4194 19.1755 20.463 19.7237 20.0705 19.7923C19.5333 19.8861 19.2855 19.6381 19.1984 19.3296C19.1547 19.6038 19.2359 19.9715 18.8929 20.0835C18.2387 20.2972 18.1298 19.895 17.9116 19.6723C17.9116 19.6723 17.8832 20.2016 17.2138 20.1577C16.9521 20.1406 16.734 19.6894 16.734 19.4496C16.3414 20.2972 15.5127 19.7923 15.5345 18.9355C15.5564 19.2098 15.3819 19.7237 14.9021 19.621C14.5314 19.5353 14.5532 19.0898 14.5532 18.85C14.5532 18.85 15.5977 18.5347 16.1007 18.7865C16.6038 19.0384 17.9152 20.2386 19.7647 18.8932C20.1252 18.7471 21.5535 18.8932 21.5535 18.8932" fill="white"/>
<path d="M21.5577 21.825C21.5577 21.5851 21.5796 21.1396 21.2088 21.054C20.729 20.9512 20.5546 21.4652 20.5763 21.7393C20.5982 20.8826 19.7695 20.3776 19.377 21.2253C19.377 20.9855 19.1588 20.5342 18.8972 20.5171C18.2278 20.4733 18.1994 21.0026 18.1994 21.0026C17.9812 20.7799 17.8722 20.3776 17.218 20.5914C16.8751 20.7034 16.9562 21.0711 16.9126 21.3452C16.8255 21.0368 16.5776 20.7888 16.0404 20.8826C15.6478 20.9512 15.6915 21.4994 15.6915 21.7736C15.5824 21.5337 15.4515 21.0882 15.0371 21.0882C14.5793 21.0711 14.5356 21.5246 14.5574 21.7816C14.5574 21.7816 16.1612 22.1909 17.3483 21.2656C17.8916 21.0258 18.8173 21.2829 19.4007 21.6426C19.9843 22.0025 21.5577 21.825 21.5577 21.825" fill="white"/>
</g>
<path d="M17.9997 30.6524C11.1291 30.6524 5.55907 25.0437 5.55907 18.1247C5.55907 11.2065 11.1291 5.59768 17.9997 5.59768C24.8709 5.59768 30.4409 11.2065 30.4409 18.1247C30.4409 25.0437 24.8709 30.6524 17.9997 30.6524V30.6524ZM17.9997 -1.78531e-06C8.05875 -1.78531e-06 0 8.11475 0 18.1247C0 26.6977 5.91292 33.8752 13.8539 35.7614L17.9997 57L22.1454 35.7614C30.0871 33.8752 36 26.6977 36 18.1247C36 8.11475 27.9406 -1.78531e-06 17.9997 -1.78531e-06" fill="#008672"/>
<defs>
<filter id="filter0_d_84_10928" x="3" y="6" width="30.0001" height="30.5841" filterUnits="userSpaceOnUse" color-interpolation-filters="sRGB">
<feFlood flood-opacity="0" result="BackgroundImageFix"/>
<feColorMatrix in="SourceAlpha" type="matrix" values="0 0 0 0 0 0 0 0 0 0 0 0 0 0 0 0 0 0 127 0" result="hardAlpha"/>
<feOffset dy="4"/>
<feGaussianBlur stdDeviation="2"/>
<feComposite in2="hardAlpha" operator="out"/>
<feColorMatrix type="matrix" values="0 0 0 0 0 0 0 0 0 0 0 0 0 0 0 0 0 0 0.25 0"/>
<feBlend mode="normal" in2="BackgroundImageFix" result="effect1_dropShadow_84_10928"/>
<feBlend mode="normal" in="SourceGraphic" in2="effect1_dropShadow_84_10928" result="shape"/>
</filter>
</defs>
</svg>
