<svg width="70" height="70" viewBox="0 0 70 70" fill="none" xmlns="http://www.w3.org/2000/svg">
<g opacity="0.65">
<path d="M35 40C36.3261 40 37.5979 39.4732 38.5355 38.5355C39.4732 37.5979 40 36.3261 40 35C40 33.6739 39.4732 32.4021 38.5355 31.4645C37.5979 30.5268 36.3261 30 35 30C33.6739 30 32.4021 30.5268 31.4645 31.4645C30.5268 32.4021 30 33.6739 30 35C30 36.3261 30.5268 37.5979 31.4645 38.5355C32.4021 39.4732 33.6739 40 35 40Z" fill="#930006"/>
<path d="M55 35C55 40.3043 52.8929 45.3914 49.1421 49.1421C45.3914 52.8929 40.3043 55 35 55C29.6957 55 24.6086 52.8929 20.8579 49.1421C17.1071 45.3914 15 40.3043 15 35C15 29.6957 17.1071 24.6086 20.8579 20.8579C24.6086 17.1071 29.6957 15 35 15C40.3043 15 45.3914 17.1071 49.1421 20.8579C52.8929 24.6086 55 29.6957 55 35ZM35 50C38.9782 50 42.7936 48.4197 45.6066 45.6066C48.4197 42.7936 50 38.9782 50 35C50 31.0218 48.4197 27.2064 45.6066 24.3934C42.7936 21.5804 38.9782 20 35 20C31.0218 20 27.2064 21.5804 24.3934 24.3934C21.5804 27.2064 20 31.0218 20 35C20 38.9782 21.5804 42.7936 24.3934 45.6066C27.2064 48.4197 31.0218 50 35 50Z" fill="#930006"/>
<path d="M70 35C70 44.2826 66.3125 53.185 59.7487 59.7487C53.185 66.3125 44.2826 70 35 70C25.7174 70 16.815 66.3125 10.2513 59.7487C3.68749 53.185 0 44.2826 0 35C0 25.7174 3.68749 16.815 10.2513 10.2513C16.815 3.68749 25.7174 0 35 0C44.2826 0 53.185 3.68749 59.7487 10.2513C66.3125 16.815 70 25.7174 70 35ZM35 65C38.9397 65 42.8407 64.224 46.4805 62.7164C50.1203 61.2087 53.4274 58.999 56.2132 56.2132C58.999 53.4274 61.2087 50.1203 62.7164 46.4805C64.224 42.8407 65 38.9397 65 35C65 31.0603 64.224 27.1593 62.7164 23.5195C61.2087 19.8797 58.999 16.5726 56.2132 13.7868C53.4274 11.001 50.1203 8.79125 46.4805 7.28361C42.8407 5.77597 38.9397 5 35 5C27.0435 5 19.4129 8.1607 13.7868 13.7868C8.1607 19.4129 5 27.0435 5 35C5 42.9565 8.1607 50.5871 13.7868 56.2132C19.4129 61.8393 27.0435 65 35 65Z" fill="#930006"/>
</g>
</svg>
