<svg width="39" height="57" viewBox="0 0 39 57" fill="none" xmlns="http://www.w3.org/2000/svg">
<circle cx="19.4084" cy="19.4084" r="14.4177" fill="#2B4A5F"/>
<path d="M21.8109 8.31787L11.2807 11.1281L14.0507 13.5539L20.4856 11.8219L20.5824 11.7966L21.8109 8.31787ZM22.6241 8.69167L21.3299 12.3521L25.6994 16.7304L30.2563 16.312L22.6241 8.69167ZM20.6315 9.26648L20.222 10.8704C20.2086 10.131 18.4097 10.0594 15.0962 10.6619L20.6315 9.26653L20.6315 9.26648ZM23.0649 9.96343L28.9502 15.8443L26.146 16.2047C26.918 15.1864 24.6079 11.8628 23.0649 9.96343ZM10.5824 11.6999L7.76331 22.2165L11.528 20.7169L13.3046 14.0855L10.5824 11.6999ZM20.4677 12.7483L14.1281 14.4548L12.4259 20.8108L17.0603 25.4585L23.4014 23.752L25.1036 17.3961L20.4677 12.7483H20.4677ZM10.8548 13.0193L12.42 14.4727L10.9829 20.1422L9.12298 20.8957C11.5446 19.4402 12.2523 14.6943 10.8549 13.0193H10.8548ZM20.1892 13.7236L24.1281 17.688L22.6911 23.1116L20.5615 23.682C26.2575 18.5414 18.9024 12.3224 14.2949 16.9687L14.7655 15.1862L20.1893 13.7237L20.1892 13.7236ZM30.3978 17.1935L25.9718 17.6L24.2577 23.9948L27.6575 27.4184L30.3977 17.1935H30.3978ZM29.5742 17.8547L28.1802 23.39C28.5009 20.1079 28.1788 19.0606 26.7194 18.0766L29.5742 17.8547ZM11.8869 21.5331L7.98376 23.0878L15.6919 30.7825L16.5168 26.1733L11.8869 21.5331H11.8869ZM11.8914 22.4862L15.6144 26.4147L15.2599 29.3395C15.0107 27.2157 13.9094 25.245 11.8914 22.4861L11.8914 22.4862ZM23.6203 24.6157L17.4 26.2896L16.563 30.9687L27.1274 28.1496L23.6203 24.6157ZM24.5079 26.641L25.665 27.825L20.1742 29.3842C23.0945 28.1239 24.1457 27.6011 24.5079 26.641Z" fill="#C7E6FF"/>
<path d="M19.3315 33.2619C11.6384 33.2619 5.40108 27.0253 5.40108 19.3322C5.40108 11.6384 11.6384 5.40182 19.3315 5.40182C27.0246 5.40182 33.2619 11.6384 33.2619 19.3322C33.2619 27.0253 27.0246 33.2619 19.3315 33.2619ZM38.663 19.3322C38.663 8.65503 30.0079 0 19.3315 0C8.65503 0 0 8.65503 0 19.3322C0 30.0087 8.65503 38.6637 19.3315 38.6637V57L35.7691 29.5052C35.8571 29.3632 35.9421 29.219 36.0264 29.0741L36.0464 29.0409H36.0456C37.707 26.1869 38.663 22.8723 38.663 19.3322Z" fill="#2B4A5F"/>
</svg>
