<svg width="39" height="57" viewBox="0 0 39 57" fill="none" xmlns="http://www.w3.org/2000/svg">
<circle cx="19.4084" cy="19.4084" r="14.4177" fill="#2B4A5F"/>
<path d="M17.7549 11.0001L14.9082 11.9484L22.2621 14.3979L25.1089 13.4496L17.7549 11V11.0001ZM14.0331 12.5092V15.1186L21.8578 17.7249V15.1156L14.0331 12.5092H14.0331ZM13.2245 14.7649L10.8117 15.5686L18.1174 18.0022L19.1244 17.6668L13.5011 15.7935C13.4206 15.7667 13.3506 15.7153 13.3009 15.6464C13.2513 15.5776 13.2246 15.4949 13.2245 15.4101V14.7649H13.2245ZM9.93667 16.1294V18.7388L15.43 20.5686V19.1891C15.4301 19.1837 15.4304 19.1784 15.4308 19.173C15.4309 19.1702 15.4311 19.1673 15.4312 19.1644C15.4319 19.1539 15.4329 19.1435 15.4344 19.1331C15.4348 19.13 15.4352 19.127 15.4357 19.1239C15.4374 19.1139 15.4394 19.1041 15.4418 19.0942C15.4426 19.0907 15.4435 19.0872 15.4444 19.0836C15.447 19.0743 15.4498 19.0651 15.453 19.056C15.4543 19.0522 15.4557 19.0485 15.4571 19.0448C15.4604 19.0362 15.464 19.0277 15.4678 19.0194C15.4698 19.0151 15.4718 19.0109 15.4739 19.0067C15.4776 18.9993 15.4816 18.992 15.4858 18.9848C15.4886 18.9799 15.4916 18.9751 15.4946 18.9704C15.4986 18.9641 15.5028 18.958 15.5072 18.952C15.511 18.9468 15.5149 18.9416 15.5189 18.9366C15.5231 18.9314 15.5274 18.9262 15.5318 18.9212C15.5364 18.9159 15.5412 18.9108 15.5461 18.9058C15.5505 18.9014 15.555 18.897 15.5596 18.8928C15.565 18.8877 15.5706 18.8827 15.5764 18.8779C15.5808 18.8743 15.5853 18.8708 15.5899 18.8673C15.5963 18.8624 15.6028 18.8577 15.6095 18.8532C15.6138 18.8503 15.618 18.8476 15.6224 18.845C15.6298 18.8404 15.6373 18.836 15.6449 18.8319C15.6488 18.8299 15.6527 18.8279 15.6566 18.826C15.6653 18.8217 15.6741 18.8178 15.6831 18.8142C15.6862 18.8129 15.6894 18.8117 15.6926 18.8105C15.6973 18.8086 15.702 18.8068 15.7068 18.805L16.8379 18.4283L9.93667 16.1294ZM26.3263 17.3581L22.3898 18.6694C22.3861 18.6705 22.3824 18.6715 22.3787 18.6725C22.3734 18.6741 22.3681 18.6756 22.3627 18.677C22.3561 18.6787 22.3495 18.6802 22.3428 18.6815C22.3358 18.683 22.3288 18.6842 22.3217 18.6853C22.3157 18.6862 22.3098 18.687 22.3037 18.6876C22.2964 18.6883 22.2891 18.6889 22.2817 18.6893C22.2754 18.6895 22.2691 18.6896 22.2627 18.6896C22.2555 18.6896 22.2484 18.6895 22.2412 18.6891C22.2352 18.6888 22.2293 18.6884 22.2233 18.6878C22.2158 18.6871 22.2082 18.6862 22.2007 18.6851C22.195 18.6842 22.1893 18.6831 22.1836 18.682C22.1758 18.6804 22.168 18.6787 22.1603 18.6767C22.1556 18.6755 22.151 18.6742 22.1463 18.6728C22.1423 18.6717 22.1383 18.6705 22.1343 18.6693L20.4036 18.0928L17.114 19.1887L19.9606 20.137L27.3146 17.6873L26.3263 17.3581ZM16.2386 19.7498V22.3591L19.5561 23.4643V21.837L19.5563 21.8371V20.8545L19.4327 20.8134L19.4321 20.8136L16.2386 19.7498H16.2386ZM12.4124 20.4156L9.87485 21.2611L12.7217 22.2094L15.2591 21.3641L12.4124 20.4158L12.4124 20.4156ZM9 21.8221V24.4316L12.3175 25.5366V22.9272L9 21.8221ZM26.5288 22.2631L23.6819 23.2115L25.3118 23.7544L28.1587 22.806L26.5289 22.2631H26.5288ZM17.083 23.4928V24.4748L24.9076 27.0812V24.4718L22.4027 23.6374L20.0885 24.4084C20.0856 24.4092 20.0828 24.41 20.0799 24.4108C20.073 24.4129 20.066 24.4149 20.059 24.4167C20.054 24.4179 20.049 24.419 20.044 24.4201C20.0353 24.4219 20.0265 24.4235 20.0176 24.4249C20.0138 24.4254 20.0101 24.4258 20.0063 24.4262C19.9962 24.4274 19.9861 24.4282 19.976 24.4286C19.9731 24.4287 19.9701 24.4287 19.9672 24.4288C19.9568 24.429 19.9464 24.4288 19.9361 24.4282C19.933 24.428 19.9299 24.4277 19.9268 24.4275C19.9159 24.4266 19.9051 24.4252 19.8943 24.4234C19.8925 24.4231 19.8907 24.4228 19.8888 24.4225C19.8768 24.4204 19.8649 24.4177 19.8531 24.4144C19.8528 24.4143 19.8524 24.4142 19.852 24.4141C19.8455 24.4125 19.839 24.4106 19.8326 24.4086L17.0831 23.4927L17.083 23.4928Z" fill="#C7E6FF"/>
<path d="M19.3315 33.2619C11.6384 33.2619 5.40108 27.0253 5.40108 19.3322C5.40108 11.6384 11.6384 5.40182 19.3315 5.40182C27.0246 5.40182 33.2619 11.6384 33.2619 19.3322C33.2619 27.0253 27.0246 33.2619 19.3315 33.2619ZM38.663 19.3322C38.663 8.65503 30.0079 0 19.3315 0C8.65503 0 0 8.65503 0 19.3322C0 30.0087 8.65503 38.6637 19.3315 38.6637V57L35.7691 29.5052C35.8571 29.3632 35.9421 29.219 36.0264 29.0741L36.0464 29.0409H36.0456C37.707 26.1869 38.663 22.8723 38.663 19.3322Z" fill="#2B4A5F"/>
</svg>
