<svg width="36" height="58" viewBox="0 0 36 58" fill="none" xmlns="http://www.w3.org/2000/svg">
<circle cx="18" cy="18" r="13" fill="#680003"/>
<path d="M18.007 9C17.1015 9 16.1923 9.11627 15.5452 9.32987C15.2217 9.4366 14.9659 9.5692 14.8124 9.69906C14.6589 9.82885 14.6111 9.92912 14.6104 10.0452L14.6082 10.3906H9.62338V10.9313H26.3766V10.3906H21.3883L21.3896 10.0416C21.39 9.92569 21.344 9.82727 21.1926 9.69806C21.0411 9.56889 20.7871 9.43644 20.4649 9.32976C19.8204 9.11642 18.9125 9 18.007 9ZM9.51729 11.6266L9.11042 15.2575H12.2624L13.0511 11.9217L12.8108 15.2575H15.9694L16.6361 11.9094L16.5155 15.2575H19.4668L19.2863 11.9156L20.0141 15.2575H23.1893L22.949 11.9217L23.7376 15.2575H26.8896L26.4827 11.6266H9.51729ZM9.03249 15.9528L9.01262 16.13C9.57748 16.9356 10.0897 17.2661 10.5195 17.2661C10.9605 17.2661 11.4877 16.9227 12.0701 16.0702L12.0979 15.9528H9.03249ZM12.7606 15.9528L12.7481 16.1265C13.3151 16.9376 13.8286 17.2661 14.2597 17.2661C14.6997 17.2661 15.2255 16.9242 15.8062 16.0763L15.8308 15.9528H12.7606ZM16.4905 15.9528L16.4845 16.1209C17.0529 16.936 17.5678 17.2661 18 17.2661C18.4317 17.2661 18.946 16.9368 19.5136 16.1237L19.5044 15.9528H16.4905H16.4905ZM20.1655 15.9528L20.1918 16.0733C20.7762 16.9305 21.3023 17.2724 21.7414 17.2712C22.1711 17.2701 22.6847 16.9383 23.2519 16.1265L23.2395 15.9528H20.1655H20.1655ZM23.9021 15.9528L23.9299 16.0702C24.5122 16.9227 25.0395 17.2661 25.4805 17.2661C25.9103 17.2661 26.4225 16.9356 26.9874 16.13L26.9675 15.9528H23.9021H23.9021ZM12.3896 16.8145C11.8174 17.5407 11.201 17.9614 10.5195 17.9614C9.97512 17.9614 9.47205 17.6946 9 17.2173V27H21.3896V18.9657H25.8312V27H27V17.2173C26.5279 17.6946 26.0249 17.9614 25.4805 17.9614C24.7991 17.9614 24.1827 17.5408 23.6105 16.8148C23.0392 17.5413 22.4249 17.9647 21.7433 17.9665C21.0612 17.9684 20.4439 17.5466 19.8696 16.8152C19.2975 17.541 18.6813 17.9614 18 17.9614C17.3185 17.9614 16.7021 17.5407 16.1299 16.8145C15.5576 17.5407 14.9412 17.9614 14.2597 17.9614C13.5782 17.9614 12.9618 17.5407 12.3896 16.8145ZM10.1688 18.9657H20.2208V25.8412H10.1688V18.9657ZM10.8701 19.6609V25.1459H19.5195V19.6609H10.8701ZM22.0909 19.6609V22.4059L25.1299 22.428V19.6609H22.0909ZM11.4545 20.2403H16.4416C12.2246 20.5494 11.91 21.1674 11.4545 24.6094V20.2403ZM22.0909 23.1013V23.642L25.1299 23.6641V23.1232L22.0909 23.1012V23.1013ZM22.0909 24.3373V27H25.1299V24.3593L22.0909 24.3373V24.3373Z" fill="#FF897A"/>
<path d="M17.9996 30.7302C11.129 30.7302 5.55893 25.1072 5.55893 18.1707C5.55893 11.235 11.129 5.612 17.9996 5.612C24.8708 5.612 30.4409 11.235 30.4409 18.1707C30.4409 25.1072 24.8708 30.7302 17.9996 30.7302ZM16.7219 0.0446281C8.09442 0.645775 1.00151 7.52872 0.101733 16.2116C-0.725762 24.1968 3.57486 31.2723 10.0867 34.4941C13.1723 36.021 15.1763 39.131 15.1763 42.5996V48.1815H11.7534L17.9996 58L24.2457 48.1815H20.8235V42.5982C20.8235 39.149 22.7938 36.0265 25.8663 34.5171C31.8653 31.5704 36 25.3588 36 18.1707C36 7.70871 27.2411 -0.688564 16.7219 0.0446281Z" fill="#680003"/>
</svg>
