<svg width="36" height="58" viewBox="0 0 36 58" fill="none" xmlns="http://www.w3.org/2000/svg">
<circle cx="18" cy="18" r="13" fill="#008672"/>
<path d="M18 7L8.26896 16.8716L8 17.1442L8.53774 17.6897L8.80653 17.4169L18 8.09087L27.1935 17.4169L27.4623 17.6897L28 17.1442L27.731 16.8715L18 7ZM11.2412 8.23112V12.8279L13.9447 10.0853V8.23112H11.2412ZM18 9.1193L9.88949 17.3468V27H12.593V19.8867H16.6482V27H26.1105V17.3468L18 9.1193ZM19.3518 19.8867H23.407V23.3148H19.3518V19.8867Z" fill="#77F8DE"/>
<path d="M17.9996 30.7302C11.129 30.7302 5.55893 25.1072 5.55893 18.1707C5.55893 11.235 11.129 5.612 17.9996 5.612C24.8708 5.612 30.4409 11.235 30.4409 18.1707C30.4409 25.1072 24.8708 30.7302 17.9996 30.7302ZM16.7219 0.0446281C8.09442 0.645775 1.00151 7.52872 0.101733 16.2116C-0.725762 24.1968 3.57486 31.2723 10.0867 34.4941C13.1723 36.021 15.1763 39.131 15.1763 42.5996V48.1815H11.7534L17.9996 58L24.2457 48.1815H20.8235V42.5982C20.8235 39.149 22.7938 36.0265 25.8663 34.5171C31.8653 31.5704 36 25.3588 36 18.1707C36 7.70871 27.2411 -0.688564 16.7219 0.0446281Z" fill="#008672"/>
</svg>
