<svg width="36" height="57" viewBox="0 0 36 57" fill="none" xmlns="http://www.w3.org/2000/svg">
<circle cx="17.5" cy="18.5" r="13.5" fill="#77F8DE"/>
<path d="M18 31.1653C10.925 31.1653 5.18928 25.364 5.18928 18.2071C5.18928 11.0502 10.925 5.24813 18 5.24813C25.075 5.24813 30.8107 11.0502 30.8107 18.2071C30.8107 25.364 25.075 31.1653 18 31.1653ZM35.9852 17.4574C35.6054 7.88889 27.7189 0.132118 18.2532 0.000305176C18.1681 -0.001194 18.0844 0.00330353 18 0.00330353C17.9156 0.00330353 17.8319 -0.001194 17.7468 0.000305176C8.28108 0.132118 0.394593 7.88889 0.0147799 17.4574C-0.120709 20.886 0.68112 24.1147 2.18186 26.9023L18 57L33.8181 26.9023C35.3189 24.1147 36.1207 20.886 35.9852 17.4574Z" fill="#008672"/>
</svg>
