<svg width="20" height="17" viewBox="0 0 20 17" fill="none" xmlns="http://www.w3.org/2000/svg">
<path d="M8.75487 8.97944e-05L5.90817 0.948391L13.2621 3.39789L16.1089 2.44959L8.75487 0V8.97944e-05ZM5.03309 1.50915V4.11857L12.8578 6.72494V4.11561L5.03314 1.50915H5.03309ZM4.2245 3.7649L1.81174 4.56855L9.11739 7.0022L10.1244 6.66677L4.50108 4.79352C4.42058 4.76671 4.35055 4.71525 4.30092 4.64643C4.25129 4.57761 4.22457 4.49492 4.22454 4.41007V3.7649H4.2245ZM0.936666 5.1294V7.73883L6.42998 9.56863V8.18908C6.43015 8.18373 6.43042 8.17838 6.43079 8.17304C6.43091 8.17016 6.43106 8.16729 6.43124 8.16442C6.43188 8.15394 6.43293 8.1435 6.43438 8.13311C6.4348 8.13003 6.43525 8.12696 6.43573 8.1239C6.43737 8.11394 6.43938 8.10405 6.44175 8.09425C6.4426 8.0907 6.4435 8.08717 6.44445 8.08365C6.44696 8.07432 6.44981 8.06509 6.45298 8.05597C6.45431 8.05224 6.45568 8.04853 6.45712 8.04483C6.46039 8.03622 6.46395 8.02773 6.46781 8.01936C6.46975 8.01511 6.47178 8.01088 6.47387 8.00669C6.47761 7.99927 6.48158 7.99196 6.48578 7.98477C6.48862 7.97992 6.49158 7.97513 6.49463 7.9704C6.49865 7.96414 6.50284 7.958 6.5072 7.95198C6.51097 7.94677 6.51487 7.94164 6.51888 7.93662C6.52307 7.93136 6.52738 7.92621 6.53182 7.92116C6.53645 7.91592 6.54121 7.9108 6.54611 7.9058C6.5505 7.90135 6.55499 7.89701 6.55958 7.89277C6.56504 7.88768 6.57065 7.88273 6.57638 7.87795C6.5808 7.87431 6.58529 7.87076 6.58986 7.8673C6.59627 7.86239 6.60284 7.85767 6.60954 7.85315C6.61377 7.85035 6.61805 7.84762 6.62238 7.84498C6.62976 7.84039 6.63728 7.83605 6.64493 7.83195C6.64879 7.82989 6.65269 7.8279 6.65661 7.82597C6.6653 7.82173 6.67414 7.81781 6.68312 7.8142C6.68625 7.81294 6.68939 7.81171 6.69255 7.81052C6.69726 7.8086 6.70201 7.80678 6.70679 7.80504L7.83792 7.42828L0.936666 5.1294ZM17.3263 6.35811L13.3898 7.66938C13.3861 7.67048 13.3824 7.67153 13.3787 7.67252C13.3734 7.67413 13.3681 7.67563 13.3627 7.67701C13.3561 7.67868 13.3495 7.68018 13.3428 7.6815C13.3358 7.68296 13.3288 7.68424 13.3217 7.68532C13.3157 7.68621 13.3098 7.68696 13.3037 7.68757C13.2964 7.68834 13.2891 7.68891 13.2817 7.68928C13.2754 7.68953 13.2691 7.68964 13.2627 7.68959C13.2555 7.68963 13.2484 7.68948 13.2412 7.68914C13.2352 7.68882 13.2293 7.68838 13.2233 7.68779C13.2158 7.68711 13.2082 7.68621 13.2007 7.6851C13.195 7.68417 13.1893 7.68312 13.1836 7.68195C13.1758 7.68043 13.168 7.67868 13.1603 7.6767C13.1556 7.67548 13.151 7.67418 13.1463 7.67279C13.1423 7.6717 13.1383 7.67055 13.1343 7.66933L11.4036 7.0928L8.11401 8.18867L10.9606 9.13697L18.3146 6.68729L17.3263 6.35811ZM7.23862 8.74984V11.3591L10.5561 12.4643V10.837L10.5563 10.8371V9.85451L10.4327 9.81341L10.4321 9.81359L7.23858 8.74984H7.23862ZM3.41245 9.41558L0.874853 10.2611L3.72169 11.2094L6.2591 10.3641L3.4124 9.41576L3.41245 9.41558ZM0 10.8221V13.4316L3.31748 14.5366V11.9272L0 10.8221ZM17.5288 11.2631L14.6819 12.2115L16.3118 12.7544L19.1587 11.806L17.5289 11.2631H17.5288ZM8.08302 12.4928V13.4748L15.9076 16.0812V13.4718L13.4027 12.6374L11.0885 13.4084C11.0856 13.4092 11.0828 13.41 11.0799 13.4108C11.073 13.4129 11.066 13.4149 11.059 13.4167C11.054 13.4179 11.049 13.419 11.044 13.4201C11.0353 13.4219 11.0265 13.4235 11.0176 13.4249C11.0138 13.4254 11.0101 13.4258 11.0063 13.4262C10.9962 13.4274 10.9861 13.4282 10.976 13.4286C10.9731 13.4287 10.9701 13.4287 10.9672 13.4288C10.9568 13.429 10.9464 13.4288 10.9361 13.4282C10.933 13.428 10.9299 13.4277 10.9268 13.4275C10.9159 13.4266 10.9051 13.4252 10.8943 13.4234C10.8925 13.4231 10.8907 13.4228 10.8888 13.4225C10.8768 13.4204 10.8649 13.4177 10.8531 13.4144C10.8528 13.4143 10.8524 13.4142 10.852 13.4141C10.8455 13.4125 10.839 13.4106 10.8326 13.4086L8.08306 12.4927L8.08302 12.4928Z" fill="#C7E6FF"/>
</svg>
