<svg width="24" height="23" viewBox="0 0 24 23" fill="none" xmlns="http://www.w3.org/2000/svg">
<path d="M14.8109 0.317871L4.28073 3.12806L7.0507 5.55391L13.4856 3.82191L13.5824 3.79665L14.8109 0.317871ZM15.6241 0.691673L14.3299 4.35211L18.6994 8.73037L23.2563 8.31196L15.6241 0.691673ZM13.6315 1.26648L13.222 2.87039C13.2086 2.13098 11.4097 2.0594 8.09624 2.66185L13.6315 1.26653L13.6315 1.26648ZM16.0649 1.96343L21.9502 7.84433L19.146 8.20474C19.918 7.18636 17.6079 3.86284 16.0649 1.96343ZM3.58236 3.69991L0.763306 14.2165L4.52801 12.7169L6.30457 6.08549L3.58236 3.69991ZM13.4677 4.74831L7.12814 6.45482L5.42592 12.8108L10.0603 17.4585L16.4014 15.752L18.1036 9.39605L13.4677 4.74831H13.4677ZM3.85484 5.01927L5.42001 6.47274L3.98294 12.1422L2.12298 12.8957C4.54464 11.4402 5.25231 6.69433 3.85489 5.01927H3.85484ZM13.1892 5.72361L17.1281 9.68803L15.6911 15.1116L13.5615 15.682C19.2575 10.5414 11.9024 4.32237 7.29493 8.96869L7.76552 7.18617L13.1893 5.72375L13.1892 5.72361ZM23.3978 9.19352L18.9718 9.60001L17.2577 15.9948L20.6575 19.4184L23.3977 9.19352H23.3978ZM22.5742 9.85473L21.1802 15.39C21.5009 12.1079 21.1788 11.0606 19.7194 10.0766L22.5742 9.85473ZM4.88695 13.5331L0.983755 15.0878L8.69187 22.7825L9.51677 18.1733L4.8869 13.5331H4.88695ZM4.89142 14.4862L8.61439 18.4147L8.25993 21.3395C8.0107 19.2157 6.9094 17.245 4.89138 14.4861L4.89142 14.4862ZM16.6203 16.6157L10.4 18.2896L9.563 22.9687L20.1274 20.1496L16.6203 16.6157ZM17.5079 18.641L18.665 19.825L13.1742 21.3842C16.0945 20.1239 17.1457 19.6011 17.5079 18.641Z" fill="#C7E6FF"/>
</svg>
