<svg width="24" height="24" viewBox="0 0 24 24" fill="none" xmlns="http://www.w3.org/2000/svg">
<path d="M10.2 13.4999C10.4387 13.4999 10.6676 13.405 10.8364 13.2363C11.0052 13.0675 11.1 12.8386 11.1 12.5999C11.1 12.3612 11.0052 12.1323 10.8364 11.9635C10.6676 11.7947 10.4387 11.6999 10.2 11.6999C9.96128 11.6999 9.73236 11.7947 9.56358 11.9635C9.3948 12.1323 9.29998 12.3612 9.29998 12.5999C9.29998 12.8386 9.3948 13.0675 9.56358 13.2363C9.73236 13.405 9.96128 13.4999 10.2 13.4999ZM13.2 4.19987C13.1999 4.11338 13.1812 4.02793 13.1451 3.94936C13.1089 3.87079 13.0562 3.80096 12.9906 3.74466C12.9249 3.68835 12.8479 3.64691 12.7647 3.62316C12.6816 3.59941 12.5943 3.59392 12.5088 3.60707L4.10878 4.89107C3.96715 4.91285 3.838 4.98459 3.74468 5.09332C3.65136 5.20205 3.60003 5.34058 3.59998 5.48387V18.5159C3.60003 18.6592 3.65136 18.7977 3.74468 18.9064C3.838 19.0151 3.96715 19.0869 4.10878 19.1087L12.5088 20.3939C12.5943 20.407 12.6816 20.4015 12.7647 20.3778C12.8479 20.354 12.9249 20.3126 12.9906 20.2563C13.0562 20.2 13.1089 20.1302 13.1451 20.0516C13.1812 19.973 13.1999 19.8876 13.2 19.8011V11.9999H19.4064L18.21 13.0487C18.0974 13.1553 18.0304 13.3013 18.0231 13.4562C18.0158 13.6111 18.0688 13.7628 18.1709 13.8795C18.273 13.9962 18.4163 14.0688 18.5708 14.0822C18.7253 14.0955 18.879 14.0485 18.9996 13.9511L21.3948 11.8511C21.459 11.7948 21.5105 11.7254 21.5458 11.6476C21.581 11.5697 21.5993 11.4853 21.5993 11.3999C21.5993 11.3144 21.581 11.23 21.5458 11.1522C21.5105 11.0744 21.459 11.005 21.3948 10.9487L18.9996 8.84867C18.8799 8.74396 18.7236 8.69108 18.5649 8.70166C18.4062 8.71223 18.2583 8.7854 18.1536 8.90507C18.0489 9.02473 17.996 9.18109 18.0066 9.33975C18.0171 9.49841 18.0903 9.64636 18.21 9.75107L19.4064 10.7999H13.2V4.19987ZM12 4.89827V19.1039L4.79998 17.9999V5.99867L12 4.89827ZM15 19.1999H14.4V13.1999H15.6V18.5999C15.6 18.759 15.5368 18.9116 15.4242 19.0241C15.3117 19.1367 15.1591 19.1999 15 19.1999ZM14.4 9.59987V4.79987H15C15.1591 4.79987 15.3117 4.86308 15.4242 4.97561C15.5368 5.08813 15.6 5.24074 15.6 5.39987V9.59987H14.4Z" fill="#FF5449"/>
</svg>
