<svg fill="none" xmlns="http://www.w3.org/2000/svg" viewBox="11.95 6.02 288.07 220">
<g filter="url(#filter0_d_77_4602)">
<path d="M12.9206 91.4452C12.8815 91.3584 13.0755 90.5168 13.4773 88.9014C13.8791 87.286 14.3346 85.4904 14.8562 83.5048C15.3779 81.5192 15.8636 79.6407 16.338 77.8498C16.8001 76.0686 17.0904 74.9542 17.1966 74.5163C17.5518 73.1343 17.894 71.7233 18.2545 70.2782C18.6025 68.8429 18.9761 67.4267 19.3751 66.0295C19.4583 65.7277 19.5468 65.3628 19.6216 64.9302C19.7029 64.5121 19.8548 64.1754 20.0714 63.9446C20.3319 63.6987 20.5792 63.4238 20.8266 63.1489C21.0739 62.8741 21.3337 62.5894 21.6059 62.2948C21.9776 61.9213 22.4906 61.3373 23.1764 60.5378C23.8563 59.7625 24.3765 59.2318 24.737 58.9458L26.4913 61.8954L29.3403 59.006L32.9784 72.8571L27.878 77.8278L25.9825 71.2379L19.71 86.9614C20.6704 86.3958 21.6353 85.7283 22.6043 84.9201C23.5609 84.1217 24.5004 83.4352 25.4103 82.8702C26.3458 82.3244 27.2859 81.6766 28.2425 80.8783C29.199 80.0799 30.1509 79.3835 31.0982 78.789C31.5221 78.5312 31.9892 78.2195 32.4865 77.8249C32.9837 77.4303 33.4751 77.0601 33.9356 76.7339C34.3216 76.4669 34.7887 76.1552 35.3487 75.7501C35.9029 75.3693 36.3628 75.0043 36.7475 74.6598C37.5739 73.9844 38.0227 73.7069 38.1004 73.8416C38.1782 73.9764 38.3825 74.5411 38.7076 75.5601C38.9008 76.2122 39.1059 76.8157 39.3161 77.3561C39.514 77.9064 39.719 78.5099 39.9436 79.1568C39.7238 80.3527 39.3857 81.623 38.9167 82.9774C38.4477 84.3318 38.0781 85.6074 37.808 86.804C37.2914 89.0999 36.7675 91.716 36.2112 94.672C35.9449 96.1013 35.6892 97.4045 35.457 98.6103C35.3868 98.941 35.17 99.5452 34.8066 100.423C34.4431 101.301 34.2015 101.925 34.0692 102.305C33.8465 102.933 33.6113 103.572 33.3821 104.186C33.1529 104.8 32.9236 105.414 32.7193 106.008C32.5751 106.437 32.3465 107.09 32.0394 107.943C31.7387 108.81 31.4964 109.395 31.3314 109.703L24.3522 109.878L22.6748 98.1249C22.7599 97.9395 23.5949 97.0216 25.2046 95.3513C26.8018 93.691 27.7251 92.7815 27.9619 92.6329C28.0744 92.5829 28.3222 92.7203 28.7118 93.0594C29.1013 93.3986 29.3864 93.5064 29.567 93.3827C29.5735 93.3972 29.7673 92.929 30.1544 91.954C30.5414 90.9789 30.971 89.9111 31.4242 88.746C31.8774 87.5809 32.3005 86.4987 32.6869 85.4848C33.0674 84.4953 33.26 83.9496 33.2587 83.872L18.5679 95.6866C18.326 95.5249 17.3193 94.7914 15.5727 93.4663C13.8136 92.1511 12.9337 91.4741 12.9206 91.4452ZM24.4452 58.0379L24.1665 58.318L23.9688 58.5534L23.7647 58.7744L23.5546 59.0196L23.2883 59.2899L23.0717 59.5207L22.8741 59.7561L22.5953 60.0362L22.3912 60.2572L22.1935 60.4926L21.9148 60.7727L21.7172 61.0081L21.513 61.2291L21.2342 61.5092L21.0301 61.7301L20.82 61.9754L20.6224 62.2108L20.3437 62.4909L20.1395 62.7119L19.9419 62.9473L19.6631 63.2274L19.4655 63.4628L19.2613 63.6838L19.207 63.8251L19.165 63.9566L19.1107 64.098L19.0563 64.2393L19.0412 64.4675L18.9868 64.6088L18.9449 64.7403L18.8905 64.8817L18.8753 65.1098L18.8334 65.2413L18.7791 65.3827L18.7437 65.5287L18.7095 65.7522L18.6676 65.8837L18.6198 66.0395L18.5778 66.171L18.5235 66.3124L18.5018 66.5261L18.454 66.6819L18.412 66.8134L18.3577 66.9548L18.3425 67.1829L18.3006 67.3144L18.2462 67.4558L18.2043 67.5873L18.1767 67.8253L18.1348 67.9568L18.0804 68.0981L18.026 68.2395L18.0109 68.4676L17.969 68.5991L17.9146 68.7405L17.8727 68.872L17.8451 69.11L17.8031 69.2415L17.7488 69.3828L17.7069 69.5143L17.6525 69.6557L17.6373 69.8838L17.583 70.0252L17.541 70.1567L17.4867 70.2981L17.4715 70.5262L17.4296 70.6577L17.3818 70.8135L17.3333 70.9306L17.3057 71.1686L17.2638 71.3001L17.2094 71.4414L17.174 71.5874L17.1399 71.8109L17.1045 71.9569L17.0501 72.0982L17.0082 72.2297L16.993 72.4579L16.9387 72.5992L16.8843 72.7406L16.8424 72.8721L16.8272 73.1002L16.7729 73.2416L16.7185 73.383L16.6766 73.5145L16.6222 73.6558L16.6071 73.884L16.5527 74.0253L16.5108 74.1568L16.4564 74.2982L16.4412 74.5263L16.3993 74.6578L16.345 74.7992L16.303 74.9307L16.2754 75.1687L16.2335 75.3002L16.1791 75.4416L16.1372 75.5731L16.1096 75.8111L16.0677 75.9426L16.0133 76.0839L15.9714 76.2154L15.9562 76.4435L15.9019 76.5849L15.8665 76.7309L15.8056 76.8578L15.7512 76.9991L15.7361 77.2273L15.6941 77.3588L15.6463 77.5146L15.592 77.656L15.5768 77.8841L15.5349 78.0156L15.4805 78.157L15.4386 78.2885L15.4044 78.512L15.369 78.658L15.3147 78.7993L15.2728 78.9308L15.2452 79.1688L15.2032 79.3003L15.1613 79.4318L15.1194 79.5633L15.1042 79.7915L15.0499 79.9328L15.0079 80.0643L14.9536 80.2057L14.9384 80.4338L14.884 80.5752L14.8421 80.7067L14.7878 80.848L14.7458 80.9795L14.7182 81.2175L14.6763 81.349L14.6219 81.4904L14.5676 81.6318L14.5648 81.85L14.5105 81.9914L14.4561 82.1328L14.4207 82.2787L14.3866 82.5023L14.3512 82.6482L14.2903 82.7751L14.2484 82.9066L14.2208 83.1446L14.1789 83.2761L14.131 83.4319L14.0891 83.5634L14.0739 83.7916L14.0196 83.9329L13.9711 84.05L13.9233 84.2058L13.8814 84.3373L13.8538 84.5753L13.8118 84.7068L13.7575 84.8482L13.7156 84.9797L13.688 85.2177L13.646 85.3492L13.5917 85.4905L13.5497 85.622L13.5346 85.8502L13.4802 85.9915L13.4259 86.1329L13.3839 86.2644L13.3688 86.4925L13.3144 86.6339L13.26 86.7753L13.2181 86.9068L13.2029 87.1349L13.1486 87.2763L13.1067 87.4078L13.0523 87.5491L13.0104 87.6806L12.9828 87.9186L12.9409 88.0501L12.893 88.2059L12.8511 88.3374L12.8235 88.5754L12.7816 88.7069L12.7207 88.8338L12.6853 88.9798L12.6636 89.1935L12.6158 89.3493L12.5738 89.4808L12.5195 89.6222L12.5043 89.8503L12.4499 89.9917L12.408 90.1232L12.3537 90.2645L12.3385 90.4927L12.2841 90.634L12.2298 90.7754L12.1878 90.9069L12.1727 91.135L12.1183 91.2764L12.0764 91.4079L12.022 91.5492L11.9801 91.6807L12.0728 91.9608L12.1742 91.9983L12.3088 92.1468L12.4101 92.1843L12.5507 92.3085L12.6461 92.3703L12.7867 92.4945L12.8945 92.5464L13.0226 92.6805L13.1305 92.7324L13.271 92.8567L13.3724 92.8941L13.507 93.0427L13.6084 93.0801L13.7554 93.2188L13.8568 93.2563L13.9849 93.3904L14.0927 93.4423L14.2209 93.5764L14.3614 93.7006L14.4693 93.7525L14.5974 93.8866L14.7052 93.9386L14.8333 94.0726L14.9537 94.1147L15.0818 94.2488L15.1896 94.3007L15.3177 94.4348L15.438 94.4769L15.5661 94.611L15.6675 94.6484L15.8021 94.797L15.9035 94.8344L16.044 94.9587L16.1519 95.0106L16.28 95.1447L16.3879 95.1966L16.5284 95.3208L16.6363 95.3727L16.7644 95.5068L16.8722 95.5587L17.0128 95.683L17.1141 95.7204L17.2488 95.869L17.3769 96.0031L17.4847 96.055L17.6253 96.1792L17.7331 96.2311L17.8612 96.3652L17.9691 96.4172L18.0972 96.5513L18.211 96.5788L18.3456 96.7274L18.447 96.7649L18.636 96.7721L18.8184 96.7648L18.9198 96.8022L19.1088 96.8094L19.2101 96.8469L19.3926 96.8396L19.5005 96.8915L19.6829 96.8843L19.7908 96.9362L19.8921 96.9736L20.0746 96.9664L20.1825 97.0183L20.3649 97.011L20.4728 97.0629L20.6553 97.0557L20.7566 97.0931L20.9456 97.1003L21.0469 97.1378L21.2359 97.145L21.3373 97.1824L21.5263 97.1896L21.6276 97.2271L21.729 97.2645L21.918 97.2717L22.0193 97.3092L22.1691 97.2296L22.2285 97.3986L21.9917 97.5472L21.8687 97.7234L21.9194 98.135L21.978 98.6386L22.0556 99.1467L22.1409 99.747L22.2119 100.241L22.2829 100.734L22.348 101.253L22.4458 101.843L22.5044 102.346L22.5754 102.84L22.6672 103.455L22.7382 103.949L22.8092 104.442L22.8678 104.946L22.9656 105.536L23.0431 106.045L23.1017 106.548L23.1995 107.138L23.2646 107.657L23.3356 108.15L23.4333 108.741L23.4919 109.244L23.5629 109.738L23.6405 110.246L23.8069 110.802L23.9894 110.794L24.1718 110.787L24.3543 110.78L24.5433 110.787L24.7133 110.79L24.9082 110.773L25.0782 110.775L25.2672 110.782L25.4497 110.775L25.6322 110.768L25.8146 110.761L26.0036 110.768L26.1861 110.76L26.3561 110.763L26.5386 110.756L26.7276 110.763L26.91 110.756L27.0925 110.748L27.2815 110.756L27.5451 110.704L27.7275 110.696L27.8975 110.699L28.08 110.692L28.269 110.699L28.4515 110.692L28.6339 110.684L28.8229 110.692L29.0054 110.684L29.1878 110.677L29.3579 110.68L29.5469 110.687L29.7169 110.689L29.8994 110.682L30.0818 110.675L30.2708 110.682L30.4533 110.675L30.6357 110.668L30.8182 110.66L31.0693 110.618L31.2583 110.625L31.4408 110.618L31.6233 110.611L31.8057 110.604L31.9947 110.611L32.2459 110.569L32.4407 110.551L32.6108 110.554L32.8744 110.502L33.0568 110.495L33.2458 110.502L33.497 110.46L33.6918 110.443L33.8619 110.445L34.1255 110.393L34.3079 110.386L34.4969 110.393L34.7481 110.351L34.9305 110.344L35.113 110.337L35.3766 110.285L35.559 110.277L35.748 110.285L36.0116 110.233L36.1816 110.235L36.3641 110.228L36.6342 110.19L36.8101 110.169L36.9991 110.176L37.2627 110.124L37.4327 110.126L37.6152 110.119L37.8853 110.082L38.0678 110.074L38.2502 110.067L38.5138 110.015L38.6838 110.018L38.8663 110.01L39.1364 109.973L39.3189 109.966L39.5013 109.958L39.7525 109.916L39.9349 109.909L40.1174 109.902L40.3875 109.864L40.57 109.857L40.7524 109.85L41.0036 109.808L41.3091 109.624L41.5067 109.389L41.5611 109.247L41.6154 109.106L41.6573 108.974L41.7117 108.833L41.7536 108.702L41.808 108.56L41.8499 108.429L41.9043 108.287L41.9462 108.156L42.0006 108.014L42.0549 107.873L42.0903 107.727L42.1447 107.586L42.1931 107.469L42.241 107.313L42.2829 107.181L42.3372 107.04L42.3792 106.909L42.4335 106.767L42.4879 106.626L42.6109 106.45L42.6463 106.304L42.7007 106.162L42.755 106.021L42.797 105.889L42.8513 105.748L42.8933 105.617L42.9476 105.475L42.9895 105.344L43.0439 105.202L43.0858 105.071L43.1402 104.93L43.1821 104.798L43.2365 104.657L43.2719 104.511L43.3328 104.384L43.3682 104.238L43.4225 104.096L43.4644 103.965L43.5188 103.824L43.5732 103.682L43.6962 103.506L43.7381 103.375L43.786 103.219L43.8279 103.087L43.8888 102.96L43.9366 102.804L43.9785 102.673L44.0329 102.532L44.0748 102.4L44.1292 102.259L44.1711 102.127L44.2255 101.986L44.2674 101.854L44.3217 101.713L44.3761 101.572L44.4115 101.426L44.4724 101.299L44.5143 101.167L44.5621 101.011L44.6041 100.88L44.6584 100.739L44.7815 100.562L44.8358 100.421L44.851 100.193L44.8929 100.061L44.9205 99.8234L44.9625 99.6919L45.0168 99.5505L45.032 99.3224L45.0863 99.181L45.1015 98.9529L45.1559 98.8115L45.171 98.5834L45.213 98.4519L45.2281 98.2238L45.2825 98.0824L45.2977 97.8543L45.352 97.7129L45.3939 97.5814L45.4091 97.3533L45.4635 97.2119L45.4786 96.9838L45.533 96.8424L45.5482 96.6143L45.6025 96.4729L45.6177 96.2448L45.6721 96.1034L45.6872 95.8753L45.7291 95.7438L45.7835 95.6024L45.7987 95.3743L45.853 95.2329L45.8682 95.0048L45.9226 94.8634L45.9377 94.6353L45.9797 94.5038L46.0073 94.2658L46.0492 94.1343L46.0833 93.9107L46.1187 93.7648L46.1731 93.6234L46.1882 93.3953L46.2302 93.2638L46.2578 93.0257L46.2997 92.8943L46.3149 92.6661L46.3692 92.5248L46.3844 92.2966L46.4453 92.1697L46.4539 91.9271L46.5024 91.8101L46.5567 91.6687L46.5719 91.4406L46.6263 91.2992L46.6617 91.1533L46.6958 90.9297L46.7312 90.7838L46.7855 90.6424L46.8464 90.5155L46.8818 90.3695L46.9362 90.2282L46.9513 90L46.9933 89.8685L47.0476 89.7272L47.0896 89.5957L47.1439 89.4543L47.1591 89.2262L47.2134 89.0848L47.2554 88.9533L47.3097 88.8119L47.3517 88.6804L47.406 88.5391L47.4212 88.3109L47.4631 88.1794L47.5175 88.0381L47.5653 87.8823L47.6138 87.7652L47.6681 87.6239L47.6833 87.3957L47.7376 87.2544L47.773 87.1084L47.8274 86.967L47.8759 86.85L47.8969 86.5975L47.9454 86.4805L47.9932 86.3247L48.0351 86.1932L48.0771 86.0617L48.1314 85.9203L48.1466 85.6922L48.2009 85.5508L48.2429 85.4193L48.2972 85.278L48.3516 85.1366L48.3935 85.0051L48.4087 84.777L48.463 84.6356L48.4515 84.3108L47.9338 82.6785L46.8767 79.6274L46.6559 79.2133L46.548 79.1614L46.4075 79.0371L46.2794 78.9031L46.1715 78.8511L46.0434 78.717L45.9231 78.675L45.795 78.5409L45.6669 78.4068L45.559 78.3549L45.4185 78.2306L45.323 78.1689L45.1825 78.0446L45.0544 77.9105L44.9465 77.8586L44.806 77.7344L44.6981 77.6825L44.5635 77.5339L44.4354 77.3998L44.3216 77.3722L44.187 77.2237L44.0856 77.1862L43.9575 77.0521L43.8104 76.9134L43.7091 76.876L43.5745 76.7274L43.4731 76.69L43.3326 76.5657L43.198 76.4172L43.0966 76.3797L42.9495 76.241L42.8606 76.1937L42.7201 76.0695L42.5855 75.9209L42.4776 75.869L42.3495 75.7349L42.2292 75.6929L42.1011 75.5588L41.973 75.4247L41.6276 74.3235L41.1786 72.6563L40.7623 71.0614L40.3584 69.4566L39.942 67.8618L39.8559 67.5962L39.701 67.3654L39.5539 67.2267L39.4258 67.0926L39.2912 66.9441L39.1507 66.8199L39.0226 66.6858L38.882 66.5615L38.7474 66.413L38.6461 66.3755L38.5114 66.227L38.3709 66.1027L38.2363 65.9542L38.1082 65.8201L37.9676 65.6958L37.8395 65.5617L37.7049 65.4132L37.5643 65.289L37.4297 65.1404L37.3016 65.0063L37.1878 64.9787L37.0532 64.8302L36.9251 64.6961L36.797 64.562L36.6499 64.4233L36.5218 64.2892L36.3937 64.1551L36.2467 64.0164L36.1186 63.8823L35.978 63.7581L35.8701 63.7062L35.742 63.5721L35.595 63.4334L35.4669 63.2993L35.3388 63.1652L35.1982 63.0409L35.0636 62.8924L34.9355 62.7583L34.7884 62.6196L34.6603 62.4855L34.5322 62.3514L34.4243 62.2995L34.2838 62.1753L34.1557 62.0412L34.0211 61.8926L33.8805 61.7684L33.7459 61.6198L33.6178 61.4857L33.4773 61.3615L33.3426 61.2129L33.2021 61.0887L33.1132 61.0414L32.9661 60.9027L32.838 60.7686L32.6975 60.6444L32.5629 60.4958L32.4348 60.3617L32.2877 60.223L32.1596 60.0889L32.0315 59.9548L31.8909 59.8306L31.7563 59.682L31.655 59.6446L31.5203 59.496L31.3798 59.3718L31.2452 59.2232L31.1171 59.0891L30.9765 58.9649L30.8484 58.8308L30.7014 58.6921L30.5733 58.558L30.4452 58.4239L30.2981 58.2852L30.1902 58.2333L30.0621 58.0992L29.9216 57.975L29.8681 57.7817L29.7819 57.5161L29.5575 57.6549L29.2787 57.935L29.0746 58.156L28.7958 58.4361L28.5171 58.7162L28.2383 58.9964L27.9596 59.2765L27.6809 59.5566L27.4767 59.7776L27.2791 60.013L27.2131 59.8295L27.085 59.6955L26.9647 59.6534L26.8366 59.5193L26.7085 59.3852L26.6006 59.3333L26.4601 59.2091L26.332 59.075L26.1973 58.9264L26.096 58.889L25.9489 58.7503L25.8208 58.6162L25.6738 58.4775L25.5849 58.4302L25.4443 58.3059L25.3097 58.1574L25.1692 58.0331L25.0613 57.9812L24.8862 57.6683L24.6428 57.8025L24.4452 58.0379Z" fill="#7C968F"/>
<path d="M83.3127 27.8149L82.0801 37.1796L71.1921 42.2553C71.4173 42.495 72.4956 43.9399 74.4045 46.5661C76.3031 49.2143 78.3531 52.0677 80.5546 55.1263C82.7457 58.207 84.7322 61.0038 86.5285 63.5101L89.227 67.2849C89.2433 67.3463 88.9713 67.7833 88.4481 68.6132C87.9104 69.4499 87.5994 69.9223 87.5047 70.0527C87.4284 70.1916 87.1071 70.6861 86.5632 71.5602L85.7289 72.8626C85.6426 72.9028 84.9941 72.8949 83.7751 72.8082C82.5561 72.7215 81.2057 72.6271 79.7159 72.4943C78.2261 72.3615 76.806 72.2479 75.4763 72.1094C74.1363 71.993 73.3073 71.9141 72.9892 71.8727L74.6343 64.3668L66.7349 44.5227L54.5475 51.4623L51.7596 37.543L83.3127 27.8149ZM51.1731 38.1955L51.4227 39.4408L51.6538 40.6774L51.8993 41.9074L52.1448 43.1373L52.3944 44.3825L52.6459 45.6959L52.8914 46.9258L53.1409 48.1711L53.3865 49.401L53.6176 50.6376L53.8834 51.9442L54.0544 52.5884L54.3767 52.5243L54.4731 52.5828L54.6001 52.696L54.6923 52.7392L54.7846 52.7823L54.8769 52.8255L54.9876 52.8773L55.0798 52.9205L55.1721 52.9636L55.2644 53.0068L55.3607 53.0653L55.4673 53.1018L55.5596 53.1449L55.6519 53.1881L55.7482 53.2466L55.8405 53.2898L55.9675 53.4029L56.0597 53.4461L56.152 53.4893L56.2483 53.5478L56.355 53.5842L56.4472 53.6274L56.5395 53.6706L56.6358 53.7291L56.7281 53.7722L56.8347 53.8087L56.927 53.8519L57.0233 53.9104L57.1156 53.9535L57.2222 53.99L57.3348 54.1099L57.4312 54.1684L57.5234 54.2115L57.6301 54.248L57.708 54.2979L57.8146 54.3343L57.9109 54.3928L58.0032 54.436L58.0955 54.4792L58.2021 54.5156L58.2944 54.5588L58.3907 54.6173L58.483 54.6605L58.5896 54.6969L58.7063 54.8321L58.7986 54.8753L58.8908 54.9185L58.9831 54.9616L59.0938 55.0135L59.182 55.0413L59.2783 55.0998L59.3706 55.143L59.4772 55.1794L59.5695 55.2226L59.6658 55.2811L59.7581 55.3243L59.8647 55.3607L59.967 55.5026L60.0737 55.5391L60.1659 55.5823L60.2582 55.6254L60.3505 55.6686L60.4612 55.7204L60.5535 55.7636L60.6457 55.8067L60.738 55.8499L60.8487 55.9017L60.941 55.9449L61.0332 55.988L61.1255 56.0312L61.2177 56.0744L61.3447 56.1875L61.4411 56.246L61.5333 56.2892L61.6256 56.3324L61.7179 56.3755L61.8142 56.434L61.9024 56.4619L61.9987 56.5204L62.1054 56.5568L62.1832 56.6067L62.2899 56.6432L62.3862 56.7017L62.4785 56.7448L62.5707 56.788L62.7018 56.9165L62.7941 56.9597L62.8863 57.0028L62.9786 57.046L63.0852 57.0825L63.1775 57.1256L63.2738 57.1841L63.3661 57.2273L63.4584 57.2705L63.565 57.3069L63.6613 57.3654L63.7536 57.4086L63.8459 57.4518L63.9525 57.4882L64.0692 57.6234L64.1615 57.6666L64.2537 57.7098L64.346 57.7529L64.4423 57.8114L64.549 57.8479L64.6412 57.8911L64.7335 57.9342L64.8298 57.9927L64.9365 58.0292L65.0287 58.0724L65.121 58.1155L65.2133 58.1587L65.3443 58.2872L65.4366 58.3304L65.5288 58.3735L65.6211 58.4167L65.7174 58.4752L65.8241 58.5117L65.9883 58.5213L66.6643 58.2062L67.4638 57.7473L68.3495 57.2482L69.145 56.774L70.0307 56.2749L70.5426 55.9501L70.7135 56.5943L70.9523 57.1897L71.2154 57.8771L71.4583 58.4877L71.7011 59.0984L71.9399 59.6938L72.1971 60.2978L72.4399 60.9085L72.7031 61.5959L72.9419 62.1912L73.1991 62.7952L73.4419 63.4059L73.6848 64.0166L73.8516 64.6454L73.8245 64.8477L73.7729 64.9579L73.7273 65.1515L73.7001 65.3538L73.6689 65.5407L73.6174 65.6509L73.5758 65.8599L73.5446 66.0468L73.5174 66.249L73.4659 66.3592L73.4387 66.5615L73.4075 66.7484L73.3619 66.942L73.3103 67.0522L73.2832 67.2545L73.252 67.4414L73.2104 67.6503L73.1589 67.7605L73.1276 67.9475L73.1005 68.1497L73.0549 68.3433L73.0033 68.4535L72.9762 68.6558L72.945 68.8427L72.9178 69.0449L72.8518 69.1619L72.8206 69.3488L72.7935 69.551L72.7623 69.7379L72.7167 69.9315L72.6692 70.0571L72.6379 70.244L72.6108 70.4463L72.5796 70.6332L72.528 70.7434L72.4865 70.9523L72.4552 71.1393L72.4281 71.3415L72.3765 71.4517L72.3309 71.6453L72.3038 71.8476L72.2726 72.0345L72.221 72.1447L72.1794 72.3537L72.2405 72.5837L72.3512 72.6355L72.5154 72.6452L72.6076 72.6883L72.7862 72.6913L72.8825 72.7498L72.9707 72.7776L73.1534 72.7959L73.2456 72.8391L73.4098 72.8487L73.5021 72.8919L73.6128 72.9437L73.777 72.9533L73.8692 72.9965L73.9759 73.0329L74.1441 73.0579L74.2364 73.1011L74.4149 73.104L74.5072 73.1472L74.5995 73.1904L74.7821 73.2086L74.8744 73.2518L74.9666 73.295L75.1452 73.2979L75.2415 73.3564L75.4057 73.3661L75.498 73.4092L75.5902 73.4524L75.7729 73.4707L75.8651 73.5138L76.0437 73.5168L76.1359 73.5599L76.2282 73.6031L76.4068 73.6061L76.5031 73.6646L76.5954 73.7077L76.7595 73.7174L76.8662 73.7538L77.0344 73.7788L77.1267 73.822L77.2333 73.8584L77.3975 73.8681L77.4898 73.9113L77.5964 73.9477L77.7647 73.9727L77.8569 74.0159L78.0211 74.0255L78.1278 74.062L78.2241 74.1205L78.3883 74.1301L78.4949 74.1666L78.5872 74.2097L78.7554 74.2347L78.8477 74.2779L79.0263 74.2808L79.1185 74.324L79.2108 74.3672L79.3934 74.3854L79.4857 74.4286L79.5779 74.4718L79.7421 74.4814L79.8528 74.5332L80.017 74.5429L80.1093 74.586L80.2159 74.6225L80.3801 74.6321L80.4724 74.6753L80.655 74.6936L80.8192 74.7032L80.9114 74.7464L81.09 74.7493L81.2582 74.7743L81.4368 74.7772L81.601 74.7869L81.7652 74.7965L81.9478 74.8148L82.1079 74.8091L82.2905 74.8274L82.4547 74.837L82.5614 74.8735L82.7255 74.8831L82.8938 74.9081L83.0723 74.9111L83.2365 74.9207L83.4151 74.9236L83.5833 74.9486L83.7475 74.9583L83.9261 74.9612L84.0183 75.0044L84.1969 75.0073L84.3651 75.0323L84.5437 75.0352L84.7079 75.0449L84.8721 75.0545L85.0547 75.0728L85.2189 75.0824L85.3974 75.0854L85.5616 75.095L85.6579 75.1535L85.8324 75.1411L86.0007 75.1661L86.1792 75.169L86.3434 75.1787L86.522 75.1816L86.6902 75.2066L86.8544 75.2162L87.033 75.2192L87.1252 75.2623L87.2935 75.2873L87.472 75.2903L87.6362 75.2999L87.8148 75.3028L87.979 75.3125L88.1575 75.3154L88.3258 75.3404L88.5043 75.3433L88.5822 75.3932L88.7608 75.3961L88.929 75.4211L89.1076 75.4241L89.2718 75.4337L89.4503 75.4366L89.6145 75.4463L89.7971 75.4646L89.9613 75.4742L90.1399 75.4771L90.2321 75.5203L90.4004 75.5453L90.5789 75.5482L90.7431 75.5579L90.9073 75.5675L91.0899 75.5858L91.5358 75.3779L91.5977 75.2457L91.7212 75.1019L91.7727 74.9917L91.8962 74.848L91.9581 74.7157L92.0097 74.6055L92.1332 74.4618L92.1991 74.3448L92.2466 74.2193L92.3701 74.0755L92.4217 73.9653L92.4876 73.8484L92.6111 73.7047L92.6586 73.5791L92.7965 73.4287L92.848 73.3184L92.8996 73.2082L93.019 73.0491L93.085 72.9322L93.1365 72.822L93.26 72.6783L93.326 72.5613L93.3775 72.4511L93.4969 72.292L93.5629 72.1751L93.6145 72.0649L93.7379 71.9212L93.7854 71.7956L93.9233 71.6451L93.9749 71.5349L94.0264 71.4247L94.1602 71.2589L94.2159 71.1641L94.2634 71.0385L94.3869 70.8948L94.4528 70.7778L94.5044 70.6676L94.6238 70.5085L94.6246 70.1462L94.5432 69.8394L94.3918 69.6342L94.2548 69.4223L94.1178 69.2105L94.0052 69.0906L93.8578 68.9008L93.7352 68.6822L93.5838 68.477L93.4712 68.3571L93.3341 68.1452L93.2012 67.9487L93.0498 67.7435L92.9371 67.6236L92.8001 67.4117L92.6631 67.1998L92.5117 66.9947L92.3991 66.8748L92.2661 66.6782L92.1291 66.4664L91.9921 66.2545L91.8651 66.1413L91.728 65.9294L91.5951 65.7329L91.4581 65.521L91.327 65.3925L91.194 65.1959L91.057 64.984L90.92 64.7721L90.793 64.659L90.6744 64.4557L90.523 64.2505L90.386 64.0387L90.2734 63.9188L90.1363 63.7069L89.989 63.5171L89.852 63.3052L89.7353 63.17L89.6023 62.9734L89.4509 62.7682L89.3139 62.5563L89.2013 62.4365L89.0683 62.2399L88.9313 62.028L88.7799 61.8229L88.6673 61.703L88.5302 61.4911L88.3932 61.2792L88.2459 61.0894L88.1292 60.9542L87.9962 60.7576L87.8592 60.5457L87.7222 60.3338L87.6096 60.214L87.4622 60.0241L87.3252 59.8122L87.1882 59.6003L87.0756 59.4805L86.9242 59.2753L86.7871 59.0634L86.6542 58.8669L86.5375 58.7317L86.3901 58.5418L86.2531 58.3299L86.1161 58.118L86.0035 57.9982L85.8665 57.7863L85.7191 57.5964L85.5821 57.3845L85.4695 57.2647L85.3324 57.0528L85.1954 56.8409L85.0481 56.6511L84.9314 56.5159L84.7984 56.3193L84.6614 56.1074L84.51 55.9022L84.3974 55.7824L84.2604 55.5705L84.1233 55.3586L83.9904 55.162L83.8634 55.0489L83.7264 54.837L83.5893 54.6251L83.4767 54.5052L83.3253 54.3001L83.1883 54.0882L83.0553 53.8916L82.9427 53.7717L82.7913 53.5666L82.6687 53.348L82.5172 53.1428L82.4046 53.0229L82.2717 52.8264L82.1347 52.6145L81.9832 52.4093L81.8706 52.2894L81.7336 52.0775L81.5966 51.8657L81.4492 51.6758L81.3366 51.5559L81.1996 51.3441L81.0626 51.1322L80.9255 50.9203L80.7985 50.8071L80.6656 50.6106L80.5489 50.4754L88.6466 46.7005L88.7125 46.5835L88.836 46.4398L88.8835 46.3142L88.9147 46.1273L88.9359 45.8417L88.9671 45.6548L88.9943 45.4525L89.0255 45.2656L89.0467 44.98L89.0779 44.7931L89.1091 44.6062L89.1363 44.4039L89.1819 44.2103L89.1743 43.9381L89.2158 43.7291L89.2471 43.5422L89.2783 43.3553L89.3054 43.153L89.3307 42.8827L89.3619 42.6958L89.3891 42.4936L89.4203 42.3067L89.4415 42.021L89.4727 41.8341L89.4998 41.6319L89.5311 41.445L89.5582 41.2427L89.5835 40.9724L89.6147 40.7855L89.6418 40.5832L89.6731 40.3963L89.6942 40.1107L89.7214 39.9084L89.7526 39.7215L89.7838 39.5346L89.811 39.3324L89.8219 39.0688L89.849 38.8665L89.8946 38.6729L89.9218 38.4707L89.7956 37.9952L89.6179 37.6299L89.4461 37.348L89.2888 37.0594L89.111 36.6942L88.9537 36.4056L88.7759 36.0403L88.6186 35.7517L88.4612 35.4631L88.2732 35.1199L88.1158 34.8313L87.934 34.4507L87.7807 34.1775L87.6089 33.8956L87.4312 33.5303L87.2738 33.2417L87.0961 32.8764L86.9387 32.5879L86.767 32.306L86.5892 31.9407L86.4319 31.6521L86.2541 31.2869L86.0824 31.005L85.925 30.7164L85.7473 30.3511L85.594 30.0779L85.3978 29.704L85.2589 29.424L85.0627 29.0501L84.9094 28.7769L84.752 28.4883L84.5743 28.123L84.4026 27.8411L84.2248 27.4758L84.119 27.077L84.0539 26.8316L83.5158 26.9963L82.8913 27.2012L82.3347 27.3573L81.7966 27.522L81.2441 27.6934L80.634 27.8916L80.0774 28.0476L79.5249 28.219L78.9868 28.3837L78.3623 28.5886L77.8242 28.7533L77.2717 28.9247L76.7295 29.0741L76.105 29.279L75.5525 29.4504L75.0144 29.615L74.4722 29.7644L73.8477 29.9693L73.2952 30.1407L72.7427 30.3121L72.2005 30.4614L71.6664 30.6415L71.0379 30.831L70.4854 31.0024L69.9472 31.1671L69.3947 31.3385L68.7806 31.5214L68.2281 31.6928L67.6899 31.8575L67.1374 32.0289L66.5233 32.2117L65.9708 32.3831L65.4183 32.5545L64.8801 32.7192L64.2557 32.9241L63.6991 33.0802L63.161 33.2449L62.6228 33.4095L61.9984 33.6145L61.4418 33.7705L60.9036 33.9352L60.3511 34.1066L59.7267 34.3115L59.1845 34.4609L58.636 34.6476L58.0938 34.7969L57.4694 35.0019L56.9312 35.1665L56.3787 35.3379L55.8509 35.4806L55.2265 35.6855L54.6883 35.8502L54.1358 36.0216L53.5792 36.1776L52.9548 36.3825L52.4166 36.5472L51.8785 36.7119L51.326 36.8833L50.952 37.0576L51.1731 38.1955Z" fill="#7C968F"/>
<path d="M114.19 30.0996L119.897 27.8001L119.909 18.2356L112.143 18.9462L114.19 30.0996ZM122.286 11.2791L125.738 13.364L125.755 26.5508L120.5 30.4532L127.727 30.4628L135.321 51.7968C134.851 51.8584 134.313 51.8851 133.674 51.8674C133.037 51.8655 132.478 51.848 132.001 51.8465C131.43 51.8637 130.873 51.862 130.333 51.8729C129.793 51.8839 129.253 51.8948 128.71 51.8742C128.17 51.8852 127.614 51.8992 127.04 51.8848C126.467 51.8862 125.927 51.8972 125.418 51.9019C125.102 51.9167 124.816 51.9253 124.577 51.9246C124.323 51.9269 124.053 51.9324 123.766 51.9252C123.354 51.9429 123.107 51.589 123.009 50.8668C122.814 49.7124 122.63 48.5076 122.424 47.2586C122.219 46.0096 122.052 44.8174 121.938 43.679C121.802 42.4807 121.621 41.3074 121.407 40.1246C121.178 38.9449 121.013 37.7685 120.876 36.5701L114.982 35.1176C115.092 36.2245 115.215 37.3124 115.365 38.3469C115.514 39.3814 115.646 40.4032 115.761 41.4123C115.872 42.3899 115.96 43.4526 116.058 44.5941C116.158 45.7513 116.29 46.7731 116.471 47.6722C116.643 48.6216 116.79 49.6403 116.912 50.7125C117.034 51.7847 117.152 52.8254 117.266 53.8345C117.367 54.7175 117.41 55.241 117.397 55.4049C117.384 55.5687 117.287 55.9751 117.109 56.6555C116.993 57.0334 116.863 57.4302 116.686 57.8364C116.511 58.2583 116.411 58.6331 116.388 58.9924L107.378 61.08L106.926 32.7096L108.076 30.9162L106.701 16.5651L122.286 11.2791ZM121.542 10.7503L120.961 10.9629L120.379 11.1597L119.812 11.3534L119.152 11.5658L118.569 11.7626L117.987 11.9594L117.42 12.1531L116.746 12.3843L116.179 12.578L115.597 12.7748L115.014 12.9716L114.354 13.184L113.789 13.3935L113.205 13.5745L112.624 13.7871L111.964 13.9994L111.381 14.1962L110.799 14.393L110.232 14.5868L109.574 14.8149L108.991 15.0117L108.409 15.2085L107.842 15.4022L107.197 15.6114L106.615 15.8082L106.032 16.0051L105.965 16.1152L106.019 17.4268L106.476 22.1569L106.934 26.887L107.283 30.8003L107.215 30.9104L107.131 31.0079L107.062 31.1022L106.993 31.1966L106.92 31.3887L106.851 31.483L106.782 31.5774L106.697 31.6749L106.629 31.7692L106.544 31.8667L106.475 31.961L106.408 32.0712L106.324 32.1686L106.264 32.3418L106.179 32.4393L106.157 32.9436L106.181 33.8579L106.19 34.7753L106.213 35.6738L106.226 36.4935L106.235 37.4109L106.243 38.3283L106.266 39.2268L106.281 40.0623L106.305 40.9766L106.312 41.8782L106.321 42.7956L106.336 43.631L106.359 44.5296L106.367 45.447L106.391 46.3613L106.407 47.1967L106.429 48.0952L106.438 49.0126L106.447 49.93L106.46 50.7497L106.484 51.664L106.493 52.5814L106.515 53.4799L106.515 54.3185L106.539 55.2327L106.562 56.1313L106.57 57.0487L106.584 57.8683L106.608 58.7826L106.617 59.7L106.641 60.6143L106.639 61.4371L106.694 61.9259L107.046 61.9364L107.226 61.9811L107.392 62.0447L107.495 62.1049L107.675 62.1496L107.839 62.1974L108.035 62.239L108.2 62.2868L108.382 62.3472L108.468 62.4105L108.648 62.4552L108.829 62.4999L108.993 62.5477L109.189 62.5893L109.353 62.6371L109.458 62.7131L109.622 62.7609L109.802 62.8055L109.982 62.8502L110.163 62.8949L110.344 62.9554L110.431 63.0187L110.611 63.0634L110.776 63.1112L110.956 63.1559L111.136 63.2006L111.316 63.2452L111.405 63.3243L111.585 63.369L111.765 63.4137L111.93 63.4615L112.11 63.5062L112.29 63.5509L112.377 63.6142L112.559 63.6747L112.739 63.7193L112.919 63.764L113.084 63.8118L113.264 63.8565L113.35 63.9198L113.515 63.9676L113.697 64.0281L113.877 64.0728L114.057 64.1175L114.222 64.1652L114.324 64.2255L114.506 64.2859L114.669 64.3179L114.851 64.3784L115.031 64.4231L115.211 64.4678L115.298 64.5311L115.478 64.5758L115.66 64.6362L115.825 64.684L116.005 64.7287L116.185 64.7734L116.272 64.8367L116.452 64.8814L116.632 64.9261L118.219 64.6094L120.903 63.9935L123.648 63.3651L124.48 63.1187L124.564 63.0212L124.804 62.8927L124.862 62.7037L124.938 62.5274L124.987 62.2596L125.047 62.0864L125.122 61.9101L125.182 61.7369L125.256 61.5448L125.316 61.3716L125.367 61.1196L125.44 60.9275L125.5 60.7543L125.56 60.5811L125.634 60.389L125.7 60.1339L125.76 59.9607L125.809 59.6929L125.663 58.3999L125.161 54.4042L125.228 54.5683L125.314 54.6316L125.419 54.7076L125.521 54.7678L125.608 54.8311L125.694 54.8945L125.797 54.9547L125.885 55.0338L125.972 55.0971L126.059 55.1604L126.161 55.2206L126.263 55.2808L126.35 55.3441L126.437 55.4074L126.541 55.4834L126.628 55.5467L126.739 55.6858L126.826 55.7491L126.913 55.8124L127.015 55.8726L127.104 55.9517L127.19 56.015L127.293 56.0752L127.379 56.1386L127.482 56.1988L127.568 56.2621L127.655 56.3254L127.759 56.4014L127.846 56.4647L127.948 56.5249L128.035 56.5882L128.122 56.6515L128.233 56.7906L128.322 56.8697L128.409 56.933L128.511 56.9932L128.598 57.0565L128.7 57.1167L128.789 57.1958L128.873 57.2434L128.978 57.3193L129.064 57.3827L129.167 57.4429L129.253 57.5062L129.434 57.5509L129.865 57.5617L130.294 57.5567L130.801 57.5362L131.23 57.5312L131.659 57.5262L132.088 57.5212L132.519 57.532L132.933 57.5301L133.362 57.5251L133.791 57.5202L134.236 57.5121L134.649 57.5102L135.078 57.5052L135.509 57.516L135.938 57.511L136.461 57.4874L136.874 57.4855L137.304 57.4805L137.734 57.4913L138.164 57.4863L138.593 57.4813L139.022 57.4763L139.451 57.4714L139.871 57.3875L139.931 57.2143L140.016 57.1169L140.162 57.007L140.125 56.6759L140.009 56.3603L139.885 55.9658L139.756 55.6691L139.631 55.2746L139.516 54.959L139.376 54.5677L139.253 54.189L139.122 53.8765L138.998 53.4821L138.884 53.1823L138.745 52.7909L138.631 52.4911L138.491 52.0998L138.367 51.7053L138.251 51.3897L138.111 50.9984L137.998 50.6985L137.873 50.3041L137.744 50.0074L137.62 49.6129L137.489 49.3004L137.364 48.906L137.242 48.5273L137.111 48.2148L136.987 47.8204L136.856 47.5079L136.733 47.1292L136.618 46.8136L136.478 46.4223L136.355 46.0436L136.24 45.728L136.1 45.3367L135.984 45.0211L135.846 44.6455L135.731 44.3299L135.606 43.9355L135.477 43.6387L135.353 43.2443L135.213 42.853L135.098 42.5373L134.975 42.1587L134.844 41.8462L134.72 41.4517L134.606 41.1519L134.466 40.7606L134.342 40.3661L134.213 40.0694L134.088 39.675L133.973 39.3594L133.853 39.1415L133.746 38.9047L133.635 38.7657L133.528 38.5289L133.433 38.3867L133.321 38.2477L133.215 38.0109L133.119 37.8688L132.999 37.6509L132.886 37.4961L132.79 37.3539L132.686 37.1329L132.588 36.975L132.468 36.7571L132.43 36.426L132.441 35.682L132.426 34.8466L132.411 34.0111L132.406 33.2703L132.407 32.4317L132.418 31.6878L132.404 30.8681L132.389 30.0326L132.4 29.2887L132.385 28.4532L132.38 27.7124L132.382 26.8896L132.367 26.0542L132.311 25.5654L132.207 25.3444L132.085 25.1107L131.971 24.8109L131.865 24.5741L131.744 24.3562L131.638 24.1195L131.533 23.8985L131.411 23.6648L131.282 23.3681L131.175 23.1313L131.071 22.9103L130.964 22.6736L130.844 22.4557L130.729 22.1401L130.607 21.9064L130.502 21.6854L130.382 21.4675L130.275 21.2308L130.162 20.9309L130.055 20.6942L129.935 20.4763L129.813 20.2426L129.708 20.0216L129.593 19.706L129.473 19.4881L129.366 19.2514L129.262 19.0304L129.14 18.7967L129.035 18.5757L128.904 18.2632L128.799 18.0422L128.693 17.8055L128.573 17.5876L128.466 17.3508L128.337 17.0541L128.231 16.8173L128.126 16.5963L128.004 16.3627L127.899 16.1417L127.784 15.8261L127.664 15.6082L127.557 15.3714L127.437 15.1535L127.332 14.9325L127.217 14.6169L127.095 14.3833L126.99 14.1623L126.868 13.9286L126.763 13.7076L126.657 13.4709L126.528 13.1741L126.412 12.8585L126.326 12.7952L126.223 12.735L126.137 12.6717L126.032 12.5957L125.946 12.5324L125.765 12.4877L125.679 12.4244L125.576 12.3642L125.49 12.3009L125.403 12.2375L125.299 12.1616L125.212 12.0983L125.125 12.0349L125.023 11.9747L124.936 11.9114L124.834 11.8512L124.669 11.8034L124.565 11.7274L124.478 11.6641L124.376 11.6039L124.289 11.5406L124.203 11.4773L124.098 11.4013L124.013 11.3537L123.925 11.2747L123.823 11.2144L123.642 11.1698L123.556 11.1064L123.469 11.0431L123.365 10.9671L123.278 10.9038L123.176 10.8436L123.089 10.7803L123.002 10.717L122.9 10.6568L122.813 10.5935L122.631 10.533L122.544 10.4697L122.202 10.538L121.542 10.7503Z" fill="#7C968F"/>
<path d="M167.239 31.0125L167.619 31.1129L168.079 31.2144L168.554 31.3161L169.014 31.4176L169.489 31.5193L169.948 31.6208L170.328 31.7212L170.708 31.8216L170.803 31.9181L170.881 32.0937L170.974 32.2854L171.069 32.3819L171.163 32.5737L171.257 32.6702L171.351 32.8619L171.445 32.9425L171.54 33.0549L171.634 33.1356L171.824 33.2334L172.109 33.2849L171.903 33.3297L171.711 33.4223L171.536 33.5151L171.25 33.6064L171.059 33.699L170.867 33.7917L170.597 33.8673L170.406 33.9758L170.215 34.0526L169.928 34.1439L169.753 34.2367L169.562 34.3293L169.275 34.4206L169.182 34.2289L169.09 33.7674L168.997 33.4805L168.919 33.3842L168.809 33.1923L168.73 33.096L168.636 33.0153L168.542 32.8236L168.448 32.7271L168.353 32.6306L168.26 32.4389L168.165 32.3424L168.071 32.1506L167.993 32.0543L167.883 31.9576L167.805 31.782L167.71 31.6855L167.616 31.589L167.522 31.3972L167.427 31.3007L167.333 31.2042L167.239 31.0125ZM152.181 52.9146C151.706 52.8129 151.262 52.6957 150.819 52.5627C150.376 52.4297 149.901 52.3122 149.426 52.1787C148.364 51.9262 147.905 51.7771 148.064 51.7158C148.223 51.6703 148.228 51.1467 148.077 50.1607C147.987 49.5088 147.9 48.4443 147.848 46.9676C147.78 45.5066 147.757 44.4112 147.763 43.6813C147.772 42.5705 147.733 41.4749 147.646 40.3945C147.559 39.3142 147.536 38.2188 147.545 37.1239C147.549 36.6002 147.521 36.0602 147.463 35.4881C147.404 34.9159 147.376 34.376 147.38 33.8364C147.383 33.4715 147.372 32.9317 147.377 32.2018C147.383 31.4718 147.356 30.9318 147.295 30.5819C147.189 29.898 147.102 28.8335 147.05 27.4045C146.998 25.9754 146.975 24.8642 146.981 24.1025C146.989 23.0393 146.966 21.9598 146.912 20.8481C146.841 19.7521 146.786 18.6563 146.763 17.545C146.739 16.5925 146.7 15.4969 146.662 14.2902C146.608 13.0834 146.537 12.0191 146.449 11.0657C146.36 10.3344 146.411 9.82726 146.604 9.56009C146.78 9.30857 147.037 8.99466 147.373 8.63422C147.597 8.41509 147.869 8.10139 148.19 7.709C148.51 7.33248 148.782 7.05053 149.005 6.89487C149.195 6.99268 149.955 7.17762 151.286 7.43382C152.617 7.70589 154.075 7.97969 155.691 8.25566C157.308 8.54749 158.845 8.82238 160.303 9.06444C161.761 9.30651 162.728 9.46252 163.203 9.53249C164.376 9.73892 165.565 9.96144 166.769 10.1842C167.973 10.4069 169.162 10.6136 170.335 10.82C170.857 10.9223 171.46 11.0258 172.126 11.0983C172.792 11.1709 173.266 11.3995 173.517 11.7839C173.642 11.976 173.94 12.4086 174.427 13.0818C174.898 13.7547 175.148 14.1549 175.147 14.2819C175.147 14.2977 174.827 14.7219 174.217 15.5705C173.607 16.4192 172.917 17.3462 172.179 18.3518C171.441 19.3575 170.736 20.3001 170.094 21.1642C169.437 22.0281 169.068 22.4833 169.004 22.53L165.173 21.3351L165.391 19.8622L153.874 17.3087L155.164 22.8016L160.287 23.1254L161.567 29.9036L160.143 31.3125L155.718 31.0141L157.135 40.4446L172.723 33.9281L172.702 40.6409C172.701 40.7679 172.206 41.142 171.249 41.732C170.292 42.3379 169.208 42.9897 167.996 43.7032C166.784 44.4167 165.637 45.0676 164.537 45.6875C163.437 46.3073 162.751 46.6947 162.496 46.8499C160.615 47.9193 158.893 48.9274 157.331 49.8742C156.533 50.3712 155.672 50.899 154.747 51.4578C153.823 52.0165 152.978 52.5128 152.181 52.9146ZM167.239 31.0125L167.128 31.011L167.24 30.9331L167.239 31.0125ZM148.44 6.14125L148.344 6.23517L148.248 6.32908L148.151 6.51821L148.071 6.59647L147.959 6.70603L147.879 6.7843L147.784 6.87821L147.688 6.97212L147.592 7.06604L147.495 7.25516L147.399 7.34908L147.303 7.44299L147.207 7.52104L147.127 7.63103L147.015 7.70886L146.934 7.89821L146.838 7.99212L146.742 8.08603L146.647 8.17995L146.551 8.25799L146.455 8.36777L146.358 8.5569L146.262 8.63495L146.166 8.72886L146.086 8.82299L145.99 8.9169L145.894 9.01082L145.798 9.10473L145.701 9.29386L145.606 9.3719L145.597 10.4034L145.677 12.3724L145.758 14.2462L145.837 16.2152L145.917 18.1842L145.997 20.058L146.061 22.0268L146.142 23.9006L146.221 25.8696L146.301 27.8386L146.381 29.6965L146.461 31.6655L146.541 33.6504L146.621 35.5242L146.701 37.4774L146.766 39.3509L146.861 41.3202L146.925 43.289L147.005 45.1628L147.085 47.1318L147.165 49.0056L147.245 50.9746L147.328 52.4675L147.518 52.5812L147.708 52.6632L147.977 52.762L148.166 52.8598L148.356 52.9577L148.53 53.0552L148.72 53.1531L148.909 53.2509L149.099 53.3487L149.384 53.4319L149.574 53.5297L149.747 53.6273L149.937 53.7251L150.127 53.8229L150.316 53.9207L150.506 54.0185L150.775 54.1174L150.965 54.2152L151.154 54.313L151.344 54.395L151.502 54.4924L151.692 54.5902L151.977 54.6893L152.166 54.7871L152.356 54.8849L152.53 54.9825L152.719 55.0803L152.909 55.1781L153.099 55.2759L153.384 55.3591L153.557 55.4567L153.747 55.5545L153.937 55.6524L154.126 55.7502L154.316 55.848L154.506 55.9458L154.775 56.0447L154.964 56.1425L155.138 56.2401L155.328 56.3379L155.518 56.4198L155.707 56.5176L155.992 56.6167L156.182 56.7145L156.356 56.8121L156.545 56.9099L156.735 57.0077L156.925 57.1056L157.114 57.2034L157.383 57.3022L157.573 57.3842L157.763 57.482L157.952 57.5798L158.142 57.6776L158.506 57.7778L158.982 57.8795L159.346 57.9797L159.726 58.0801L160.09 58.1803L160.47 58.2807L160.85 58.3652L161.214 58.4654L161.595 58.5658L162.15 58.5734L162.246 58.4795L162.437 58.3869L162.628 58.3101L162.724 58.2162L162.899 58.1234L163.09 58.0307L163.186 57.9368L163.378 57.8442L163.569 57.7516L163.665 57.6577L163.856 57.5651L164.031 57.4722L164.127 57.3942L164.318 57.3016L164.509 57.209L164.605 57.1151L164.796 57.0224L164.972 56.9296L165.068 56.8357L165.259 56.7431L165.45 56.6505L165.546 56.5565L165.737 56.4798L165.928 56.3872L166.008 56.2931L166.199 56.2004L166.391 56.1078L166.487 56.0139L166.678 55.9213L166.758 55.8272L166.949 55.7345L167.14 55.6419L167.236 55.548L167.427 55.4713L167.618 55.3787L167.698 55.2845L167.89 55.1919L168.081 55.0993L168.177 55.0054L168.368 54.9128L168.559 54.8201L168.639 54.726L168.83 54.6334L169.021 54.5567L169.117 54.4627L169.308 54.3701L169.5 54.2775L169.596 54.1836L169.771 54.0908L169.962 53.9981L170.058 53.9042L170.249 53.8116L170.44 53.719L170.536 53.641L170.711 53.5481L170.903 53.4555L170.999 53.3616L171.19 53.269L171.286 53.1751L171.477 53.0824L171.668 52.9898L171.748 52.9116L171.939 52.8031L172.13 52.7263L172.226 52.6166L172.417 52.5398L172.609 52.4472L172.689 52.3531L172.88 52.2604L173.071 52.1678L173.167 52.0739L173.358 51.9972L173.549 51.8887L173.629 51.8104L173.82 51.7178L174.012 51.6252L174.108 51.5313L174.299 51.4387L174.49 51.346L174.57 51.2519L174.761 51.1593L174.952 51.0826L175.048 50.9728L175.239 50.896L175.335 50.8021L175.511 50.7093L175.702 50.6167L175.798 50.5228L175.989 50.4301L176.18 50.3375L176.276 50.2436L176.451 50.1508L176.642 50.0582L176.738 49.9801L176.929 49.8875L177.121 49.7949L177.216 49.701L177.408 49.6084L177.583 49.5155L177.679 49.4216L177.87 49.329L178.061 49.2364L178.157 49.1425L178.348 49.0657L178.524 48.9729L178.619 48.879L178.811 48.7864L178.908 48.502L179.004 48.4081L179.054 42.14L178.961 41.8531L178.866 41.7565L178.772 41.5648L178.678 41.4842L178.584 41.2925L178.49 41.1007L178.412 41.0044L178.318 40.8127L178.224 40.7162L178.13 40.5404L178.035 40.4438L177.942 40.2521L177.848 40.0604L177.754 39.9639L177.66 39.7722L177.565 39.6757L177.487 39.5L177.393 39.4035L177.299 39.2118L177.206 39.0201L177.111 38.9236L177.017 38.7318L176.923 38.6353L176.829 38.4595L176.735 38.2678L176.641 38.1712L176.547 37.9795L176.469 37.8832L176.375 37.6915L176.28 37.6109L176.187 37.4191L176.093 37.2274L175.999 37.1309L175.905 36.9392L175.81 36.8585L175.717 36.6668L175.622 36.5703L175.544 36.3788L175.451 36.1871L175.356 36.0906L175.262 35.9147L175.168 35.8023L175.074 35.6265L174.98 35.53L174.886 35.3383L174.792 35.1465L174.698 35.05L174.62 34.8585L174.51 34.7777L174.432 34.5862L174.337 34.4897L174.244 34.2979L174.15 34.1062L174.055 34.0256L174.341 34.0295L174.626 34.1127L174.99 34.2129L175.275 34.312L175.465 34.3146L175.561 34.2207L175.927 34.1304L176.024 33.9413L176.12 33.8633L176.216 33.6741L176.312 33.5802L176.408 33.4863L176.505 33.2972L176.585 33.2031L176.682 33.0139L176.778 32.9359L176.873 32.842L176.97 32.6528L177.066 32.5589L177.162 32.465L177.259 32.2759L177.355 32.182L177.451 32.0087L177.547 31.9148L177.627 31.8207L177.724 31.6316L177.82 31.5376L177.917 31.3485L178.013 31.2546L178.109 31.1607L178.205 30.9874L178.301 30.8935L178.398 30.7044L178.494 30.6105L178.574 30.5163L178.671 30.3272L178.767 30.2492L178.863 30.1394L178.959 29.9661L179.055 29.8722L179.152 29.6831L179.248 29.5892L179.328 29.4951L179.44 29.322L179.521 29.212L179.633 29.039L179.713 28.9448L179.809 28.8509L179.906 28.6618L180.002 28.5679L180.098 28.3946L180.194 28.3007L180.274 28.2066L180.387 28.0177L180.467 27.9235L180.563 27.8296L180.66 27.6564L180.756 27.5625L180.852 27.3733L180.948 27.2794L181.044 27.1855L181.049 26.6301L180.956 26.3432L180.862 26.1515L180.769 25.8804L180.675 25.6887L180.582 25.4017L180.488 25.21L180.411 24.9392L180.302 24.7472L180.225 24.4605L180.131 24.2688L180.037 24.0771L179.944 23.806L179.85 23.6143L179.757 23.3273L179.68 23.1358L179.571 22.8646L179.493 22.673L179.384 22.3859L179.306 22.1944L179.213 21.9233L179.119 21.7316L179.026 21.4447L178.933 21.253L178.84 20.9819L178.746 20.7902L178.653 20.5032L178.575 20.3117L178.482 20.0407L178.388 19.8489L178.295 19.562L178.202 19.3703L178.109 19.0992L178.015 18.9075L177.922 18.6206L177.828 18.4288L177.735 18.1419L177.657 17.9663L177.564 17.7745L177.471 17.5035L177.377 17.3118L177.284 17.0248L177.19 16.8331L177.097 16.562L177.003 16.3703L176.911 16.0834L176.817 15.8917L176.724 15.6206L176.646 15.4291L176.553 15.1422L176.459 14.9504L176.366 14.6635L176.272 14.4877L176.18 14.1055L176.086 14.009L175.991 13.9125L175.898 13.7208L175.803 13.6243L175.725 13.4486L175.631 13.3521L175.537 13.1604L175.443 13.0639L175.348 12.9674L175.254 12.7756L175.16 12.6791L175.066 12.5033L174.972 12.4068L174.877 12.3103L174.799 12.1188L174.689 12.022L174.611 11.8305L174.517 11.734L174.422 11.6375L174.329 11.4616L174.234 11.3651L174.14 11.1734L174.046 11.0769L173.952 10.9804L173.874 10.7889L173.763 10.6922L173.685 10.6117L173.4 10.5126L172.829 10.4096L172.275 10.3069L171.72 10.2041L171.15 10.1011L170.595 9.99828L170.04 9.8955L169.47 9.80837L168.915 9.68971L168.345 9.60258L167.79 9.48393L167.235 9.39701L166.665 9.29401L166.11 9.19123L165.54 9.08823L165.08 8.98674L164.51 8.88374L163.955 8.79683L163.385 8.67796L162.83 8.59104L162.276 8.47239L161.705 8.38526L161.15 8.28248L160.596 8.17969L160.025 8.07669L159.471 7.97391L158.9 7.87091L158.345 7.78399L157.775 7.66512L157.22 7.57821L156.65 7.47521L156.095 7.37242L155.525 7.26942L154.97 7.16664L154.511 7.06515L153.94 6.96215L153.386 6.85937L152.831 6.77245L152.26 6.65358L151.722 6.56688L151.151 6.46388L150.597 6.3611L150.026 6.2581L149.471 6.15532L148.901 6.05232L148.536 6.04734L148.44 6.14125Z" fill="#7C968F"/>
<path d="M203.807 35.7463L204.168 35.9203L204.606 36.111L205.06 36.3049L205.499 36.4956L205.953 36.6895L206.392 36.8802L206.753 37.0542L207.114 37.2283L207.195 37.3427L207.252 37.5326L207.322 37.7415L207.403 37.8559L207.474 38.0648L207.555 38.1792L207.625 38.3881L207.709 38.4868L207.789 38.617L207.872 38.7156L208.047 38.8499L208.321 38.9568L208.113 38.961L207.915 39.0157L207.733 39.0738L207.442 39.1087L207.245 39.1634L207.047 39.2181L206.773 39.2406L206.574 39.3111L206.378 39.3501L206.087 39.3849L205.905 39.443L205.707 39.4977L205.416 39.5326L205.346 39.3236L205.309 38.8469L205.25 38.5435L205.184 38.4324L205.098 38.2201L205.032 38.1091L204.949 38.0104L204.878 37.8015L204.797 37.6871L204.715 37.5727L204.645 37.3637L204.563 37.2493L204.493 37.0404L204.427 36.9293L204.33 36.8116L204.274 36.6217L204.192 36.5073L204.11 36.3929L204.04 36.184L203.959 36.0696L203.877 35.9552L203.807 35.7463ZM186.582 54.5814C186.128 54.3875 185.707 54.1844 185.288 53.9656C184.869 53.7467 184.417 53.537 183.966 53.3116C182.955 52.8532 182.522 52.6153 182.685 52.5854C182.846 52.5713 182.909 52.0515 182.873 51.0416C182.858 50.3758 182.894 49.3005 183.01 47.8222C183.108 46.3563 183.209 45.2627 183.297 44.5381C183.431 43.4354 183.517 42.3384 183.554 41.2473C183.591 40.1562 183.692 39.0626 183.824 37.9757C183.888 37.4558 183.922 36.9136 183.928 36.3332C183.935 35.7528 183.969 35.2106 184.034 34.675C184.079 34.3127 184.128 33.7737 184.216 33.0491C184.304 32.3244 184.338 31.7822 184.318 31.4224C184.292 30.7218 184.327 29.6464 184.438 28.2154C184.548 26.7843 184.651 25.675 184.743 24.9188C184.871 23.8634 184.97 22.7855 185.042 21.6695C185.097 20.566 185.167 19.4658 185.27 18.3564C185.354 17.4046 185.439 16.3077 185.538 15.1005C185.622 13.89 185.672 12.818 185.694 11.8529C185.689 11.1084 185.797 10.6142 186.016 10.3862C186.217 10.1706 186.504 9.90854 186.874 9.61582C187.118 9.44168 187.42 9.18297 187.778 8.85543C188.134 8.54364 188.433 8.31643 188.669 8.2053C188.844 8.33959 189.568 8.67198 190.842 9.18669C192.115 9.71716 193.513 10.2742 195.065 10.8643C196.615 11.4702 198.09 12.0437 199.491 12.5692C200.892 13.0947 201.821 13.4387 202.279 13.6011C203.405 14.0354 204.544 14.4888 205.698 14.9455C206.853 15.4022 207.994 15.8398 209.119 16.2741C209.62 16.478 210.198 16.6985 210.842 16.9007C211.486 17.1029 211.925 17.4229 212.128 17.854C212.229 18.0696 212.472 18.5579 212.873 19.3223C213.258 20.0833 213.458 20.5302 213.443 20.6562C213.441 20.672 213.079 21.031 212.386 21.7558C211.693 22.4805 210.912 23.2674 210.076 24.1231C209.239 24.9789 208.442 25.7782 207.716 26.5121C206.974 27.2426 206.562 27.6232 206.494 27.6572L202.876 25.7209L203.256 24.2989L192.263 19.5105L192.905 25.2238L197.888 26.5464L198.375 33.5357L196.822 34.6585L192.521 33.4974L192.844 43.1507L208.849 39.7162L208.07 46.3864C208.055 46.5125 207.528 46.7878 206.524 47.1875C205.518 47.603 204.382 48.0393 203.115 48.512C201.847 48.9848 200.65 49.4078 199.502 49.8092C198.355 50.2106 197.639 50.4619 197.372 50.5664C195.409 51.2623 193.608 51.9283 191.97 52.5644C191.133 52.9028 190.23 53.2594 189.261 53.6343C188.292 54.0091 187.408 54.3376 186.582 54.5814ZM203.807 35.7463L203.698 35.7231L203.816 35.6675L203.807 35.7463ZM188.2 7.34558L188.096 7.42021L187.991 7.49484L187.875 7.66399L187.788 7.72619L187.666 7.81326L187.579 7.87545L187.474 7.95008L187.369 8.02471L187.265 8.09935L187.149 8.2685L187.044 8.34313L186.94 8.41776L186.837 8.47664L186.746 8.57034L186.628 8.6259L186.527 8.79837L186.422 8.873L186.318 8.94763L186.213 9.02227L186.111 9.08115L186.004 9.17153L185.888 9.34068L185.785 9.39956L185.681 9.47419L185.592 9.55214L185.487 9.62677L185.382 9.7014L185.278 9.77604L185.162 9.94519L185.059 10.0041L184.935 11.028L184.79 13.0013L184.657 14.8801L184.513 16.8534L184.369 18.8266L184.236 20.7054L184.076 22.6754L183.943 24.5541L183.799 26.5274L183.655 28.5007L183.524 30.3637L183.379 32.337L183.233 34.326L183.1 36.2048L182.958 38.1623L182.809 40.0378L182.681 42.0144L182.521 43.9843L182.388 45.8631L182.244 47.8364L182.111 49.7151L181.966 51.6884L181.88 53.1891L182.052 53.3392L182.229 53.4577L182.481 53.6086L182.656 53.7429L182.831 53.8771L182.99 54.0081L183.165 54.1424L183.34 54.2767L183.514 54.411L183.784 54.5494L183.959 54.6837L184.118 54.8147L184.293 54.949L184.468 55.0833L184.642 55.2176L184.817 55.3519L185.069 55.5027L185.244 55.637L185.419 55.7713L185.595 55.8899L185.739 56.0175L185.914 56.1518L186.182 56.306L186.356 56.4403L186.531 56.5746L186.69 56.7056L186.865 56.8399L187.04 56.9742L187.215 57.1085L187.484 57.2469L187.644 57.3779L187.818 57.5122L187.993 57.6465L188.168 57.7807L188.343 57.915L188.517 58.0493L188.77 58.2002L188.944 58.3345L189.104 58.4655L189.278 58.5998L189.455 58.7183L189.63 58.8526L189.898 59.0068L190.072 59.1411L190.232 59.272L190.406 59.4063L190.581 59.5406L190.756 59.6749L190.931 59.8092L191.183 59.9601L191.36 60.0786L191.534 60.2129L191.709 60.3472L191.884 60.4815L192.229 60.6523L192.683 60.8462L193.029 61.017L193.39 61.191L193.735 61.3618L194.096 61.5359L194.459 61.6942L194.805 61.8649L195.165 62.039L195.709 62.155L195.813 62.0804L196.011 62.0256L196.207 61.9866L196.311 61.912L196.494 61.8539L196.691 61.7992L196.796 61.7246L196.994 61.6698L197.191 61.6151L197.296 61.5404L197.494 61.4857L197.676 61.4276L197.779 61.3688L197.976 61.314L198.174 61.2593L198.279 61.1846L198.476 61.1299L198.659 61.0718L198.763 60.9972L198.961 60.9425L199.159 60.8877L199.263 60.8131L199.459 60.7741L199.657 60.7193L199.746 60.6414L199.943 60.5867L200.141 60.5319L200.246 60.4573L200.444 60.4025L200.533 60.3246L200.73 60.2698L200.928 60.2151L201.033 60.1405L201.228 60.1015L201.426 60.0467L201.515 59.9688L201.713 59.914L201.911 59.8593L202.015 59.7847L202.213 59.7299L202.411 59.6752L202.5 59.5972L202.698 59.5425L202.893 59.5035L202.998 59.4289L203.196 59.3741L203.393 59.3194L203.498 59.2447L203.68 59.1867L203.878 59.1319L203.983 59.0573L204.18 59.0025L204.378 58.9478L204.481 58.8889L204.663 58.8309L204.861 58.7761L204.965 58.7015L205.163 58.6467L205.267 58.5721L205.465 58.5174L205.663 58.4626L205.75 58.4004L205.95 58.3299L206.146 58.2909L206.252 58.2006L206.448 58.1616L206.646 58.1068L206.735 58.0289L206.932 57.9741L207.13 57.9194L207.235 57.8447L207.431 57.8058L207.63 57.7353L207.717 57.6731L207.915 57.6183L208.113 57.5636L208.217 57.4889L208.415 57.4342L208.613 57.3795L208.702 57.3015L208.9 57.2468L209.095 57.2078L209.202 57.1174L209.398 57.0784L209.502 57.0038L209.685 56.9457L209.882 56.891L209.987 56.8163L210.185 56.7616L210.382 56.7068L210.487 56.6322L210.669 56.5741L210.867 56.5194L210.969 56.4605L211.167 56.4058L211.365 56.351L211.47 56.2764L211.667 56.2217L211.849 56.1636L211.954 56.089L212.152 56.0342L212.349 55.9795L212.454 55.9048L212.65 55.8658L212.832 55.8078L212.937 55.7332L213.134 55.6784L213.262 55.4147L213.367 55.3401L214.123 49.1176L214.064 48.8142L213.983 48.6997L213.913 48.4908L213.829 48.3922L213.759 48.1832L213.689 47.9743L213.623 47.8632L213.553 47.6543L213.471 47.5399L213.399 47.3467L213.317 47.2323L213.247 47.0234L213.177 46.8145L213.095 46.7001L213.025 46.4911L212.944 46.3767L212.887 46.1869L212.805 46.0725L212.735 45.8635L212.665 45.6546L212.583 45.5402L212.513 45.3313L212.432 45.2169L212.36 45.0237L212.29 44.8148L212.208 44.7004L212.138 44.4914L212.072 44.3804L212.002 44.1714L211.918 44.0728L211.848 43.8639L211.778 43.6549L211.696 43.5405L211.626 43.3316L211.542 43.2329L211.472 43.024L211.391 42.9096L211.336 42.704L211.266 42.4951L211.184 42.3807L211.112 42.1875L211.033 42.0573L210.96 41.8642L210.879 41.7498L210.809 41.5408L210.739 41.3319L210.657 41.2175L210.602 41.0119L210.503 40.9099L210.449 40.7043L210.367 40.5899L210.297 40.381L210.227 40.1721L210.143 40.0734L210.423 40.1331L210.692 40.2715L211.038 40.4422L211.306 40.5964L211.492 40.6362L211.596 40.5616L211.965 40.5433L212.081 40.3741L212.184 40.3153L212.3 40.1461L212.404 40.0715L212.509 39.9968L212.625 39.8277L212.714 39.7497L212.83 39.5806L212.933 39.5217L213.038 39.4471L213.154 39.2779L213.258 39.2033L213.363 39.1287L213.479 38.9595L213.584 38.8849L213.698 38.7315L213.802 38.6568L213.891 38.5789L214.007 38.4098L214.112 38.3351L214.228 38.166L214.333 38.0913L214.437 38.0167L214.552 37.8633L214.656 37.7887L214.772 37.6195L214.877 37.5449L214.966 37.4669L215.082 37.2978L215.185 37.2389L215.291 37.1485L215.405 36.9951L215.51 36.9205L215.626 36.7513L215.731 36.6767L215.82 36.5988L215.95 36.4487L216.041 36.355L216.17 36.2049L216.259 36.127L216.364 36.0523L216.48 35.8832L216.585 35.8085L216.699 35.6551L216.803 35.5805L216.892 35.5026L217.024 35.3367L217.113 35.2588L217.218 35.1841L217.332 35.0308L217.437 34.9561L217.553 34.787L217.657 34.7123L217.762 34.6377L217.829 34.0863L217.77 33.7829L217.7 33.574L217.64 33.2863L217.569 33.0774L217.511 32.7739L217.441 32.565L217.396 32.2806L217.31 32.0684L217.267 31.7682L217.197 31.5593L217.127 31.3504L217.066 31.0627L216.996 30.8538L216.937 30.5503L216.883 30.3447L216.806 30.0537L216.752 29.8481L216.678 29.5413L216.623 29.3357L216.563 29.048L216.492 28.8391L216.434 28.5357L216.364 28.3267L216.303 28.0391L216.233 27.8301L216.174 27.5267L216.12 27.3211L216.059 27.0334L215.989 26.8245L215.93 26.521L215.86 26.3121L215.8 26.0244L215.729 25.8155L215.671 25.512L215.601 25.3031L215.542 24.9997L215.485 24.8098L215.415 24.6009L215.355 24.3132L215.285 24.1043L215.226 23.8008L215.156 23.5919L215.095 23.3042L215.025 23.0953L214.967 22.7918L214.896 22.5829L214.836 22.2952L214.781 22.0896L214.723 21.7861L214.652 21.5772L214.594 21.2738L214.522 21.0806L214.475 20.6826L214.393 20.5682L214.311 20.4538L214.241 20.2449L214.16 20.1305L214.103 19.9406L214.021 19.8262L213.951 19.6173L213.87 19.5029L213.788 19.3885L213.718 19.1796L213.636 19.0652L213.564 18.872L213.483 18.7576L213.401 18.6432L213.346 18.4376L213.249 18.3198L213.195 18.1142L213.113 17.9998L213.031 17.8854L212.959 17.6923L212.878 17.5778L212.807 17.3689L212.726 17.2545L212.644 17.1401L212.59 16.9345L212.492 16.8168L212.424 16.7214L212.157 16.5673L211.609 16.3534L211.078 16.1429L210.546 15.9324L209.999 15.7185L209.467 15.508L208.935 15.2975L208.386 15.0994L207.857 14.8731L207.307 14.675L206.778 14.4487L206.244 14.254L205.697 14.0401L205.165 13.8296L204.618 13.6157L204.179 13.4251L203.632 13.2113L203.099 13.0165L202.553 12.7869L202.02 12.5921L201.49 12.3658L200.941 12.1677L200.409 11.9572L199.878 11.7467L199.33 11.5328L198.799 11.3223L198.251 11.1085L197.718 10.9137L197.173 10.6841L196.639 10.4893L196.092 10.2755L195.56 10.065L195.013 9.85113L194.481 9.6406L194.043 9.44996L193.495 9.23612L192.964 9.02559L192.43 8.83082L191.885 8.60122L191.367 8.40976L190.82 8.19592L190.288 7.98539L189.741 7.77155L189.209 7.56102L188.662 7.34718L188.305 7.27095L188.2 7.34558Z" fill="#7C968F"/>
<path d="M256.956 34.9915L251.572 41.2719L240.684 36.1963C240.746 36.5701 240.905 38.5917 241.154 42.2236C241.384 45.8641 241.635 49.7903 241.907 54.0022C242.161 58.2227 242.39 62.0521 242.607 65.4971L242.929 70.6799C242.913 70.7413 242.495 70.8564 241.695 71.0695C240.88 71.2759 240.414 71.3863 240.279 71.4094C240.154 71.4544 239.67 71.5735 238.833 71.8038L237.567 72.1273C237.481 72.0871 236.979 71.5428 236.069 70.4637C235.16 69.3847 234.151 68.1907 233.052 66.851C231.953 65.5113 230.899 64.2444 229.927 63.0332C228.937 61.8305 228.328 61.0811 228.1 60.785L232.927 56.2963L236.137 34.2663L223.356 29.5661L227.755 16.3977L256.956 34.9915ZM226.989 16.4201L226.596 17.5983L226.192 18.7544L225.803 19.9173L225.413 21.0802L225.02 22.2584L224.596 23.4913L224.206 24.6541L223.813 25.8324L223.424 26.9952L223.02 28.1514L222.61 29.391L222.439 30.0352L222.721 30.2527L222.769 30.3782L222.814 30.5719L222.866 30.6821L222.917 30.7923L222.969 30.9025L223.031 31.0348L223.082 31.145L223.134 31.2552L223.185 31.3654L223.233 31.491L223.299 31.6079L223.35 31.7181L223.402 31.8283L223.45 31.9539L223.501 32.0641L223.547 32.2577L223.598 32.3679L223.65 32.4782L223.697 32.6037L223.763 32.7206L223.815 32.8309L223.866 32.9411L223.914 33.0666L223.965 33.1768L224.031 33.2938L224.083 33.404L224.131 33.5295L224.182 33.6398L224.248 33.7567L224.279 33.9436L224.327 34.0691L224.378 34.1794L224.444 34.2963L224.481 34.3998L224.547 34.5167L224.595 34.6423L224.646 34.7525L224.698 34.8627L224.764 34.9796L224.816 35.0898L224.863 35.2154L224.915 35.3256L224.981 35.4425L225.008 35.6448L225.059 35.755L225.111 35.8652L225.162 35.9754L225.224 36.1077L225.28 36.2026L225.327 36.3281L225.379 36.4384L225.445 36.5553L225.497 36.6655L225.544 36.791L225.596 36.9013L225.662 37.0182L225.674 37.2137L225.74 37.3307L225.792 37.4409L225.843 37.5511L225.895 37.6613L225.957 37.7936L226.008 37.9038L226.06 38.014L226.112 38.1242L226.173 38.2565L226.225 38.3667L226.277 38.4769L226.328 38.5871L226.38 38.6973L226.425 38.891L226.473 39.0165L226.524 39.1267L226.576 39.237L226.628 39.3472L226.675 39.4727L226.731 39.5676L226.778 39.6932L226.844 39.8101L226.881 39.9136L226.947 40.0305L226.995 40.1561L227.046 40.2663L227.098 40.3765L227.139 40.5855L227.191 40.6957L227.243 40.8059L227.294 40.9161L227.36 41.033L227.412 41.1433L227.459 41.2688L227.511 41.379L227.562 41.4892L227.628 41.6062L227.676 41.7317L227.727 41.8419L227.779 41.9522L227.845 42.0691L227.872 42.2713L227.924 42.3815L227.975 42.4918L228.027 42.602L228.074 42.7275L228.14 42.8445L228.192 42.9547L228.243 43.0649L228.291 43.1904L228.357 43.3074L228.408 43.4176L228.46 43.5278L228.511 43.638L228.553 43.847L228.604 43.9572L228.656 44.0674L228.708 44.1776L228.755 44.3032L228.821 44.4201L228.945 44.5638L229.621 44.879L230.461 45.1845L231.387 45.5302L232.231 45.8203L233.158 46.1661L233.71 46.3375L233.54 46.9817L233.445 47.6441L233.325 48.3985L233.226 49.0762L233.127 49.754L233.032 50.4164L232.948 51.1008L232.849 51.7786L232.729 52.533L232.634 53.1954L232.55 53.8799L232.451 54.5576L232.352 55.2353L232.185 55.8642L232.068 55.9994L231.976 56.0426L231.849 56.1557L231.732 56.2909L231.62 56.4108L231.527 56.454L231.396 56.5825L231.284 56.7023L231.167 56.8375L231.075 56.8807L230.958 57.0159L230.846 57.1357L230.719 57.2489L230.626 57.2921L230.51 57.4273L230.397 57.5471L230.266 57.6756L230.174 57.7188L230.061 57.8386L229.944 57.9738L229.817 58.087L229.725 58.1302L229.608 58.2654L229.496 58.3852L229.379 58.5204L229.273 58.5569L229.16 58.6767L229.043 58.8119L228.931 58.9318L228.804 59.045L228.707 59.1035L228.595 59.2233L228.478 59.3585L228.365 59.4784L228.273 59.5215L228.142 59.65L228.029 59.7699L227.913 59.9051L227.821 59.9483L227.694 60.0614L227.577 60.1966L227.464 60.3165L227.372 60.3596L227.241 60.4881L227.18 60.7182L227.242 60.8505L227.365 60.9942L227.417 61.1044L227.555 61.2549L227.602 61.3804L227.658 61.4753L227.792 61.6411L227.843 61.7513L227.967 61.8951L228.018 62.0053L228.08 62.1375L228.204 62.2813L228.255 62.3915L228.321 62.5084L228.44 62.6675L228.492 62.7777L228.63 62.9282L228.682 63.0384L228.733 63.1486L228.867 63.3144L228.918 63.4246L228.97 63.5348L229.108 63.6853L229.155 63.8108L229.279 63.9546L229.33 64.0648L229.382 64.175L229.516 64.3408L229.567 64.451L229.705 64.6014L229.757 64.7117L229.808 64.8219L229.946 64.9723L229.994 65.0979L230.045 65.2081L230.169 65.3518L230.235 65.4688L230.354 65.6278L230.406 65.7381L230.472 65.855L230.595 65.9987L230.647 66.1089L230.713 66.2259L230.832 66.3849L230.884 66.4952L231.007 66.6389L231.073 66.7558L231.121 66.8814L231.244 67.0251L231.31 67.142L231.362 67.2523L231.481 67.4113L231.533 67.5216L231.67 67.672L231.722 67.7822L231.774 67.8924L231.907 68.0582L231.959 68.1684L232.01 68.2787L232.134 68.4224L232.196 68.5547L232.319 68.6984L232.371 68.8086L232.437 68.9256L232.56 69.0693L232.612 69.1795L232.746 69.3453L232.869 69.489L232.921 69.5993L233.059 69.7497L233.178 69.9088L233.316 70.0592L233.439 70.203L233.563 70.3467L233.697 70.5125L233.824 70.6409L233.958 70.8067L234.081 70.9504L234.147 71.0674L234.271 71.2111L234.39 71.3702L234.528 71.5206L234.652 71.6644L234.79 71.8148L234.909 71.9739L235.032 72.1176L235.17 72.2681L235.222 72.3783L235.36 72.5287L235.479 72.6878L235.617 72.8383L235.741 72.982L235.864 73.1258L235.998 73.2915L236.121 73.4353L236.259 73.5857L236.383 73.7295L236.43 73.855L236.572 73.9901L236.691 74.1492L236.829 74.2997L236.953 74.4434L237.091 74.5939L237.21 74.7529L237.334 74.8967L237.471 75.0471L237.523 75.1573L237.642 75.3164L237.78 75.4669L237.904 75.6106L238.042 75.7611L238.165 75.9048L238.303 76.0552L238.422 76.2143L238.56 76.3648L238.597 76.4683L238.735 76.6187L238.855 76.7778L238.993 76.9283L239.116 77.072L239.254 77.2225L239.377 77.3662L239.511 77.532L239.635 77.6757L239.773 77.8262L239.824 77.9364L239.944 78.0955L240.081 78.2459L240.205 78.3897L240.328 78.5334L240.462 78.6992L240.908 78.907L241.019 78.8552L241.183 78.8456L241.275 78.8024L241.439 78.7928L241.55 78.741L241.642 78.6978L241.807 78.6882L241.913 78.6517L242.01 78.5932L242.174 78.5836L242.266 78.5404L242.373 78.5039L242.537 78.4943L242.633 78.4358L242.812 78.4328L242.904 78.3897L242.996 78.3465L243.164 78.3215L243.271 78.2851L243.363 78.2419L243.528 78.2323L243.634 78.1958L243.726 78.1526L243.895 78.1276L244.001 78.0912L244.094 78.048L244.258 78.0384L244.354 77.9799L244.533 77.9769L244.625 77.9338L244.717 77.8906L244.9 77.8723L244.988 77.8445L245.084 77.786L245.249 77.7763L245.355 77.7399L245.447 77.6967L245.616 77.6717L245.787 77.3899L245.869 77.0831L245.848 76.7974L245.841 76.5185L245.834 76.2396L245.803 76.0526L245.778 75.7823L245.785 75.5101L245.764 75.2245L245.733 75.0376L245.726 74.7586L245.715 74.495L245.694 74.2094L245.663 74.0225L245.656 73.7435L245.649 73.4646L245.628 73.1789L245.597 72.992L245.586 72.7284L245.579 72.4495L245.572 72.1705L245.527 71.9769L245.52 71.698L245.509 71.4344L245.502 71.1554L245.461 70.9465L245.45 70.6829L245.443 70.4039L245.436 70.125L245.391 69.9314L245.394 69.6745L245.373 69.3888L245.366 69.1099L245.335 68.923L245.328 68.6441L245.303 68.3737L245.296 68.0948L245.269 67.8926L245.258 67.629L245.237 67.3433L245.23 67.0644L245.199 66.8775L245.188 66.6139L245.181 66.3349L245.16 66.0493L245.129 65.8624L245.122 65.5834L245.115 65.3045L245.09 65.0342L245.063 64.8319L245.052 64.5683L245.045 64.2894L245.038 64.0104L245.007 63.8235L244.982 63.5532L244.975 63.2743L244.968 62.9953L244.937 62.8084L244.916 62.5228L244.909 62.2439L244.898 61.9803L244.871 61.778L244.846 61.5077L244.839 61.2288L244.832 60.9498L244.801 60.7629L244.794 60.484L244.769 60.2137L244.762 59.9347L244.731 59.7478L244.724 59.4689L244.717 59.1899L244.692 58.9196L244.665 58.7174L244.654 58.4538L244.647 58.1748L244.626 57.8892L244.595 57.7023L244.588 57.4233L244.581 57.1444L244.57 56.8808L244.524 56.6872L244.518 56.4082L244.511 56.1293L244.48 55.9424L244.458 55.6567L244.452 55.3778L244.441 55.1142L244.41 54.9273L244.388 54.6416L244.396 54.3694L244.375 54.0838L244.344 53.8969L244.333 53.6333L244.326 53.3543L244.305 53.0687L244.273 52.8818L244.267 52.6028L244.26 52.3239L244.235 52.0536L244.203 51.8667L244.197 51.5877L244.19 51.3088L244.183 51.0298L244.137 50.8362L244.126 50.5726L244.099 50.3704L252.197 54.1453L252.304 54.1088L252.468 54.0992L252.564 54.0407L252.677 53.9208L252.828 53.7156L252.941 53.5958L253.057 53.4606L253.17 53.3407L253.322 53.1355L253.434 53.0157L253.547 52.8958L253.663 52.7606L253.79 52.6474L253.913 52.4288L254.044 52.3004L254.157 52.1805L254.269 52.0606L254.386 51.9254L254.533 51.7356L254.646 51.6157L254.763 51.4805L254.875 51.3607L255.027 51.1555L255.139 51.0356L255.256 50.9004L255.369 50.7806L255.485 50.6454L255.633 50.4555L255.745 50.3357L255.862 50.2005L255.974 50.0806L256.126 49.8754L256.243 49.7402L256.355 49.6204L256.468 49.5005L256.584 49.3653L256.717 49.1687L256.834 49.0336L256.961 48.9204L257.078 48.7852L257.204 48.3097L257.238 47.8774L257.237 47.515L257.251 47.1594L257.284 46.7271L257.298 46.3715L257.332 45.9391L257.345 45.5835L257.359 45.2279L257.374 44.8042L257.388 44.4485L257.426 44.0009L257.435 43.6606L257.435 43.2982L257.468 42.8659L257.482 42.5103L257.516 42.078L257.529 41.7223L257.529 41.36L257.562 40.9277L257.576 40.572L257.61 40.1397L257.609 39.7774L257.623 39.4217L257.656 38.9894L257.666 38.6491L257.69 38.1947L257.713 37.8612L257.737 37.4068L257.746 37.0665L257.76 36.7109L257.794 36.2785L257.793 35.9162L257.827 35.4839L257.933 35.0851L257.998 34.8397L257.5 34.5216L256.917 34.1633L256.409 33.8232L255.911 33.5051L255.4 33.1803L254.83 32.8287L254.323 32.4886L253.811 32.1638L253.313 31.8458L252.73 31.4875L252.232 31.1694L251.72 30.8446L251.227 30.5112L250.643 30.1529L250.131 29.8281L249.634 29.5101L249.141 29.1766L248.557 28.8183L248.045 28.4936L247.533 28.1688L247.04 27.8354L246.538 27.5326L245.959 27.159L245.447 26.8342L244.949 26.5162L244.437 26.1914L243.872 25.8244L243.36 25.4997L242.863 25.1816L242.351 24.8568L241.786 24.4899L241.274 24.1651L240.762 23.8403L240.265 23.5223L239.681 23.164L239.173 22.8238L238.676 22.5058L238.178 22.1877L237.595 21.8294L237.087 21.4893L236.589 21.1712L236.078 20.8464L235.494 20.4881L235 20.1547L234.485 19.8453L233.991 19.5119L233.407 19.1536L232.91 18.8355L232.398 18.5107L231.919 18.184L231.335 17.8257L230.838 17.5077L230.326 17.1829L229.818 16.8428L229.235 16.4845L228.737 16.1664L228.24 15.8483L227.728 15.5235L227.354 15.3492L226.989 16.4201Z" fill="#7C968F"/>
<path d="M269.484 57.7456C269.523 57.6588 270.175 57.488 271.439 57.1944C272.703 56.9007 274.112 56.5848 275.678 56.2563C277.245 55.9279 278.724 55.608 280.139 55.3164C281.541 55.0149 282.419 54.8277 282.761 54.7449C283.847 54.5072 284.947 54.2404 286.078 53.979C287.197 53.7077 288.315 53.4752 289.433 53.2814C289.673 53.2361 289.957 53.1672 290.28 53.0502C290.597 52.9477 290.892 52.9662 291.148 53.1102C291.435 53.2983 291.734 53.4574 292.034 53.6166C292.334 53.7758 292.646 53.9448 292.97 54.1237C293.394 54.3815 294.025 54.7051 294.88 55.1286C295.717 55.5568 296.315 55.9139 296.676 56.2L295.543 59.6428L298.81 61.6066L291.319 72.3998L285.604 68.7886L289.091 63.4613L275.673 63.56C276.502 64.4148 277.402 65.2269 278.397 65.9773C279.38 66.7178 280.28 67.4911 281.086 68.2874C281.89 69.1226 282.765 69.915 283.748 70.6554C284.731 71.3959 285.643 72.1791 286.486 73.005C286.858 73.3785 287.286 73.777 287.783 74.1716C288.28 74.5662 288.758 74.9653 289.193 75.3494C289.553 75.6742 289.981 76.0727 290.515 76.5357C291.029 77.0032 291.489 77.3682 291.9 77.6549C292.74 78.3014 293.136 78.6946 293.083 78.8491C293.03 79.0036 292.751 79.5091 292.227 80.3703C291.885 80.9041 291.581 81.4286 291.321 81.9296C291.048 82.4206 290.744 82.9452 290.42 83.5132C289.521 83.8214 288.516 84.0263 287.394 84.1181C286.272 84.2099 285.249 84.3807 284.326 84.6303C282.555 85.1112 280.568 85.7348 278.34 86.4812C277.264 86.8452 276.276 87.1619 275.365 87.4602C275.112 87.5344 274.608 87.5666 273.852 87.5566C273.097 87.5465 272.568 87.5589 272.253 87.5838C271.73 87.6206 271.194 87.6474 270.677 87.6697C270.161 87.6919 269.644 87.7142 269.152 87.7562C268.799 87.7903 268.257 87.8316 267.545 87.8755C266.826 87.9339 266.323 87.9272 266.04 87.8798L262.627 79.8083L269.65 72.297C269.813 72.3088 270.818 72.8508 272.689 73.9425C274.548 75.0244 275.589 75.6735 275.799 75.88C275.886 75.9878 275.911 76.3422 275.87 76.9575C275.828 77.5729 275.891 77.9569 276.059 78.1094C276.052 78.1239 276.455 78.1292 277.286 78.1208C278.117 78.1125 279.03 78.11 280.019 78.0892C281.008 78.0683 281.927 78.0514 282.784 78.024C283.622 78.0011 284.076 77.9683 284.127 77.9302L269.331 66.347C269.325 65.988 269.337 64.4653 269.393 61.7987C269.437 59.1223 269.471 57.7745 269.484 57.7456ZM297.142 55.4302L296.824 55.2368L296.574 55.1171L296.331 54.983L296.068 54.8534L295.763 54.6699L295.507 54.5259L295.257 54.4062L294.939 54.2128L294.696 54.0787L294.446 53.9589L294.128 53.7656L293.878 53.6459L293.635 53.5117L293.317 53.3184L293.074 53.1842L292.811 53.0546L292.561 52.9349L292.243 52.7416L292 52.6074L291.75 52.4877L291.432 52.2944L291.182 52.1746L290.939 52.0405L290.819 52.0437L290.712 52.0569L290.592 52.0601L290.473 52.0634L290.314 52.1534L290.194 52.1567L290.087 52.1698L289.967 52.1731L289.808 52.2631L289.701 52.2763L289.582 52.2795L289.468 52.3071L289.303 52.3728L289.196 52.386L289.07 52.4037L288.962 52.4168L288.843 52.4201L288.69 52.4957L288.564 52.5134L288.457 52.5265L288.337 52.5298L288.178 52.6198L288.071 52.6329L287.951 52.6362L287.844 52.6493L287.673 52.7295L287.566 52.7426L287.446 52.7459L287.326 52.7492L287.167 52.8392L287.06 52.8523L286.94 52.8556L286.833 52.8687L286.662 52.9489L286.555 52.962L286.435 52.9653L286.328 52.9784L286.208 52.9817L286.049 53.0717L285.93 53.075L285.822 53.0881L285.703 53.0914L285.544 53.1814L285.437 53.1945L285.31 53.2123L285.21 53.2109L285.038 53.2911L284.931 53.3042L284.811 53.3075L284.698 53.3351L284.533 53.4008L284.419 53.4284L284.299 53.4317L284.192 53.4448L284.033 53.5348L283.914 53.5381L283.794 53.5414L283.687 53.5545L283.528 53.6445L283.408 53.6478L283.288 53.651L283.181 53.6642L283.062 53.6674L282.903 53.7575L282.783 53.7607L282.676 53.7739L282.556 53.7771L282.397 53.8672L282.29 53.8803L282.17 53.8836L282.063 53.8967L281.892 53.9769L281.785 53.99L281.665 53.9933L281.558 54.0064L281.386 54.0866L281.279 54.0997L281.159 54.103L281.052 54.1161L280.893 54.2061L280.774 54.2094L280.66 54.237L280.547 54.2258L280.427 54.229L280.268 54.3191L280.161 54.3322L280.035 54.3499L279.915 54.3532L279.756 54.4432L279.649 54.4564L279.529 54.4596L279.422 54.4728L279.257 54.5385L279.143 54.5661L279.024 54.5693L278.917 54.5825L278.745 54.6626L278.638 54.6758L278.531 54.6889L278.424 54.702L278.265 54.7921L278.145 54.7953L278.038 54.8084L277.918 54.8117L277.759 54.9018L277.64 54.905L277.532 54.9181L277.413 54.9214L277.305 54.9345L277.134 55.0147L277.027 55.0278L276.907 55.0311L276.788 55.0344L276.641 55.1343L276.521 55.1375L276.402 55.1408L276.288 55.1684L276.123 55.2341L276.009 55.2617L275.896 55.2505L275.789 55.2636L275.618 55.3438L275.51 55.3569L275.384 55.3747L275.277 55.3878L275.118 55.4778L274.998 55.4811L274.898 55.4797L274.772 55.4975L274.664 55.5106L274.493 55.5908L274.386 55.6039L274.266 55.6072L274.159 55.6203L273.988 55.7005L273.88 55.7136L273.761 55.7169L273.653 55.73L273.495 55.82L273.375 55.8233L273.255 55.8266L273.148 55.8397L272.989 55.9297L272.869 55.933L272.75 55.9363L272.643 55.9494L272.484 56.0394L272.364 56.0427L272.257 56.0558L272.137 56.0591L272.03 56.0722L271.859 56.1524L271.751 56.1655L271.625 56.1832L271.518 56.1964L271.347 56.2765L271.239 56.2897L271.126 56.2785L271.012 56.3061L270.86 56.3816L270.734 56.3994L270.627 56.4125L270.507 56.4158L270.348 56.5058L270.228 56.5091L270.121 56.5222L270.001 56.5255L269.843 56.6155L269.723 56.6188L269.603 56.622L269.496 56.6351L269.337 56.7252L269.217 56.7284L269.11 56.7416L268.991 56.7448L268.883 56.758L268.741 56.9986L268.764 57.1347L268.729 57.3621L268.752 57.4982L268.735 57.7211L268.739 57.8618L268.723 58.0847L268.74 58.2352L268.711 58.4482L268.727 58.5988L268.711 58.8217L268.734 58.9578L268.699 59.1852L268.722 59.3213L268.699 59.5587L268.722 59.6948L268.693 59.9078L268.71 60.0583L268.681 60.2713L268.665 60.4942L268.681 60.6448L268.653 60.8578L268.669 61.0083L268.641 61.2214L268.669 61.3818L268.641 61.5948L268.657 61.7453L268.629 61.9584L268.657 62.1188L268.629 62.3318L268.652 62.4679L268.617 62.6954L268.639 62.8314L268.623 63.0543L268.64 63.2049L268.611 63.4179L268.627 63.5684L268.611 63.7913L268.628 63.9419L268.599 64.1549L268.615 64.3054L268.599 64.5283L268.622 64.6644L268.587 64.8919L268.558 65.1049L268.575 65.2555L268.559 65.4783L268.575 65.6289L268.546 65.8419L268.563 65.9925L268.534 66.2055L268.57 66.3514L268.534 66.5789L268.557 66.715L268.642 66.9392L268.733 67.1489L268.756 67.285L268.84 67.5092L268.863 67.6453L268.954 67.8551L268.971 68.0056L269.062 68.2154L269.078 68.366L269.101 68.502L269.192 68.7118L269.209 68.8624L269.3 69.0721L269.316 69.2227L269.407 69.4324L269.43 69.5685L269.514 69.7927L269.537 69.9288L269.622 70.153L269.645 70.2891L269.729 70.5133L269.752 70.6494L269.775 70.7855L269.86 71.0097L269.883 71.1458L270.006 71.2832L269.922 71.4325L269.711 71.226L269.536 71.1655L269.286 71.4192L268.979 71.7255L268.678 72.0561L268.319 72.4394L268.024 72.7555L267.73 73.0717L267.416 73.3925L267.07 73.7856L266.762 74.0919L266.468 74.4081L266.102 74.8058L265.807 75.1219L265.513 75.4381L265.206 75.7444L264.859 76.1375L264.558 76.4681L264.251 76.7745L263.904 77.1675L263.591 77.4883L263.296 77.8045L262.949 78.1976L262.642 78.5039L262.347 78.8201L262.046 79.1507L261.755 79.6076L261.846 79.8173L261.937 80.0271L262.028 80.2368L262.113 80.461L262.191 80.6609L262.295 80.8805L262.374 81.0804L262.458 81.3046L262.549 81.5143L262.64 81.7241L262.731 81.9338L262.816 82.158L262.907 82.3678L262.985 82.5677L263.076 82.7774L263.161 83.0016L263.252 83.2114L263.343 83.4211L263.427 83.6453L263.586 83.9287L263.677 84.1384L263.756 84.3383L263.847 84.5481L263.931 84.7723L264.022 84.982L264.113 85.1918L264.198 85.416L264.289 85.6257L264.38 85.8355L264.459 86.0353L264.543 86.2596L264.622 86.4594L264.713 86.6692L264.804 86.8789L264.888 87.1031L264.979 87.3129L265.07 87.5226L265.161 87.7324L265.308 88.0059L265.392 88.2301L265.483 88.4398L265.574 88.6496L265.665 88.8593L265.75 89.0835L265.897 89.3571L266 89.5767L266.079 89.7766L266.238 90.0599L266.329 90.2697L266.413 90.4939L266.56 90.7674L266.663 90.987L266.742 91.1869L266.901 91.4703L266.992 91.6801L267.076 91.9043L267.223 92.1778L267.314 92.3875L267.405 92.5973L267.564 92.8807L267.655 93.0904L267.74 93.3146L267.899 93.598L267.977 93.7979L268.068 94.0076L268.221 94.3055L268.318 94.5008L268.403 94.725L268.562 95.0084L268.641 95.2083L268.732 95.418L268.884 95.7159L268.975 95.9256L269.066 96.1353L269.225 96.4187L269.304 96.6186L269.395 96.8284L269.547 97.1262L269.638 97.336L269.729 97.5457L269.876 97.8192L269.967 98.029L270.058 98.2387L270.211 98.5366L270.302 98.7463L270.393 98.9561L270.539 99.2296L270.806 99.4999L271.056 99.6196L271.175 99.6163L271.295 99.613L271.402 99.5999L271.522 99.5966L271.629 99.5835L271.749 99.5802L271.856 99.5671L271.976 99.5639L272.083 99.5507L272.203 99.5475L272.322 99.5442L272.436 99.5166L272.556 99.5133L272.656 99.5147L272.783 99.497L272.89 99.4838L273.009 99.4806L273.117 99.4674L273.236 99.4642L273.356 99.4609L273.531 99.5214L273.645 99.4938L273.765 99.4906L273.884 99.4873L273.992 99.4742L274.111 99.4709L274.219 99.4578L274.338 99.4545L274.446 99.4414L274.565 99.4381L274.672 99.425L274.792 99.4217L274.899 99.4086L275.019 99.4054L275.133 99.3778L275.246 99.389L275.36 99.3614L275.479 99.3581L275.587 99.345L275.706 99.3417L275.826 99.3384L276.001 99.399L276.109 99.3858L276.235 99.3681L276.342 99.355L276.455 99.3662L276.581 99.3485L276.689 99.3353L276.808 99.3321L276.916 99.3189L277.035 99.3157L277.142 99.3025L277.262 99.2993L277.369 99.2862L277.489 99.2829L277.609 99.2796L277.723 99.252L277.836 99.2632L277.943 99.2501L278.069 99.2324L278.176 99.2193L278.296 99.216L278.471 99.2765L278.591 99.2732L278.75 99.1832L278.857 99.1701L279.028 99.0899L279.136 99.0768L279.255 99.0735L279.414 98.9835L279.534 98.9802L279.693 98.8902L279.812 98.8869L279.971 98.7969L280.078 98.7837L280.237 98.6937L280.357 98.6904L280.516 98.6004L280.636 98.5971L280.743 98.584L280.902 98.494L281.021 98.4907L281.18 98.4007L281.3 98.3974L281.459 98.3074L281.578 98.3041L281.737 98.2141L281.857 98.2108L282.016 98.1207L282.123 98.1076L282.243 98.1044L282.402 98.0143L282.521 98.0111L282.68 97.921L282.8 97.9177L282.959 97.8277L283.066 97.8146L283.237 97.7344L283.344 97.7213L283.509 97.6556L283.623 97.628L283.743 97.6247L283.902 97.5347L284.009 97.5215L284.18 97.4414L284.287 97.4282L284.446 97.3382L284.566 97.3349L284.725 97.2449L284.838 97.2561L285.003 97.1516L285.104 97.1529L285.224 97.1497L285.383 97.0596L285.502 97.0564L285.616 97.0288L285.781 96.9631L285.895 96.9355L286.014 96.9322L286.127 96.9434L286.241 96.9158L286.361 96.9125L286.52 96.8225L286.627 96.8094L286.747 96.8061L286.854 96.793L286.973 96.7897L287.132 96.6997L287.252 96.6964L287.359 96.6833L287.479 96.68L287.586 96.6669L287.706 96.6636L287.865 96.5736L287.972 96.5605L288.092 96.5572L288.218 96.5395L288.319 96.5408L288.438 96.5375L288.597 96.4475L288.717 96.4442L288.831 96.4167L288.95 96.4134L289.051 96.4147L289.229 96.3201L289.329 96.3214L289.456 96.3037L289.563 96.2906L289.67 96.2774L289.79 96.2742L289.949 96.1841L290.068 96.1809L290.176 96.1677L290.295 96.1645L290.415 96.1612L290.522 96.1481L290.681 96.058L290.801 96.0548L291.011 95.8878L291.852 94.512L293.382 91.8358L293.553 91.3822L293.536 91.2316L293.552 91.0087L293.581 90.7957L293.565 90.6452L293.593 90.4322L293.564 90.2717L293.593 90.0587L293.622 89.8457L293.605 89.6952L293.622 89.4723L293.618 89.3316L293.634 89.1087L293.662 88.8957L293.646 88.7452L293.662 88.5223L293.646 88.3717L293.681 88.1442L293.71 87.9312L293.674 87.7853L293.709 87.5578L293.686 87.4217L293.715 87.2087L293.738 86.9714L293.715 86.8353L293.75 86.6078L293.727 86.4717L293.743 86.2488L293.779 86.0214L293.756 85.8853L293.778 85.6479L293.768 85.5217L293.784 85.2988L293.819 85.0714L293.803 84.9208L293.831 84.7078L293.803 84.5474L293.831 84.3344L293.86 84.1213L294.429 83.1977L295.325 81.8856L296.189 80.6459L297.066 79.4159L297.929 78.1762L298.065 77.95L298.146 77.6601L298.168 77.4228L298.197 77.2098L298.232 76.9823L298.248 76.7594L298.277 76.5464L298.293 76.3235L298.329 76.0961L298.306 75.96L298.341 75.7325L298.357 75.5096L298.392 75.2822L298.421 75.0691L298.437 74.8463L298.466 74.6333L298.501 74.4058L298.517 74.1829L298.552 73.9554L298.581 73.7424L298.546 73.5965L298.581 73.369L298.609 73.156L298.638 72.943L298.661 72.7057L298.689 72.4926L298.718 72.2796L298.741 72.0423L298.77 71.8293L298.786 71.6064L298.769 71.4559L298.798 71.2429L298.821 71.0055L298.849 70.7925L298.878 70.5795L298.894 70.3566L298.929 70.1292L298.958 69.9162L298.981 69.6788L299.01 69.4658L299.038 69.2528L299.022 69.1022L299.038 68.8794L299.067 68.6664L299.102 68.4389L299.118 68.216L299.153 67.9885L299.182 67.7755L299.198 67.5527L299.233 67.3252L299.25 67.1023L299.239 66.9761L299.262 66.7388L299.29 66.5257L299.307 66.3029L299.342 66.0754L299.37 65.8624L299.393 65.6251L299.422 65.4121L299.451 65.199L299.467 64.9762L299.502 64.7487L299.479 64.6126L299.514 64.3851L299.53 64.1623L299.566 63.9348L299.594 63.7218L299.61 63.4989L299.639 63.2859L299.662 63.0486L299.691 62.8356L299.719 62.6225L299.742 62.3852L299.726 62.2347L299.754 62.0216L299.77 61.7988L299.874 61.6449L300.01 61.4188L299.811 61.2222L299.493 61.0288L299.25 60.8947L298.932 60.7013L298.614 60.508L298.296 60.3146L297.978 60.1213L297.66 59.9279L297.417 59.7937L297.167 59.674L297.258 59.5104L297.287 59.2973L297.258 59.1369L297.286 58.9239L297.315 58.7109L297.299 58.5603L297.315 58.3375L297.343 58.1245L297.379 57.897L297.356 57.7609L297.378 57.5236L297.407 57.3106L297.43 57.0732L297.419 56.947L297.436 56.7241L297.471 56.4966L297.487 56.2738L297.471 56.1232L297.596 55.7708L297.392 55.5499L297.142 55.4302Z" fill="#7C968F"/>
</g>
<g filter="url(#filter1_d_77_4602)">
<path d="M78.9096 178.881L79.2429 162.269L40.1088 148.21L40.018 166.593L53.101 170.756L50.4546 200.89L64.8789 202.501L67.593 175.293L78.9096 178.881Z" fill="#963532"/>
<path d="M102.622 192.541L101.236 206.64L91.5974 204.825L91.6976 191.111L102.622 192.541ZM81.1728 199.06C81.4282 203.991 83.3411 208.333 86.9115 212.085C90.4568 215.854 94.6029 217.934 99.3499 218.325C104.097 218.715 108.049 217.308 111.206 214.103C114.363 210.899 115.814 206.831 115.558 201.901C115.278 196.986 113.365 192.644 109.82 188.875C106.274 185.106 102.128 183.027 97.3813 182.636C92.6344 182.246 88.6715 183.649 85.4926 186.847C82.3355 190.052 80.8956 194.123 81.1728 199.06Z" fill="#963532"/>
<path d="M150.671 185.898L143.108 186.099L143.658 178.263L129.574 177.061L129.83 186.461L122.369 186.673L121.632 195.483L130.054 195.824L130.747 222.23L140.699 221.434L142.4 196.285L149.527 196.587L150.671 185.898Z" fill="#963532"/>
<path d="M176.406 199.957L168.693 205.575L167.792 199.926L176.406 199.957ZM170.458 216.842L169.649 211.802L187.035 199.964C185.282 197.043 182.892 194.722 179.864 193C176.79 191.258 173.511 190.424 170.028 190.497C167.592 190.555 165.311 191.08 163.185 192.072C161.102 193.015 159.318 194.322 157.833 195.994C156.326 197.69 155.215 199.606 154.499 201.742C153.765 203.97 153.512 206.286 153.741 208.689C154.202 213.585 156.343 217.719 160.163 221.091C164.007 224.484 168.41 226.119 173.373 225.996C176.605 225.921 179.533 225.047 182.158 223.376C184.694 221.78 186.639 219.637 187.994 216.948L170.458 216.842Z" fill="#963532"/>
<path d="M242.554 203.277C240.817 194.589 238.372 187.796 235.218 182.901C233.664 180.457 232.271 178.872 231.038 178.146C228.329 177.013 225.788 177.14 223.414 178.526C221.542 179.626 219.811 181.473 218.224 184.066C217.536 183.04 216.735 182.24 215.824 181.668C213.489 180.173 210.8 180.444 207.757 182.48C205.513 183.965 203.144 186.369 200.649 189.693L199.907 185.496L189.89 188.204L195.261 224.208L206.424 222.254L204.262 210.069L204.186 208.956C204.186 208.53 204.173 208.167 204.148 207.867C204.133 207.066 204.145 206.362 204.185 205.757C204.31 204.269 204.691 202.885 205.328 201.605C205.681 200.966 206.081 200.334 206.527 199.711C207.092 198.977 207.647 198.388 208.191 197.946C209.606 196.832 210.748 196.925 211.616 198.223C211.854 198.57 212.221 199.787 212.715 201.874C213.098 203.547 213.552 205.742 214.08 208.458C214.668 211.556 215.222 214.583 215.743 217.539L225.154 213.397C224.629 209.423 223.813 204.623 222.705 198.996C224.273 194.442 225.778 192.184 227.219 192.224C228.383 192.238 229.475 193.722 230.496 196.676C231.653 200.058 232.534 204.268 233.138 209.305L242.554 203.277Z" fill="#963532"/>
<path d="M273.654 175.607C272.028 174.504 269.938 174.014 267.384 174.138C266.593 174.177 265.468 174.289 264.009 174.474L262.316 174.683C261.694 174.75 261.136 174.803 260.643 174.842L260.478 174.865L260.274 174.872C260.138 174.877 260.001 174.882 259.865 174.887C259.502 174.9 259.162 174.912 258.844 174.923C257.97 174.91 257.225 174.831 256.61 174.688C254.877 174.241 254.336 173.204 254.989 171.577C255.497 170.321 256.28 169.502 257.339 169.122C258.346 168.798 259.275 168.92 260.126 169.487L259.976 160.287C259.249 160.468 258.57 160.658 257.94 160.857C255.7 161.589 253.81 162.546 252.273 163.729C250.299 165.226 248.556 167.162 247.042 169.538C245.404 172.117 244.447 174.634 244.171 177.088C243.93 179.186 244.136 181.246 244.79 183.269C245.494 185.466 247.23 186.914 249.999 187.611C251.383 187.96 252.704 188.09 253.962 188.001C254.163 187.983 254.406 187.952 254.692 187.909L255.46 187.832C256.167 187.74 256.702 187.688 257.065 187.675C258.31 187.62 259.228 187.825 259.821 188.29C260.447 188.788 260.736 189.59 260.689 190.697C260.623 191.817 260.251 192.786 259.571 193.607C258.604 194.78 257.33 195.727 255.751 196.446C254.32 197.127 252.892 197.499 251.466 197.561L250.648 207.575C251.473 207.413 252.628 207.167 254.114 206.838C254.588 206.732 255.091 206.61 255.623 206.469L255.915 206.409C255.98 206.395 256.055 206.376 256.139 206.351C256.314 206.323 256.421 206.297 256.46 206.273C258.804 205.736 260.732 205.115 262.247 204.409C264.561 203.375 266.746 201.893 268.8 199.962C270.959 197.917 272.702 195.66 274.028 193.192C275.735 189.979 276.655 186.74 276.788 183.473C276.937 179.708 275.892 177.086 273.654 175.607Z" fill="#963532"/>
</g>
<g opacity="0.6" filter="url(#filter2_d_77_4602)">
<path d="M146.031 119.117L158.102 111.578C159.716 110.536 160.706 109.56 161.07 108.648C161.461 107.711 161.656 106.799 161.656 105.914C161.656 104.846 161.266 103.844 160.484 102.906C159.729 101.943 158.661 101.461 157.281 101.461C156.266 101.461 155.406 101.695 154.703 102.164C154.026 102.607 153.505 103.206 153.141 103.961C152.802 104.716 152.633 105.562 152.633 106.5C152.633 107.672 152.958 108.857 153.609 110.055C154.26 111.253 155.12 112.516 156.188 113.844C157.281 115.172 158.492 116.63 159.82 118.219L186.578 149H171.891L150.094 124.234C148.297 121.943 146.734 119.833 145.406 117.906C144.104 115.979 143.089 114.104 142.359 112.281C141.63 110.458 141.266 108.583 141.266 106.656C141.266 103.661 141.917 101.018 143.219 98.7266C144.547 96.4089 146.409 94.599 148.805 93.2969C151.227 91.9688 154.065 91.3047 157.32 91.3047C160.341 91.3047 162.958 91.9297 165.172 93.1797C167.411 94.4297 169.143 96.0964 170.367 98.1797C171.591 100.237 172.203 102.503 172.203 104.977C172.203 106.695 171.878 108.323 171.227 109.859C170.576 111.396 169.677 112.802 168.531 114.078C167.411 115.354 166.122 116.513 164.664 117.555L151.617 126.656C151.096 127.307 150.667 127.971 150.328 128.648C150.016 129.299 149.781 129.964 149.625 130.641C149.495 131.318 149.43 132.047 149.43 132.828C149.43 134.182 149.716 135.38 150.289 136.422C150.862 137.438 151.617 138.232 152.555 138.805C153.518 139.378 154.56 139.664 155.68 139.664C157.789 139.664 159.82 139.208 161.773 138.297C163.753 137.359 165.523 136.044 167.086 134.352C168.648 132.659 169.885 130.641 170.797 128.297C171.708 125.953 172.164 123.375 172.164 120.562H183.18C183.18 123.635 182.867 126.565 182.242 129.352C181.643 132.112 180.641 134.664 179.234 137.008C177.854 139.352 175.992 141.409 173.648 143.18C173.518 143.258 173.271 143.414 172.906 143.648C172.568 143.857 172.32 144 172.164 144.078C169.43 146.031 166.734 147.477 164.078 148.414C161.422 149.352 158.323 149.82 154.781 149.82C150.953 149.82 147.646 149.13 144.859 147.75C142.099 146.37 139.964 144.469 138.453 142.047C136.943 139.625 136.188 136.852 136.188 133.727C136.188 131.513 136.604 129.586 137.438 127.945C138.271 126.279 139.43 124.742 140.914 123.336C142.398 121.93 144.104 120.523 146.031 119.117Z" fill="white"/>
</g>
<defs>
<filter id="filter0_d_77_4602" x="0.0323486" y="6.00781" width="310.471" height="124.035" filterUnits="userSpaceOnUse" color-interpolation-filters="sRGB">
<feFlood flood-opacity="0" result="BackgroundImageFix"/>
<feColorMatrix in="SourceAlpha" type="matrix" values="0 0 0 0 0 0 0 0 0 0 0 0 0 0 0 0 0 0 127 0" result="hardAlpha"/>
<feOffset dy="4"/>
<feGaussianBlur stdDeviation="2"/>
<feComposite in2="hardAlpha" operator="out"/>
<feColorMatrix type="matrix" values="0 0 0 0 0 0 0 0 0 0 0 0 0 0 0 0 0 0 0.25 0"/>
<feBlend mode="normal" in2="BackgroundImageFix" result="effect1_dropShadow_77_4602"/>
<feBlend mode="normal" in="SourceGraphic" in2="effect1_dropShadow_77_4602" result="shape"/>
</filter>
<filter id="filter1_d_77_4602" x="25.1224" y="141.314" width="260.379" height="94.4836" filterUnits="userSpaceOnUse" color-interpolation-filters="sRGB">
<feFlood flood-opacity="0" result="BackgroundImageFix"/>
<feColorMatrix in="SourceAlpha" type="matrix" values="0 0 0 0 0 0 0 0 0 0 0 0 0 0 0 0 0 0 127 0" result="hardAlpha"/>
<feOffset dy="4"/>
<feGaussianBlur stdDeviation="2"/>
<feComposite in2="hardAlpha" operator="out"/>
<feColorMatrix type="matrix" values="0 0 0 0 0 0 0 0 0 0 0 0 0 0 0 0 0 0 0.25 0"/>
<feBlend mode="normal" in2="BackgroundImageFix" result="effect1_dropShadow_77_4602"/>
<feBlend mode="normal" in="SourceGraphic" in2="effect1_dropShadow_77_4602" result="shape"/>
</filter>
<filter id="filter2_d_77_4602" x="132.188" y="91.3047" width="58.3906" height="66.5156" filterUnits="userSpaceOnUse" color-interpolation-filters="sRGB">
<feFlood flood-opacity="0" result="BackgroundImageFix"/>
<feColorMatrix in="SourceAlpha" type="matrix" values="0 0 0 0 0 0 0 0 0 0 0 0 0 0 0 0 0 0 127 0" result="hardAlpha"/>
<feOffset dy="4"/>
<feGaussianBlur stdDeviation="2"/>
<feComposite in2="hardAlpha" operator="out"/>
<feColorMatrix type="matrix" values="0 0 0 0 0 0 0 0 0 0 0 0 0 0 0 0 0 0 0.25 0"/>
<feBlend mode="normal" in2="BackgroundImageFix" result="effect1_dropShadow_77_4602"/>
<feBlend mode="normal" in="SourceGraphic" in2="effect1_dropShadow_77_4602" result="shape"/>
</filter>
</defs>
</svg>