<svg width="360" height="489" viewBox="0 0 360 489" fill="none" xmlns="http://www.w3.org/2000/svg">
<g filter="url(#filter0_b_188_7084)">
<mask id="mask0_188_7084" style="mask-type:alpha" maskUnits="userSpaceOnUse" x="77" y="66" width="206" height="356">
<path d="M259.453 203.806C259.626 204.406 259.513 206.357 259.092 208.633C258.913 209.769 258.661 210.806 258.489 211.631C258.307 212.456 258.121 213.072 257.952 213.35C257.851 213.057 257.802 212.421 257.817 211.566C257.827 210.71 257.978 209.658 258.162 208.511C258.58 206.233 259.086 204.353 259.453 203.806" fill="#76A633"/>
<path d="M220.512 268.333L245.204 273.332L245.443 272.833L220.759 267.837L220.512 268.333Z" fill="#51843E"/>
<path d="M241.336 225.387C239.065 227.109 235.332 232.432 231.986 238.947C228.637 245.462 226.693 251.181 226.913 253.451C229.18 251.728 232.916 246.403 236.263 239.891C239.615 233.375 241.554 227.656 241.336 225.387" fill="#51843E"/>
<path d="M220.023 267.527L229.52 247.488L230.137 247.61L220.643 267.648L220.023 267.527Z" fill="#51843E"/>
<path d="M256.079 218.899C253.807 220.622 250.076 225.945 246.726 232.46C243.377 238.976 241.434 244.693 241.652 246.967C243.922 245.24 247.656 239.914 251.003 233.403C254.353 226.889 256.298 221.168 256.079 218.899Z" fill="#51843E"/>
<path d="M234.768 261.041L244.264 241.002L244.881 241.12L235.386 261.162L234.768 261.041" fill="#51843E"/>
<path d="M100.829 203.806C100.657 204.406 100.77 206.357 101.191 208.633C101.37 209.769 101.621 210.806 101.794 211.631C101.974 212.456 102.161 213.072 102.331 213.35C102.432 213.057 102.481 212.421 102.466 211.566C102.456 210.71 102.305 209.658 102.121 208.511C101.702 206.233 101.197 204.353 100.829 203.806" fill="#76A633"/>
<path d="M140.26 267.527L130.763 247.488L130.145 247.61L139.64 267.648L140.26 267.527Z" fill="#51843E"/>
<path d="M125.515 261.041L116.019 241.002L115.401 241.12L124.897 261.162L125.515 261.041" fill="#51843E"/>
<path d="M104.501 320.953C104.501 320.953 134.54 235.967 77 166.828C77 166.828 94.7704 147.383 135.81 141.262L147.232 159.628L143.425 138.739C143.425 138.739 171.77 125.777 218.31 135.499L215.77 158.906L224.656 139.82C224.656 139.82 261.042 141.983 282.62 163.227C282.62 163.227 230.155 247.492 257.444 320.953C257.444 320.953 184.464 366.865 104.501 320.953" fill="#C74F39"/>
<path d="M234.387 407.017L238.496 413.827C263.446 406.51 278.389 396.934 278.389 396.934L249.194 321.611H110.847L85.4619 397.295C99.7025 404.84 113.614 410.323 127.032 414.19L130.309 407.017L131.995 415.555C171.339 425.826 206.135 422.269 231.924 415.635L234.387 407.017" fill="#963532"/>
<path d="M278.389 396.934L270.145 375.67C190.319 406.826 115.111 384.74 92.4105 376.579L85.4619 397.295C99.7025 404.84 113.614 410.323 127.032 414.19L130.309 407.017L131.995 415.555C171.339 425.826 206.135 422.269 231.924 415.635L234.387 407.017L238.496 413.827C263.446 406.51 278.389 396.934 278.389 396.934" fill="#FBCA3B"/>
<path d="M94.7679 180.873H104.075V166.109H94.7679V180.873Z" fill="#A14130"/>
<path d="M145.114 181.594C144.492 180.971 143.395 179.484 142.031 177.428C141.694 176.912 141.337 176.362 140.96 175.784C140.629 175.189 140.284 174.564 139.925 173.916C139.213 172.614 138.468 171.207 137.713 169.734C134.869 163.79 132.729 158.744 132.422 157.107C133.568 158.428 136.345 163.289 139.178 169.212C139.929 170.675 140.631 172.085 141.265 173.404C141.577 174.065 141.879 174.702 142.164 175.309C142.477 175.907 142.775 176.473 143.053 177.006C144.154 179.147 144.895 180.782 145.114 181.594" fill="#A14130"/>
<path d="M126.428 196.358C125.64 195.884 124.063 193.844 122.545 191.259C121.026 188.674 120.053 186.374 120.082 185.555C120.873 186.026 122.447 188.068 123.965 190.654C125.485 193.238 126.458 195.536 126.428 196.358Z" fill="#A14130"/>
<path d="M164.577 166.829C164.019 165.446 163.262 160.655 163.095 154.958C163.019 153.542 162.965 152.178 162.934 150.911C162.922 150.277 162.915 149.664 162.905 149.081C162.873 148.505 162.842 147.952 162.816 147.435C162.719 145.361 162.741 143.798 162.884 143.062C163.193 143.745 163.568 145.273 163.949 147.353C164.038 147.874 164.131 148.428 164.231 149.009C164.285 149.593 164.343 150.204 164.402 150.841C164.51 152.114 164.606 153.485 164.683 154.911C164.851 160.61 164.93 165.363 164.577 166.829" fill="#A14130"/>
<path d="M192.078 189.516C192.033 189.222 192.036 188.773 192.078 188.2C192.107 187.916 192.139 187.6 192.175 187.253C192.196 186.906 192.221 186.532 192.249 186.13C192.412 184.536 192.495 182.521 192.666 180.328C192.813 178.129 192.99 176.096 193.276 174.48C193.529 172.866 193.918 171.679 194.192 171.151C194.372 171.727 194.382 172.931 194.414 174.548C194.411 176.16 194.4 178.193 194.252 180.404C194.083 182.621 193.825 184.668 193.374 186.271C193.263 186.669 193.161 187.043 193.065 187.386C192.934 187.723 192.809 188.033 192.701 188.31C192.468 188.858 192.255 189.269 192.078 189.516" fill="#A14130"/>
<path d="M203.076 148.104C202.723 147.358 202.728 144.93 203.137 142.071C203.538 139.244 204.212 136.9 204.771 136.221C205.125 136.967 205.119 139.393 204.71 142.253C204.309 145.078 203.635 147.426 203.076 148.104" fill="#A14130"/>
<path d="M163.64 190.424C163.096 189.766 162.456 187.398 162.094 184.536C161.734 181.704 161.768 179.291 162.131 178.523C162.674 179.18 163.314 181.546 163.676 184.411C164.036 187.242 164.004 189.654 163.64 190.424" fill="#A14130"/>
<path d="M223.386 174.031C223.425 173.344 223.799 171.913 224.431 170.011C224.594 169.536 224.769 169.032 224.953 168.503C225.176 167.985 225.412 167.445 225.655 166.885C226.153 165.763 226.709 164.568 227.307 163.326C227.902 162.093 228.491 160.918 229.057 159.83C229.347 159.287 229.624 158.765 229.889 158.267C230.13 157.763 230.36 157.286 230.579 156.836C231.462 155.04 232.216 153.722 232.693 153.144C232.654 153.833 232.277 155.264 231.647 157.168C231.485 157.643 231.308 158.147 231.126 158.676C230.901 159.192 230.667 159.732 230.424 160.294C229.925 161.413 229.37 162.611 228.772 163.852C228.177 165.084 227.588 166.259 227.02 167.349C226.732 167.892 226.454 168.414 226.19 168.912C225.947 169.414 225.717 169.892 225.5 170.342C224.615 172.135 223.864 173.457 223.386 174.031Z" fill="#A14130"/>
<path d="M261.462 173.311C261.51 172.81 261.828 171.781 262.474 170.497C263.099 169.199 264.009 167.637 265.02 165.967C265.994 164.285 266.941 162.767 267.574 161.517C267.75 161.207 267.913 160.917 268.064 160.649C268.2 160.377 268.325 160.128 268.438 159.903C268.676 159.457 268.895 159.116 269.078 158.908C269.118 159.158 269.108 159.544 269.051 160.046C269.021 160.297 268.98 160.577 268.926 160.881C268.841 161.179 268.748 161.498 268.647 161.842C268.259 163.23 267.431 164.865 266.437 166.579C265.41 168.276 264.351 169.773 263.484 170.943C262.594 172.107 261.928 172.97 261.462 173.311" fill="#A14130"/>
<path d="M237.347 194.198C237.259 193.796 237.357 192.981 237.619 191.903C237.731 191.357 237.935 190.765 238.219 190.143C238.486 189.515 238.789 188.845 239.135 188.157C240.653 185.463 242.457 183.473 243.27 183.033C243.237 183.878 242.044 186.119 240.576 188.729C240.242 189.393 239.912 190.026 239.582 190.609C239.237 191.186 238.936 191.728 238.695 192.217C238.179 193.189 237.7 193.897 237.347 194.198" fill="#A14130"/>
<path d="M115.075 354.802C114.821 353.718 115.132 350.287 115.901 346.262C116.553 342.21 117.422 338.844 118.039 337.879C118.328 338.946 118.128 342.394 117.473 346.454C116.7 350.511 115.719 353.865 115.075 354.802" fill="#7B2C2A"/>
<path d="M132.845 375.689C132.603 374.272 132.976 369.587 133.833 364.047C134.806 358.548 135.955 353.968 136.653 352.642C136.865 354.073 136.379 358.739 135.403 364.252C134.553 369.752 133.517 374.34 132.845 375.689" fill="#7B2C2A"/>
<path d="M180.654 371.728C180.211 369.766 179.916 363.172 179.965 355.339C179.941 353.382 179.937 351.505 179.953 349.756C179.967 348.884 179.98 348.04 179.992 347.24C179.985 346.437 179.979 345.675 179.973 344.96C179.967 342.095 180.056 339.953 180.231 338.959C180.511 339.925 180.82 342.054 181.111 344.926C181.176 345.644 181.246 346.406 181.32 347.211C181.353 348.015 181.388 348.86 181.422 349.734C181.485 351.488 181.529 353.375 181.553 355.339C181.504 363.189 181.125 369.763 180.654 371.728" fill="#7B2C2A"/>
<path d="M239.887 365.245C239.126 364.347 237.785 361.116 236.435 357.179C235.099 353.223 234.625 349.748 234.811 348.682C235.526 349.617 236.642 352.89 237.964 356.81C239.312 360.738 240.017 364.164 239.887 365.245" fill="#7B2C2A"/>
<path d="M246.656 341.119C245.783 340.107 244.07 336.484 242.184 332.061C241.758 330.935 241.372 329.85 241.03 328.835C240.865 328.328 240.705 327.839 240.553 327.372C240.455 326.893 240.364 326.434 240.278 326.003C239.956 324.281 239.816 322.998 239.887 322.394C240.266 322.934 240.797 324.143 241.383 325.768C241.523 326.174 241.672 326.607 241.831 327.064C242.023 327.512 242.226 327.984 242.435 328.471C242.847 329.451 243.268 330.509 243.684 331.619C245.563 336.016 246.666 339.898 246.656 341.119" fill="#7B2C2A"/>
<path d="M177.475 391.769C176.94 391.759 176.415 391.748 175.882 391.735C175.603 387.36 175.635 383.658 176 382.531C176.54 383.624 177.179 387.305 177.475 391.769" fill="#7B2C2A"/>
<path d="M176.425 401.256C176.239 400.673 176.132 399.443 176.113 397.816C176.112 397.409 176.11 396.977 176.107 396.523C176.079 396.066 176.044 395.587 176.012 395.09C175.954 394.097 175.914 393.032 175.894 391.919C175.89 391.858 175.887 391.797 175.882 391.735C176.415 391.748 176.94 391.759 177.475 391.769C177.476 391.8 177.479 391.831 177.481 391.862C177.504 392.992 177.501 394.08 177.481 395.088C177.467 395.594 177.451 396.078 177.436 396.543C177.388 397.005 177.313 397.445 177.25 397.858C176.985 399.509 176.693 400.719 176.425 401.256Z" fill="#CEA732"/>
<path d="M253.424 398.736C252.834 398.376 251.962 396.896 251.466 394.957C251.001 392.999 251.322 391.283 251.732 390.814C252.239 391.308 252.588 392.85 253.024 394.69C253.497 396.53 253.714 398.161 253.424 398.736Z" fill="#CEA732"/>
<path d="M113.807 401.618C113.459 400.893 113.486 398.518 113.928 395.725C114.507 392.971 115.326 390.711 115.921 390.093C116.227 390.852 116.073 393.204 115.495 395.947C115.066 398.686 114.372 400.956 113.807 401.618Z" fill="#CEA732"/>
<path d="M142.577 259.376C141.906 258.177 140.788 254.014 140.049 248.957C139.906 247.687 139.795 246.466 139.71 245.331C139.673 244.762 139.636 244.216 139.603 243.694C139.598 243.17 139.619 242.672 139.63 242.205C139.695 240.33 139.836 238.941 140.039 238.309C140.293 238.942 140.551 240.318 140.767 242.155C140.819 242.615 140.871 243.104 140.929 243.617C141.008 244.131 141.09 244.668 141.175 245.228C141.337 246.346 141.487 247.549 141.628 248.802C142.359 253.811 142.81 258.058 142.577 259.376" fill="#A14130"/>
<path d="M181.924 277.741C181.353 276.743 180.636 273.298 180.181 269.161C179.724 265.024 179.678 261.525 180.02 260.454C180.591 261.456 181.309 264.898 181.762 269.032C182.218 273.165 182.266 276.665 181.924 277.741" fill="#A14130"/>
<path d="M221.905 257.214C221.335 256.016 220.616 251.916 220.161 247.003C219.706 242.094 219.659 237.947 220.001 236.688C220.571 237.887 221.29 241.986 221.746 246.897C222.201 251.806 222.248 255.951 221.905 257.214Z" fill="#A14130"/>
<path d="M212.386 223.724C211.927 222.688 211.591 219.218 211.591 215.083C211.591 210.947 211.927 207.475 212.386 206.44C212.845 207.475 213.18 210.947 213.18 215.083C213.18 219.218 212.845 222.688 212.386 223.724Z" fill="#A14130"/>
<path d="M152.732 218.323C152.106 217.853 151.014 215.878 150.532 213.357C150.371 212.095 150.227 210.929 150.348 209.993C150.447 209.058 150.612 208.371 150.828 208.06C151.071 208.373 151.301 209.044 151.486 209.936C151.645 210.829 151.951 211.935 152.103 213.149C152.564 215.562 152.969 217.589 152.732 218.323" fill="#A14130"/>
<path d="M121.634 256.674C121.167 255.894 120.799 253.298 120.759 250.206C120.496 247.14 120.612 244.537 120.999 243.711C121.52 244.432 122.082 247.031 122.349 250.163C122.388 253.279 122.083 255.896 121.634 256.674" fill="#A14130"/>
<path d="M242.848 255.054C242.381 254.082 242.012 250.832 241.973 246.961C241.708 243.117 241.823 239.861 242.213 238.849C242.735 239.775 243.297 243.027 243.564 246.927C243.602 250.815 243.297 254.084 242.848 255.054" fill="#A14130"/>
<path d="M164.373 205.684L164.1 244.572C164.1 244.572 156.324 244.846 154.024 248.085C151.725 251.326 169.738 267.005 179.8 267.545C189.86 268.084 205.819 252.677 205.794 248.625C205.769 244.574 195.613 243.462 195.613 243.462L195.375 207.471L164.373 205.684Z" fill="#A8E2DA"/>
<path d="M101.263 228.675C101.263 228.675 120.266 215.988 155.982 217.141C155.982 217.141 161.966 243.096 133.836 247.422C105.707 251.746 101.263 228.675 101.263 228.675" fill="#FBCA3B"/>
<path d="M114.672 232.56C114.672 232.56 126.638 225.842 144.392 226.08C144.392 226.08 144.634 237.461 133.073 239.13C118.283 241.265 114.672 232.56 114.672 232.56Z" fill="#522B25"/>
<path d="M171.135 208.449C171.135 208.449 168.492 257.214 179.809 257.214C191.125 257.214 188.905 208.449 188.905 208.449C188.905 208.449 177.933 205.867 171.135 208.449Z" fill="#76D0BB"/>
<path d="M117.826 253.163L144.392 249.652V257.214L119.413 259.646L117.826 253.163Z" fill="white"/>
<path d="M258.425 228.675C258.425 228.675 239.424 215.988 203.708 217.141C203.708 217.141 197.724 243.096 225.854 247.422C253.983 251.746 258.425 228.675 258.425 228.675" fill="#FBCA3B"/>
<path d="M245.02 232.56C245.02 232.56 233.052 225.842 215.297 226.08C215.297 226.08 215.057 237.461 226.617 239.13C241.408 241.265 245.02 232.56 245.02 232.56Z" fill="#522B25"/>
<path d="M241.864 253.163L215.297 249.652V257.214L240.278 259.646L241.864 253.163" fill="white"/>
<path d="M172.081 304.263C172.081 304.263 156.522 347.42 157.812 351.202C159.099 354.983 201.535 356.24 204.224 349.851C205.702 346.339 192.436 304.263 192.436 304.263C192.436 304.263 180.223 298.86 172.081 304.263Z" fill="#A8E2DA"/>
<path d="M200.678 309.963C200.678 309.963 210.015 343.693 212.35 345.973C214.686 348.257 239.513 338.34 238.349 333.249C237.708 330.45 212.329 304.792 212.329 304.792C212.329 304.792 203.056 304.167 200.678 309.963" fill="#A8E2DA"/>
<path d="M163.249 310.685C163.249 310.685 153.913 344.414 151.578 346.695C149.241 348.978 124.416 339.063 125.578 333.971C126.216 331.171 151.597 305.513 151.597 305.513C151.597 305.513 160.871 304.89 163.249 310.685" fill="#A8E2DA"/>
<path d="M261.88 354.34C261.88 354.34 268.446 358.223 269.715 369.207L240.945 381.269C240.945 381.269 236.911 391.846 234.322 393.322C231.733 394.796 207.488 404.585 207.488 404.585L202.651 397.972L220.982 388.733L200.153 394.818L197.629 388.043L218.925 380.509L196.905 383.745L193.71 377.032L217.157 370.505L214.058 367.688L201.334 370.319C201.334 370.319 195.386 365.306 198.683 360.679L216.245 357.74L231.003 364.346L261.88 354.34" fill="#C74F39"/>
<path d="M261.042 358.043C261.042 358.043 265.907 363.263 265.696 367.765L238.388 378.028L230.58 376.228L234.387 368.845L261.042 358.043" fill="#A8E2DA"/>
<path d="M99.625 354.34C99.625 354.34 93.0604 358.223 91.7904 369.207L120.561 381.269C120.561 381.269 124.596 391.846 127.184 393.322C129.773 394.796 154.02 404.585 154.02 404.585L158.856 397.972L140.524 388.733L161.354 394.818L163.877 388.043L142.581 380.509L164.602 383.745L167.797 377.032L144.349 370.505L147.448 367.688L160.171 370.319C160.171 370.319 166.12 365.306 162.824 360.679L145.26 357.74L130.503 364.346L99.625 354.34" fill="#C74F39"/>
<path d="M100.466 358.043C100.466 358.043 95.5991 363.263 95.8101 367.765L123.119 378.028L130.926 376.228L127.119 368.845L100.466 358.043" fill="#A8E2DA"/>
<path d="M91.4899 201.309C91.4899 201.309 96.2491 214.812 101.325 222.645C101.325 222.645 181.607 191.585 262.839 222.645C262.839 222.645 269.504 211.571 271.724 198.878C271.724 198.878 184.055 165.865 91.4899 201.309" fill="#FBCA3B"/>
<path d="M119.322 206.04C119.26 207.989 116.85 209.516 114.561 209.463C112.27 209.411 109.958 207.778 110.019 205.829C110.082 203.882 112.507 201.852 114.797 201.905C117.086 201.956 119.383 204.094 119.322 206.04" fill="#F57830"/>
<path d="M137.598 201.308C137.535 203.258 135.125 204.784 132.836 204.731C130.545 204.68 128.234 203.047 128.293 201.096C128.357 199.152 130.782 197.12 133.072 197.172C135.361 197.225 137.658 199.362 137.598 201.308Z" fill="#F57830"/>
<path d="M154.844 198.478C154.782 200.428 152.371 201.953 150.081 201.901C147.791 201.85 145.481 200.216 145.54 198.266C145.602 196.321 148.029 194.289 150.319 194.343C152.607 194.395 154.906 196.531 154.844 198.478" fill="#F57830"/>
<path d="M172.626 197.528C172.566 199.478 170.156 201.004 167.866 200.952C165.575 200.901 163.263 199.266 163.324 197.318C163.386 195.371 165.813 193.341 168.102 193.393C170.392 193.445 172.688 195.582 172.626 197.528" fill="#F57830"/>
<path d="M188.334 197.528C188.272 199.478 185.862 201.004 183.572 200.952C181.281 200.901 178.97 199.266 179.03 197.318C179.093 195.371 181.519 193.341 183.808 193.393C186.098 193.445 188.396 195.582 188.334 197.528" fill="#F57830"/>
<path d="M205.793 197.528C205.731 199.478 203.321 201.004 201.031 200.952C198.741 200.901 196.428 199.266 196.489 197.318C196.551 195.371 198.978 193.341 201.267 193.393C203.557 193.445 205.855 195.582 205.793 197.528" fill="#F57830"/>
<path d="M222.114 198.478C222.052 200.428 219.642 201.953 217.353 201.901C215.062 201.85 212.75 200.216 212.811 198.266C212.871 196.321 215.299 194.289 217.589 194.343C219.878 194.395 222.175 196.531 222.114 198.478" fill="#F57830"/>
<path d="M239.463 201.31C239.401 203.259 236.991 204.785 234.701 204.732C232.41 204.681 230.098 203.047 230.159 201.098C230.221 199.152 232.648 197.121 234.937 197.175C237.227 197.225 239.524 199.363 239.463 201.31" fill="#F57830"/>
<path d="M255.845 205.883C255.875 207.834 253.537 209.439 251.247 209.465C248.956 209.49 246.57 207.935 246.54 205.985C246.51 204.039 248.84 201.928 251.131 201.903C253.421 201.878 255.815 203.936 255.845 205.883" fill="#F57830"/>
<path d="M251.02 128.443L255.292 129.353L254.029 124.229C256.626 120.896 259.428 117.946 262.193 115.387L264.931 117.999L265.292 112.657C272.679 106.467 279.003 103.26 279.003 103.26C276.791 105.968 278.427 111.727 276.914 116.793L272.747 120.627L276.945 120.904C276.951 124.728 276.832 129.038 276.219 133.835L271.345 136.233L275.364 139.047C275.266 139.54 275.186 140.026 275.074 140.524C270.875 159.944 245.083 171.551 245.083 171.551C239.487 153.902 243.818 139.442 251.02 128.443Z" fill="#FBCA3B"/>
<path d="M267.584 120.981C266.187 123.395 262.565 131.725 258.106 141.632C257.057 144.132 256.045 146.531 255.108 148.765C254.65 149.883 254.211 150.961 253.793 151.987C253.427 153.033 253.078 154.024 252.752 154.958C251.471 158.698 250.597 161.493 250.302 162.802C250.958 161.581 252.145 158.87 253.64 155.208C254.012 154.291 254.406 153.318 254.821 152.294C255.276 151.279 255.751 150.215 256.246 149.108C257.212 146.89 258.249 144.506 259.329 142.022C263.788 132.117 266.906 123.582 267.584 120.981" fill="#D7A628"/>
<path d="M267.244 146.939C266.422 146.863 263.964 147.412 261.198 148.294C260.502 148.489 259.835 148.675 259.218 148.869C258.603 149.065 258.039 149.266 257.525 149.371C256.504 149.63 255.738 149.893 255.387 150.112C255.769 150.212 256.597 150.225 257.725 150.148C258.3 150.133 258.907 150.006 259.559 149.856C260.212 149.708 260.916 149.543 261.637 149.339C264.456 148.443 266.673 147.467 267.244 146.939" fill="#D7A628"/>
<path d="M252.674 139.151C252.461 139.859 252.714 142.119 253.344 144.76C254.009 147.375 254.849 149.518 255.387 150.112C255.587 149.395 255.287 147.144 254.618 144.52C253.999 141.911 253.204 139.758 252.674 139.151Z" fill="#D7A628"/>
<path d="M271.311 129.057C270.701 128.94 269.029 129.326 267.169 130.043C265.326 130.704 263.875 131.468 263.517 131.941C264.099 132.079 265.807 131.739 267.711 131.055C269.555 130.343 270.995 129.53 271.311 129.057" fill="#D7A628"/>
<path d="M262.5 123.865C262.192 124.352 262.134 125.899 262.394 127.712C262.78 129.526 263.397 131 263.857 131.363C264.125 130.833 264.061 129.311 263.687 127.555C263.43 125.76 262.941 124.283 262.5 123.865" fill="#D7A628"/>
<path d="M115.352 129.323L111.08 130.234L112.344 125.11C109.747 121.777 106.942 118.827 104.179 116.269L101.442 118.879L101.079 113.537C93.6936 107.348 87.3663 104.142 87.3663 104.142C89.5808 106.848 87.9447 112.607 89.4568 117.674L93.6233 121.509L89.4258 121.785C89.421 125.61 89.539 129.918 90.152 134.716L95.0268 137.113L91.0082 139.927C91.106 140.421 91.1847 140.907 91.2967 141.406C95.4967 160.824 121.288 172.432 121.288 172.432C126.885 154.784 122.553 140.322 115.352 129.323" fill="#FBCA3B"/>
<path d="M98.7866 121.863C100.184 124.273 103.806 132.607 108.266 142.514C109.315 145.012 110.325 147.412 111.264 149.645C111.72 150.764 112.159 151.841 112.579 152.869C112.943 153.914 113.292 154.905 113.62 155.839C114.901 159.578 115.775 162.374 116.069 163.683C115.413 162.461 114.226 159.751 112.731 156.089C112.358 155.173 111.965 154.198 111.55 153.175C111.095 152.16 110.621 151.095 110.126 149.99C109.161 147.771 108.121 145.387 107.041 142.902C102.582 132.999 99.4663 124.464 98.7866 121.863Z" fill="#D7A628"/>
<path d="M99.1265 147.818C99.9493 147.743 102.407 148.293 105.174 149.173C105.87 149.369 106.535 149.556 107.152 149.75C107.768 149.947 108.332 150.147 108.846 150.251C109.866 150.511 110.634 150.774 110.985 150.991C110.603 151.093 109.774 151.107 108.646 151.028C108.071 151.014 107.464 150.886 106.811 150.736C106.159 150.587 105.453 150.423 104.736 150.22C101.914 149.324 99.6977 148.346 99.1265 147.818Z" fill="#D7A628"/>
<path d="M113.696 140.032C113.911 140.74 113.657 142.999 113.029 145.64C112.361 148.256 111.521 150.398 110.985 150.991C110.784 150.276 111.085 148.025 111.753 145.401C112.374 142.792 113.168 140.64 113.696 140.032Z" fill="#D7A628"/>
<path d="M95.0603 129.938C95.6697 129.82 97.3403 130.208 99.2018 130.924C101.045 131.585 102.497 132.35 102.853 132.822C102.27 132.96 100.565 132.619 98.6604 131.934C96.8156 131.224 95.3763 130.411 95.0603 129.938" fill="#D7A628"/>
<path d="M103.87 124.746C104.179 125.233 104.239 126.781 103.978 128.593C103.591 130.407 102.975 131.881 102.514 132.245C102.247 131.715 102.308 130.193 102.685 128.435C102.942 126.64 103.431 125.164 103.87 124.746" fill="#D7A628"/>
<path d="M199.785 106.381L194.314 105.752L198.581 100.286C197.374 95.3761 195.716 90.8331 193.893 86.7631L189.283 88.722L191.773 82.3581C186.549 72.2328 180.93 65.9999 180.93 65.9999C182.031 70.0273 176.985 76.0867 175.984 82.5835L178.743 88.6946L173.706 87.3599C171.615 91.8126 169.402 96.8752 167.499 102.703L171.869 107.422L165.656 109.113C165.499 109.725 165.325 110.323 165.185 110.949C159.484 135.222 183.192 158.924 183.192 158.924C199.332 140.586 202.175 122.035 199.785 106.381" fill="#FBCA3B"/>
<path d="M184.564 91.1478C184.874 94.5084 184.55 105.643 184.34 118.94C184.201 122.267 184.069 125.459 183.944 128.429C183.866 129.913 183.788 131.343 183.718 132.705C183.572 134.066 183.437 135.359 183.31 136.577C182.761 141.435 182.256 145.037 181.886 146.677C181.787 144.994 181.884 141.368 182.138 136.513C182.204 135.301 182.277 134.009 182.352 132.653C182.377 131.291 182.402 129.866 182.431 128.382C182.516 125.417 182.609 122.231 182.702 118.912C182.913 105.616 183.937 94.4454 184.564 91.1478" fill="#D7A628"/>
<path d="M170.804 121.511C171.804 121.747 174.367 123.358 177.109 125.477C177.813 125.98 178.486 126.46 179.098 126.929C179.71 127.401 180.256 127.858 180.799 128.183C181.844 128.887 182.593 129.495 182.885 129.888C182.385 129.856 181.411 129.545 180.14 129.008C179.478 128.764 178.843 128.376 178.163 127.941C177.483 127.512 176.752 127.043 176.027 126.523C173.232 124.363 171.182 122.349 170.804 121.511Z" fill="#D7A628"/>
<path d="M192.02 118.195C191.884 119.108 190.354 121.638 188.181 124.462C185.98 127.248 183.832 129.408 182.885 129.888C183.043 128.974 184.618 126.473 186.828 123.683C188.973 120.886 191.074 118.696 192.02 118.195Z" fill="#D7A628"/>
<path d="M175.821 99.0799C176.594 99.1854 178.329 100.295 180.107 101.865C181.892 103.362 183.165 104.825 183.323 105.518C182.572 105.449 180.767 104.376 178.924 102.827C177.162 101.272 175.929 99.7548 175.821 99.0799" fill="#D7A628"/>
<path d="M188.91 96.5141C189.005 97.2012 188.23 99.0281 186.937 101.036C185.497 102.996 183.976 104.468 183.243 104.711C183.22 103.988 184.123 102.24 185.521 100.343C186.794 98.3562 188.172 96.8257 188.91 96.5141Z" fill="#D7A628"/>
<path d="M199.39 157.762C199.39 159.924 186.698 171.537 184.317 171.537C180.986 171.537 167.976 161.004 167.976 157.762C167.976 155.063 180.668 143.989 184.317 143.989C187.331 143.989 199.39 154.793 199.39 157.762Z" fill="#A8E2DA"/>
<path d="M256.035 174.588C255.432 176.224 242.595 182.463 240.793 181.983C238.273 181.312 231.35 170.718 232.251 168.265C233.001 166.222 245.687 160.392 248.448 161.126C250.73 161.734 256.86 172.34 256.035 174.588" fill="#A8E2DA"/>
<path d="M107.812 176.317C108.415 177.952 121.249 184.191 123.052 183.711C125.573 183.039 132.496 172.447 131.597 169.995C130.845 167.95 118.158 162.12 115.398 162.854C113.115 163.461 106.987 174.067 107.812 176.317Z" fill="#A8E2DA"/>
<path d="M192.921 157.762C192.921 159.034 185.456 165.865 184.055 165.865C182.096 165.865 174.444 159.669 174.444 157.762C174.444 156.174 181.909 149.66 184.055 149.66C185.831 149.66 192.921 156.016 192.921 157.762Z" fill="#76D0BB"/>
<path d="M251.136 173.286C250.783 174.25 243.233 177.92 242.173 177.637C240.687 177.242 236.617 171.011 237.148 169.569C237.588 168.365 245.052 164.934 246.676 165.368C248.019 165.725 251.621 171.963 251.136 173.286" fill="#76D0BB"/>
<path d="M112.709 175.015C113.064 175.978 120.613 179.647 121.673 179.364C123.159 178.97 127.227 172.739 126.699 171.296C126.257 170.094 118.797 166.663 117.169 167.096C115.827 167.453 112.226 173.691 112.709 175.015Z" fill="#76D0BB"/>
<path d="M176.167 303.169C176.167 303.169 167.714 337.593 168.416 339.65C169.116 341.707 192.198 342.391 193.659 338.916C194.464 337.006 187.237 303.169 187.237 303.169C187.237 303.169 180.596 300.23 176.167 303.169Z" fill="#76D0BB"/>
<path d="M205.893 311.551C205.893 311.551 212.731 333.262 213.827 334.261C214.923 335.264 228.32 329.989 227.978 327.651C227.791 326.363 212.207 308.834 212.207 308.834C212.207 308.834 207.423 308.79 205.893 311.551" fill="#76D0BB"/>
<path d="M158.655 311.551C158.655 311.551 151.818 333.262 150.722 334.261C149.625 335.264 136.227 329.989 136.57 327.651C136.758 326.363 152.342 308.834 152.342 308.834C152.342 308.834 157.125 308.79 158.655 311.551Z" fill="#76D0BB"/>
<path d="M180.702 299.625C182.706 299.626 193.18 300.208 206.479 311.15C207.493 311.985 210.591 312.96 215.989 312.96C224.817 312.96 234.231 310.443 236.688 308.908C239.246 303.603 242.255 279.284 241.406 271.916C237.977 271.032 229.894 270.02 222.044 270.02C216.548 270.02 214.093 270.522 213.291 270.738C211.476 271.227 209.684 272.505 207.415 274.119C202.151 277.867 194.942 282.999 180.63 282.999C166.317 282.999 159.108 277.867 153.846 274.119C151.578 272.505 149.783 271.227 147.971 270.738C147.169 270.522 144.713 270.02 139.22 270.02C131.367 270.02 123.281 271.032 119.857 271.916C119.004 279.29 122.019 303.642 124.58 308.922C126.829 310.318 135.869 312.763 145.061 312.763C150.595 312.763 153.844 311.829 155.04 310.951C169.396 300.44 178.182 299.624 180.533 299.624L180.702 299.625ZM215.432 319.833C207.771 319.833 202.063 318.539 198.463 315.986C187.782 308.41 179.937 308.255 179.86 308.255L179.586 308.261C178.627 308.328 172.171 309.046 160.896 316.158C157.212 318.483 151.517 319.662 143.971 319.662C135.098 319.662 120.25 317.715 115.022 313.383C113.951 312.497 110.696 309.8 108.086 291.2C105.437 272.323 108.104 269.203 109.105 268.028C110.632 266.241 113.291 264.925 121.817 263.881C126.87 263.264 132.8 262.909 138.085 262.909C143.18 262.909 147.168 263.236 149.941 263.88C153.783 264.77 156.725 266.578 159.571 268.322C164.262 271.201 169.112 274.178 179.809 274.178C190.505 274.178 195.356 271.201 200.047 268.322C202.893 266.578 205.836 264.77 209.679 263.88C212.45 263.236 216.438 262.909 221.532 262.909C226.819 262.909 232.749 263.264 237.803 263.881C246.328 264.925 248.987 266.241 250.512 268.028C251.516 269.203 254.18 272.323 251.532 291.2C248.923 309.8 245.666 312.497 244.597 313.383C239.788 317.368 225.713 319.833 215.432 319.833Z" fill="#F0384B"/>
<path d="M180.702 299.625C182.706 299.626 193.18 300.208 206.479 311.15C207.493 311.985 210.591 312.96 215.989 312.96C224.817 312.96 234.231 310.443 236.688 308.908C239.246 303.603 242.255 279.284 241.406 271.916C237.977 271.032 229.894 270.02 222.044 270.02C216.548 270.02 214.093 270.522 213.291 270.738C211.476 271.227 209.684 272.505 207.415 274.119C202.151 277.868 194.942 282.999 180.63 282.999C166.317 282.999 159.108 277.868 153.846 274.119C151.578 272.505 149.783 271.227 147.971 270.738C147.169 270.522 144.713 270.02 139.22 270.02C131.366 270.02 123.281 271.032 119.857 271.916C119.004 279.291 122.019 303.642 124.58 308.923C126.829 310.318 135.869 312.763 145.061 312.763C150.595 312.763 153.844 311.829 155.04 310.951C169.396 300.44 178.182 299.624 180.532 299.624L180.702 299.625" fill="#522B25"/>
<path d="M236.178 269.24C236.522 273.291 235.834 280.442 228.612 280.171C222.079 280.171 220.016 273.149 218.295 269.368C218.295 273.689 218.983 282.332 212.793 283.413C204.321 284.891 200.414 280.982 199.04 276.119C198.351 280.442 199.631 286.237 194.223 288.003C183.907 291.371 182.189 285.031 178.749 281.521C178.749 281.521 178.301 289.865 167.744 289.172C163.618 288.903 160.179 281.791 160.179 278.01C153.988 291.371 140.919 283.413 141.264 269.907C141.609 274.23 138.858 282.332 131.291 280.713C125.446 279.361 125.789 272.339 125.789 268.558C125.789 268.558 142.26 263.588 150.192 267.559C158.126 271.529 178.806 290.448 207.97 269.24C213.655 266.937 236.178 269.24 236.178 269.24" fill="white"/>
<path d="M236.245 315.455C236.245 311.672 236.59 304.651 230.743 303.301C223.177 301.68 220.426 309.782 220.769 314.103C221.114 300.6 208.045 292.638 201.857 306.001C201.857 302.221 198.416 295.108 194.29 294.838C183.734 294.147 183.286 302.491 183.286 302.491C179.846 298.98 178.127 292.638 167.81 296.009C162.403 297.774 163.683 303.571 162.995 307.891C161.621 303.03 157.712 299.12 149.241 300.6C143.05 301.68 143.739 310.322 143.739 314.644C142.018 310.862 139.955 303.841 133.42 303.841C126.199 303.571 125.511 310.719 125.855 314.771C125.855 314.771 151.145 321.223 169.866 306.637C178.433 302.857 193.03 306.909 202.231 312.579C211.433 318.252 236.245 315.455 236.245 315.455" fill="white"/>
</mask>
<g mask="url(#mask0_188_7084)">
<g style="mix-blend-mode:overlay" filter="url(#filter1_f_188_7084)">
<path d="M440.004 489H-80V0.0322983H440.004V489Z" fill="white"/>
<path d="M327.459 173.128C324.819 176.021 322.193 178.926 319.53 181.798C308.159 194.066 296.748 206.387 287.348 220.048C280.965 229.322 275.655 238.946 272.018 249.423C275.336 251.911 279.862 255.618 283.046 258.284C290.166 264.246 297.247 269.759 304.626 273.156C325.472 249.895 347.01 225.483 367.855 202.223C354.296 192.645 340.818 182.952 327.459 173.128" fill="#99D870"/>
<path d="M134.109 278.49C134.109 278.49 168.87 301.731 172.743 303.776C181.161 289.653 189.05 276.924 198.457 263.481C186.023 255.883 173.404 247.681 160.692 240.487C159.841 242.013 142.636 266.715 134.109 278.49Z" fill="#D4D6D3"/>
<path d="M324.688 170.494C317.175 164.969 306.361 157.005 298.885 151.415C294.659 148.255 293.685 147.537 289.583 144.145C280.978 154.76 271.394 164.922 262.741 175.502C256.595 183.018 249.272 191.6 244.394 199.897C239.675 207.918 237.243 215.062 232.958 223.293C244.631 230.808 256.579 238.57 268.953 246.866C272.589 236.389 280.418 222.292 286.799 213.018C296.199 199.357 322.047 173.386 324.688 170.494" fill="#D4D6D3"/>
<path d="M185.234 199.284C177.913 212.4 171.224 224.381 163.902 237.498C176.614 244.692 189.204 252.056 201.638 259.653C206.512 252.688 211.715 245.952 217.529 239.648C222.092 234.701 225.139 229.791 228.2 223.912C215.1 216.139 186.286 199.917 185.234 199.284Z" fill="#D4D6D3"/>
<path d="M259.296 173.738C267.949 163.159 276.637 152.6 285.242 141.985C273.984 132.674 263.048 122.737 251.719 113.46C251.091 113.99 250.486 114.541 249.818 115.03C244.105 119.213 236.579 122.077 233.765 128.351C232.782 130.543 231.606 132.63 230.347 134.673C230.821 135.016 231.313 135.337 231.785 135.682C231.313 135.337 230.821 135.016 230.347 134.673C223.202 146.279 212.277 155.822 204.412 167.143C199.9 173.636 196.06 180.515 192.227 187.382C190.431 190.598 188.853 193.427 187.057 196.643C188.109 197.278 216.98 213.278 230.08 221.05C234.365 212.82 237.382 205.125 242.099 197.102C246.979 188.806 253.151 181.254 259.296 173.738" fill="#D4D6D3"/>
<path d="M156.402 237.654C143.493 230.347 130.445 223.227 117.278 216.254C109.91 226.214 102.744 236.279 96.2915 246.711C93.9796 250.449 93.1299 251.676 90.7244 255.359C104.183 262.514 117.862 269.668 131.38 276.841C139.907 265.067 146.828 254.806 153.846 242.233C154.699 240.707 155.551 239.18 156.402 237.654Z" fill="#D4D6D3"/>
<path d="M145.358 43.7787C140.526 38.5822 136.287 32.9262 131.833 27.4373C131.372 26.8692 130.869 26.3333 130.403 25.7681C127.447 28.2891 124.41 30.723 121.476 33.2665C113.402 40.2671 105.293 47.4995 99.8482 56.4687C95.6154 63.442 92.4382 69.8902 88.2429 76.883C87.5492 78.0388 86.8399 79.1624 86.1442 80.3144C100.006 88.2919 113.87 96.2705 127.733 104.249C127.971 104.019 128.178 103.765 128.422 103.54C134.818 97.6366 142.769 93.4874 149.934 88.4249C151.729 87.1576 153.494 85.8012 155.163 84.353C155.03 84.2826 154.901 84.2063 154.768 84.1359C154.901 84.2063 155.03 84.2826 155.163 84.353C160.161 80.018 168.566 64.7924 169.374 62.5091C161.082 57.7311 152.176 51.059 145.73 44.2109C145.599 44.0721 145.488 43.9176 145.358 43.7787" fill="#D4D6D3"/>
<path d="M85.4755 81.0488C77.6256 94.0429 68.9405 105.958 60.788 118.588C67.496 122.483 74.2216 126.373 80.8995 130.309C88.5008 119.329 98.9268 104.586 106.759 93.2977C99.3709 89.0459 92.8647 85.3016 85.4755 81.0488" fill="#D4D6D3"/>
<path d="M107.672 93.8532C99.8409 105.141 89.4346 119.853 81.8333 130.832C88.092 134.521 94.2363 138.366 100.403 142.19C104.982 135.32 109.38 128.721 113.959 121.851C117.895 115.944 121.915 110.007 127.093 105.03C120.62 101.305 114.146 97.5789 107.672 93.8532" fill="#D4D6D3"/>
<path d="M59.8582 117.753C68.0118 105.122 76.7415 93.5344 84.5925 80.5413C70.5535 72.461 55.2707 64.2439 41.2307 56.1647C36.3178 68.3197 29.9717 79.4637 20.6034 88.9178C19.2635 90.2693 18.5148 91.2198 17.2485 92.6231C21.9452 95.412 26.6832 98.4825 31.3455 101.324C40.7471 107.053 50.3328 112.222 59.8582 117.753" fill="#D4D6D3"/>
<path d="M189.903 105.404C202.405 112.907 214.581 120.888 226.323 129.408C227.58 127.366 228.756 125.28 229.739 123.086C232.553 116.813 240.079 113.948 245.792 109.766C246.46 109.278 247.065 108.725 247.694 108.196C234.966 97.7737 221.711 88.2345 206.937 81.3629C201.574 89.5487 195.578 97.3982 189.903 105.404" fill="#99D870"/>
<path d="M323.169 98.6498C311.196 89.357 299.426 79.8549 288.274 69.7142C285.322 74.1538 281.974 78.3959 278.604 82.5685C276.933 84.6387 275.263 86.7079 273.592 88.7771C273.681 88.8211 273.766 88.8719 273.856 88.9169C273.766 88.8719 273.681 88.8211 273.592 88.7771C270.051 93.1619 266.51 97.5477 262.969 101.933C259.951 105.672 256.851 109.408 253.146 112.534C264.476 121.811 275.409 131.747 286.667 141.058C289.831 137.156 293.024 133.274 296.142 129.34C304.587 118.686 313.616 108.441 323.169 98.6498" fill="#D4D6D3"/>
<path d="M174.509 130.942C167.391 146.205 158.762 159.752 148.889 173.642C159.887 180.277 170.761 186.947 181.759 193.583C183.555 190.367 184.973 187.825 186.769 184.608C190.602 177.742 194.442 170.861 198.954 164.369C206.819 153.048 217.744 143.506 224.889 131.899C213.148 123.378 200.973 115.399 188.471 107.895C183.233 115.282 178.297 122.819 174.509 130.942" fill="#99D870"/>
<path d="M119.225 213.443C132.393 220.417 145.441 227.536 158.351 234.842C165.673 221.726 172.48 209.326 179.801 196.21C168.802 189.574 157.849 182.881 146.85 176.245C137.781 189.005 128.574 200.807 119.225 213.443Z" fill="#D4D6D3"/>
<path d="M133.737 165.422C137.151 167.482 140.811 169.005 144.226 171.065C154.098 157.175 162.817 143.502 169.935 128.24C173.724 120.115 178.66 112.58 183.897 105.192C175.613 100.22 167.217 95.414 158.636 90.9108C156.967 92.3591 155.202 93.7154 153.407 94.9827C146.244 100.046 138.292 104.194 131.896 110.098C131.652 110.323 131.444 110.578 131.206 110.807C131.323 110.873 131.439 110.941 131.555 111.007C131.439 110.941 131.323 110.873 131.206 110.807C126.028 115.783 122.008 121.721 118.071 127.627C113.493 134.497 110.463 139.042 105.885 145.912C111.143 149.697 116.942 155.026 122.586 158.806C126.349 161.327 129.847 163.075 133.737 165.422" fill="#99D870"/>
<path d="M72.2976 183.64C80.9972 170.588 89.6958 157.535 98.3954 144.481C92.2282 140.659 86.01 136.91 79.7513 133.222C71.0434 145.8 62.3355 158.378 53.6276 170.956C59.8499 175.178 66.0462 179.455 72.2976 183.64" fill="#D4D6D3"/>
<path d="M79.069 132.855C72.3911 128.919 65.7071 124.991 58.998 121.096C51.7191 132.372 44.3288 143.599 36.7711 154.928C35.9755 156.121 35.1799 157.314 34.3833 158.508C40.6618 162.362 46.8227 166.438 52.9452 170.591C61.6531 158.012 70.3611 145.434 79.069 132.855" fill="#D4D6D3"/>
<path d="M106.121 206.142C108.998 207.646 111.852 209.179 114.717 210.696C124.065 198.059 133.424 186.044 142.493 173.284C139.078 171.223 134.714 169.27 131.299 167.209C127.409 164.862 125.249 163.982 121.485 161.461C115.841 157.681 109.859 151.967 104.08 148.385C95.3814 161.437 85.9351 175.533 77.2355 188.586C86.6173 194.867 96.1354 200.921 106.121 206.142" fill="#D4D6D3"/>
<path d="M203.452 78.7136C199.636 76.9387 195.072 74.9869 191.032 73.6041C184.867 71.4948 178.951 68.7666 173.355 65.5435C172.547 67.8278 171.81 70.1424 171.205 72.5138C169.635 78.6559 165.485 83.823 160.488 88.158C169.069 92.6611 177.465 97.4674 185.747 102.439C191.421 94.433 198.089 86.8994 203.452 78.7136" fill="#99D870"/>
<path d="M218.657 57.5678C217.071 61.0119 215.195 66.3844 213.359 69.7141C211.586 72.9323 210.089 76.4958 208.065 79.582C222.841 86.4535 236.095 96.8944 248.823 107.317C252.526 104.192 255.628 100.455 258.646 96.7154C262.186 92.3306 265.885 88.1609 268.751 83.3028C256.621 77.3074 242.495 66.2876 232.157 57.826C232.157 57.826 224.23 57.5678 218.657 57.5678Z" fill="#99D870"/>
<path d="M248.224 57.8827C248.218 58.0675 248.221 57.9756 248.223 57.8827C244.012 57.9286 239.113 57.7262 234.901 57.7859C245.238 66.2475 258.488 74.9536 270.618 80.948C272.289 78.8798 273.96 76.8096 275.631 74.7404C279 70.5678 282.348 66.3257 285.301 61.8861C285.047 61.6544 284.92 61.539 284.92 61.539C284.92 61.539 285.047 61.6544 285.301 61.8861C286.243 60.4672 287.158 59.0366 287.995 57.5678C274.738 57.6656 261.481 57.7389 248.224 57.8827" fill="#99D870"/>
<path d="M204.173 77.8423C206.196 74.7551 208.079 70.9237 209.853 67.7045C211.688 64.3758 212.518 61.0119 214.104 57.5678C201.504 57.736 188.903 57.9023 176.304 58.1125C175.412 60.1514 174.587 62.2196 173.842 64.3221C179.436 67.5461 185.353 70.2734 191.519 72.3837C195.558 73.7645 200.357 76.0674 204.173 77.8423" fill="#99D870"/>
<path d="M112.408 213.351C109.543 211.834 106.69 210.301 103.814 208.797C93.8266 203.577 84.3095 197.522 74.9277 191.242C73.0723 194.026 71.217 196.81 69.3616 199.594C66.7751 203.474 65.8537 207.841 63.4253 211.81C59.1498 218.801 56.4396 223.837 52.5469 231.29C62.6068 239.567 74.1966 246.235 85.8664 252.438C88.2719 248.754 89.1091 247.547 91.4221 243.81C97.8732 233.376 105.04 223.311 112.408 213.351" fill="#D4D6D3"/>
<path d="M113.85 7.72915C108.663 11.9507 101.008 18.1583 92.692 24.9702L92.9281 25.1922L92.692 24.9702C79.5599 35.7259 61.3329 51.6019 51.0826 60.9231C62.1961 67.3184 73.9158 73.1916 85.0282 79.5869C85.724 78.4359 86.4333 77.3124 87.127 76.1565C91.3213 69.1627 94.4985 62.7155 98.7313 55.7412C104.176 46.7721 112.286 39.5407 120.359 32.54C123.293 29.9965 126.331 27.5616 129.286 25.0416C124.374 19.0902 119.188 13.349 113.85 7.72915" fill="#D4D6D3"/>
<path d="M97.114 436.327C103.609 392.53 152.679 339.86 158.117 327.759C149.957 327.715 125.212 327.657 117.048 327.775C105.878 327.938 97.4791 328.099 86.3084 328.261C79.6816 338.082 73.4 348.016 71.3179 359.398C62.3458 408.437 68.0003 458.681 71.8368 508.373H98.8477C94.5307 498.847 93.655 459.65 97.114 436.327" fill="#D4D6D3"/>
<path d="M70.0284 360.102C72.1104 348.72 78.8008 338.082 85.4287 328.261C68.7544 328.503 52.5252 328.71 35.8519 328.952C32.8889 338.113 33.619 348.197 34.1754 357.81C37.0718 407.821 37.2174 458.241 34.6299 508.373H69.889C66.0525 458.681 61.0552 409.141 70.0284 360.102" fill="#D4D6D3"/>
<path d="M258.745 460.992H260.828C261.287 450.239 261.26 439.498 260.043 428.782C258.148 412.098 256.317 395.408 254.552 378.712C253.136 365.307 251.809 351.861 251.976 338.394H194.849C182.932 338.859 171.014 338.801 159.094 338.738C148.362 354.797 137.456 370.767 126.671 386.784C122.597 392.833 118.505 398.917 115.525 405.506C113.026 411.037 110.388 418.627 108.946 424.482C106.28 435.308 103.429 449.27 103.496 460.382C103.588 476.135 103.626 487.163 111.186 507.884L257.272 508.373C258.32 488.901 259.997 480.419 260.828 460.992H258.745" fill="#D4D6D3"/>
<path d="M382.172 413.064V423.358H307.858V340.286L256.403 338.394C256.234 351.861 257.577 367.199 258.992 380.604C260.757 397.301 262.587 413.991 264.482 430.673C265.7 441.389 265.728 452.131 265.267 462.885H484.279V413.064H414.349H382.172" fill="#99D870"/>
<path d="M43.1453 314.006C40.6909 317.9 38.2428 321.832 36.5798 326.08C36.298 326.799 36.0879 327.533 35.8518 328.261C52.5251 328.02 69.1994 327.778 85.8737 327.537C87.3308 325.379 88.8055 323.234 90.2844 321.111C92.8407 317.444 94.4704 315.042 97.114 311.418C84.4281 304.937 71.4021 296.638 60.686 287.62C54.3638 296.823 49.0858 304.586 43.1453 314.006Z" fill="#D4D6D3"/>
<path d="M83.9664 253.16C76.7166 264.259 69.2099 275.212 61.6907 286.158C72.4048 295.177 85.4204 303.703 98.1052 310.184C106.955 298.05 115.645 286.81 124.46 274.637C110.943 267.465 97.4251 260.315 83.9664 253.16Z" fill="#D4D6D3"/>
<path d="M171.526 306.039C167.652 303.994 134.311 279.973 124.98 275.021C113.531 290.83 101.927 305.539 90.8128 321.483C89.3328 323.605 88.167 325.294 86.71 327.452C97.8806 327.29 150.558 326.628 158.719 326.672C161.469 322.556 167.989 311.975 171.526 306.039Z" fill="#D4D6D3"/>
<path d="M387.184 303.502C371.686 302.248 308.185 289.141 279.893 260.414C276.996 257.471 273.788 254.942 270.471 252.454C268.751 257.41 267.662 261.678 266.849 266.848C263.321 289.288 256.961 313.58 256.403 336.258L386.597 340.286L387.184 303.502" fill="#99D870"/>
<path d="M42.0554 313.607C47.9948 304.187 54.2775 294.961 60.5996 285.759C68.1199 274.813 75.6266 263.86 82.8754 252.761C71.2066 246.557 59.9985 239.774 49.9386 231.497C36.4259 257.358 23.4352 284.21 -1.35285 299.701C-3.48485 301.033 -5.61613 302.366 -7.74813 303.698C-7.56935 303.818 -7.39099 303.939 -7.21221 304.06C-7.39099 303.939 -7.56935 303.818 -7.74813 303.698C-16.5044 309.17 -25.2607 314.642 -34.017 320.115C-36.9152 321.925 -39.8138 323.737 -42.7124 325.549C-36.2875 328.77 -28.6264 328.781 -21.3298 328.675C-2.63257 328.404 16.0638 328.133 34.7608 327.863C34.9969 327.134 35.208 326.4 35.4899 325.68C37.1518 321.433 39.5999 317.501 42.0554 313.607" fill="#D4D6D3"/>
<path d="M206.514 325.609C204.388 322.882 201.209 321.085 198.117 319.36C190.828 315.295 184.189 312.511 176.781 308.597C173.244 314.532 160.373 336.332 160.373 336.332C172.294 336.396 208.193 336.304 208.193 336.304C208.89 332.203 208.507 328.166 206.514 325.609Z" fill="#D4D6D3"/>
<path d="M178.25 306.658C185.659 310.572 193.452 313.961 200.74 318.026C203.833 319.751 207.012 321.548 209.138 324.275C211.132 326.832 211.331 332.156 210.635 336.258H251.973C251.983 335.562 251.947 334.869 251.964 334.175C252.258 322.259 254.159 310.373 256.403 298.518C239.732 287.022 221.419 275.271 204.197 264.75C194.79 278.194 186.668 292.534 178.25 306.658" fill="#D4D6D3"/>
<path d="M267.685 249.555C259.468 244.554 242.838 232.713 231.935 225.757C228.875 231.635 225.444 237.278 220.882 242.225C215.068 248.531 209.865 255.265 204.99 262.231C222.215 272.752 240.527 284.503 257.197 295.999C259.223 285.293 262.158 274.51 263.831 263.862C264.646 258.691 265.965 254.511 267.685 249.555" fill="#D4D6D3"/>
<path d="M104.975 146.996C110.298 150.909 117.502 157.094 122.097 160.174C127.656 163.9 145.981 173.529 145.981 173.529L183.897 196.63L232.297 224.35C232.297 224.35 262.09 243.905 268.526 248.623C277.868 255.469 291.599 269.745 307.936 277.126C340.282 291.741 356.996 297.542 390.796 302.187C404.908 304.126 406.224 311.486 443.165 316.751C456.664 318.675 482.185 314.144 482.185 314.144" stroke="#AED8F3" stroke-width="2.66667" stroke-miterlimit="10"/>
<path d="M-118.87 59.3663C-96.1269 61.0894 -64.725 58.1958 -47.1547 61.8149C-27.3873 65.8878 5.63266 86.6981 13.7865 92.1293C33.4349 105.215 76.8715 128.59 99.4052 143.195" stroke="#AED8F3" stroke-width="2.66667" stroke-miterlimit="10"/>
<path d="M101.852 512.371C100.427 501.513 98.9704 490.717 97.7349 479.834C97.4323 477.112 97.1411 474.391 96.932 471.639C96.7064 468.908 96.5483 466.101 96.6221 463.269C96.7552 457.637 97.5883 452.202 98.4504 446.771C99.3334 441.348 100.418 435.969 101.622 430.613C102.836 425.256 104.202 419.935 105.85 414.651C106.653 412.011 107.573 409.368 108.699 406.739C109.855 404.169 111.089 401.656 112.416 399.206C115.05 394.292 117.898 389.521 120.835 384.806C126.749 375.402 132.93 366.161 139.679 357.249C146.262 348.415 152.338 339.161 158.319 329.884C164.287 320.59 170.102 311.202 175.788 301.75C178.638 297.04 181.365 292.235 184.318 287.528C187.247 282.82 190.253 278.165 193.315 273.542C196.376 268.919 199.493 264.329 202.686 259.783C205.896 255.238 209.128 250.735 212.653 246.341C214.482 244.154 216.416 242.143 218.297 240.083C220.166 238.023 222.089 235.993 223.61 233.798C226.687 229.3 229.291 224.43 231.796 219.565C233.027 217.118 234.215 214.649 235.337 212.16L236.968 208.391C237.528 207.116 238.131 205.865 238.758 204.627C241.285 199.685 244.172 194.928 247.387 190.358C250.642 185.801 254.13 181.472 257.598 177.11C261.085 172.766 264.602 168.446 268.141 164.143C271.629 159.803 275.389 155.638 279.031 151.43L290.029 138.821L295.527 132.518L300.83 126.08L311.519 113.22C315.115 108.952 318.715 104.694 322.45 100.505C326.203 96.2676 330.276 92.3952 334.227 88.4299C338.19 84.4871 342.187 80.5296 345.976 76.5163C347.705 74.5831 349.252 72.283 350.676 70.0026C351.384 68.8507 352.059 67.6812 352.675 66.5009C353.285 65.3274 353.864 64.1099 354.219 62.9893L357.298 63.8156C356.811 65.2981 356.176 66.5586 355.511 67.823C354.841 69.0766 354.125 70.2921 353.375 71.4881C351.845 73.8741 350.284 76.1878 348.273 78.4046C344.345 82.4912 340.339 86.3861 336.323 90.3123C332.332 94.2463 328.23 98.0835 324.542 102.176C320.811 106.29 317.172 110.514 313.548 114.741C309.928 118.972 306.336 123.229 302.76 127.497L297.388 133.915L291.832 140.18L280.724 152.711C277.03 156.909 273.267 161.009 269.745 165.32C266.172 169.59 262.624 173.878 259.108 178.188C255.615 182.507 252.079 186.823 248.85 191.272C245.688 195.772 242.833 200.483 240.352 205.342C239.737 206.558 239.147 207.784 238.604 209.023L236.968 212.808C235.835 215.325 234.641 217.812 233.401 220.279C230.911 225.213 228.363 230.108 225.227 234.788C223.608 237.164 221.681 239.221 219.824 241.312C217.958 243.39 216.033 245.436 214.307 247.537C210.916 251.859 207.726 256.407 204.593 260.953C201.467 265.512 198.412 270.119 195.414 274.757C192.418 279.396 189.474 284.066 186.618 288.775C183.749 293.463 181.086 298.282 178.272 303.053C172.684 312.588 166.967 322.052 161.089 331.437C155.191 340.814 149.218 350.143 142.632 359.19C136.065 368.061 130.027 377.311 124.28 386.683C121.427 391.379 118.668 396.124 116.151 400.947C114.882 403.355 113.722 405.794 112.653 408.241C111.657 410.67 110.772 413.196 109.991 415.786C106.893 426.126 104.397 436.729 102.647 447.373C101.797 452.688 101.16 458.071 101.115 463.315C101.102 465.921 101.385 468.545 101.703 471.225C102.011 473.89 102.405 476.566 102.809 479.241C103.603 484.593 104.62 489.93 105.641 495.264C106.147 497.933 106.69 500.597 107.265 503.255C107.831 505.912 108.404 508.577 109.027 511.21L101.852 512.371Z" fill="#AED8F3"/>
</g>
<path d="M215.305 271.474C214.543 272.476 213.647 275.229 213.092 278.474C212.536 281.716 212.492 284.46 212.914 285.447C213.676 284.446 214.572 281.69 215.127 278.448C215.683 275.205 215.728 272.461 215.305 271.474Z" fill="#51843E"/>
<path d="M221.16 266.877C220.398 267.879 219.501 270.633 218.947 273.876C218.391 277.12 218.347 279.863 218.769 280.85C219.531 279.849 220.428 277.094 220.983 273.851C221.538 270.608 221.582 267.864 221.16 266.877" fill="#51843E"/>
<path d="M203.564 285.185C199.368 281.273 198.972 276.315 200.521 273.144C202.07 269.973 204.415 269.295 204.781 269.973C204.781 269.973 206.91 275.456 208.72 274.422C210.531 273.387 210.052 270.409 207.775 270.07C207.775 270.07 208.429 266.53 212.741 267.61C212.741 267.61 213.094 270.632 215.815 270.121C217.473 269.81 216.164 266.831 214.936 266.96C214.936 266.96 225.693 264.563 227.845 266.509C230.438 268.852 225.774 276.092 225.774 276.092C225.142 275.137 222.551 273.838 222.016 275.724C221.365 278.03 224.712 278.423 224.712 278.423C225.723 282.153 221.534 282.499 221.534 282.499C221.271 280.543 217.807 279.961 216.489 281.438C215.168 282.916 221.47 285.05 221.47 285.05C222.244 285.4 221.311 287.354 217.502 288.483C213.693 289.612 207.166 288.44 203.564 285.185" fill="#8FCD3C"/>
<path d="M225.678 268.802C224.479 269.777 220.261 272.831 215.174 276.412C213.879 277.284 212.636 278.121 211.478 278.899C210.899 279.285 210.339 279.657 209.806 280.011C209.255 280.346 208.732 280.665 208.24 280.965C206.269 282.158 204.787 283.027 204.088 283.401C204.719 282.942 206.137 282 208.06 280.759C208.54 280.449 209.053 280.12 209.591 279.773C210.116 279.411 210.667 279.032 211.238 278.637C212.386 277.854 213.622 277.012 214.908 276.135C219.99 272.556 224.327 269.616 225.678 268.802" fill="#76A633"/>
<path d="M208.421 276.055C208.574 276.299 208.775 277.156 208.886 278.181C208.954 278.69 208.978 279.162 209.009 279.537C209.037 279.911 209.036 280.196 208.998 280.333C208.916 280.215 208.814 279.944 208.709 279.572C208.604 279.2 208.535 278.729 208.467 278.215C208.356 277.188 208.333 276.326 208.421 276.055Z" fill="#76A633"/>
<path d="M214.27 282.535C213.902 282.487 212.82 282.078 211.574 281.533C210.943 281.278 210.383 281.002 209.924 280.811C209.468 280.61 209.137 280.441 208.998 280.333C209.181 280.343 209.554 280.43 210.047 280.575C210.542 280.712 211.125 280.955 211.764 281.211C213.019 281.762 214.016 282.304 214.27 282.535Z" fill="#76A633"/>
<path d="M218.672 277.449C218.396 277.523 217.496 277.53 216.432 277.376C215.903 277.295 215.42 277.183 215.051 277.045C214.68 276.917 214.44 276.746 214.35 276.656C214.504 276.658 214.769 276.739 215.145 276.801C215.516 276.873 215.99 276.944 216.506 277.022C217.543 277.173 218.422 277.317 218.672 277.449" fill="#76A633"/>
<path d="M213.631 272.894C213.77 273.116 213.888 273.871 214.002 274.761C214.063 275.205 214.12 275.612 214.183 275.93C214.234 276.255 214.312 276.484 214.304 276.615C214.204 276.534 214.019 276.32 213.89 275.996C213.75 275.675 213.647 275.257 213.583 274.802C213.465 273.891 213.527 273.125 213.631 272.894Z" fill="#76A633"/>
<path d="M221.698 268.6C221.816 268.791 221.893 269.407 221.88 270.137C221.898 270.869 221.821 271.488 221.705 271.673C221.58 271.493 221.475 270.876 221.459 270.139C221.472 269.399 221.574 268.78 221.698 268.6" fill="#76A633"/>
<path d="M225.169 271.735C224.952 271.831 224.22 271.882 223.351 271.849C222.489 271.791 221.771 271.666 221.567 271.549C221.792 271.461 222.521 271.433 223.379 271.491C224.236 271.522 224.954 271.624 225.169 271.735" fill="#76A633"/>
<path d="M203.643 252.362C201.424 248.843 202.209 245.157 204.029 243.082C205.847 241.007 207.709 240.88 207.829 241.434C207.829 241.434 208.197 245.776 209.745 245.304C211.292 244.833 211.588 242.581 209.997 241.975C209.997 241.975 211.243 239.489 214.161 240.957C214.161 240.957 213.764 243.221 215.863 243.276C217.142 243.309 216.831 240.926 215.906 240.827C215.906 240.827 224.288 240.765 225.439 242.526C226.827 244.645 221.849 249.205 221.849 249.205C221.594 248.408 219.98 247.051 219.182 248.346C218.205 249.929 220.567 250.742 220.567 250.742C220.498 253.628 217.361 253.222 217.361 253.222C217.593 251.75 215.187 250.781 213.903 251.653C212.617 252.527 216.761 255.077 216.761 255.077C217.251 255.454 216.145 256.736 213.116 256.963C210.088 257.189 205.57 255.307 203.643 252.362" fill="#8FCD3C"/>
<path d="M223.358 243.862C222.271 244.386 218.525 245.955 214.031 247.773C212.895 248.207 211.806 248.624 210.79 249.011C210.283 249.201 209.793 249.385 209.327 249.561C208.852 249.719 208.4 249.87 207.976 250.012C206.276 250.574 205.005 250.977 204.413 251.14C204.973 250.904 206.214 250.438 207.889 249.833C208.306 249.682 208.753 249.522 209.221 249.353C209.683 249.171 210.168 248.98 210.671 248.782C211.681 248.389 212.767 247.968 213.896 247.529C218.387 245.711 222.195 244.244 223.358 243.862" fill="#76A633"/>
<path d="M209.172 246.452C209.231 246.654 209.193 247.311 209.051 248.078C208.99 248.462 208.906 248.811 208.847 249.089C208.786 249.367 208.724 249.575 208.667 249.669C208.632 249.57 208.616 249.356 208.621 249.067C208.624 248.779 208.675 248.424 208.737 248.037C208.878 247.27 209.049 246.636 209.172 246.452" fill="#76A633"/>
<path d="M212.043 252.107C211.785 252.014 211.082 251.545 210.29 250.951C209.883 250.665 209.534 250.376 209.24 250.164C208.951 249.945 208.745 249.769 208.667 249.669C208.798 249.706 209.052 249.828 209.381 250.011C209.713 250.188 210.087 250.458 210.498 250.746C211.296 251.345 211.908 251.898 212.043 252.107" fill="#76A633"/>
<path d="M216.364 249.081C216.145 249.092 215.486 248.955 214.742 248.676C214.373 248.533 214.044 248.375 213.804 248.217C213.56 248.065 213.422 247.902 213.375 247.823C213.488 247.848 213.664 247.948 213.926 248.053C214.181 248.164 214.512 248.29 214.873 248.428C215.597 248.702 216.209 248.945 216.364 249.081Z" fill="#76A633"/>
<path d="M213.665 244.96C213.719 245.143 213.642 245.714 213.532 246.382C213.48 246.716 213.434 247.023 213.411 247.265C213.378 247.511 213.385 247.69 213.351 247.785C213.296 247.71 213.207 247.525 213.183 247.267C213.15 247.011 213.165 246.689 213.218 246.346C213.328 245.662 213.54 245.112 213.665 244.96" fill="#76A633"/>
<path d="M220.493 243.089C220.538 243.246 220.461 243.709 220.293 244.24C220.147 244.778 219.957 245.218 219.831 245.336C219.779 245.184 219.837 244.717 219.984 244.176C220.154 243.637 220.363 243.2 220.493 243.089Z" fill="#76A633"/>
<path d="M222.351 245.926C222.171 245.961 221.625 245.883 220.997 245.722C220.379 245.544 219.882 245.341 219.758 245.223C219.942 245.193 220.481 245.289 221.096 245.465C221.715 245.623 222.217 245.811 222.351 245.926" fill="#76A633"/>
<path d="M196.051 268.202L204.371 269.887L204.452 269.719L196.134 268.035L196.051 268.202Z" fill="#51843E"/>
<path d="M203.068 253.726C202.303 254.306 201.045 256.101 199.917 258.297C198.789 260.493 198.134 262.421 198.208 263.186C198.972 262.605 200.231 260.81 201.359 258.615C202.488 256.419 203.141 254.491 203.068 253.726" fill="#51843E"/>
<path d="M195.886 267.93L199.086 261.176L199.294 261.217L196.095 267.971L195.886 267.93Z" fill="#51843E"/>
<path d="M208.035 251.539C207.27 252.12 206.013 253.914 204.884 256.11C203.756 258.306 203.101 260.234 203.174 261C203.939 260.418 205.197 258.623 206.325 256.428C207.454 254.232 208.109 252.304 208.035 251.539Z" fill="#51843E"/>
<path d="M200.855 265.744L204.054 258.989L204.262 259.029L201.063 265.785L200.855 265.744" fill="#51843E"/>
<path d="M205.969 309.665C202.362 304.092 203.535 298.206 206.39 294.874C209.245 291.542 212.209 291.312 212.411 292.192C212.411 292.192 213.088 299.103 215.544 298.329C218 297.554 218.423 293.961 215.876 293.02C215.876 293.02 217.809 289.042 222.488 291.336C222.488 291.336 221.902 294.95 225.248 295.005C227.286 295.039 226.742 291.246 225.265 291.103C225.265 291.103 238.617 290.879 240.489 293.666C242.744 297.021 234.907 304.36 234.907 304.36C234.485 303.094 231.886 300.956 230.64 303.032C229.118 305.569 232.897 306.829 232.897 306.829C232.848 311.425 227.841 310.827 227.841 310.827C228.179 308.48 224.327 306.971 222.299 308.382C220.269 309.791 226.924 313.791 226.924 313.791C227.712 314.385 225.978 316.444 221.157 316.851C216.337 317.258 209.101 314.326 205.969 309.665" fill="#8FCD3C"/>
<path d="M237.202 295.824C235.479 296.676 229.546 299.233 222.423 302.198C220.623 302.906 218.895 303.585 217.287 304.217C216.481 304.529 215.706 304.829 214.966 305.115C214.213 305.375 213.496 305.622 212.824 305.855C210.127 306.776 208.11 307.437 207.17 307.706C208.058 307.321 210.025 306.56 212.68 305.572C213.345 305.325 214.051 305.063 214.794 304.787C215.526 304.49 216.294 304.178 217.092 303.854C218.692 303.214 220.412 302.526 222.204 301.81C229.32 298.847 235.355 296.451 237.202 295.824" fill="#76A633"/>
<path d="M214.655 300.165C214.753 300.486 214.705 301.535 214.496 302.757C214.407 303.368 214.28 303.928 214.192 304.371C214.102 304.815 214.005 305.147 213.917 305.298C213.86 305.141 213.83 304.8 213.831 304.341C213.831 303.881 213.905 303.315 213.995 302.698C214.204 301.471 214.462 300.459 214.655 300.165Z" fill="#76A633"/>
<path d="M219.347 309.131C218.933 308.986 217.803 308.251 216.529 307.315C215.875 306.868 215.313 306.412 214.84 306.077C214.375 305.733 214.044 305.457 213.917 305.298C214.128 305.354 214.534 305.546 215.06 305.832C215.595 306.11 216.195 306.534 216.857 306.986C218.141 307.928 219.127 308.8 219.347 309.131" fill="#76A633"/>
<path d="M226.167 304.245C225.819 304.265 224.764 304.058 223.575 303.624C222.984 303.403 222.456 303.156 222.071 302.907C221.679 302.668 221.455 302.412 221.38 302.286C221.559 302.325 221.842 302.481 222.261 302.644C222.671 302.817 223.2 303.014 223.777 303.229C224.937 303.652 225.917 304.032 226.167 304.245" fill="#76A633"/>
<path d="M221.783 297.72C221.871 298.011 221.759 298.923 221.6 299.989C221.525 300.522 221.457 301.01 221.424 301.398C221.377 301.789 221.392 302.076 221.339 302.226C221.25 302.108 221.104 301.813 221.062 301.404C221.003 300.996 221.021 300.483 221.097 299.937C221.261 298.843 221.585 297.965 221.783 297.72Z" fill="#76A633"/>
<path d="M232.62 294.637C232.696 294.886 232.582 295.624 232.326 296.473C232.104 297.334 231.812 298.037 231.614 298.227C231.527 297.985 231.61 297.24 231.833 296.376C232.093 295.514 232.416 294.816 232.62 294.637" fill="#76A633"/>
<path d="M235.638 299.128C235.354 299.188 234.482 299.071 233.479 298.825C232.49 298.551 231.694 298.234 231.494 298.048C231.786 297.999 232.647 298.141 233.63 298.414C234.619 298.656 235.423 298.946 235.638 299.128" fill="#76A633"/>
<path d="M149.592 271.474C150.354 272.476 151.25 275.229 151.805 278.474C152.361 281.716 152.405 284.46 151.983 285.447C151.221 284.446 150.324 281.69 149.769 278.448C149.214 275.205 149.169 272.461 149.592 271.474Z" fill="#51843E"/>
<path d="M143.737 266.877C144.499 267.879 145.395 270.633 145.95 273.876C146.506 277.12 146.549 279.863 146.128 280.85C145.366 279.849 144.469 277.094 143.914 273.851C143.359 270.608 143.315 267.864 143.737 266.877" fill="#51843E"/>
<path d="M161.333 285.185C165.528 281.273 165.925 276.315 164.375 273.144C162.827 269.973 160.481 269.295 160.116 269.973C160.116 269.973 157.987 275.456 156.176 274.422C154.366 273.387 154.844 270.409 157.122 270.07C157.122 270.07 156.467 266.53 152.155 267.61C152.155 267.61 151.802 270.632 149.082 270.121C147.424 269.81 148.733 266.831 149.96 266.96C149.96 266.96 139.204 264.563 137.052 266.509C134.459 268.852 139.123 276.092 139.123 276.092C139.754 275.137 142.346 273.838 142.88 275.724C143.532 278.03 140.184 278.423 140.184 278.423C139.173 282.153 143.362 282.499 143.362 282.499C143.625 280.543 147.09 279.961 148.408 281.438C149.728 282.916 143.426 285.05 143.426 285.05C142.653 285.4 143.586 287.354 147.395 288.483C151.203 289.612 157.731 288.44 161.333 285.185" fill="#8FCD3C"/>
<path d="M139.219 268.802C140.418 269.777 144.636 272.831 149.723 276.412C151.018 277.284 152.261 278.121 153.418 278.899C153.998 279.285 154.558 279.657 155.091 280.011C155.641 280.346 156.165 280.665 156.657 280.965C158.628 282.158 160.109 283.027 160.809 283.401C160.178 282.942 158.76 282 156.836 280.759C156.357 280.449 155.843 280.12 155.306 279.773C154.781 279.411 154.23 279.032 153.659 278.637C152.51 277.854 151.275 277.012 149.989 276.135C144.907 272.556 140.569 269.616 139.219 268.802" fill="#76A633"/>
<path d="M156.475 276.055C156.322 276.299 156.121 277.156 156.011 278.181C155.943 278.69 155.918 279.162 155.887 279.537C155.859 279.911 155.861 280.196 155.899 280.333C155.98 280.215 156.083 279.944 156.187 279.572C156.293 279.2 156.362 278.729 156.43 278.215C156.541 277.188 156.563 276.326 156.475 276.055" fill="#76A633"/>
<path d="M150.627 282.535C150.995 282.487 152.077 282.078 153.323 281.533C153.954 281.278 154.513 281.002 154.973 280.811C155.428 280.61 155.759 280.441 155.899 280.333C155.715 280.343 155.342 280.43 154.85 280.575C154.355 280.712 153.771 280.955 153.132 281.211C151.878 281.762 150.88 282.304 150.627 282.535Z" fill="#76A633"/>
<path d="M146.224 277.449C146.501 277.523 147.401 277.53 148.464 277.376C148.993 277.295 149.476 277.183 149.845 277.045C150.217 276.917 150.457 276.746 150.546 276.656C150.393 276.658 150.128 276.739 149.751 276.801C149.381 276.873 148.907 276.944 148.39 277.022C147.354 277.173 146.475 277.317 146.224 277.449" fill="#76A633"/>
<path d="M151.266 272.894C151.127 273.116 151.009 273.871 150.894 274.761C150.833 275.205 150.777 275.612 150.714 275.93C150.663 276.255 150.585 276.484 150.593 276.615C150.692 276.534 150.878 276.32 151.006 275.996C151.146 275.675 151.25 275.257 151.313 274.802C151.432 273.891 151.369 273.125 151.266 272.894Z" fill="#76A633"/>
<path d="M143.198 268.6C143.08 268.791 143.004 269.407 143.016 270.137C142.999 270.869 143.076 271.488 143.192 271.673C143.317 271.493 143.421 270.876 143.438 270.139C143.425 269.399 143.323 268.78 143.198 268.6" fill="#76A633"/>
<path d="M139.728 271.735C139.945 271.831 140.676 271.882 141.546 271.849C142.408 271.791 143.126 271.666 143.33 271.549C143.104 271.461 142.376 271.433 141.517 271.491C140.661 271.522 139.943 271.624 139.728 271.735" fill="#76A633"/>
<path d="M161.254 252.362C163.472 248.843 162.688 245.157 160.868 243.082C159.049 241.007 157.187 240.88 157.067 241.434C157.067 241.434 156.699 245.776 155.152 245.304C153.604 244.833 153.309 242.581 154.9 241.975C154.9 241.975 153.654 239.489 150.736 240.957C150.736 240.957 151.133 243.221 149.034 243.276C147.755 243.309 148.066 240.926 148.991 240.827C148.991 240.827 140.609 240.765 139.457 242.526C138.069 244.645 143.048 249.205 143.048 249.205C143.303 248.408 144.916 247.051 145.715 248.346C146.691 249.929 144.33 250.742 144.33 250.742C144.399 253.628 147.536 253.222 147.536 253.222C147.303 251.75 149.71 250.781 150.994 251.653C152.279 252.527 148.136 255.077 148.136 255.077C147.646 255.454 148.752 256.736 151.781 256.963C154.809 257.189 159.326 255.307 161.254 252.362Z" fill="#8FCD3C"/>
<path d="M141.538 243.862C142.626 244.386 146.371 245.955 150.865 247.773C152.001 248.207 153.091 248.624 154.107 249.011C154.613 249.201 155.103 249.385 155.569 249.561C156.045 249.719 156.496 249.87 156.921 250.012C158.62 250.574 159.892 250.977 160.483 251.14C159.923 250.904 158.683 250.438 157.008 249.833C156.59 249.682 156.144 249.522 155.676 249.353C155.213 249.171 154.728 248.98 154.226 248.782C153.216 248.389 152.13 247.968 151 247.529C146.51 245.711 142.702 244.244 141.538 243.862" fill="#76A633"/>
<path d="M155.724 246.452C155.666 246.654 155.704 247.311 155.846 248.078C155.906 248.462 155.991 248.811 156.049 249.089C156.11 249.367 156.173 249.575 156.23 249.669C156.264 249.57 156.281 249.356 156.275 249.067C156.272 248.779 156.221 248.424 156.159 248.037C156.018 247.27 155.848 246.636 155.724 246.452" fill="#76A633"/>
<path d="M152.854 252.107C153.112 252.014 153.814 251.545 154.607 250.951C155.013 250.665 155.362 250.376 155.657 250.164C155.946 249.945 156.152 249.769 156.23 249.669C156.098 249.706 155.844 249.828 155.516 250.011C155.184 250.188 154.809 250.458 154.398 250.746C153.6 251.345 152.988 251.898 152.854 252.107" fill="#76A633"/>
<path d="M148.533 249.081C148.751 249.092 149.41 248.955 150.154 248.676C150.524 248.533 150.853 248.375 151.092 248.217C151.336 248.065 151.474 247.902 151.521 247.823C151.409 247.848 151.233 247.948 150.971 248.053C150.715 248.164 150.385 248.29 150.024 248.428C149.3 248.702 148.688 248.945 148.533 249.081Z" fill="#76A633"/>
<path d="M151.231 244.96C151.178 245.143 151.255 245.714 151.364 246.382C151.416 246.716 151.463 247.023 151.485 247.265C151.519 247.511 151.512 247.69 151.546 247.785C151.601 247.71 151.69 247.525 151.714 247.267C151.747 247.011 151.732 246.689 151.679 246.346C151.568 245.662 151.357 245.112 151.231 244.96" fill="#76A633"/>
<path d="M144.404 243.089C144.358 243.246 144.436 243.709 144.604 244.24C144.749 244.778 144.94 245.218 145.065 245.336C145.118 245.184 145.059 244.717 144.912 244.176C144.742 243.637 144.533 243.2 144.404 243.089Z" fill="#76A633"/>
<path d="M169.01 267.93L165.81 261.176L165.602 261.217L168.801 267.971L169.01 267.93Z" fill="#51843E"/>
<path d="M156.861 251.539C157.627 252.12 158.884 253.914 160.012 256.11C161.141 258.306 161.796 260.234 161.722 261C160.957 260.418 159.699 258.623 158.571 256.428C157.443 254.232 156.787 252.304 156.861 251.539Z" fill="#51843E"/>
<path d="M164.042 265.744L160.842 258.989L160.634 259.029L163.834 265.785L164.042 265.744" fill="#51843E"/>
<path d="M158.927 309.665C162.535 304.092 161.361 298.206 158.507 294.874C155.652 291.542 152.688 291.312 152.485 292.192C152.485 292.192 151.808 299.103 149.353 298.329C146.897 297.554 146.473 293.961 149.021 293.02C149.021 293.02 147.088 289.042 142.409 291.336C142.409 291.336 142.995 294.95 139.649 295.005C137.611 295.039 138.155 291.246 139.632 291.103C139.632 291.103 126.28 290.879 124.408 293.666C122.153 297.021 129.989 304.36 129.989 304.36C130.412 303.094 133.01 300.956 134.256 303.032C135.778 305.569 131.999 306.829 131.999 306.829C132.048 311.425 137.055 310.827 137.055 310.827C136.717 308.48 140.569 306.971 142.598 308.382C144.627 309.791 137.972 313.791 137.972 313.791C137.184 314.385 138.918 316.444 143.74 316.851C148.56 317.258 155.796 314.326 158.927 309.665" fill="#8FCD3C"/>
<path d="M127.695 295.824C129.417 296.676 135.351 299.233 142.474 302.198C144.274 302.906 146.002 303.585 147.61 304.217C148.415 304.529 149.191 304.829 149.93 305.115C150.683 305.375 151.401 305.622 152.073 305.855C154.769 306.776 156.787 307.437 157.727 307.706C156.839 307.321 154.872 306.56 152.216 305.572C151.552 305.325 150.846 305.063 150.103 304.787C149.371 304.49 148.602 304.178 147.804 303.854C146.204 303.214 144.485 302.526 142.693 301.81C135.577 298.847 129.542 296.451 127.695 295.824Z" fill="#76A633"/>
<path d="M150.242 300.165C150.144 300.486 150.191 301.535 150.4 302.757C150.489 303.368 150.616 303.928 150.705 304.371C150.795 304.815 150.891 305.147 150.979 305.298C151.036 305.141 151.066 304.8 151.065 304.341C151.065 303.881 150.991 303.315 150.902 302.698C150.692 301.471 150.434 300.459 150.242 300.165Z" fill="#76A633"/>
<path d="M145.55 309.131C145.963 308.986 147.093 308.251 148.368 307.315C149.022 306.868 149.584 306.412 150.057 306.077C150.522 305.733 150.852 305.457 150.98 305.298C150.768 305.354 150.362 305.546 149.836 305.832C149.302 306.11 148.701 306.534 148.04 306.986C146.756 307.928 145.77 308.8 145.55 309.131Z" fill="#76A633"/>
<path d="M138.73 304.245C139.078 304.265 140.132 304.058 141.322 303.624C141.913 303.403 142.441 303.156 142.826 302.907C143.217 302.668 143.442 302.412 143.517 302.286C143.337 302.325 143.055 302.481 142.635 302.644C142.226 302.817 141.697 303.014 141.119 303.229C139.96 303.652 138.98 304.032 138.73 304.245" fill="#76A633"/>
<path d="M143.114 297.72C143.025 298.011 143.137 298.923 143.297 299.989C143.372 300.522 143.44 301.01 143.472 301.398C143.52 301.789 143.504 302.076 143.557 302.226C143.646 302.108 143.792 301.813 143.834 301.404C143.893 300.996 143.875 300.483 143.8 299.937C143.636 298.843 143.311 297.965 143.114 297.72Z" fill="#76A633"/>
<path d="M132.276 294.637C132.201 294.886 132.314 295.624 132.571 296.473C132.793 297.334 133.085 298.037 133.283 298.227C133.369 297.985 133.287 297.24 133.064 296.376C132.804 295.514 132.481 294.816 132.276 294.637" fill="#76A633"/>
<path d="M129.258 299.128C129.543 299.188 130.414 299.071 131.418 298.825C132.407 298.551 133.202 298.234 133.403 298.048C133.11 297.999 132.25 298.141 131.266 298.414C130.277 298.656 129.473 298.946 129.258 299.128" fill="#76A633"/>
<path d="M156.961 285.939C156.961 285.939 167.083 257.292 147.695 233.987C147.695 233.987 153.682 227.432 167.511 225.369L171.36 231.56L170.077 224.519C170.077 224.519 179.628 220.149 195.309 223.427L194.454 231.317L197.447 224.883C197.447 224.883 209.708 225.612 216.978 232.773C216.978 232.773 199.301 261.177 208.496 285.939C208.496 285.939 183.905 301.415 156.961 285.939" fill="#C74F39"/>
<path d="M200.727 314.95L202.111 317.245C210.518 314.779 215.553 311.551 215.553 311.551L205.716 286.161H159.1L150.546 311.672C155.344 314.216 160.032 316.064 164.553 317.367L165.657 314.95L166.225 317.828C179.482 321.29 191.207 320.091 199.896 317.855L200.727 314.95" fill="#963532"/>
<path d="M215.553 311.551L212.775 304.383C185.878 314.885 160.536 307.44 152.887 304.69L150.546 311.672C155.344 314.216 160.032 316.064 164.553 317.367L165.657 314.95L166.225 317.828C179.482 321.29 191.207 320.091 199.896 317.855L200.727 314.95L202.111 317.245C210.518 314.779 215.553 311.551 215.553 311.551" fill="#FBCA3B"/>
<path d="M153.682 238.721H156.818V233.745H153.682V238.721Z" fill="#A14130"/>
<path d="M170.646 238.964C170.436 238.754 170.067 238.253 169.607 237.56C169.494 237.386 169.373 237.2 169.246 237.006C169.135 236.805 169.018 236.595 168.897 236.376C168.657 235.937 168.406 235.463 168.152 234.966C167.194 232.963 166.473 231.262 166.369 230.71C166.755 231.155 167.691 232.794 168.646 234.791C168.899 235.284 169.135 235.759 169.349 236.204C169.454 236.426 169.556 236.641 169.652 236.846C169.757 237.047 169.858 237.238 169.951 237.418C170.323 238.139 170.572 238.69 170.646 238.964" fill="#A14130"/>
<path d="M164.35 243.941C164.084 243.781 163.553 243.093 163.041 242.222C162.529 241.351 162.202 240.576 162.211 240.299C162.478 240.458 163.008 241.147 163.52 242.018C164.032 242.889 164.36 243.664 164.35 243.941Z" fill="#A14130"/>
<path d="M177.204 233.987C177.016 233.521 176.761 231.906 176.704 229.986C176.679 229.509 176.661 229.049 176.65 228.622C176.646 228.408 176.644 228.201 176.641 228.005C176.63 227.811 176.619 227.624 176.61 227.45C176.578 226.751 176.585 226.224 176.633 225.976C176.737 226.206 176.864 226.721 176.992 227.422C177.022 227.598 177.054 227.785 177.087 227.981C177.105 228.177 177.125 228.383 177.145 228.598C177.181 229.027 177.214 229.489 177.24 229.97C177.296 231.891 177.323 233.493 177.204 233.987" fill="#A14130"/>
<path d="M186.47 241.635C186.455 241.536 186.456 241.384 186.47 241.191C186.48 241.095 186.491 240.989 186.503 240.872C186.51 240.755 186.519 240.629 186.528 240.493C186.583 239.956 186.611 239.277 186.668 238.538C186.718 237.796 186.778 237.111 186.874 236.566C186.959 236.022 187.09 235.622 187.183 235.444C187.243 235.638 187.247 236.044 187.257 236.589C187.256 237.133 187.253 237.818 187.203 238.563C187.146 239.31 187.059 240.001 186.907 240.541C186.87 240.675 186.835 240.801 186.803 240.917C186.759 241.03 186.717 241.135 186.68 241.228C186.602 241.413 186.53 241.551 186.47 241.635" fill="#A14130"/>
<path d="M190.176 227.676C190.057 227.424 190.059 226.606 190.197 225.642C190.332 224.689 190.559 223.899 190.747 223.67C190.867 223.921 190.865 224.739 190.727 225.704C190.592 226.656 190.364 227.447 190.176 227.676" fill="#A14130"/>
<path d="M176.888 241.941C176.705 241.719 176.489 240.921 176.367 239.956C176.246 239.001 176.257 238.188 176.38 237.929C176.563 238.151 176.778 238.948 176.9 239.914C177.021 240.868 177.011 241.681 176.888 241.941" fill="#A14130"/>
<path d="M197.02 236.415C197.033 236.183 197.159 235.701 197.372 235.06C197.427 234.9 197.486 234.73 197.548 234.551C197.623 234.377 197.702 234.195 197.784 234.006C197.952 233.628 198.139 233.225 198.341 232.807C198.541 232.391 198.74 231.995 198.931 231.628C199.028 231.445 199.121 231.269 199.211 231.101C199.292 230.931 199.37 230.771 199.443 230.619C199.741 230.014 199.995 229.569 200.156 229.374C200.142 229.607 200.015 230.089 199.803 230.731C199.749 230.891 199.689 231.061 199.628 231.239C199.552 231.413 199.473 231.595 199.391 231.784C199.223 232.162 199.036 232.565 198.835 232.984C198.634 233.399 198.436 233.795 198.244 234.162C198.147 234.346 198.053 234.522 197.965 234.689C197.883 234.859 197.805 235.02 197.732 235.171C197.434 235.776 197.181 236.221 197.02 236.415Z" fill="#A14130"/>
<path d="M209.849 236.172C209.866 236.003 209.973 235.657 210.19 235.224C210.401 234.786 210.708 234.26 211.048 233.697C211.377 233.13 211.696 232.618 211.909 232.197C211.968 232.092 212.023 231.994 212.074 231.904C212.12 231.812 212.162 231.729 212.2 231.653C212.28 231.502 212.354 231.388 212.416 231.317C212.429 231.402 212.426 231.532 212.406 231.701C212.396 231.785 212.383 231.88 212.365 231.982C212.336 232.083 212.304 232.19 212.271 232.306C212.14 232.774 211.861 233.325 211.526 233.903C211.18 234.475 210.823 234.98 210.531 235.374C210.231 235.766 210.006 236.057 209.849 236.172" fill="#A14130"/>
<path d="M201.724 243.213C201.694 243.077 201.727 242.802 201.815 242.439C201.853 242.255 201.922 242.056 202.018 241.846C202.108 241.634 202.21 241.408 202.326 241.177C202.838 240.268 203.446 239.598 203.72 239.449C203.708 239.734 203.307 240.49 202.812 241.369C202.699 241.593 202.588 241.807 202.477 242.003C202.361 242.198 202.259 242.38 202.178 242.545C202.004 242.873 201.843 243.111 201.724 243.213" fill="#A14130"/>
<path d="M160.524 297.349C160.438 296.984 160.543 295.827 160.802 294.47C161.022 293.105 161.315 291.97 161.523 291.644C161.62 292.004 161.553 293.167 161.332 294.535C161.072 295.902 160.741 297.033 160.524 297.349" fill="#7B2C2A"/>
<path d="M166.512 304.39C166.43 303.912 166.556 302.333 166.844 300.465C167.172 298.612 167.56 297.068 167.795 296.621C167.866 297.103 167.702 298.676 167.374 300.534C167.087 302.388 166.738 303.935 166.512 304.39" fill="#7B2C2A"/>
<path d="M182.621 303.054C182.472 302.393 182.372 300.17 182.389 297.53C182.381 296.87 182.38 296.237 182.385 295.648C182.39 295.354 182.394 295.07 182.398 294.8C182.396 294.529 182.394 294.272 182.392 294.031C182.39 293.066 182.419 292.344 182.478 292.009C182.573 292.334 182.677 293.052 182.775 294.02C182.797 294.262 182.82 294.519 182.845 294.79C182.856 295.061 182.868 295.346 182.88 295.641C182.901 296.232 182.916 296.868 182.924 297.53C182.908 300.176 182.78 302.392 182.621 303.054" fill="#7B2C2A"/>
<path d="M202.58 300.869C202.323 300.566 201.871 299.477 201.416 298.15C200.966 296.817 200.806 295.645 200.869 295.286C201.11 295.601 201.486 296.704 201.932 298.026C202.386 299.35 202.623 300.505 202.58 300.869" fill="#7B2C2A"/>
<path d="M204.86 292.737C204.566 292.396 203.989 291.174 203.354 289.683C203.21 289.304 203.08 288.938 202.965 288.596C202.909 288.425 202.855 288.26 202.804 288.103C202.771 287.941 202.74 287.787 202.711 287.642C202.603 287.061 202.556 286.629 202.58 286.425C202.707 286.607 202.886 287.015 203.084 287.562C203.131 287.699 203.181 287.845 203.235 287.999C203.299 288.15 203.368 288.309 203.438 288.473C203.577 288.804 203.719 289.16 203.859 289.535C204.492 291.017 204.864 292.325 204.86 292.737" fill="#7B2C2A"/>
<path d="M181.55 309.81C181.369 309.807 181.193 309.803 181.013 309.798C180.919 308.324 180.93 307.076 181.053 306.696C181.235 307.064 181.45 308.305 181.55 309.81" fill="#7B2C2A"/>
<path d="M181.196 313.008C181.133 312.811 181.097 312.396 181.091 311.848C181.091 311.711 181.09 311.565 181.089 311.412C181.079 311.258 181.068 311.097 181.057 310.929C181.037 310.594 181.024 310.235 181.017 309.86C181.016 309.84 181.015 309.819 181.013 309.798C181.193 309.803 181.369 309.806 181.55 309.81C181.55 309.82 181.551 309.831 181.552 309.841C181.56 310.222 181.559 310.589 181.552 310.929C181.547 311.099 181.542 311.262 181.537 311.419C181.521 311.575 181.495 311.723 181.474 311.862C181.385 312.419 181.286 312.827 181.196 313.008Z" fill="#CEA732"/>
<path d="M207.141 312.158C206.942 312.037 206.648 311.538 206.481 310.885C206.325 310.224 206.433 309.646 206.571 309.488C206.742 309.654 206.859 310.174 207.006 310.794C207.165 311.415 207.239 311.964 207.141 312.158Z" fill="#CEA732"/>
<path d="M160.097 313.13C159.98 312.885 159.989 312.085 160.138 311.143C160.333 310.215 160.609 309.453 160.809 309.245C160.912 309.501 160.86 310.293 160.665 311.218C160.521 312.141 160.287 312.906 160.097 313.13Z" fill="#CEA732"/>
<path d="M169.791 265.183C169.565 264.779 169.188 263.375 168.939 261.671C168.891 261.243 168.854 260.831 168.825 260.449C168.813 260.257 168.8 260.073 168.789 259.897C168.787 259.72 168.794 259.552 168.798 259.395C168.82 258.763 168.867 258.295 168.936 258.082C169.021 258.295 169.108 258.759 169.181 259.378C169.199 259.533 169.216 259.698 169.236 259.871C169.262 260.044 169.29 260.225 169.318 260.414C169.373 260.791 169.424 261.196 169.471 261.619C169.717 263.307 169.869 264.739 169.791 265.183" fill="#A14130"/>
<path d="M183.049 271.373C182.857 271.037 182.615 269.876 182.462 268.481C182.308 267.087 182.292 265.907 182.407 265.546C182.6 265.884 182.842 267.044 182.994 268.438C183.148 269.831 183.164 271.011 183.049 271.373" fill="#A14130"/>
<path d="M196.52 264.454C196.328 264.05 196.086 262.668 195.933 261.012C195.78 259.357 195.764 257.96 195.879 257.535C196.071 257.939 196.314 259.321 196.467 260.976C196.62 262.631 196.636 264.028 196.52 264.454Z" fill="#A14130"/>
<path d="M193.313 253.165C193.158 252.816 193.045 251.646 193.045 250.253C193.045 248.858 193.158 247.688 193.313 247.339C193.468 247.688 193.581 248.858 193.581 250.253C193.581 251.646 193.468 252.816 193.313 253.165Z" fill="#A14130"/>
<path d="M173.213 251.345C173.002 251.186 172.634 250.521 172.471 249.671C172.417 249.245 172.369 248.853 172.41 248.537C172.443 248.222 172.498 247.99 172.571 247.885C172.653 247.991 172.731 248.217 172.793 248.518C172.846 248.819 172.95 249.192 173.001 249.601C173.156 250.414 173.293 251.097 173.213 251.345" fill="#A14130"/>
<path d="M162.734 264.272C162.577 264.009 162.453 263.134 162.439 262.092C162.351 261.059 162.39 260.181 162.52 259.902C162.696 260.146 162.885 261.022 162.975 262.077C162.988 263.128 162.885 264.01 162.734 264.272" fill="#A14130"/>
<path d="M203.577 263.726C203.42 263.398 203.296 262.303 203.282 260.998C203.193 259.702 203.232 258.605 203.363 258.264C203.539 258.576 203.728 259.672 203.818 260.987C203.831 262.297 203.728 263.399 203.577 263.726" fill="#A14130"/>
<path d="M177.135 247.085L177.043 260.193C177.043 260.193 174.423 260.285 173.648 261.377C172.873 262.469 178.943 267.755 182.333 267.937C185.723 268.118 191.1 262.925 191.092 261.559C191.084 260.193 187.661 259.819 187.661 259.819L187.581 247.687L177.135 247.085Z" fill="#A8E2DA"/>
<path d="M155.87 254.834C155.87 254.834 162.273 250.558 174.308 250.946C174.308 250.946 176.324 259.695 166.846 261.153C157.367 262.611 155.87 254.834 155.87 254.834" fill="#FBCA3B"/>
<path d="M160.388 256.144C160.388 256.144 164.42 253.879 170.402 253.96C170.402 253.96 170.484 257.796 166.588 258.359C161.605 259.078 160.388 256.144 160.388 256.144Z" fill="#522B25"/>
<path d="M179.413 248.016C179.413 248.016 178.523 264.454 182.336 264.454C186.149 264.454 185.401 248.016 185.401 248.016C185.401 248.016 181.704 247.146 179.413 248.016Z" fill="#76D0BB"/>
<path d="M161.451 263.089L170.403 261.905V264.454L161.986 265.274L161.451 263.089Z" fill="white"/>
<path d="M208.826 254.834C208.826 254.834 202.424 250.558 190.389 250.946C190.389 250.946 188.373 259.695 197.851 261.153C207.329 262.611 208.826 254.834 208.826 254.834" fill="#FBCA3B"/>
<path d="M204.309 256.144C204.309 256.144 200.277 253.879 194.294 253.96C194.294 253.96 194.213 257.796 198.108 258.359C203.092 259.078 204.309 256.144 204.309 256.144Z" fill="#522B25"/>
<path d="M203.246 263.089L194.294 261.905V264.454L202.711 265.274L203.246 263.089" fill="white"/>
<path d="M179.732 280.313C179.732 280.313 174.49 294.861 174.924 296.135C175.358 297.41 189.657 297.834 190.563 295.68C191.061 294.496 186.591 280.313 186.591 280.313C186.591 280.313 182.476 278.492 179.732 280.313Z" fill="#A8E2DA"/>
<path d="M189.368 282.235C189.368 282.235 192.514 293.604 193.301 294.373C194.088 295.143 202.453 291.8 202.061 290.084C201.846 289.14 193.294 280.492 193.294 280.492C193.294 280.492 190.169 280.281 189.368 282.235" fill="#A8E2DA"/>
<path d="M176.756 282.478C176.756 282.478 173.611 293.847 172.824 294.616C172.036 295.386 163.671 292.044 164.063 290.327C164.278 289.383 172.83 280.735 172.83 280.735C172.83 280.735 175.955 280.525 176.756 282.478" fill="#A8E2DA"/>
<path d="M209.99 297.193C209.99 297.193 212.203 298.502 212.63 302.204L202.936 306.271C202.936 306.271 201.577 309.836 200.705 310.333C199.832 310.83 191.663 314.13 191.663 314.13L190.033 311.901L196.209 308.786L189.191 310.838L188.341 308.554L195.516 306.014L188.097 307.105L187.02 304.842L194.921 302.642L193.877 301.693L189.589 302.579C189.589 302.579 187.585 300.89 188.696 299.33L194.614 298.339L199.586 300.566L209.99 297.193" fill="#C74F39"/>
<path d="M209.708 298.441C209.708 298.441 211.347 300.201 211.276 301.719L202.075 305.178L199.444 304.571L200.727 302.083L209.708 298.441" fill="#A8E2DA"/>
<path d="M155.318 297.193C155.318 297.193 153.106 298.502 152.678 302.204L162.373 306.271C162.373 306.271 163.732 309.836 164.604 310.333C165.477 310.83 173.647 314.13 173.647 314.13L175.276 311.901L169.099 308.786L176.118 310.838L176.968 308.554L169.792 306.014L177.212 307.105L178.289 304.842L170.388 302.642L171.432 301.693L175.719 302.579C175.719 302.579 177.724 300.89 176.613 299.33L170.695 298.339L165.723 300.566L155.318 297.193" fill="#C74F39"/>
<path d="M155.602 298.441C155.602 298.441 153.962 300.201 154.033 301.719L163.235 305.178L165.865 304.571L164.582 302.083L155.602 298.441" fill="#A8E2DA"/>
<path d="M152.577 245.61C152.577 245.61 154.181 250.161 155.891 252.802C155.891 252.802 182.942 242.332 210.313 252.802C210.313 252.802 212.559 249.069 213.307 244.79C213.307 244.79 183.767 233.662 152.577 245.61" fill="#FBCA3B"/>
<path d="M161.955 247.205C161.934 247.861 161.122 248.376 160.351 248.358C159.579 248.341 158.8 247.79 158.82 247.133C158.842 246.477 159.659 245.793 160.43 245.811C161.202 245.828 161.976 246.548 161.955 247.205" fill="#F57830"/>
<path d="M168.113 245.61C168.092 246.267 167.28 246.781 166.509 246.763C165.737 246.746 164.958 246.196 164.978 245.538C164.999 244.883 165.817 244.198 166.588 244.215C167.36 244.233 168.133 244.953 168.113 245.61Z" fill="#F57830"/>
<path d="M173.924 244.655C173.903 245.313 173.091 245.827 172.32 245.809C171.548 245.792 170.769 245.241 170.789 244.584C170.81 243.928 171.628 243.243 172.399 243.262C173.171 243.279 173.945 243.999 173.924 244.655" fill="#F57830"/>
<path d="M179.916 244.335C179.896 244.992 179.084 245.507 178.312 245.49C177.54 245.472 176.761 244.921 176.782 244.264C176.803 243.608 177.62 242.924 178.392 242.941C179.163 242.959 179.937 243.679 179.916 244.335" fill="#F57830"/>
<path d="M185.209 244.335C185.188 244.992 184.376 245.507 183.604 245.49C182.832 245.472 182.054 244.921 182.074 244.264C182.095 243.608 182.912 242.924 183.684 242.941C184.455 242.959 185.23 243.679 185.209 244.335" fill="#F57830"/>
<path d="M191.092 244.335C191.071 244.992 190.259 245.507 189.487 245.49C188.715 245.472 187.936 244.921 187.957 244.264C187.978 243.608 188.795 242.924 189.567 242.941C190.338 242.959 191.112 243.679 191.092 244.335" fill="#F57830"/>
<path d="M196.591 244.655C196.57 245.313 195.758 245.827 194.987 245.809C194.215 245.792 193.436 245.241 193.456 244.584C193.477 243.928 194.295 243.243 195.066 243.262C195.838 243.279 196.612 243.999 196.591 244.655" fill="#F57830"/>
<path d="M202.437 245.61C202.416 246.267 201.604 246.782 200.832 246.764C200.06 246.747 199.281 246.196 199.302 245.539C199.323 244.883 200.14 244.198 200.912 244.216C201.683 244.233 202.457 244.954 202.437 245.61" fill="#F57830"/>
<path d="M207.957 247.152C207.967 247.809 207.179 248.35 206.407 248.359C205.635 248.367 204.831 247.843 204.821 247.186C204.811 246.53 205.596 245.818 206.368 245.81C207.14 245.802 207.947 246.495 207.957 247.152" fill="#F57830"/>
<path d="M206.331 221.048L207.77 221.355L207.345 219.628C208.22 218.504 209.164 217.51 210.095 216.647L211.018 217.528L211.14 215.727C213.629 213.64 215.76 212.56 215.76 212.56C215.014 213.472 215.566 215.414 215.056 217.121L213.652 218.413L215.066 218.507C215.068 219.796 215.028 221.249 214.822 222.866L213.179 223.674L214.533 224.623C214.5 224.789 214.474 224.952 214.436 225.12C213.021 231.667 204.33 235.579 204.33 235.579C202.445 229.63 203.904 224.756 206.331 221.048Z" fill="#FBCA3B"/>
<path d="M211.912 218.533C211.442 219.347 210.221 222.155 208.719 225.494C208.365 226.337 208.024 227.145 207.708 227.898C207.554 228.275 207.406 228.639 207.265 228.985C207.142 229.337 207.025 229.671 206.914 229.986C206.483 231.247 206.188 232.189 206.089 232.63C206.31 232.218 206.71 231.304 207.214 230.07C207.339 229.761 207.472 229.433 207.612 229.088C207.765 228.746 207.925 228.387 208.092 228.014C208.417 227.266 208.767 226.463 209.131 225.626C210.633 222.287 211.684 219.41 211.912 218.533" fill="#D7A628"/>
<path d="M211.798 227.283C211.521 227.257 210.693 227.442 209.76 227.74C209.526 227.805 209.301 227.868 209.093 227.934C208.886 228 208.696 228.067 208.523 228.103C208.179 228.19 207.92 228.279 207.802 228.352C207.931 228.386 208.21 228.391 208.59 228.365C208.784 228.359 208.989 228.317 209.208 228.266C209.428 228.216 209.666 228.161 209.908 228.092C210.858 227.79 211.605 227.461 211.798 227.283" fill="#D7A628"/>
<path d="M206.888 224.658C206.816 224.896 206.902 225.658 207.114 226.548C207.338 227.43 207.621 228.152 207.802 228.352C207.87 228.111 207.769 227.352 207.543 226.468C207.335 225.588 207.067 224.862 206.888 224.658Z" fill="#D7A628"/>
<path d="M213.168 221.255C212.962 221.216 212.399 221.346 211.772 221.587C211.151 221.81 210.662 222.068 210.542 222.227C210.738 222.274 211.313 222.159 211.955 221.928C212.576 221.689 213.062 221.415 213.168 221.255" fill="#D7A628"/>
<path d="M210.199 219.505C210.095 219.669 210.076 220.191 210.163 220.802C210.294 221.413 210.501 221.91 210.656 222.032C210.747 221.854 210.725 221.341 210.599 220.749C210.513 220.144 210.348 219.646 210.199 219.505" fill="#D7A628"/>
<path d="M160.617 221.345L159.178 221.652L159.604 219.925C158.729 218.801 157.784 217.807 156.853 216.945L155.931 217.824L155.808 216.024C153.32 213.937 151.188 212.857 151.188 212.857C151.934 213.769 151.383 215.71 151.892 217.418L153.296 218.711L151.882 218.804C151.88 220.093 151.92 221.545 152.126 223.163L153.769 223.97L152.415 224.919C152.448 225.085 152.474 225.249 152.512 225.418C153.927 231.963 162.617 235.876 162.617 235.876C164.504 229.927 163.044 225.052 160.617 221.345" fill="#FBCA3B"/>
<path d="M155.036 218.83C155.507 219.643 156.727 222.452 158.23 225.791C158.583 226.633 158.924 227.442 159.24 228.195C159.394 228.572 159.542 228.935 159.683 229.282C159.806 229.634 159.923 229.968 160.034 230.283C160.465 231.543 160.76 232.486 160.859 232.927C160.638 232.515 160.238 231.601 159.735 230.367C159.609 230.058 159.476 229.73 159.336 229.385C159.183 229.043 159.023 228.684 158.857 228.311C158.531 227.563 158.181 226.76 157.817 225.922C156.315 222.584 155.265 219.707 155.036 218.83Z" fill="#D7A628"/>
<path d="M155.15 227.579C155.428 227.554 156.256 227.739 157.188 228.036C157.422 228.102 157.647 228.165 157.854 228.23C158.062 228.297 158.252 228.364 158.425 228.399C158.769 228.487 159.028 228.576 159.146 228.649C159.017 228.683 158.738 228.688 158.358 228.661C158.164 228.656 157.96 228.613 157.74 228.563C157.52 228.513 157.282 228.457 157.04 228.389C156.09 228.087 155.343 227.757 155.15 227.579Z" fill="#D7A628"/>
<path d="M160.06 224.955C160.132 225.193 160.046 225.955 159.835 226.845C159.61 227.727 159.327 228.449 159.146 228.649C159.078 228.408 159.18 227.649 159.405 226.765C159.614 225.885 159.882 225.16 160.06 224.955Z" fill="#D7A628"/>
<path d="M153.78 221.552C153.985 221.512 154.548 221.643 155.176 221.884C155.797 222.107 156.286 222.365 156.406 222.524C156.209 222.571 155.635 222.456 154.993 222.225C154.372 221.985 153.887 221.711 153.78 221.552" fill="#D7A628"/>
<path d="M156.749 219.802C156.853 219.966 156.873 220.488 156.785 221.099C156.655 221.71 156.447 222.207 156.292 222.33C156.202 222.151 156.222 221.638 156.349 221.045C156.436 220.441 156.601 219.943 156.749 219.802" fill="#D7A628"/>
<path d="M189.067 213.612L187.224 213.4L188.661 211.557C188.255 209.902 187.696 208.371 187.082 206.999L185.529 207.659L186.368 205.514C184.607 202.101 182.714 200 182.714 200C183.085 201.357 181.385 203.4 181.048 205.59L181.977 207.65L180.28 207.2C179.575 208.701 178.83 210.407 178.188 212.372L179.661 213.962L177.568 214.532C177.514 214.739 177.456 214.94 177.409 215.151C175.488 223.333 183.476 231.323 183.476 231.323C188.915 225.141 189.873 218.888 189.067 213.612" fill="#FBCA3B"/>
<path d="M183.939 208.477C184.043 209.609 183.934 213.363 183.863 217.845C183.816 218.966 183.772 220.042 183.73 221.043C183.703 221.543 183.677 222.026 183.653 222.485C183.604 222.943 183.559 223.379 183.516 223.79C183.331 225.428 183.161 226.641 183.036 227.194C183.003 226.627 183.035 225.405 183.121 223.768C183.143 223.36 183.168 222.924 183.193 222.467C183.202 222.008 183.21 221.528 183.22 221.028C183.248 220.028 183.28 218.954 183.311 217.836C183.382 213.354 183.727 209.588 183.939 208.477" fill="#D7A628"/>
<path d="M179.302 218.712C179.639 218.791 180.503 219.334 181.426 220.049C181.664 220.218 181.891 220.38 182.097 220.538C182.303 220.697 182.487 220.851 182.67 220.961C183.022 221.198 183.274 221.403 183.373 221.535C183.204 221.524 182.876 221.42 182.448 221.239C182.225 221.156 182.011 221.026 181.782 220.879C181.553 220.734 181.306 220.576 181.062 220.401C180.12 219.673 179.429 218.994 179.302 218.712Z" fill="#D7A628"/>
<path d="M186.451 217.594C186.405 217.902 185.889 218.754 185.157 219.706C184.415 220.646 183.692 221.374 183.373 221.535C183.426 221.227 183.957 220.384 184.701 219.444C185.424 218.501 186.132 217.763 186.451 217.594Z" fill="#D7A628"/>
<path d="M180.993 211.15C181.253 211.186 181.838 211.56 182.437 212.089C183.038 212.594 183.467 213.087 183.52 213.321C183.267 213.297 182.659 212.936 182.038 212.414C181.445 211.889 181.029 211.378 180.993 211.15" fill="#D7A628"/>
<path d="M185.403 210.286C185.435 210.517 185.174 211.133 184.738 211.81C184.253 212.47 183.741 212.967 183.493 213.049C183.486 212.805 183.79 212.216 184.261 211.576C184.69 210.907 185.154 210.391 185.403 210.286Z" fill="#D7A628"/>
<path d="M188.934 230.931C188.934 231.66 184.658 235.574 183.856 235.574C182.733 235.574 178.349 232.024 178.349 230.931C178.349 230.021 182.626 226.289 183.856 226.289C184.871 226.289 188.934 229.93 188.934 230.931Z" fill="#A8E2DA"/>
<path d="M208.021 236.603C207.818 237.154 203.492 239.257 202.885 239.095C202.036 238.869 199.703 235.298 200.007 234.471C200.259 233.783 204.534 231.817 205.464 232.065C206.233 232.27 208.299 235.845 208.021 236.603" fill="#A8E2DA"/>
<path d="M158.077 237.186C158.28 237.737 162.605 239.84 163.212 239.678C164.061 239.451 166.394 235.881 166.091 235.054C165.838 234.365 161.563 232.4 160.633 232.648C159.864 232.852 157.799 236.427 158.077 237.186Z" fill="#A8E2DA"/>
<path d="M186.754 230.931C186.754 231.36 184.239 233.662 183.767 233.662C183.107 233.662 180.528 231.574 180.528 230.931C180.528 230.396 183.044 228.2 183.767 228.2C184.365 228.2 186.754 230.342 186.754 230.931Z" fill="#76D0BB"/>
<path d="M206.37 236.164C206.251 236.489 203.707 237.726 203.35 237.63C202.849 237.497 201.478 235.397 201.657 234.911C201.805 234.505 204.32 233.349 204.867 233.495C205.32 233.615 206.533 235.718 206.37 236.164" fill="#76D0BB"/>
<path d="M159.727 236.747C159.847 237.071 162.39 238.308 162.747 238.213C163.248 238.08 164.619 235.979 164.441 235.493C164.292 235.088 161.778 233.931 161.23 234.077C160.778 234.198 159.564 236.3 159.727 236.747Z" fill="#76D0BB"/>
<path d="M181.109 279.944C181.109 279.944 178.261 291.548 178.497 292.241C178.733 292.935 186.511 293.166 187.003 291.994C187.274 291.35 184.839 279.944 184.839 279.944C184.839 279.944 182.601 278.954 181.109 279.944Z" fill="#76D0BB"/>
<path d="M191.125 282.77C191.125 282.77 193.429 290.088 193.799 290.425C194.168 290.763 198.682 288.985 198.567 288.197C198.504 287.763 193.253 281.854 193.253 281.854C193.253 281.854 191.641 281.839 191.125 282.77" fill="#76D0BB"/>
<path d="M175.209 282.77C175.209 282.77 172.905 290.088 172.535 290.425C172.166 290.763 167.651 288.985 167.767 288.197C167.83 287.763 173.081 281.854 173.081 281.854C173.081 281.854 174.693 281.839 175.209 282.77Z" fill="#76D0BB"/>
<path d="M182.637 278.75C183.313 278.75 186.842 278.946 191.323 282.635C191.665 282.916 192.708 283.245 194.527 283.245C197.502 283.245 200.674 282.396 201.502 281.879C202.363 280.091 203.378 271.894 203.092 269.41C201.936 269.112 199.213 268.771 196.567 268.771C194.715 268.771 193.888 268.94 193.618 269.013C193.007 269.177 192.403 269.609 191.638 270.152C189.864 271.416 187.436 273.146 182.613 273.146C177.79 273.146 175.361 271.416 173.588 270.152C172.824 269.609 172.219 269.177 171.608 269.013C171.338 268.94 170.511 268.771 168.66 268.771C166.014 268.771 163.289 269.112 162.135 269.41C161.848 271.896 162.864 280.104 163.727 281.884C164.485 282.354 167.531 283.179 170.628 283.179C172.493 283.179 173.587 282.864 173.99 282.568C178.828 279.025 181.788 278.75 182.58 278.75L182.637 278.75ZM194.339 285.562C191.758 285.562 189.835 285.126 188.622 284.265C185.023 281.711 182.38 281.659 182.353 281.659L182.261 281.661C181.938 281.683 179.763 281.926 175.964 284.323C174.722 285.107 172.803 285.504 170.261 285.504C167.271 285.504 162.268 284.848 160.506 283.388C160.146 283.089 159.049 282.18 158.169 275.91C157.277 269.547 158.175 268.495 158.513 268.099C159.027 267.497 159.923 267.053 162.796 266.701C164.498 266.493 166.497 266.374 168.277 266.374C169.994 266.374 171.338 266.484 172.272 266.701C173.567 267.001 174.558 267.611 175.517 268.198C177.098 269.169 178.732 270.172 182.336 270.172C185.94 270.172 187.575 269.169 189.156 268.198C190.114 267.611 191.106 267.001 192.401 266.701C193.335 266.484 194.679 266.374 196.395 266.374C198.176 266.374 200.174 266.493 201.877 266.701C204.75 267.053 205.646 267.497 206.16 268.099C206.498 268.495 207.396 269.547 206.503 275.91C205.624 282.18 204.527 283.089 204.167 283.388C202.546 284.731 197.804 285.562 194.339 285.562Z" fill="#F0384B"/>
<path d="M182.637 278.75C183.313 278.751 186.842 278.947 191.323 282.635C191.665 282.916 192.709 283.245 194.527 283.245C197.502 283.245 200.674 282.397 201.502 281.879C202.364 280.091 203.378 271.894 203.092 269.41C201.936 269.112 199.213 268.771 196.567 268.771C194.716 268.771 193.888 268.94 193.618 269.013C193.007 269.178 192.403 269.609 191.638 270.153C189.865 271.416 187.436 273.146 182.613 273.146C177.79 273.146 175.361 271.416 173.588 270.153C172.824 269.609 172.219 269.178 171.608 269.013C171.338 268.94 170.511 268.771 168.66 268.771C166.014 268.771 163.289 269.112 162.135 269.41C161.848 271.896 162.864 280.104 163.727 281.884C164.485 282.354 167.531 283.179 170.628 283.179C172.493 283.179 173.587 282.864 173.99 282.568C178.828 279.025 181.788 278.75 182.58 278.75L182.637 278.75" fill="#522B25"/>
<path d="M201.33 268.508C201.446 269.874 201.214 272.284 198.781 272.192C196.579 272.192 195.884 269.826 195.304 268.551C195.304 270.008 195.536 272.921 193.45 273.285C190.596 273.784 189.279 272.466 188.816 270.827C188.584 272.284 189.016 274.237 187.193 274.833C183.717 275.968 183.138 273.831 181.979 272.647C181.979 272.647 181.828 275.46 178.271 275.227C176.881 275.136 175.722 272.738 175.722 271.464C173.636 275.968 169.232 273.285 169.349 268.733C169.465 270.19 168.538 272.921 165.988 272.375C164.019 271.919 164.134 269.553 164.134 268.278C164.134 268.278 169.684 266.603 172.357 267.941C175.03 269.28 181.998 275.657 191.825 268.508C193.741 267.731 201.33 268.508 201.33 268.508" fill="white"/>
<path d="M201.353 284.086C201.353 282.811 201.469 280.444 199.499 279.989C196.949 279.443 196.022 282.174 196.138 283.63C196.254 279.079 191.851 276.395 189.765 280.899C189.765 279.625 188.606 277.227 187.216 277.136C183.659 276.903 183.508 279.716 183.508 279.716C182.349 278.533 181.77 276.395 178.293 277.531C176.471 278.126 176.903 280.08 176.671 281.536C176.208 279.898 174.891 278.58 172.036 279.079C169.95 279.443 170.182 282.356 170.182 283.813C169.603 282.538 168.907 280.171 166.705 280.171C164.273 280.08 164.041 282.49 164.156 283.855C164.156 283.855 172.678 286.03 178.986 281.114C181.873 279.84 186.791 281.205 189.891 283.117C192.992 285.029 201.353 284.086 201.353 284.086" fill="white"/>
</g>
</g>
<defs>
<filter id="filter0_b_188_7084" x="-84" y="-4" width="528" height="497" filterUnits="userSpaceOnUse" color-interpolation-filters="sRGB">
<feFlood flood-opacity="0" result="BackgroundImageFix"/>
<feGaussianBlur in="BackgroundImage" stdDeviation="2"/>
<feComposite in2="SourceAlpha" operator="in" result="effect1_backgroundBlur_188_7084"/>
<feBlend mode="normal" in="SourceGraphic" in2="effect1_backgroundBlur_188_7084" result="shape"/>
</filter>
<filter id="filter1_f_188_7084" x="-122.971" y="-23.8765" width="611.25" height="540.248" filterUnits="userSpaceOnUse" color-interpolation-filters="sRGB">
<feFlood flood-opacity="0" result="BackgroundImageFix"/>
<feBlend mode="normal" in="SourceGraphic" in2="BackgroundImageFix" result="shape"/>
<feGaussianBlur stdDeviation="2" result="effect1_foregroundBlur_188_7084"/>
</filter>
</defs>
</svg>
