<svg width="132" height="135" viewBox="0 0 132 135" fill="none" xmlns="http://www.w3.org/2000/svg">
<g filter="url(#filter0_d_103_5921)">
<path d="M100.631 75.6435C99.8248 76.7033 98.8769 79.6177 98.2892 83.0513C97.7011 86.4831 97.6543 89.3863 98.1008 90.4316C98.9075 89.3715 99.8562 86.4552 100.444 83.0238C101.032 79.5916 101.079 76.6874 100.631 75.6435Z" fill="#51843E"/>
<path d="M106.827 70.7771C106.021 71.8377 105.072 74.7521 104.485 78.1846C103.897 81.6175 103.851 84.5203 104.297 85.5649C105.103 84.5055 106.053 81.5904 106.64 78.1578C107.227 74.7253 107.274 71.8214 106.827 70.7771Z" fill="#51843E"/>
<path d="M88.2052 90.1553C83.7651 86.0152 83.3454 80.7676 84.9852 77.4118C86.6241 74.0557 89.1063 73.3384 89.4932 74.0557C89.4932 74.0557 91.7466 79.8584 93.6624 78.7638C95.5785 77.6689 95.0721 74.517 92.6618 74.1585C92.6618 74.1585 93.3545 70.4113 97.9182 71.5551C97.9182 71.5551 98.2916 74.7527 101.171 74.2128C102.926 73.8833 101.541 70.7299 100.241 70.8672C100.241 70.8672 111.625 68.3304 113.903 70.3899C116.647 72.8688 111.711 80.5311 111.711 80.5311C111.043 79.5213 108.3 78.1465 107.734 80.1426C107.045 82.5831 110.587 82.9991 110.587 82.9991C111.658 86.9458 107.224 87.3122 107.224 87.3122C106.946 85.2418 103.279 84.6263 101.884 86.1894C100.487 87.7532 107.156 90.0123 107.156 90.0123C107.975 90.3823 106.987 92.4509 102.956 93.6458C98.9256 94.8406 92.0175 93.5998 88.2052 90.1553Z" fill="#8FCD3C"/>
<path d="M111.609 72.8147C110.34 73.8467 105.876 77.079 100.493 80.8689C99.122 81.7915 97.8063 82.6771 96.5812 83.5005C95.968 83.9093 95.3752 84.3032 94.8113 84.678C94.2287 85.0321 93.6746 85.3703 93.1537 85.6878C91.0678 86.9501 89.4999 87.8697 88.76 88.2651C89.4276 87.7799 90.9283 86.7831 92.964 85.4699C93.4717 85.1418 94.0148 84.7935 94.5838 84.4263C95.1391 84.0425 95.7226 83.6413 96.3264 83.2239C97.5422 82.3947 98.8499 81.504 100.211 80.5752C105.59 76.7879 110.18 73.6765 111.609 72.8147Z" fill="#76A633"/>
<path d="M93.3463 80.4914C93.5084 80.7492 93.721 81.6563 93.8379 82.7407C93.9098 83.2798 93.9357 83.7799 93.9689 84.1767C93.9983 84.5725 93.9966 84.8734 93.9566 85.0186C93.8703 84.894 93.7618 84.6069 93.6513 84.2133C93.5398 83.8201 93.4663 83.3215 93.3948 82.7773C93.277 81.6903 93.2532 80.7778 93.3463 80.4914Z" fill="#76A633"/>
<path d="M99.5365 87.3511C99.1469 87.3 98.0017 86.8673 96.6831 86.2905C96.015 86.0208 95.423 85.7286 94.9366 85.5262C94.4548 85.3136 94.1043 85.1344 93.9568 85.0204C94.1511 85.0312 94.5458 85.1235 95.0667 85.2767C95.5906 85.4212 96.2085 85.679 96.8846 85.9502C98.2127 86.5328 99.2681 87.1067 99.5365 87.3511Z" fill="#76A633"/>
<path d="M104.195 81.9663C103.903 82.0449 102.95 82.0529 101.825 81.8892C101.265 81.8034 100.754 81.6854 100.363 81.5391C99.9698 81.4033 99.7159 81.2226 99.6211 81.1278C99.7835 81.1296 100.064 81.215 100.463 81.2806C100.855 81.3566 101.356 81.4319 101.903 81.5145C103 81.6745 103.93 81.8269 104.195 81.9663Z" fill="#76A633"/>
<path d="M98.859 77.146C99.0057 77.3813 99.1307 78.1808 99.2519 79.1219C99.3165 79.5926 99.3761 80.0224 99.4428 80.3598C99.4968 80.7031 99.5793 80.9457 99.5708 81.084C99.4658 80.9989 99.2693 80.7719 99.1333 80.429C98.9853 80.0897 98.876 79.6469 98.8084 79.1657C98.6834 78.2011 98.7493 77.3908 98.859 77.146Z" fill="#76A633"/>
<path d="M107.398 72.6013C107.523 72.8026 107.604 73.4551 107.59 74.2274C107.609 75.0026 107.528 75.6569 107.405 75.8535C107.272 75.6627 107.162 75.0091 107.144 74.2296C107.158 73.446 107.266 72.7914 107.398 72.6013Z" fill="#76A633"/>
<path d="M111.071 75.9204C110.841 76.0222 110.067 76.0754 109.147 76.0406C108.234 75.9791 107.475 75.8477 107.259 75.7231C107.497 75.63 108.269 75.6004 109.177 75.6615C110.084 75.6952 110.843 75.8028 111.071 75.9204Z" fill="#76A633"/>
<path d="M88.2895 55.4149C85.9417 51.6912 86.7717 47.7894 88.6977 45.5941C90.6224 43.3981 92.593 43.2638 92.7201 43.8493C92.7201 43.8493 93.1096 48.4452 94.7477 47.9459C96.3853 47.4465 96.6979 45.0633 95.0147 44.4224C95.0147 44.4224 96.3326 41.7915 99.4207 43.3449C99.4207 43.3449 99.0006 45.7408 101.222 45.7991C102.576 45.8338 102.247 43.3116 101.268 43.2077C101.268 43.2077 110.139 43.1418 111.357 45.0054C112.826 47.2485 107.557 52.0736 107.557 52.0736C107.288 51.2303 105.58 49.7943 104.735 51.1648C103.701 52.8405 106.2 53.7012 106.2 53.7012C106.128 56.7546 102.808 56.3252 102.808 56.3252C103.054 54.7678 100.507 53.7424 99.1482 54.665C97.7874 55.5894 102.173 58.2884 102.173 58.2884C102.691 58.6878 101.521 60.0445 98.3151 60.2842C95.1104 60.5242 90.3294 58.5317 88.2895 55.4149Z" fill="#8FCD3C"/>
<path d="M109.155 46.4214C108.003 46.9765 104.04 48.6374 99.2833 50.5611C98.0811 51.0206 96.9278 51.4613 95.8528 51.8708C95.3166 52.0725 94.7982 52.2669 94.3049 52.453C93.8018 52.6207 93.3239 52.78 92.8744 52.9306C91.076 53.5255 89.7305 53.952 89.1041 54.124C89.6969 53.8745 91.0097 53.3814 92.7825 52.7412C93.2244 52.5816 93.6972 52.4125 94.1922 52.2329C94.6817 52.0402 95.1949 51.8386 95.7269 51.6286C96.796 51.2125 97.945 50.7675 99.1404 50.3026C103.893 48.3789 107.923 46.8259 109.155 46.4214Z" fill="#76A633"/>
<path d="M94.1401 49.1613C94.2018 49.3752 94.1614 50.0712 94.0113 50.883C93.9475 51.2885 93.8578 51.6582 93.7961 51.9526C93.7315 52.2469 93.6651 52.4667 93.6047 52.5659C93.5686 52.4613 93.5511 52.2346 93.5567 51.9294C93.5601 51.6241 93.6141 51.2487 93.6796 50.8395C93.8288 50.027 94.0091 49.3564 94.1401 49.1613Z" fill="#76A633"/>
<path d="M97.1789 55.147C96.9059 55.0485 96.1625 54.5524 95.3235 53.9231C94.8936 53.6212 94.5241 53.3152 94.2124 53.09C93.9066 52.8586 93.6889 52.6725 93.606 52.566C93.7454 52.6055 94.0138 52.7344 94.3616 52.9285C94.7133 53.1161 95.1096 53.4014 95.5442 53.7059C96.3888 54.3406 97.0364 54.9257 97.1789 55.147Z" fill="#76A633"/>
<path d="M101.752 51.9447C101.521 51.9556 100.823 51.8111 100.036 51.5153C99.6449 51.3647 99.2967 51.1974 99.0432 51.0298C98.7851 50.8686 98.6388 50.6963 98.5895 50.6126C98.7085 50.6394 98.8944 50.7455 99.1721 50.8567C99.4421 50.9733 99.7921 51.1069 100.174 51.2535C100.94 51.5432 101.588 51.8003 101.752 51.9447Z" fill="#76A633"/>
<path d="M98.8953 47.5823C98.9523 47.7768 98.8707 48.3811 98.7546 49.0879C98.6997 49.4416 98.6504 49.7657 98.6266 50.0224C98.5913 50.2831 98.599 50.4725 98.5624 50.5728C98.5046 50.4935 98.4101 50.2972 98.3846 50.0246C98.3502 49.7534 98.3659 49.413 98.4216 49.0498C98.539 48.3257 98.7627 47.7434 98.8953 47.5823Z" fill="#76A633"/>
<path d="M106.121 45.6024C106.169 45.7694 106.087 46.2589 105.91 46.8212C105.755 47.3908 105.554 47.8564 105.421 47.981C105.366 47.8206 105.427 47.3256 105.583 46.7531C105.763 46.1825 105.984 45.7201 106.121 45.6024Z" fill="#76A633"/>
<path d="M108.088 48.6033C107.898 48.641 107.32 48.5584 106.655 48.3882C106.001 48.2 105.475 47.9845 105.344 47.86C105.539 47.8285 106.109 47.9291 106.76 48.1163C107.416 48.2832 107.947 48.4817 108.088 48.6033Z" fill="#76A633"/>
<path d="M80.2534 72.1801L89.059 73.9634L89.1441 73.7856L80.3414 72.0031L80.2534 72.1801Z" fill="#51843E"/>
<path d="M87.6812 56.8606C86.8715 57.4751 85.5401 59.3742 84.3469 61.6984C83.1528 64.0222 82.4596 66.0626 82.5378 66.8726C83.3462 66.2577 84.6785 64.3583 85.8722 62.0351C87.0676 59.7106 87.759 57.6702 87.6812 56.8606Z" fill="#51843E"/>
<path d="M80.0797 71.8925L83.4664 64.7435L83.6867 64.7873L80.3008 71.9355L80.0797 71.8925Z" fill="#51843E"/>
<path d="M92.9385 54.5441C92.1284 55.1589 90.7978 57.0577 89.6033 59.3819C88.4092 61.7065 87.7161 63.7461 87.7939 64.5571C88.6036 63.9412 89.935 62.041 91.1287 59.7183C92.3232 57.3944 93.0168 55.3537 92.9385 54.5441Z" fill="#51843E"/>
<path d="M85.3379 69.58L88.7241 62.431L88.9444 62.473L85.5582 69.623L85.3379 69.58Z" fill="#51843E"/>
<path d="M90.7522 116.063C86.9343 110.166 88.1761 103.937 91.1974 100.41C94.2188 96.8836 97.3555 96.6399 97.5698 97.5712C97.5698 97.5712 98.2863 104.886 100.885 104.067C103.484 103.246 103.933 99.4442 101.236 98.4478C101.236 98.4478 103.282 94.2382 108.234 96.6656C108.234 96.6656 107.614 100.49 111.156 100.549C113.312 100.584 112.736 96.57 111.173 96.4191C111.173 96.4191 125.304 96.1819 127.286 99.1318C129.672 102.682 121.378 110.449 121.378 110.449C120.931 109.109 118.181 106.847 116.862 109.044C115.252 111.729 119.251 113.062 119.251 113.062C119.199 117.926 113.9 117.294 113.9 117.294C114.258 114.81 110.181 113.213 108.034 114.706C105.886 116.197 112.93 120.431 112.93 120.431C113.764 121.059 111.928 123.238 106.825 123.669C101.724 124.1 94.0666 120.997 90.7522 116.063Z" fill="#8FCD3C"/>
<path d="M123.805 101.413C121.982 102.315 115.703 105.02 108.164 108.159C106.259 108.908 104.43 109.627 102.728 110.295C101.876 110.625 101.055 110.944 100.273 111.246C99.4757 111.522 98.7166 111.783 98.0051 112.03C95.1513 113.004 93.0161 113.703 92.0215 113.988C92.9613 113.581 95.0429 112.776 97.8533 111.729C98.5563 111.468 99.3039 111.191 100.09 110.899C100.865 110.584 101.678 110.254 102.523 109.912C104.216 109.234 106.036 108.507 107.932 107.748C115.463 104.612 121.85 102.077 123.805 101.413Z" fill="#76A633"/>
<path d="M99.9433 106.007C100.047 106.347 99.9969 107.457 99.7758 108.751C99.6814 109.398 99.547 109.99 99.4534 110.459C99.3582 110.929 99.2557 111.28 99.1625 111.439C99.1022 111.273 99.0707 110.913 99.0715 110.427C99.0715 109.94 99.1498 109.341 99.2446 108.688C99.4666 107.39 99.7396 106.319 99.9433 106.007Z" fill="#76A633"/>
<path d="M104.909 115.498C104.472 115.345 103.276 114.566 101.927 113.576C101.235 113.103 100.64 112.619 100.14 112.266C99.6475 111.902 99.2975 111.609 99.1627 111.441C99.3864 111.501 99.8159 111.703 100.373 112.006C100.938 112.301 101.574 112.749 102.274 113.228C103.633 114.225 104.676 115.147 104.909 115.498Z" fill="#76A633"/>
<path d="M112.127 110.326C111.759 110.347 110.643 110.128 109.384 109.668C108.758 109.435 108.199 109.173 107.792 108.909C107.378 108.657 107.14 108.385 107.061 108.252C107.251 108.293 107.55 108.459 107.994 108.631C108.427 108.814 108.987 109.022 109.598 109.25C110.826 109.698 111.863 110.1 112.127 110.326Z" fill="#76A633"/>
<path d="M107.487 103.42C107.58 103.728 107.461 104.693 107.293 105.821C107.214 106.386 107.141 106.902 107.107 107.313C107.057 107.726 107.073 108.03 107.017 108.189C106.923 108.064 106.768 107.752 106.724 107.319C106.662 106.887 106.68 106.345 106.761 105.766C106.934 104.609 107.277 103.679 107.487 103.42Z" fill="#76A633"/>
<path d="M118.957 100.157C119.036 100.421 118.916 101.202 118.645 102.101C118.41 103.011 118.101 103.755 117.891 103.957C117.8 103.701 117.887 102.912 118.123 101.997C118.398 101.086 118.74 100.346 118.957 100.157Z" fill="#76A633"/>
<path d="M122.15 104.911C121.849 104.974 120.927 104.85 119.865 104.589C118.818 104.3 117.976 103.964 117.764 103.767C118.074 103.715 118.984 103.866 120.025 104.154C121.072 104.41 121.923 104.718 122.15 104.911Z" fill="#76A633"/>
<path d="M31.0846 75.6435C31.8909 76.7033 32.8388 79.6177 33.4264 83.0513C34.0146 86.4831 34.0613 89.3863 33.6148 90.4316C32.8081 89.3715 31.8594 86.4552 31.2721 83.0238C30.684 79.5916 30.6368 76.6874 31.0846 75.6435Z" fill="#51843E"/>
<path d="M24.8879 70.7771C25.6946 71.8377 26.6433 74.7521 27.2301 78.1846C27.8187 81.6175 27.8646 84.5203 27.4185 85.5649C26.6123 84.5055 25.6627 81.5904 25.0754 78.1578C24.4881 74.7253 24.4414 71.8214 24.8879 70.7771Z" fill="#51843E"/>
<path d="M43.511 90.1553C47.951 86.0152 48.3707 80.7676 46.731 77.4118C45.0921 74.0557 42.6099 73.3384 42.2229 74.0557C42.2229 74.0557 39.9695 79.8584 38.0538 78.7638C36.1376 77.6689 36.6441 74.517 39.0544 74.1585C39.0544 74.1585 38.3617 70.4113 33.7979 71.5551C33.7979 71.5551 33.4245 74.7527 30.5452 74.2128C28.7906 73.8833 30.1757 70.7299 31.4752 70.8672C31.4752 70.8672 20.0909 68.3304 17.8133 70.3899C15.0691 72.8688 20.0054 80.5311 20.0054 80.5311C20.6735 79.5213 23.4163 78.1465 23.9819 80.1426C24.6712 82.5831 21.1289 82.9991 21.1289 82.9991C20.0586 86.9458 24.4922 87.3122 24.4922 87.3122C24.7703 85.2418 28.4368 84.6263 29.8321 86.1894C31.2294 87.7532 24.5598 90.0123 24.5598 90.0123C23.7412 90.3823 24.7287 92.4509 28.76 93.6458C32.7905 94.8406 39.6987 93.5998 43.511 90.1553Z" fill="#8FCD3C"/>
<path d="M20.1062 72.8147C21.3747 73.8467 25.839 77.079 31.2226 80.8689C32.5932 81.7915 33.9089 82.6771 35.134 83.5005C35.7472 83.9093 36.34 84.3032 36.9039 84.678C37.4865 85.0321 38.0406 85.3703 38.5615 85.6878C40.6474 86.9501 42.2153 87.8697 42.9552 88.2651C42.2876 87.7799 40.7869 86.7831 38.7512 85.4699C38.2434 85.1418 37.7004 84.7935 37.1314 84.4263C36.576 84.0425 35.9926 83.6413 35.3888 83.2239C34.173 82.3947 32.8653 81.504 31.5045 80.5752C26.1256 76.7879 21.535 73.6765 20.1062 72.8147Z" fill="#76A633"/>
<path d="M38.3704 80.4914C38.2084 80.7492 37.9958 81.6563 37.8789 82.7407C37.807 83.2798 37.781 83.7799 37.7479 84.1767C37.7185 84.5725 37.7202 84.8734 37.7602 85.0186C37.8465 84.894 37.955 84.6069 38.0655 84.2133C38.177 83.8201 38.2505 83.3215 38.322 82.7773C38.4398 81.6903 38.4636 80.7778 38.3704 80.4914Z" fill="#76A633"/>
<path d="M32.1798 87.3511C32.5693 87.3 33.7145 86.8673 35.0332 86.2905C35.7013 86.0208 36.2932 85.7286 36.7797 85.5262C37.2615 85.3136 37.6119 85.1344 37.7595 85.0204C37.5651 85.0312 37.1705 85.1235 36.6496 85.2767C36.1257 85.4212 35.5078 85.679 34.8317 85.9502C33.5036 86.5328 32.4481 87.1067 32.1798 87.3511Z" fill="#76A633"/>
<path d="M27.5199 81.9663C27.8125 82.0449 28.7654 82.0529 29.8907 81.8892C30.4507 81.8034 30.9619 81.6854 31.3522 81.5391C31.7456 81.4033 31.9995 81.2226 32.0943 81.1278C31.9318 81.1296 31.6516 81.215 31.2527 81.2806C30.8606 81.3566 30.3593 81.4319 29.8124 81.5145C28.7157 81.6745 27.7853 81.8269 27.5199 81.9663Z" fill="#76A633"/>
<path d="M32.8557 77.146C32.709 77.3813 32.5839 78.1808 32.4627 79.1219C32.3981 79.5926 32.3386 80.0224 32.2718 80.3598C32.2178 80.7031 32.1353 80.9457 32.1438 81.084C32.2488 80.9989 32.4453 80.7719 32.581 80.429C32.7294 80.0897 32.8387 79.6469 32.9063 79.1657C33.0313 78.2011 32.9654 77.3908 32.8557 77.146Z" fill="#76A633"/>
<path d="M24.3181 72.6013C24.1931 72.8026 24.1119 73.4551 24.1255 74.2274C24.1068 75.0026 24.188 75.6569 24.3113 75.8535C24.4436 75.6627 24.5537 75.0091 24.5716 74.2296C24.5575 73.446 24.4495 72.7914 24.3181 72.6013Z" fill="#76A633"/>
<path d="M20.6453 75.9204C20.8745 76.0222 21.6488 76.0754 22.5691 76.0406C23.4817 75.9791 24.2412 75.8477 24.4572 75.7231C24.2186 75.63 23.4472 75.6004 22.5389 75.6615C21.6323 75.6952 20.8728 75.8028 20.6453 75.9204Z" fill="#76A633"/>
<path d="M43.4281 55.4149C45.7759 51.6912 44.9458 47.7894 43.0199 45.5941C41.0952 43.3981 39.1246 43.2638 38.9974 43.8493C38.9974 43.8493 38.6079 48.4452 36.9699 47.9459C35.3322 47.4465 35.0197 45.0633 36.7032 44.4224C36.7032 44.4224 35.385 41.7915 32.2968 43.3449C32.2968 43.3449 32.717 45.7408 30.4955 45.7991C29.1415 45.8338 29.4706 43.3116 30.4495 43.2077C30.4495 43.2077 21.5789 43.1418 20.3601 45.0054C18.8913 47.2485 24.1601 52.0736 24.1601 52.0736C24.4297 51.2303 26.1375 49.7943 26.9829 51.1648C28.0158 52.8405 25.5171 53.7012 25.5171 53.7012C25.5898 56.7546 28.9097 56.3252 28.9097 56.3252C28.6639 54.7678 31.2107 53.7424 32.5694 54.665C33.9302 55.5894 29.5446 58.2884 29.5446 58.2884C29.0262 58.6878 30.1969 60.0445 33.4024 60.2842C36.6071 60.5242 41.3882 58.5317 43.4281 55.4149Z" fill="#8FCD3C"/>
<path d="M22.5609 46.4214C23.7121 46.9765 27.6758 48.6374 32.4322 50.5611C33.6344 51.0206 34.7881 51.4613 35.8627 51.8708C36.3989 52.0725 36.9173 52.2669 37.4101 52.453C37.9136 52.6207 38.3916 52.78 38.8411 52.9306C40.6395 53.5255 41.985 53.952 42.6113 54.124C42.0186 53.8745 40.7054 53.3814 38.933 52.7412C38.4907 52.5816 38.0182 52.4125 37.5233 52.2329C37.0338 52.0402 36.5205 51.8386 35.9885 51.6286C34.9195 51.2125 33.7704 50.7675 32.5751 50.3026C27.8225 48.3789 23.7924 46.8259 22.5609 46.4214Z" fill="#76A633"/>
<path d="M37.5747 49.1613C37.5131 49.3752 37.5535 50.0712 37.7036 50.883C37.7674 51.2885 37.8571 51.6582 37.9188 51.9526C37.983 52.2469 38.0497 52.4667 38.1101 52.5659C38.1463 52.4613 38.1637 52.2346 38.1582 51.9294C38.1548 51.6241 38.1008 51.2487 38.0353 50.8395C37.886 50.027 37.7057 49.3564 37.5747 49.1613Z" fill="#76A633"/>
<path d="M34.5364 55.147C34.8094 55.0485 35.5527 54.5524 36.3917 53.9231C36.8217 53.6212 37.1912 53.3152 37.5029 53.09C37.8087 52.8586 38.0264 52.6725 38.1093 52.566C37.9694 52.6055 37.7011 52.7344 37.3536 52.9285C37.002 53.1161 36.6056 53.4014 36.171 53.7059C35.3265 54.3406 34.6788 54.9257 34.5364 55.147Z" fill="#76A633"/>
<path d="M29.9633 51.9447C30.1946 51.9556 30.892 51.8111 31.6791 51.5153C32.0704 51.3647 32.4186 51.1974 32.6721 51.0298C32.9302 50.8686 33.0765 50.6963 33.1258 50.6126C33.0068 50.6394 32.8209 50.7455 32.5432 50.8567C32.2732 50.9733 31.9232 51.1069 31.5414 51.2535C30.7751 51.5432 30.127 51.8003 29.9633 51.9447Z" fill="#76A633"/>
<path d="M32.8195 47.5823C32.7625 47.7768 32.8442 48.3811 32.9603 49.0879C33.0151 49.4416 33.0644 49.7657 33.0883 50.0224C33.1236 50.2831 33.1159 50.4725 33.1525 50.5728C33.2103 50.4935 33.3047 50.2972 33.3302 50.0246C33.3647 49.7534 33.3489 49.413 33.2932 49.0498C33.1759 48.3257 32.9522 47.7434 32.8195 47.5823Z" fill="#76A633"/>
<path d="M25.5937 45.6024C25.5456 45.7694 25.6281 46.2589 25.8055 46.8212C25.9598 47.3908 26.161 47.8564 26.2941 47.981C26.3494 47.8206 26.2877 47.3256 26.1321 46.7531C25.9522 46.1825 25.7311 45.7201 25.5937 45.6024Z" fill="#76A633"/>
<path d="M51.6363 71.8925L48.2496 64.7435L48.0293 64.7873L51.4151 71.9355L51.6363 71.8925Z" fill="#51843E"/>
<path d="M38.778 54.5445C39.5881 55.1593 40.9187 57.0584 42.1128 59.3823C43.3073 61.7065 44.0004 63.7464 43.9226 64.5571C43.1129 63.9416 41.7815 62.0414 40.5878 59.7186C39.3933 57.3948 38.6997 55.3541 38.778 54.5445Z" fill="#51843E"/>
<path d="M46.378 69.58L42.9918 62.431L42.7715 62.473L46.1577 69.623L46.378 69.58Z" fill="#51843E"/>
<path d="M40.9648 116.063C44.7826 110.166 43.5409 103.937 40.5195 100.41C37.4981 96.8836 34.3615 96.6399 34.1472 97.5712C34.1472 97.5712 33.4306 104.886 30.832 104.067C28.2328 103.246 27.7842 99.4442 30.4807 98.4478C30.4807 98.4478 28.4348 94.2382 23.4828 96.6656C23.4828 96.6656 24.1028 100.49 20.5614 100.549C18.4049 100.584 18.9807 96.57 20.5439 96.4191C20.5439 96.4191 6.41253 96.1819 4.4313 99.1318C2.04502 102.682 10.3388 110.449 10.3388 110.449C10.7858 109.109 13.5359 106.847 14.8545 109.044C16.465 111.729 12.4659 113.062 12.4659 113.062C12.5178 117.926 17.8168 117.294 17.8168 117.294C17.4592 114.81 21.5356 113.213 23.6827 114.706C25.8306 116.197 18.7868 120.431 18.7868 120.431C17.9533 121.059 19.7887 123.238 24.8917 123.669C29.9925 124.1 37.6504 120.997 40.9648 116.063Z" fill="#8FCD3C"/>
<path d="M7.91016 101.413C9.73319 102.315 16.0128 105.02 23.5512 108.159C25.4563 108.908 27.2853 109.627 28.9871 110.295C29.8393 110.625 30.6605 110.944 31.4425 111.246C32.2399 111.522 32.9989 111.783 33.7104 112.03C36.5642 113.004 38.6994 113.703 39.694 113.988C38.7542 113.581 36.6726 112.776 33.8622 111.729C33.1592 111.468 32.4117 111.191 31.6254 110.899C30.8506 110.584 30.0375 110.254 29.193 109.912C27.4996 109.234 25.6796 108.507 23.7834 107.748C16.2522 104.612 9.86502 102.077 7.91016 101.413Z" fill="#76A633"/>
<path d="M31.7722 106.007C31.6684 106.347 31.7186 107.457 31.9397 108.751C32.0341 109.398 32.1685 109.99 32.262 110.459C32.3573 110.929 32.4598 111.28 32.5529 111.439C32.6133 111.273 32.6448 110.913 32.6439 110.427C32.6439 109.94 32.5657 109.341 32.4708 108.688C32.2489 107.39 31.9758 106.319 31.7722 106.007Z" fill="#76A633"/>
<path d="M26.8075 115.498C27.2451 115.345 28.4409 114.566 29.7898 113.576C30.4816 113.103 31.077 112.619 31.5771 112.266C32.0691 111.902 32.4191 111.609 32.5539 111.441C32.3302 111.501 31.9007 111.703 31.344 112.006C30.7785 112.301 30.1427 112.749 29.4428 113.228C28.0837 114.225 27.0405 115.147 26.8075 115.498Z" fill="#76A633"/>
<path d="M19.5894 110.326C19.9576 110.347 21.0735 110.128 22.3322 109.668C22.9582 109.435 23.5169 109.173 23.9243 108.909C24.3385 108.657 24.5762 108.385 24.6553 108.252C24.4652 108.293 24.1667 108.459 23.7223 108.631C23.289 108.814 22.7294 109.022 22.1179 109.25C20.8906 109.698 19.8534 110.1 19.5894 110.326Z" fill="#76A633"/>
<path d="M24.2285 103.42C24.1349 103.728 24.2536 104.693 24.4224 105.821C24.5015 106.386 24.5738 106.902 24.6082 107.313C24.6584 107.726 24.6418 108.03 24.698 108.189C24.7919 108.064 24.9467 107.752 24.9914 107.319C25.053 106.887 25.0348 106.345 24.9544 105.766C24.7813 104.609 24.4377 103.679 24.2285 103.42Z" fill="#76A633"/>
<path d="M12.7593 100.157C12.6798 100.421 12.7997 101.202 13.071 102.101C13.3062 103.011 13.6149 103.755 13.825 103.957C13.9164 103.701 13.8288 102.912 13.5932 101.997C13.3176 101.086 12.9757 100.346 12.7593 100.157Z" fill="#76A633"/>
<path d="M9.56494 104.911C9.86602 104.974 10.7884 104.85 11.8506 104.589C12.8972 104.3 13.7392 103.964 13.9514 103.767C13.6418 103.715 12.7313 103.866 11.6903 104.154C10.6434 104.41 9.79245 104.718 9.56494 104.911Z" fill="#76A633"/>
<path d="M38.8847 90.9534C38.8847 90.9534 49.5967 60.6352 29.0776 35.9705C29.0776 35.9705 35.4147 29.0338 50.0496 26.85L54.123 33.4019L52.7652 25.9499C52.7652 25.9499 62.8734 21.3258 79.4699 24.7942L78.5642 33.1445L81.7327 26.3355C81.7327 26.3355 94.7083 27.1071 102.403 34.6859C102.403 34.6859 83.6939 64.7467 93.4253 90.9534C93.4253 90.9534 67.4001 107.332 38.8847 90.9534Z" fill="#C74F39"/>
<path d="M85.2019 121.655L86.6669 124.084C95.5643 121.474 100.893 118.058 100.893 118.058L90.4822 91.1869H41.1467L32.094 118.187C37.1723 120.878 42.1332 122.834 46.9181 124.214L48.0867 121.655L48.688 124.701C62.7182 128.365 75.1269 127.096 84.3233 124.729L85.2019 121.655Z" fill="#963532"/>
<path d="M100.893 118.058L97.9534 110.472C69.4869 121.587 42.6669 113.708 34.5719 110.797L32.094 118.187C37.1723 120.878 42.1332 122.834 46.9181 124.214L48.0867 121.655L48.688 124.701C62.7182 128.365 75.1269 127.096 84.3233 124.729L85.2019 121.655L86.6669 124.084C95.5643 121.474 100.893 118.058 100.893 118.058Z" fill="#FBCA3B"/>
<path d="M35.4136 40.979H38.7327V35.7121H35.4136V40.979Z" fill="#A14130"/>
<path d="M53.3669 41.2373C53.1449 41.015 52.7537 40.4845 52.2672 39.7513C52.1473 39.567 52.0197 39.3708 51.8853 39.1647C51.7676 38.9526 51.6442 38.7295 51.5162 38.4982C51.2624 38.034 50.9966 37.5318 50.7274 37.0064C49.7132 34.886 48.9503 33.0857 48.8406 32.5017C49.2492 32.9731 50.2396 34.7072 51.25 36.8203C51.5179 37.342 51.768 37.845 51.9942 38.3157C52.1056 38.5514 52.2132 38.7788 52.3148 38.9953C52.4263 39.2086 52.5326 39.4106 52.6317 39.6007C53.0246 40.3643 53.2887 40.9476 53.3669 41.2373Z" fill="#A14130"/>
<path d="M46.7039 46.5034C46.4229 46.3343 45.8602 45.6065 45.3189 44.6847C44.7776 43.7625 44.4306 42.942 44.4408 42.6498C44.7227 42.8178 45.284 43.5463 45.8254 44.4685C46.3676 45.3904 46.7146 46.2101 46.7039 46.5034Z" fill="#A14130"/>
<path d="M60.3077 35.9717C60.1087 35.4782 59.8387 33.7691 59.7791 31.7368C59.7519 31.2317 59.7328 30.745 59.7217 30.2932C59.7175 30.0668 59.7149 29.8482 59.7115 29.6403C59.7 29.4347 59.689 29.2373 59.6796 29.053C59.6452 28.3129 59.6528 27.7557 59.7039 27.4928C59.814 27.7365 59.9479 28.2818 60.0836 29.0237C60.1155 29.2094 60.1487 29.4071 60.1844 29.6146C60.2035 29.8228 60.2244 30.0408 60.2452 30.2682C60.2839 30.7222 60.3179 31.2114 60.3456 31.7201C60.4055 33.7532 60.4336 35.4488 60.3077 35.9717Z" fill="#A14130"/>
<path d="M70.1139 44.062C70.0978 43.9574 70.0991 43.797 70.1139 43.5928C70.1241 43.4914 70.1356 43.3788 70.1484 43.2549C70.156 43.1311 70.165 42.9975 70.1747 42.8541C70.233 42.2856 70.2628 41.5669 70.3236 40.7844C70.3759 39.9998 70.4392 39.2746 70.5413 38.6981C70.6315 38.1224 70.7701 37.6988 70.8679 37.5105C70.9321 37.7162 70.9355 38.1456 70.947 38.7224C70.9457 39.2974 70.9419 40.0226 70.8892 40.8116C70.8288 41.6024 70.7369 42.3327 70.5762 42.9044C70.5366 43.0464 70.5001 43.18 70.466 43.3024C70.4193 43.4226 70.3746 43.533 70.3359 43.6319C70.253 43.8274 70.1769 43.974 70.1139 44.062Z" fill="#A14130"/>
<path d="M74.0362 29.29C73.9103 29.0239 73.912 28.1578 74.0579 27.1378C74.2008 26.1294 74.441 25.293 74.6405 25.0508C74.7668 25.3169 74.7646 26.1827 74.6188 27.203C74.4759 28.2107 74.2352 29.0482 74.0362 29.29Z" fill="#A14130"/>
<path d="M59.9731 44.3862C59.7792 44.1516 59.5508 43.3069 59.422 42.2858C59.2936 41.2756 59.3055 40.4146 59.4352 40.1408C59.6286 40.3751 59.857 41.2191 59.9859 42.2413C60.1143 43.2511 60.1028 44.1118 59.9731 44.3862Z" fill="#A14130"/>
<path d="M81.2786 38.5386C81.2926 38.2934 81.4261 37.7829 81.6515 37.1044C81.7093 36.9349 81.7719 36.755 81.8373 36.5663C81.9169 36.3817 82.0011 36.189 82.0878 35.9892C82.2656 35.5891 82.4637 35.1625 82.6768 34.7197C82.889 34.2798 83.0991 33.8605 83.301 33.4723C83.4044 33.2786 83.503 33.0925 83.5979 32.9147C83.6838 32.7351 83.7658 32.5649 83.8437 32.4042C84.1588 31.7637 84.4275 31.2933 84.5976 31.0873C84.5836 31.3331 84.4492 31.8437 84.2247 32.5226C84.1668 32.692 84.1039 32.872 84.0389 33.0606C83.9585 33.2449 83.8751 33.4376 83.7884 33.6378C83.6106 34.0372 83.4125 34.4644 83.1994 34.9073C82.9872 35.3468 82.7771 35.7658 82.5747 36.1546C82.4718 36.3483 82.3727 36.5348 82.2787 36.7122C82.192 36.8915 82.1099 37.062 82.0325 37.2224C81.717 37.8622 81.4491 38.3336 81.2786 38.5386Z" fill="#A14130"/>
<path d="M94.8572 38.2822C94.8746 38.1037 94.9877 37.7366 95.2182 37.2785C95.441 36.8154 95.7655 36.2582 96.1261 35.6626C96.4735 35.0626 96.8112 34.5209 97.037 34.0748C97.0995 33.9644 97.1578 33.8608 97.2118 33.7653C97.2603 33.6682 97.3049 33.5795 97.3449 33.4991C97.4299 33.3402 97.5082 33.2185 97.5732 33.1443C97.5877 33.2333 97.5839 33.3709 97.5635 33.5502C97.5528 33.6396 97.5384 33.7395 97.5192 33.8482C97.4886 33.9543 97.4554 34.0683 97.4197 34.1911C97.2811 34.686 96.986 35.2693 96.6313 35.8809C96.2652 36.4863 95.8876 37.0204 95.5784 37.4375C95.2612 37.8528 95.0234 38.1606 94.8572 38.2822Z" fill="#A14130"/>
<path d="M86.2575 45.7344C86.226 45.591 86.2609 45.3002 86.3545 44.9157C86.3944 44.7209 86.4672 44.5098 86.5684 44.2879C86.6636 44.0641 86.7716 43.8248 86.895 43.5796C87.4363 42.6183 88.0797 41.9086 88.3697 41.7515C88.3578 42.0531 87.9326 42.8526 87.4091 43.7835C87.29 44.0203 87.1722 44.2462 87.0544 44.454C86.9315 44.6601 86.8239 44.8534 86.738 45.028C86.5543 45.3745 86.3834 45.6272 86.2575 45.7344Z" fill="#A14130"/>
<path d="M42.6551 103.029C42.5645 102.643 42.6755 101.418 42.9498 99.9827C43.1824 98.5373 43.492 97.3363 43.7123 96.9919C43.8152 97.3728 43.7438 98.6028 43.5103 100.051C43.2347 101.498 42.8848 102.695 42.6551 103.029Z" fill="#7B2C2A"/>
<path d="M48.9922 110.479C48.9058 109.974 49.0389 108.302 49.3443 106.326C49.6913 104.364 50.1012 102.73 50.35 102.257C50.4257 102.767 50.2522 104.432 49.9043 106.399C49.6011 108.361 49.2316 109.998 48.9922 110.479Z" fill="#7B2C2A"/>
<path d="M66.0411 109.068C65.8829 108.368 65.7779 106.016 65.7953 103.221C65.7868 102.523 65.7855 101.853 65.7911 101.23C65.7962 100.918 65.8008 100.618 65.8051 100.332C65.8025 100.046 65.8004 99.7736 65.7983 99.5187C65.7962 98.4965 65.8276 97.7325 65.8901 97.3777C65.9901 97.7224 66.1002 98.482 66.204 99.5064C66.2274 99.7627 66.252 100.035 66.2784 100.322C66.2903 100.609 66.3026 100.91 66.315 101.222C66.3375 101.848 66.3532 102.521 66.3617 103.221C66.3443 106.022 66.2091 108.367 66.0411 109.068Z" fill="#7B2C2A"/>
<path d="M87.163 106.752C86.8917 106.432 86.4133 105.279 85.9319 103.874C85.4556 102.463 85.2863 101.223 85.3527 100.843C85.6078 101.177 86.0059 102.344 86.477 103.743C86.958 105.144 87.2093 106.366 87.163 106.752Z" fill="#7B2C2A"/>
<path d="M89.5776 98.1465C89.2663 97.7855 88.6556 96.4929 87.9829 94.9149C87.8311 94.5134 87.6933 94.1263 87.5712 93.7642C87.5126 93.5832 87.4556 93.4086 87.4011 93.2421C87.3663 93.0712 87.334 92.9075 87.3033 92.754C87.1885 92.1395 87.1383 91.6819 87.1639 91.4664C87.2991 91.659 87.4883 92.0903 87.6971 92.67C87.7473 92.8148 87.8005 92.9694 87.857 93.1324C87.9255 93.292 87.9978 93.4604 88.0726 93.6342C88.2193 93.984 88.3694 94.3613 88.5178 94.7574C89.188 96.3259 89.5814 97.7109 89.5776 98.1465Z" fill="#7B2C2A"/>
<path d="M64.9072 116.215C64.7163 116.211 64.5291 116.207 64.3391 116.203C64.2396 114.642 64.251 113.321 64.3812 112.919C64.5738 113.309 64.8017 114.622 64.9072 116.215Z" fill="#7B2C2A"/>
<path d="M64.532 119.601C64.4657 119.392 64.4278 118.954 64.421 118.373C64.4206 118.228 64.4197 118.074 64.4189 117.912C64.4087 117.749 64.3963 117.578 64.3849 117.401C64.364 117.046 64.35 116.667 64.3427 116.269C64.3415 116.248 64.3402 116.226 64.3385 116.204C64.5286 116.209 64.7157 116.213 64.9066 116.216C64.9071 116.227 64.9079 116.238 64.9088 116.249C64.9168 116.653 64.916 117.04 64.9088 117.4C64.9037 117.581 64.8981 117.753 64.8926 117.919C64.8756 118.084 64.8488 118.241 64.8263 118.388C64.7319 118.977 64.6277 119.409 64.532 119.601Z" fill="#CEA732"/>
<path d="M91.9915 118.703C91.781 118.575 91.4701 118.047 91.2932 117.355C91.1274 116.656 91.2418 116.044 91.3881 115.877C91.5688 116.053 91.6934 116.603 91.8486 117.26C92.0174 117.916 92.0948 118.498 91.9915 118.703Z" fill="#CEA732"/>
<path d="M42.2027 119.73C42.0785 119.471 42.0883 118.624 42.2456 117.628C42.4523 116.645 42.7445 115.839 42.9567 115.619C43.0655 115.889 43.0107 116.728 42.8044 117.707C42.6518 118.684 42.4043 119.494 42.2027 119.73Z" fill="#CEA732"/>
<path d="M52.4628 68.9868C52.2234 68.5592 51.8249 67.0739 51.5613 65.27C51.5102 64.8171 51.4707 64.3815 51.4405 63.9763C51.4273 63.7736 51.4141 63.5788 51.4022 63.3923C51.4005 63.2054 51.4078 63.0277 51.412 62.8611C51.435 62.1923 51.4852 61.697 51.5579 61.4714C51.6484 61.6974 51.7403 62.188 51.8173 62.8434C51.836 63.0074 51.8543 63.1819 51.8751 63.3651C51.9032 63.5483 51.9325 63.7399 51.9627 63.9398C52.0205 64.3384 52.0741 64.7678 52.1243 65.2146C52.385 67.0015 52.5457 68.5168 52.4628 68.9868Z" fill="#A14130"/>
<path d="M66.4934 75.5396C66.2897 75.1836 66.0342 73.9547 65.8717 72.4789C65.7089 71.003 65.6923 69.7546 65.8143 69.3726C66.018 69.7299 66.274 70.9581 66.4356 72.4329C66.5981 73.9073 66.6155 75.1557 66.4934 75.5396Z" fill="#A14130"/>
<path d="M80.7504 68.2148C80.5471 67.7876 80.2907 66.3248 80.1287 64.5723C79.9662 62.8209 79.9496 61.3414 80.0717 60.8925C80.2749 61.3201 80.5314 62.7825 80.6938 64.5343C80.8563 66.2857 80.8728 67.7644 80.7504 68.2148Z" fill="#A14130"/>
<path d="M77.3569 56.269C77.1932 55.8994 77.0732 54.6614 77.0732 53.1863C77.0732 51.7108 77.1932 50.4725 77.3569 50.1031C77.5206 50.4725 77.6401 51.7108 77.6401 53.1863C77.6401 54.6614 77.5206 55.8994 77.3569 56.269Z" fill="#A14130"/>
<path d="M56.0843 54.3398C55.861 54.1718 55.4715 53.4676 55.2997 52.5682C55.2423 52.1177 55.1908 51.7021 55.2342 51.3679C55.2695 51.0344 55.3282 50.7893 55.4051 50.6785C55.4919 50.79 55.574 51.0293 55.6399 51.3476C55.6964 51.6662 55.8057 52.0609 55.8597 52.4939C56.0243 53.3546 56.1689 54.0777 56.0843 54.3398Z" fill="#A14130"/>
<path d="M44.9938 68.02C44.8275 67.7419 44.6961 66.8157 44.6821 65.7125C44.5881 64.619 44.6293 63.6902 44.7675 63.3955C44.9534 63.6529 45.1537 64.5799 45.2489 65.6973C45.263 66.8088 45.1541 67.7427 44.9938 68.02Z" fill="#A14130"/>
<path d="M88.2195 67.4448C88.0528 67.0979 87.9214 65.9386 87.9073 64.5576C87.8129 63.1864 87.8537 62.0248 87.9928 61.6638C88.1791 61.994 88.3794 63.1542 88.4746 64.5456C88.4882 65.9328 88.3794 67.0987 88.2195 67.4448Z" fill="#A14130"/>
<path d="M60.2343 49.8323L60.1369 63.7051C60.1369 63.7051 57.3639 63.8029 56.5436 64.9586C55.7237 66.1148 62.1475 71.7082 65.7357 71.9008C69.3231 72.0931 75.0142 66.5967 75.0053 65.1513C74.9964 63.7058 71.3745 63.3094 71.3745 63.3094L71.2899 50.4699L60.2343 49.8323Z" fill="#A8E2DA"/>
<path d="M37.7288 58.0333C37.7288 58.0333 44.5051 53.5072 57.2417 53.9186C57.2417 53.9186 59.3756 63.1777 49.3444 64.7209C39.3132 66.2638 37.7288 58.0333 37.7288 58.0333Z" fill="#FBCA3B"/>
<path d="M42.5109 59.4179C42.5109 59.4179 46.7782 57.0212 53.1093 57.106C53.1093 57.106 53.1956 61.166 49.0729 61.7616C43.7985 62.5231 42.5109 59.4179 42.5109 59.4179Z" fill="#522B25"/>
<path d="M62.6462 50.8182C62.6462 50.8182 61.7038 68.2148 65.7394 68.2148C69.775 68.2148 68.9832 50.8182 68.9832 50.8182C68.9832 50.8182 65.0705 49.8971 62.6462 50.8182Z" fill="#76D0BB"/>
<path d="M43.6353 66.7689L53.1089 65.5165V68.214L44.2013 69.0815L43.6353 66.7689Z" fill="white"/>
<path d="M93.7745 58.0333C93.7745 58.0333 86.9986 53.5072 74.262 53.9186C74.262 53.9186 72.1281 63.1777 82.1593 64.7209C92.1904 66.2638 93.7745 58.0333 93.7745 58.0333Z" fill="#FBCA3B"/>
<path d="M88.994 59.4179C88.994 59.4179 84.7262 57.0212 78.3947 57.106C78.3947 57.106 78.3092 61.166 82.4315 61.7616C87.7059 62.5231 88.994 59.4179 88.994 59.4179Z" fill="#522B25"/>
<path d="M87.8686 66.7689L78.3945 65.5165V68.214L87.303 69.0815L87.8686 66.7689Z" fill="white"/>
<path d="M62.9829 84.9999C62.9829 84.9999 57.4343 100.396 57.8944 101.745C58.3533 103.094 73.4861 103.543 74.4451 101.263C74.9724 100.01 70.2415 84.9999 70.2415 84.9999C70.2415 84.9999 65.8861 83.0726 62.9829 84.9999Z" fill="#A8E2DA"/>
<path d="M73.1818 87.0313C73.1818 87.0313 76.5115 99.0644 77.3441 99.8776C78.1772 100.692 87.0304 97.1548 86.6153 95.3386C86.387 94.34 77.3364 85.1865 77.3364 85.1865C77.3364 85.1865 74.0297 84.9638 73.1818 87.0313Z" fill="#A8E2DA"/>
<path d="M59.8336 87.2896C59.8336 87.2896 56.5043 99.3223 55.6717 100.136C54.8382 100.951 45.9854 97.4134 46.4 95.5969C46.6275 94.5979 55.6785 85.4448 55.6785 85.4448C55.6785 85.4448 58.9856 85.2225 59.8336 87.2896Z" fill="#A8E2DA"/>
<path d="M95.0067 102.863C95.0067 102.863 97.3481 104.248 97.8005 108.166L87.541 112.469C87.541 112.469 86.1024 116.243 85.1792 116.769C84.256 117.295 75.6098 120.787 75.6098 120.787L73.885 118.428L80.4219 115.132L72.9941 117.303L72.0943 114.886L79.6884 112.198L71.8362 113.352L70.6965 110.958L79.0582 108.629L77.953 107.624L73.4156 108.563C73.4156 108.563 71.2944 106.775 72.4702 105.124L78.7329 104.076L83.9957 106.432L95.0067 102.863Z" fill="#C74F39"/>
<path d="M94.7074 104.184C94.7074 104.184 96.4424 106.046 96.3672 107.652L86.629 111.313L83.8445 110.672L85.2023 108.038L94.7074 104.184Z" fill="#A8E2DA"/>
<path d="M37.1441 102.863C37.1441 102.863 34.8031 104.248 34.3502 108.166L44.6102 112.469C44.6102 112.469 46.0488 116.243 46.972 116.769C47.8952 117.295 56.5418 120.787 56.5418 120.787L58.2662 118.428L51.7288 115.132L59.157 117.303L60.0569 114.886L52.4624 112.198L60.3154 113.352L61.4547 110.958L53.093 108.629L54.1982 107.624L58.7352 108.563C58.7352 108.563 60.8568 106.775 59.6814 105.124L53.4179 104.076L48.1555 106.432L37.1441 102.863Z" fill="#C74F39"/>
<path d="M37.4446 104.184C37.4446 104.184 35.7092 106.046 35.7845 107.652L45.5231 111.313L48.3072 110.672L46.9494 108.038L37.4446 104.184Z" fill="#A8E2DA"/>
<path d="M34.2438 48.2716C34.2438 48.2716 35.9409 53.0888 37.7512 55.8833C37.7512 55.8833 66.3802 44.8029 95.348 55.8833C95.348 55.8833 97.7248 51.9326 98.5166 47.4044C98.5166 47.4044 67.2532 35.6273 34.2438 48.2716Z" fill="#FBCA3B"/>
<path d="M44.1685 49.9583C44.1464 50.6535 43.287 51.198 42.4705 51.1792C41.6536 51.1607 40.8291 50.5782 40.8508 49.883C40.8733 49.1885 41.7383 48.464 42.5547 48.4832C43.3712 48.5013 44.1902 49.2638 44.1685 49.9583Z" fill="#F57830"/>
<path d="M50.6876 48.2698C50.6651 48.9653 49.8057 49.5096 48.9892 49.4907C48.1723 49.4726 47.3482 48.89 47.3694 48.1941C47.392 47.5004 48.2569 46.7755 49.0734 46.7943C49.8899 46.8131 50.7089 47.5753 50.6876 48.2698Z" fill="#F57830"/>
<path d="M56.836 47.2607C56.8139 47.9562 55.954 48.5004 55.1376 48.482C54.3207 48.4635 53.497 47.8809 53.5182 47.185C53.5403 46.4912 54.4057 45.7663 55.2222 45.7855C56.0382 45.804 56.8581 46.5662 56.836 47.2607Z" fill="#F57830"/>
<path d="M63.1785 46.9214C63.1568 47.617 62.2974 48.1616 61.4809 48.1431C60.664 48.1246 59.8394 47.5417 59.8611 46.8465C59.8832 46.152 60.7486 45.4278 61.5651 45.4463C62.3816 45.4648 63.2006 46.2273 63.1785 46.9214Z" fill="#F57830"/>
<path d="M68.7801 46.9214C68.758 47.617 67.8986 48.1616 67.0821 48.1431C66.2652 48.1246 65.4411 47.5417 65.4623 46.8465C65.4849 46.152 66.3498 45.4278 67.1663 45.4463C67.9828 45.4648 68.8022 46.2273 68.7801 46.9214Z" fill="#F57830"/>
<path d="M75.0056 46.9214C74.9835 47.617 74.124 48.1616 73.3076 48.1431C72.4907 48.1246 71.6661 47.5417 71.6878 46.8465C71.7099 46.152 72.5753 45.4278 73.3918 45.4463C74.2082 45.4648 75.0277 46.2273 75.0056 46.9214Z" fill="#F57830"/>
<path d="M80.8258 47.2607C80.8037 47.9562 79.9442 48.5004 79.1278 48.482C78.3109 48.4635 77.4863 47.8809 77.508 47.185C77.5297 46.4912 78.3955 45.7663 79.212 45.7855C80.0284 45.804 80.8475 46.5662 80.8258 47.2607Z" fill="#F57830"/>
<path d="M87.0129 48.2698C86.9908 48.9653 86.1314 49.5096 85.3149 49.4907C84.498 49.4726 83.6734 48.8897 83.6951 48.1945C83.7172 47.5 84.5826 46.7755 85.3991 46.7947C86.2156 46.8128 87.0346 47.5753 87.0129 48.2698Z" fill="#F57830"/>
<path d="M92.8546 49.9018C92.8652 50.5977 92.0317 51.1705 91.2148 51.1796C90.3979 51.1886 89.547 50.6339 89.5364 49.9384C89.5257 49.2439 90.3567 48.4908 91.1736 48.4821C91.99 48.473 92.8439 49.2073 92.8546 49.9018Z" fill="#F57830"/>
<path d="M91.1341 22.276L92.6573 22.6007L92.207 20.7726C93.1332 19.5835 94.1325 18.5313 95.1182 17.6185L96.0946 18.5501L96.2234 16.6445C98.8578 14.4361 101.113 13.2923 101.113 13.2923C100.324 14.2584 100.908 16.3128 100.368 18.12L98.8821 19.4875L100.379 19.5864C100.381 20.9507 100.339 22.4881 100.12 24.1997L98.382 25.0549L99.8151 26.059C99.7802 26.2349 99.7517 26.408 99.7117 26.5858C98.2144 33.5139 89.0168 37.6543 89.0168 37.6543C87.0211 31.3584 88.5656 26.1998 91.1341 22.276Z" fill="#FBCA3B"/>
<path d="M97.0403 19.6125C96.5423 20.4735 95.2504 23.4455 93.6604 26.9794C93.2862 27.8716 92.9255 28.7272 92.5913 29.5241C92.428 29.9232 92.2715 30.3077 92.1223 30.6738C91.9917 31.0467 91.8675 31.4005 91.751 31.7336C91.2943 33.0678 90.9826 34.065 90.8776 34.5317C91.1114 34.0962 91.5346 33.129 92.0678 31.8226C92.2005 31.4957 92.3408 31.1484 92.4888 30.7831C92.6513 30.421 92.8205 30.0416 92.997 29.6465C93.3414 28.8554 93.7114 28.0048 94.0967 27.1188C95.6867 23.5853 96.7987 20.5405 97.0403 19.6125Z" fill="#D7A628"/>
<path d="M96.9192 28.874C96.6262 28.8468 95.7497 29.0427 94.7631 29.3574C94.5148 29.4269 94.2771 29.4935 94.0572 29.5627C93.8378 29.6326 93.6367 29.7043 93.4534 29.7416C93.0894 29.8342 92.8159 29.928 92.6909 30.0059C92.827 30.0417 93.1225 30.0464 93.5248 30.0189C93.7298 30.0135 93.9462 29.9682 94.1789 29.9146C94.4115 29.8618 94.6628 29.8031 94.9196 29.7303C95.9249 29.4106 96.7155 29.0623 96.9192 28.874Z" fill="#D7A628"/>
<path d="M91.7239 26.0962C91.6478 26.349 91.738 27.155 91.9629 28.0971C92.1998 29.0302 92.4996 29.7945 92.6914 30.0063C92.7628 29.7507 92.6556 28.9476 92.4171 28.0116C92.1964 27.0807 91.9127 26.3127 91.7239 26.0962Z" fill="#D7A628"/>
<path d="M98.37 22.4942C98.1523 22.4526 97.5561 22.5901 96.8927 22.8458C96.2357 23.0819 95.7182 23.3541 95.5906 23.5229C95.7981 23.5721 96.4071 23.4508 97.0862 23.2068C97.7436 22.953 98.2573 22.6629 98.37 22.4942Z" fill="#D7A628"/>
<path d="M95.2276 20.6432C95.1179 20.8166 95.0971 21.3688 95.1898 22.0155C95.3276 22.6625 95.5474 23.1882 95.7116 23.3179C95.8073 23.1289 95.7843 22.5857 95.6508 21.9593C95.5593 21.3192 95.385 20.792 95.2276 20.6432Z" fill="#D7A628"/>
<path d="M42.754 22.591L41.2308 22.9162L41.6815 21.088C40.7553 19.8989 39.7552 18.8467 38.7699 17.9343L37.7939 18.8652L37.6642 16.9595C35.0307 14.7516 32.7743 13.6081 32.7743 13.6081C33.564 14.5734 32.9805 16.6279 33.5198 18.4354L35.0056 19.8033L33.5087 19.9018C33.507 21.2665 33.5491 22.8032 33.7677 24.5151L35.5061 25.37L34.073 26.374C34.1079 26.55 34.1359 26.7234 34.1759 26.9016C35.6736 33.8289 44.8709 37.9697 44.8709 37.9697C46.867 31.6742 45.3221 26.5149 42.754 22.591Z" fill="#FBCA3B"/>
<path d="M36.8452 19.9288C37.3436 20.7887 38.6351 23.7618 40.2255 27.2961C40.5997 28.1872 40.9599 29.0431 41.2946 29.8397C41.4575 30.2391 41.6139 30.6232 41.7636 30.99C41.8933 31.3626 42.0179 31.7164 42.1349 32.0495C42.5916 33.3834 42.9033 34.3809 43.0083 34.8477C42.7744 34.4117 42.3509 33.445 41.8181 32.1386C41.685 31.812 41.5446 31.464 41.3966 31.099C41.2346 30.7369 41.0654 30.3571 40.8889 29.9628C40.5449 29.1713 40.1741 28.3208 39.7888 27.4344C38.1988 23.9015 37.0876 20.8568 36.8452 19.9288Z" fill="#D7A628"/>
<path d="M36.9678 29.1861C37.2612 29.1593 38.1376 29.3555 39.1242 29.6695C39.3725 29.7394 39.6098 29.806 39.8297 29.8751C40.0495 29.9454 40.2507 30.0167 40.434 30.054C40.7976 30.1467 41.0714 30.2405 41.1964 30.318C41.0604 30.3542 40.7648 30.3592 40.3625 30.331C40.1576 30.3259 39.9411 30.2803 39.7081 30.2267C39.4755 30.1739 39.2237 30.1152 38.9681 30.0428C37.962 29.7231 37.1715 29.3744 36.9678 29.1861Z" fill="#D7A628"/>
<path d="M42.1639 26.4096C42.2404 26.6623 42.1499 27.4679 41.9257 28.4101C41.6876 29.3435 41.3882 30.1075 41.1969 30.3193C41.1254 30.0641 41.2326 29.261 41.4707 28.325C41.6923 27.3941 41.9755 26.6265 42.1639 26.4096Z" fill="#D7A628"/>
<path d="M35.5162 22.8077C35.7335 22.7657 36.3293 22.904 36.9931 23.1593C37.6506 23.3954 38.1681 23.668 38.2952 23.8364C38.0873 23.8856 37.4792 23.764 36.8001 23.5199C36.1422 23.2665 35.6289 22.9764 35.5162 22.8077Z" fill="#D7A628"/>
<path d="M38.6588 20.9582C38.769 21.1317 38.7902 21.6839 38.6971 22.3305C38.5593 22.9776 38.3395 23.5033 38.1753 23.6333C38.08 23.4443 38.1017 22.9012 38.2361 22.274C38.328 21.6339 38.5023 21.107 38.6588 20.9582Z" fill="#D7A628"/>
<path d="M72.8632 14.4056L70.9121 14.1811L72.4337 12.231C72.0033 10.4796 71.4122 8.85888 70.762 7.40693L69.118 8.10576L70.0059 5.8355C68.1429 2.22337 66.1392 -0.000175476 66.1392 -0.000175476C66.5321 1.43657 64.7324 3.5982 64.3756 5.91589L65.3592 8.09599L63.563 7.61985C62.8175 9.20831 62.0283 11.0144 61.3496 13.0934L62.9081 14.7768L60.6926 15.38C60.6364 15.5983 60.5744 15.8116 60.5246 16.035C58.4915 24.6942 66.9458 33.1499 66.9458 33.1499C72.7016 26.6078 73.7154 19.99 72.8632 14.4056Z" fill="#FBCA3B"/>
<path d="M67.4349 8.97368C67.5455 10.1725 67.4298 14.1446 67.355 18.8882C67.3052 20.0751 67.2584 21.2139 67.2138 22.2733C67.1857 22.8027 67.1581 23.3129 67.133 23.7988C67.0811 24.2843 67.0331 24.7456 66.9876 25.1801C66.792 26.9134 66.6116 28.1981 66.4798 28.7832C66.4445 28.1829 66.479 26.8895 66.5695 25.1573C66.5934 24.725 66.6193 24.2641 66.6461 23.7803C66.655 23.2944 66.6639 22.786 66.6742 22.2567C66.7043 21.199 66.7375 20.0624 66.7707 18.8784C66.846 14.1352 67.2112 10.1501 67.4349 8.97368Z" fill="#D7A628"/>
<path d="M62.5286 19.8019C62.8849 19.8863 63.7992 20.4609 64.7769 21.2169C65.0278 21.3962 65.268 21.5674 65.4862 21.7347C65.7043 21.9034 65.8991 22.0664 66.0926 22.1822C66.4655 22.4335 66.7326 22.6504 66.8368 22.7905C66.6581 22.7789 66.3111 22.6681 65.8578 22.4766C65.6218 22.3893 65.3952 22.251 65.1528 22.096C64.9104 21.9429 64.6497 21.7756 64.3912 21.5899C63.3944 20.8193 62.6634 20.101 62.5286 19.8019Z" fill="#D7A628"/>
<path d="M70.0936 18.619C70.0451 18.9449 69.4995 19.8472 68.7247 20.8548C67.9397 21.8488 67.1738 22.6193 66.8362 22.7905C66.8923 22.4643 67.4541 21.5721 68.2421 20.5768C69.0071 19.5792 69.7564 18.7978 70.0936 18.619Z" fill="#D7A628"/>
<path d="M64.3168 11.8005C64.5923 11.8381 65.2111 12.2339 65.8451 12.794C66.4817 13.3281 66.9359 13.8499 66.992 14.0972C66.7241 14.0725 66.0807 13.6898 65.4233 13.1373C64.7952 12.5826 64.3555 12.0413 64.3168 11.8005Z" fill="#D7A628"/>
<path d="M68.9848 10.8844C69.0188 11.1296 68.7424 11.7813 68.2814 12.4975C67.7677 13.1967 67.2255 13.7221 66.964 13.8086C66.9559 13.5508 67.2779 12.9273 67.7762 12.2502C68.2304 11.5416 68.7216 10.9956 68.9848 10.8844Z" fill="#D7A628"/>
<path d="M72.722 32.7341C72.722 33.5054 68.1957 37.6479 67.3469 37.6479C66.1587 37.6479 61.5193 33.8906 61.5193 32.7341C61.5193 31.771 66.0456 27.8207 67.3469 27.8207C68.4215 27.8207 72.722 31.6747 72.722 32.7341Z" fill="#A8E2DA"/>
<path d="M92.9225 38.7381C92.7078 39.3214 88.13 41.5471 87.4874 41.3759C86.5885 41.1365 84.1199 37.3575 84.441 36.4823C84.7084 35.7535 89.2327 33.6737 90.2171 33.9355C91.031 34.1523 93.2168 37.9361 92.9225 38.7381Z" fill="#A8E2DA"/>
<path d="M40.0655 39.3533C40.2803 39.9367 44.8572 42.1624 45.5002 41.9911C46.3992 41.7514 48.8677 37.9727 48.5471 37.0979C48.2792 36.3683 43.755 34.2885 42.7705 34.5507C41.9566 34.7672 39.7712 38.5506 40.0655 39.3533Z" fill="#A8E2DA"/>
<path d="M70.4154 32.734C70.4154 33.1877 67.7533 35.6245 67.2537 35.6245C66.555 35.6245 63.8262 33.4144 63.8262 32.734C63.8262 32.1674 66.4882 29.8435 67.2537 29.8435C67.8869 29.8435 70.4154 32.1109 70.4154 32.734Z" fill="#76D0BB"/>
<path d="M91.1751 38.2736C91.0492 38.6172 88.357 39.9265 87.9789 39.8255C87.4491 39.6847 85.9977 37.4618 86.1869 36.9473C86.3439 36.5179 89.0055 35.2941 89.5847 35.4487C90.0635 35.5761 91.3482 37.8015 91.1751 38.2736Z" fill="#76D0BB"/>
<path d="M41.8106 38.8897C41.9373 39.2333 44.6291 40.5423 45.0072 40.4412C45.537 40.3007 46.988 38.0779 46.7996 37.563C46.6418 37.1343 43.9815 35.9101 43.401 36.0648C42.9226 36.1922 41.6384 38.4176 41.8106 38.8897Z" fill="#76D0BB"/>
<path d="M64.4405 84.6093C64.4405 84.6093 61.4263 96.8901 61.6764 97.6236C61.926 98.3576 70.1575 98.6016 70.6784 97.3619C70.9655 96.6804 68.388 84.6093 68.388 84.6093C68.388 84.6093 66.0198 83.5611 64.4405 84.6093Z" fill="#76D0BB"/>
<path d="M75.0422 87.5983C75.0422 87.5983 77.4806 95.3433 77.8714 95.6999C78.2622 96.0577 83.0399 94.1759 82.9178 93.3417C82.8511 92.8822 77.2939 86.629 77.2939 86.629C77.2939 86.629 75.5878 86.6131 75.0422 87.5983Z" fill="#76D0BB"/>
<path d="M58.1958 87.5983C58.1958 87.5983 55.7574 95.3433 55.3666 95.6999C54.9754 96.0577 50.1977 94.1759 50.3202 93.3417C50.3869 92.8822 55.9445 86.629 55.9445 86.629C55.9445 86.629 57.6502 86.6131 58.1958 87.5983Z" fill="#76D0BB"/>
<path d="M66.0582 83.3437C66.773 83.344 70.508 83.5515 75.2504 87.4551C75.6122 87.7528 76.717 88.1007 78.6417 88.1007C81.7898 88.1007 85.1471 87.2028 86.0231 86.6553C86.9353 84.7627 88.0086 76.0872 87.7059 73.4585C86.4828 73.1431 83.6005 72.7821 80.8011 72.7821C78.8411 72.7821 77.9656 72.9613 77.6798 73.0385C77.0326 73.2126 76.3934 73.6688 75.5842 74.2446C73.7071 75.5817 71.1365 77.4124 66.0327 77.4124C60.9284 77.4124 58.3578 75.5817 56.4812 74.2446C55.6724 73.6688 55.0324 73.2126 54.386 73.0385C54.1002 72.9613 53.2242 72.7821 51.2655 72.7821C48.4648 72.7821 45.5817 73.1431 44.3603 73.4585C44.0563 76.0894 45.1313 84.7764 46.0448 86.6603C46.8468 87.1582 50.0706 88.0305 53.3484 88.0305C55.322 88.0305 56.4803 87.6974 56.9069 87.3842C62.0264 83.6344 65.1596 83.3433 65.9978 83.3433L66.0582 83.3437ZM78.4431 90.5527C75.7113 90.5527 73.6757 90.0911 72.3918 89.1801C68.5829 86.4775 65.7856 86.4221 65.758 86.4221L65.6602 86.4243C65.3183 86.4482 63.016 86.7045 58.9953 89.2416C57.6817 90.0712 55.6507 90.4915 52.9597 90.4915C49.7954 90.4915 44.5007 89.7971 42.6364 88.2517C42.2545 87.9356 41.0936 86.9736 40.1627 80.338C39.2183 73.6037 40.1691 72.4906 40.5263 72.0717C41.0706 71.4341 42.0189 70.9644 45.0595 70.5922C46.8612 70.3721 48.976 70.2454 50.8607 70.2454C52.6778 70.2454 54.0998 70.3619 55.0885 70.5919C56.4586 70.9094 57.5077 71.5543 58.5228 72.1763C60.1957 73.2036 61.9252 74.2656 65.7397 74.2656C69.5542 74.2656 71.2841 73.2036 72.957 72.1763C73.9716 71.5543 75.0211 70.9094 76.3917 70.5919C77.38 70.3619 78.802 70.2454 80.6187 70.2454C82.5038 70.2454 84.6186 70.3721 86.4208 70.5922C89.4609 70.9644 90.4092 71.4341 90.953 72.0717C91.3111 72.4906 92.2611 73.6037 91.3166 80.338C90.3862 86.9736 89.2248 87.9356 88.8438 88.2517C87.1288 89.6732 82.1096 90.5527 78.4431 90.5527Z" fill="#F0384B"/>
<path d="M66.0578 83.3421C66.7726 83.3425 70.5076 83.5499 75.2499 87.4535C75.6118 87.7512 76.7166 88.0991 78.6413 88.0991C81.7894 88.0991 85.1467 87.2012 86.0227 86.6537C86.9349 84.7611 88.0082 76.0856 87.7054 73.4569C86.4824 73.1415 83.6001 72.7805 80.8007 72.7805C78.8407 72.7805 77.9651 72.9597 77.6794 73.0369C77.0321 73.211 76.393 73.6673 75.5837 74.243C73.7067 75.5801 71.1361 77.4108 66.0323 77.4108C60.928 77.4108 58.3574 75.5801 56.4808 74.243C55.6719 73.6673 55.0319 73.211 54.3856 73.0369C54.0998 72.9597 53.2238 72.7805 51.2651 72.7805C48.4644 72.7805 45.5812 73.1415 44.3599 73.4569C44.0559 76.0878 45.1309 84.7748 46.0443 86.6588C46.8464 87.1566 50.0702 88.0289 53.348 88.0289C55.3215 88.0289 56.4799 87.6958 56.9064 87.3826C62.026 83.6328 65.1592 83.3417 65.9974 83.3417L66.0578 83.3421Z" fill="#522B25"/>
<path d="M85.8408 72.5038C85.9633 73.9488 85.7179 76.4997 83.1426 76.403C80.8127 76.403 80.077 73.8982 79.4634 72.5494C79.4634 74.0908 79.7088 77.1739 77.5013 77.5595C74.4804 78.0871 73.0868 76.6923 72.5969 74.9576C72.3511 76.4997 72.8079 78.5672 70.8794 79.1972C67.2005 80.3986 66.5878 78.137 65.3609 76.8846C65.3609 76.8846 65.2014 79.8613 61.4367 79.6143C59.9654 79.5184 58.739 76.9809 58.739 75.6322C56.5311 80.3986 51.8708 77.5595 51.9937 72.7417C52.1166 74.2838 51.1355 77.1739 48.4373 76.5964C46.3528 76.1141 46.4752 73.6092 46.4752 72.2605C46.4752 72.2605 52.3488 70.4873 55.1775 71.9038C58.0067 73.3203 65.3813 80.0695 75.7816 72.5038C77.8088 71.6818 85.8408 72.5038 85.8408 72.5038Z" fill="white"/>
<path d="M85.8648 88.9908C85.8648 87.6413 85.9877 85.1364 83.9027 84.6548C81.2045 84.0766 80.2234 86.9671 80.3459 88.5085C80.4688 83.6913 75.8085 80.8512 73.6015 85.6183C73.6015 84.2696 72.3746 81.7321 70.9033 81.6358C67.139 81.3892 66.9791 84.3659 66.9791 84.3659C65.7523 83.1134 65.1395 80.8512 61.4602 82.0536C59.5322 82.6833 59.9884 84.7511 59.7431 86.2925C59.2532 84.5582 57.8592 83.1634 54.8383 83.6913C52.6308 84.0766 52.8762 87.1597 52.8762 88.7015C52.2625 87.3523 51.5269 84.8475 49.1965 84.8475C46.6216 84.7511 46.3763 87.3013 46.4987 88.7467C46.4987 88.7467 55.5174 91.0485 62.1934 85.845C65.2483 84.4966 70.4538 85.942 73.735 87.965C77.0166 89.9887 85.8648 88.9908 85.8648 88.9908Z" fill="white"/>
</g>
<defs>
<filter id="filter0_d_103_5921" x="0" y="0" width="131.717" height="135" filterUnits="userSpaceOnUse" color-interpolation-filters="sRGB">
<feFlood flood-opacity="0" result="BackgroundImageFix"/>
<feColorMatrix in="SourceAlpha" type="matrix" values="0 0 0 0 0 0 0 0 0 0 0 0 0 0 0 0 0 0 127 0" result="hardAlpha"/>
<feOffset dy="4"/>
<feGaussianBlur stdDeviation="2"/>
<feComposite in2="hardAlpha" operator="out"/>
<feColorMatrix type="matrix" values="0 0 0 0 0 0 0 0 0 0 0 0 0 0 0 0 0 0 0.25 0"/>
<feBlend mode="normal" in2="BackgroundImageFix" result="effect1_dropShadow_103_5921"/>
<feBlend mode="normal" in="SourceGraphic" in2="effect1_dropShadow_103_5921" result="shape"/>
</filter>
</defs>
</svg>
