<svg width="18" height="18" viewBox="0 0 18 18" fill="none" xmlns="http://www.w3.org/2000/svg">
<path d="M9.00701 0C8.10148 0 7.19232 0.116266 6.54522 0.329871C6.22169 0.436597 5.96595 0.569202 5.81244 0.699064C5.65894 0.82885 5.61113 0.929124 5.61039 1.04516L5.60817 1.39056H0.623377V1.93133H17.3766V1.39056H12.3883L12.3896 1.04164C12.39 0.925687 12.344 0.827266 12.1926 0.69806C12.0411 0.568893 11.7871 0.436442 11.4649 0.329755C10.8204 0.116421 9.91247 0 9.00701 0ZM0.517286 2.62661L0.110416 6.25751H3.26236L4.05105 2.92172L3.81078 6.25751H6.96935L7.63613 2.90936L7.51551 6.25751H10.4668L10.2863 2.91561L11.0141 6.25751H14.1893L13.949 2.92172L14.7376 6.25751H17.8896L17.4827 2.62661H0.517286ZM0.0324935 6.95279L0.0126234 7.13001C0.57748 7.93564 1.08966 8.2661 1.51948 8.2661C1.96052 8.2661 2.48774 7.9227 3.07013 7.07021L3.09795 6.95279H0.0324935ZM3.76056 6.95279L3.74809 7.12653C4.31505 7.93758 4.82864 8.2661 5.25974 8.2661C5.69973 8.2661 6.22551 7.92425 6.80622 7.07628L6.83077 6.95279H3.76056ZM7.49053 6.95279L7.48445 7.12089C8.05286 7.93603 8.56784 8.2661 9 8.2661C9.43169 8.2661 9.94597 7.9368 10.5136 7.12367L10.5044 6.95279H7.49049H7.49053ZM11.1655 6.95279L11.1918 7.0733C11.7762 7.93051 12.3023 8.27243 12.7414 8.27123C13.1711 8.27007 13.6847 7.93827 14.2519 7.12646L14.2395 6.95279H11.1655H11.1655ZM14.9021 6.95279L14.9299 7.07021C15.5122 7.9227 16.0395 8.2661 16.4805 8.2661C16.9103 8.2661 17.4225 7.93564 17.9874 7.13001L17.9675 6.95279H14.9021H14.9021ZM3.38961 7.81455C2.81739 8.54073 2.20099 8.96137 1.51948 8.96137C0.975117 8.96137 0.472052 8.69462 0 8.21727V18H12.3896V9.96567H16.8312V18H18V8.21727C17.5279 8.69462 17.0249 8.96137 16.4805 8.96137C15.7991 8.96137 15.1827 8.54081 14.6105 7.81478C14.0392 8.54127 13.4249 8.9647 12.7433 8.96651C12.0612 8.96836 11.4439 8.54664 10.8696 7.81517C10.2975 8.54096 9.68127 8.96137 9 8.96137C8.31849 8.96137 7.70209 8.54073 7.12987 7.81455C6.55765 8.54073 5.94125 8.96137 5.25974 8.96137C4.57823 8.96137 3.96183 8.54073 3.38961 7.81455ZM1.16883 9.96567H11.2208V16.8412H1.16883V9.96567ZM1.87013 10.6609V16.1459H10.5195V10.6609H1.87013ZM13.0909 10.6609V13.4059L16.1299 13.428V10.6609H13.0909ZM2.45455 11.2403H7.44156C3.22461 11.5494 2.91 12.1674 2.45455 15.6094V11.2403ZM13.0909 14.1013V14.642L16.1299 14.6641V14.1232L13.0909 14.1012V14.1013ZM13.0909 15.3373V18H16.1299V15.3593L13.0909 15.3373V15.3373Z" fill="#FF897A"/>
</svg>
