<svg width="21" height="16" viewBox="0 0 21 16" fill="none" xmlns="http://www.w3.org/2000/svg">
<path d="M12.9344 0L8.6582 4.33909L7.44845 8.23899L8.23638 9.88865L9.15355 10.3058L10.6441 7.83146L11.1516 7.66929L13.9256 8.87544L14.8357 8.29154L15.0365 6.32846L15.5495 8.7378L15.0723 9.37398L15.2418 9.44765L15.4771 9.73965L15.784 11.2824L18.2986 8.28274L18.9266 8.29307L19.9327 9.57672L19.508 7.22982L18.1581 2.60125L12.9345 0H12.9344ZM4.2143 0.538703L2.88776 2.87931L2.68098 4.12005L3.84805 3.74082L4.37382 4.07221L4.37759 4.10069L5.64866 6.78994L6.26736 6.58586L6.75881 6.79556L6.93499 7.16437L7.81173 4.33802L7.76349 2.8405L5.95988 2.81705L4.62426 1.74881L6.1543 2.23792L8.06303 1.89081L9.23252 2.60417L10.8624 0.950367C10.7376 0.897359 10.6101 0.844531 10.4769 0.792242L6.90207 1.24712L6.74358 1.23589L4.21417 0.538703H4.2143ZM15.4147 2.17485L17.5286 5.14059L17.6233 7.94866L16.4875 5.26691L13.5531 2.55345L15.4147 2.17485ZM3.63616 4.65993L0.750645 5.59772L0 9.12642L2.28176 9.37717L2.30854 9.05643L4.00038 7.40748L3.63616 4.66006V4.65993ZM6.18269 7.4653L4.54573 8.00508L3.12423 9.39047L4.13892 10.7771L6.71411 10.8552L7.45532 10.1293L6.18269 7.46534V7.4653ZM11.154 8.55196L9.16366 11.8558L9.16218 14.4226L13.5315 14.9714L15.5189 14.0941L14.7253 10.1048L11.154 8.552V8.55196ZM18.5978 9.18455L16.4936 11.6946L16.5065 11.7743L19.433 12.3981L20.5911 11.7276L18.5979 9.18446L18.5978 9.18455ZM12.3815 9.89836L14.1437 10.9245L14.7461 13.2001L13.5413 14.271L11.5192 14.1563L13.2515 12.8876L13.363 11.1253L12.3815 9.8984V9.89836ZM1.67343 12.3169L1.27946 13.5976L1.87028 15.7762L5.95983 15.2412L6.01913 14.0544L3.20783 12.6172L1.67347 12.3169L1.67343 12.3169Z" fill="#C7E6FF"/>
</svg>
