<svg width="288" height="288" viewBox="0 0 288 288" fill="none" xmlns="http://www.w3.org/2000/svg">
<path d="M197.964 162.358C196.713 163.96 195.242 168.366 194.33 173.557C193.418 178.745 193.345 183.134 194.038 184.715C195.29 183.112 196.762 178.703 197.673 173.516C198.586 168.327 198.659 163.936 197.964 162.358Z" fill="#51843E"/>
<path d="M207.581 155.001C206.329 156.604 204.857 161.01 203.946 166.2C203.033 171.389 202.961 175.778 203.654 177.357C204.905 175.755 206.378 171.348 207.29 166.159C208.201 160.97 208.274 156.579 207.581 155.001" fill="#51843E"/>
<path d="M178.681 184.295C171.79 178.036 171.139 170.103 173.683 165.03C176.227 159.956 180.079 158.871 180.68 159.956C180.68 159.956 184.177 168.728 187.15 167.074C190.124 165.418 189.338 160.653 185.597 160.111C185.597 160.111 186.672 154.446 193.755 156.175C193.755 156.175 194.334 161.009 198.803 160.193C201.526 159.695 199.376 154.928 197.359 155.135C197.359 155.135 215.027 151.3 218.562 154.414C222.82 158.161 215.16 169.745 215.16 169.745C214.123 168.219 209.866 166.14 208.988 169.158C207.919 172.848 213.416 173.477 213.416 173.477C215.077 179.443 208.196 179.997 208.196 179.997C207.765 176.867 202.075 175.937 199.909 178.3C197.741 180.664 208.092 184.079 208.092 184.079C209.362 184.639 207.83 187.766 201.573 189.572C195.318 191.379 184.597 189.503 178.681 184.295" fill="#8FCD3C"/>
<path d="M215.002 158.083C213.033 159.643 206.105 164.53 197.75 170.259C195.623 171.654 193.581 172.993 191.679 174.238C190.728 174.856 189.808 175.451 188.933 176.018C188.029 176.553 187.169 177.065 186.36 177.545C183.123 179.453 180.69 180.843 179.542 181.441C180.578 180.708 182.907 179.201 186.066 177.215C186.854 176.719 187.697 176.193 188.58 175.638C189.441 175.057 190.347 174.451 191.284 173.82C193.171 172.566 195.2 171.22 197.312 169.815C205.66 164.09 212.783 159.386 215.002 158.083" fill="#76A633"/>
<path d="M186.66 169.689C186.911 170.079 187.241 171.45 187.423 173.089C187.534 173.904 187.574 174.66 187.626 175.26C187.671 175.859 187.669 176.313 187.607 176.533C187.473 176.345 187.304 175.911 187.133 175.316C186.96 174.721 186.846 173.967 186.735 173.145C186.552 171.501 186.515 170.122 186.66 169.689Z" fill="#76A633"/>
<path d="M196.265 180.054C195.661 179.977 193.883 179.323 191.837 178.451C190.8 178.043 189.882 177.602 189.127 177.296C188.379 176.974 187.835 176.703 187.606 176.531C187.908 176.547 188.52 176.687 189.329 176.918C190.142 177.137 191.101 177.527 192.15 177.937C194.211 178.817 195.849 179.685 196.265 180.054Z" fill="#76A633"/>
<path d="M203.496 171.918C203.042 172.037 201.563 172.049 199.817 171.801C198.948 171.672 198.155 171.493 197.549 171.272C196.938 171.067 196.544 170.794 196.397 170.65C196.649 170.653 197.084 170.782 197.703 170.881C198.312 170.996 199.09 171.11 199.938 171.235C201.64 171.477 203.084 171.707 203.496 171.918" fill="#76A633"/>
<path d="M195.215 164.632C195.442 164.988 195.636 166.197 195.824 167.619C195.925 168.331 196.017 168.981 196.121 169.491C196.204 170.01 196.333 170.377 196.319 170.586C196.156 170.457 195.851 170.114 195.64 169.595C195.411 169.083 195.241 168.413 195.136 167.686C194.942 166.227 195.044 165.002 195.215 164.632Z" fill="#76A633"/>
<path d="M208.466 157.759C208.66 158.063 208.786 159.05 208.765 160.217C208.794 161.389 208.668 162.378 208.477 162.676C208.272 162.387 208.101 161.399 208.073 160.22C208.095 159.036 208.263 158.046 208.466 157.759" fill="#76A633"/>
<path d="M214.166 162.775C213.81 162.928 212.609 163.009 211.181 162.956C209.764 162.863 208.586 162.665 208.251 162.476C208.621 162.336 209.818 162.291 211.227 162.383C212.634 162.434 213.813 162.597 214.166 162.775" fill="#76A633"/>
<path d="M178.812 131.781C175.168 126.151 176.456 120.252 179.445 116.934C182.432 113.614 185.49 113.41 185.688 114.296C185.688 114.296 186.292 121.244 188.834 120.489C191.376 119.734 191.861 116.131 189.249 115.162C189.249 115.162 191.294 111.185 196.087 113.533C196.087 113.533 195.435 117.155 198.882 117.243C200.983 117.296 200.473 113.483 198.953 113.326C198.953 113.326 212.72 113.226 214.612 116.043C216.891 119.435 208.714 126.729 208.714 126.729C208.296 125.454 205.645 123.283 204.333 125.355C202.73 127.889 206.608 129.19 206.608 129.19C206.495 133.806 201.343 133.157 201.343 133.157C201.725 130.802 197.772 129.252 195.664 130.647C193.552 132.045 200.358 136.125 200.358 136.125C201.162 136.729 199.345 138.78 194.371 139.142C189.397 139.505 181.977 136.493 178.812 131.781" fill="#8FCD3C"/>
<path d="M211.193 118.179C209.406 119.018 203.255 121.529 195.873 124.437C194.008 125.132 192.218 125.798 190.549 126.417C189.717 126.722 188.913 127.016 188.147 127.297C187.366 127.551 186.625 127.792 185.927 128.019C183.136 128.919 181.048 129.564 180.076 129.824C180.996 129.447 183.033 128.701 185.785 127.733C186.47 127.492 187.204 127.236 187.972 126.965C188.732 126.673 189.528 126.369 190.354 126.051C192.013 125.422 193.796 124.749 195.652 124.046C203.027 121.138 209.282 118.79 211.193 118.179" fill="#76A633"/>
<path d="M187.891 122.323C187.987 122.647 187.924 123.699 187.691 124.926C187.592 125.539 187.453 126.098 187.357 126.543C187.257 126.988 187.154 127.32 187.06 127.47C187.004 127.312 186.977 126.969 186.986 126.508C186.991 126.046 187.075 125.479 187.176 124.86C187.408 123.632 187.688 122.618 187.891 122.323" fill="#76A633"/>
<path d="M192.607 131.373C192.183 131.224 191.03 130.474 189.728 129.522C189.06 129.066 188.487 128.603 188.003 128.263C187.529 127.913 187.191 127.632 187.062 127.471C187.279 127.53 187.695 127.725 188.235 128.019C188.781 128.302 189.396 128.734 190.07 129.194C191.381 130.153 192.386 131.038 192.607 131.373" fill="#76A633"/>
<path d="M199.704 126.528C199.345 126.544 198.263 126.326 197.041 125.879C196.434 125.651 195.894 125.398 195.501 125.145C195.1 124.901 194.873 124.641 194.796 124.514C194.981 124.555 195.27 124.715 195.7 124.883C196.119 125.059 196.663 125.261 197.255 125.483C198.444 125.921 199.45 126.31 199.704 126.528Z" fill="#76A633"/>
<path d="M195.271 119.936C195.36 120.23 195.233 121.143 195.053 122.212C194.968 122.746 194.891 123.236 194.854 123.624C194.799 124.019 194.811 124.305 194.754 124.457C194.665 124.337 194.518 124.04 194.479 123.628C194.425 123.218 194.45 122.703 194.536 122.154C194.718 121.059 195.065 120.179 195.271 119.936" fill="#76A633"/>
<path d="M206.485 116.943C206.56 117.195 206.432 117.935 206.157 118.786C205.917 119.647 205.605 120.351 205.398 120.539C205.313 120.296 205.408 119.548 205.65 118.683C205.929 117.82 206.272 117.121 206.485 116.943Z" fill="#76A633"/>
<path d="M209.537 121.482C209.243 121.539 208.346 121.414 207.314 121.157C206.299 120.872 205.482 120.547 205.279 120.358C205.581 120.311 206.466 120.463 207.476 120.746C208.494 120.998 209.318 121.298 209.537 121.482" fill="#76A633"/>
<path d="M166.34 157.122L180.006 159.818L180.138 159.549L166.476 156.854L166.34 157.122Z" fill="#51843E"/>
<path d="M177.866 133.963C176.61 134.892 174.544 137.763 172.692 141.277C170.839 144.79 169.763 147.875 169.885 149.099C171.139 148.17 173.207 145.298 175.059 141.786C176.914 138.272 177.987 135.187 177.866 133.963" fill="#51843E"/>
<path d="M166.07 156.688L171.326 145.88L171.668 145.947L166.413 156.753L166.07 156.688Z" fill="#51843E"/>
<path d="M186.026 130.462C184.769 131.391 182.704 134.262 180.85 137.775C178.997 141.29 177.921 144.373 178.042 145.599C179.299 144.668 181.365 141.795 183.217 138.284C185.071 134.771 186.147 131.686 186.026 130.462Z" fill="#51843E"/>
<path d="M174.232 153.19L179.486 142.383L179.828 142.446L174.573 153.256L174.232 153.19" fill="#51843E"/>
<path d="M182.633 223.464C176.708 214.547 178.635 205.13 183.324 199.799C188.013 194.467 192.881 194.099 193.214 195.507C193.214 195.507 194.326 206.565 198.359 205.327C202.392 204.087 203.089 198.338 198.904 196.832C198.904 196.832 202.079 190.468 209.764 194.138C209.764 194.138 208.802 199.92 214.298 200.009C217.645 200.062 216.751 193.993 214.325 193.765C214.325 193.765 236.256 193.406 239.331 197.866C243.034 203.233 230.163 214.976 230.163 214.976C229.469 212.95 225.201 209.531 223.155 212.851C220.655 216.911 226.862 218.926 226.862 218.926C226.781 226.28 218.557 225.324 218.557 225.324C219.112 221.569 212.785 219.154 209.454 221.411C206.12 223.666 217.051 230.066 217.051 230.066C218.345 231.016 215.497 234.311 207.578 234.961C199.661 235.613 187.777 230.922 182.633 223.464" fill="#8FCD3C"/>
<path d="M233.93 201.317C231.1 202.681 221.355 206.771 209.656 211.516C206.699 212.648 203.861 213.735 201.22 214.745C199.897 215.245 198.623 215.726 197.408 216.184C196.172 216.6 194.993 216.995 193.889 217.368C189.46 218.841 186.147 219.898 184.603 220.328C186.062 219.713 189.292 218.496 193.654 216.914C194.745 216.519 195.905 216.099 197.125 215.658C198.328 215.182 199.589 214.684 200.9 214.166C203.528 213.142 206.353 212.041 209.295 210.895C220.983 206.154 230.896 202.321 233.93 201.317" fill="#76A633"/>
<path d="M196.898 208.264C197.059 208.778 196.981 210.456 196.638 212.412C196.491 213.39 196.283 214.285 196.138 214.995C195.99 215.704 195.831 216.235 195.686 216.477C195.593 216.225 195.544 215.681 195.545 214.945C195.545 214.21 195.667 213.304 195.814 212.317C196.158 210.354 196.582 208.735 196.898 208.264Z" fill="#76A633"/>
<path d="M204.604 222.609C203.925 222.377 202.069 221.2 199.976 219.704C198.902 218.988 197.978 218.258 197.202 217.723C196.439 217.173 195.896 216.73 195.687 216.475C196.034 216.566 196.7 216.873 197.564 217.33C198.442 217.775 199.428 218.454 200.514 219.177C202.623 220.684 204.242 222.079 204.604 222.609" fill="#76A633"/>
<path d="M215.805 214.793C215.234 214.825 213.502 214.493 211.549 213.799C210.578 213.446 209.71 213.05 209.078 212.651C208.435 212.269 208.067 211.859 207.944 211.658C208.239 211.72 208.702 211.97 209.392 212.231C210.064 212.507 210.933 212.822 211.881 213.166C213.786 213.844 215.395 214.452 215.805 214.793" fill="#76A633"/>
<path d="M208.605 204.352C208.75 204.819 208.566 206.278 208.304 207.982C208.181 208.836 208.069 209.617 208.015 210.238C207.937 210.863 207.963 211.322 207.876 211.562C207.73 211.373 207.49 210.901 207.421 210.247C207.324 209.594 207.353 208.774 207.479 207.899C207.747 206.15 208.28 204.744 208.605 204.352Z" fill="#76A633"/>
<path d="M226.405 199.419C226.529 199.819 226.342 200.999 225.921 202.358C225.557 203.734 225.077 204.859 224.751 205.164C224.61 204.777 224.746 203.585 225.111 202.202C225.538 200.823 226.069 199.705 226.405 199.419" fill="#76A633"/>
<path d="M231.361 206.604C230.894 206.7 229.462 206.513 227.814 206.119C226.19 205.681 224.883 205.173 224.554 204.876C225.034 204.797 226.447 205.025 228.063 205.461C229.687 205.848 231.008 206.313 231.361 206.604" fill="#76A633"/>
<path d="M90.0329 162.358C91.2841 163.96 92.755 168.366 93.667 173.557C94.5796 178.745 94.6522 183.134 93.9593 184.715C92.7075 183.112 91.2353 178.703 90.3239 173.516C89.4113 168.327 89.3381 163.936 90.0329 162.358Z" fill="#51843E"/>
<path d="M80.4169 155.001C81.6688 156.604 83.141 161.01 84.0517 166.2C84.965 171.389 85.0362 175.778 84.344 177.357C83.0928 175.755 81.6193 171.348 80.708 166.159C79.7966 160.97 79.724 156.579 80.4169 155.001" fill="#51843E"/>
<path d="M109.318 184.295C116.208 178.036 116.86 170.103 114.315 165.03C111.771 159.956 107.919 158.871 107.319 159.956C107.319 159.956 103.822 168.728 100.849 167.074C97.8748 165.418 98.6608 160.653 102.401 160.111C102.401 160.111 101.326 154.446 94.2437 156.175C94.2437 156.175 93.6643 161.009 89.1957 160.193C86.4727 159.695 88.6222 154.928 90.639 155.135C90.639 155.135 72.9713 151.3 69.4366 154.414C65.1779 158.161 72.8387 169.745 72.8387 169.745C73.8755 168.219 78.1322 166.14 79.0099 169.158C80.0797 172.848 74.5823 173.477 74.5823 173.477C72.9212 179.443 79.8019 179.997 79.8019 179.997C80.2335 176.867 85.9236 175.937 88.0889 178.3C90.2576 180.664 79.9068 184.079 79.9068 184.079C78.6364 184.639 80.1688 187.766 86.4252 189.572C92.6803 191.379 103.401 189.503 109.318 184.295" fill="#8FCD3C"/>
<path d="M72.9957 158.083C74.9644 159.643 81.8926 164.53 90.2476 170.259C92.3747 171.654 94.4166 172.993 96.3179 174.238C97.2696 174.856 98.1895 175.451 99.0646 176.018C99.9688 176.553 100.829 177.065 101.637 177.545C104.874 179.453 107.307 180.843 108.456 181.441C107.42 180.708 105.091 179.201 101.931 177.215C101.144 176.719 100.301 176.193 99.4177 175.638C98.5558 175.057 97.6504 174.451 96.7132 173.82C94.8264 172.566 92.797 171.22 90.6852 169.815C82.3374 164.09 75.2132 159.386 72.9957 158.083" fill="#76A633"/>
<path d="M101.341 169.689C101.089 170.079 100.759 171.45 100.578 173.089C100.466 173.904 100.426 174.66 100.375 175.26C100.329 175.859 100.332 176.313 100.394 176.533C100.528 176.345 100.696 175.911 100.868 175.316C101.041 174.721 101.155 173.967 101.266 173.145C101.448 171.501 101.485 170.122 101.341 169.689" fill="#76A633"/>
<path d="M91.7333 180.054C92.3377 179.977 94.1149 179.323 96.1612 178.451C97.1979 178.043 98.1165 177.602 98.8714 177.296C99.6191 176.974 100.163 176.703 100.392 176.531C100.09 176.547 99.4779 176.687 98.6695 176.918C97.8565 177.137 96.8977 177.527 95.8484 177.937C93.7875 178.817 92.1497 179.685 91.7333 180.054Z" fill="#76A633"/>
<path d="M84.5013 171.918C84.9554 172.037 86.4342 172.049 88.1803 171.801C89.0494 171.672 89.8426 171.493 90.4484 171.272C91.0588 171.067 91.4527 170.794 91.5999 170.65C91.3478 170.653 90.9129 170.782 90.294 170.881C89.6855 170.996 88.9075 171.11 88.0589 171.235C86.357 171.477 84.9131 171.707 84.5013 171.918" fill="#76A633"/>
<path d="M92.7818 164.632C92.5541 164.988 92.3601 166.197 92.172 167.619C92.0717 168.331 91.9793 168.981 91.8757 169.491C91.7919 170.01 91.6639 170.377 91.6771 170.586C91.8401 170.457 92.145 170.114 92.3555 169.595C92.5858 169.083 92.7554 168.413 92.8603 167.686C93.0543 166.227 92.952 165.002 92.7818 164.632Z" fill="#76A633"/>
<path d="M79.5323 157.759C79.3383 158.063 79.2123 159.05 79.2334 160.217C79.2044 161.389 79.3304 162.378 79.5218 162.676C79.727 162.387 79.8979 161.399 79.9256 160.22C79.9039 159.036 79.7362 158.046 79.5323 157.759" fill="#76A633"/>
<path d="M73.8319 162.775C74.1876 162.928 75.3893 163.009 76.8173 162.956C78.2334 162.863 79.412 162.665 79.7473 162.476C79.377 162.336 78.18 162.291 76.7704 162.383C75.3635 162.434 74.185 162.597 73.8319 162.775" fill="#76A633"/>
<path d="M109.189 131.781C112.833 126.151 111.544 120.252 108.555 116.934C105.568 113.614 102.51 113.41 102.313 114.296C102.313 114.296 101.708 121.244 99.1662 120.489C96.6248 119.734 96.1397 116.131 98.7524 115.162C98.7524 115.162 96.7066 111.185 91.914 113.533C91.914 113.533 92.566 117.155 89.1184 117.243C87.0171 117.296 87.5279 113.483 89.0471 113.326C89.0471 113.326 75.2805 113.226 73.389 116.043C71.1095 119.435 79.2864 126.729 79.2864 126.729C79.7048 125.454 82.3552 123.283 83.6672 125.355C85.2702 127.889 81.3923 129.19 81.3923 129.19C81.5052 133.806 86.6574 133.157 86.6574 133.157C86.276 130.802 90.2285 129.252 92.337 130.647C94.4489 132.045 87.6428 136.125 87.6428 136.125C86.8383 136.729 88.6551 138.78 93.6299 139.142C98.6033 139.505 106.023 136.493 109.189 131.781Z" fill="#8FCD3C"/>
<path d="M76.8054 118.179C78.5919 119.018 84.7434 121.529 92.125 124.437C93.9907 125.132 95.7811 125.798 97.4488 126.417C98.281 126.722 99.0855 127.016 99.8504 127.297C100.632 127.551 101.374 127.792 102.071 128.019C104.862 128.919 106.95 129.564 107.922 129.824C107.002 129.447 104.964 128.701 102.214 127.733C101.527 127.492 100.794 127.236 100.026 126.965C99.2664 126.673 98.4698 126.369 97.6442 126.051C95.9851 125.422 94.2019 124.749 92.3467 124.046C84.9711 121.138 78.7167 118.79 76.8054 118.179" fill="#76A633"/>
<path d="M100.106 122.323C100.01 122.647 100.073 123.699 100.306 124.926C100.405 125.539 100.544 126.098 100.64 126.543C100.739 126.988 100.843 127.32 100.937 127.47C100.993 127.312 101.02 126.969 101.011 126.508C101.006 126.046 100.922 125.479 100.821 124.86C100.589 123.632 100.309 122.618 100.106 122.323" fill="#76A633"/>
<path d="M95.3903 131.373C95.8139 131.224 96.9674 130.474 98.2694 129.522C98.9366 129.066 99.51 128.603 99.9937 128.263C100.468 127.913 100.806 127.632 100.935 127.471C100.718 127.53 100.301 127.725 99.7621 128.019C99.2164 128.302 98.6013 128.734 97.9269 129.194C96.6164 130.153 95.6113 131.038 95.3903 131.373" fill="#76A633"/>
<path d="M88.2927 126.528C88.6517 126.544 89.7339 126.326 90.9554 125.879C91.5625 125.651 92.103 125.398 92.4963 125.145C92.8968 124.901 93.1239 124.641 93.2004 124.514C93.0156 124.555 92.7273 124.715 92.2963 124.883C91.8773 125.059 91.3342 125.261 90.7416 125.483C89.5525 125.921 88.5468 126.31 88.2927 126.528Z" fill="#76A633"/>
<path d="M92.7255 119.936C92.6371 120.23 92.7638 121.143 92.9439 122.212C93.0291 122.746 93.1056 123.236 93.1426 123.624C93.1973 124.019 93.1855 124.305 93.2422 124.457C93.332 124.337 93.4785 124.04 93.5181 123.628C93.5715 123.218 93.5471 122.703 93.4606 122.154C93.2785 121.059 92.9314 120.179 92.7255 119.936" fill="#76A633"/>
<path d="M81.5117 116.943C81.4371 117.195 81.5651 117.935 81.8403 118.786C82.0798 119.647 82.392 120.351 82.5985 120.539C82.6843 120.296 82.5886 119.548 82.3471 118.683C82.068 117.82 81.7248 117.121 81.5117 116.943Z" fill="#76A633"/>
<path d="M121.927 156.688L116.672 145.88L116.33 145.947L121.584 156.753L121.927 156.688Z" fill="#51843E"/>
<path d="M101.973 130.46C103.23 131.39 105.295 134.261 107.148 137.774C109.001 141.288 110.077 144.372 109.956 145.597C108.7 144.667 106.634 141.794 104.781 138.283C102.928 134.769 101.851 131.684 101.973 130.46Z" fill="#51843E"/>
<path d="M113.768 153.19L108.513 142.383L108.171 142.446L113.426 153.256L113.768 153.19" fill="#51843E"/>
<path d="M105.367 223.463C111.292 214.547 109.365 205.13 104.676 199.798C99.9869 194.467 95.119 194.098 94.7864 195.506C94.7864 195.506 93.6744 206.565 89.6414 205.326C85.6077 204.086 84.9115 198.338 89.0963 196.832C89.0963 196.832 85.9212 190.467 78.236 194.137C78.236 194.137 79.1982 199.919 73.7021 200.008C70.3555 200.062 71.2491 193.993 73.6751 193.764C73.6751 193.764 51.7441 193.406 48.6693 197.866C44.966 203.233 57.8375 214.976 57.8375 214.976C58.5311 212.95 62.799 209.53 64.8455 212.851C67.3448 216.91 61.1385 218.926 61.1385 218.926C61.2191 226.28 69.4428 225.324 69.4428 225.324C68.8878 221.568 75.2141 219.154 78.5462 221.41C81.8796 223.665 70.9481 230.065 70.9481 230.065C69.6546 231.016 72.503 234.31 80.4225 234.961C88.3386 235.613 100.223 230.921 105.367 223.463" fill="#8FCD3C"/>
<path d="M54.068 201.317C56.8972 202.681 66.6428 206.771 78.3418 211.516C81.2984 212.648 84.1369 213.735 86.778 214.745C88.1006 215.245 89.375 215.726 90.5886 216.184C91.826 216.6 93.0041 216.995 94.1082 217.368C98.5371 218.841 101.851 219.898 103.394 220.328C101.936 219.713 98.7054 218.496 94.3438 216.914C93.2529 216.519 92.0927 216.099 90.8724 215.658C89.67 215.182 88.4081 214.684 87.0975 214.166C84.4695 213.142 81.6449 212.041 78.7022 210.895C67.0143 206.154 57.1018 202.321 54.068 201.317Z" fill="#76A633"/>
<path d="M91.1009 208.264C90.9399 208.778 91.0178 210.456 91.3609 212.412C91.5074 213.39 91.7159 214.285 91.8611 214.995C92.0089 215.704 92.168 216.235 92.3125 216.477C92.4062 216.225 92.455 215.681 92.4537 214.945C92.4537 214.21 92.3323 213.304 92.1851 212.317C91.8407 210.354 91.417 208.735 91.1009 208.264Z" fill="#76A633"/>
<path d="M83.3956 222.609C84.0747 222.377 85.9303 221.2 88.0235 219.704C89.0972 218.988 90.021 218.258 90.7971 217.723C91.5606 217.173 92.1037 216.73 92.3129 216.475C91.9658 216.566 91.2993 216.873 90.4355 217.33C89.5578 217.775 88.5712 218.454 87.485 219.177C85.376 220.684 83.7573 222.079 83.3956 222.609Z" fill="#76A633"/>
<path d="M72.1938 214.793C72.7653 214.825 74.4969 214.493 76.4502 213.799C77.4216 213.446 78.2887 213.05 78.9209 212.651C79.5636 212.269 79.9325 211.859 80.0552 211.658C79.7603 211.72 79.297 211.97 78.6074 212.231C77.935 212.507 77.0666 212.822 76.1176 213.166C74.2131 213.844 72.6036 214.452 72.1938 214.793" fill="#76A633"/>
<path d="M79.3938 204.352C79.2486 204.819 79.4327 206.278 79.6947 207.982C79.8174 208.836 79.9296 209.617 79.983 210.238C80.0609 210.863 80.0352 211.322 80.1223 211.562C80.2681 211.373 80.5083 210.901 80.5776 210.247C80.6733 209.594 80.6449 208.774 80.5202 207.899C80.2516 206.15 79.7184 204.744 79.3938 204.352Z" fill="#76A633"/>
<path d="M61.594 199.419C61.4706 199.819 61.6567 200.999 62.0777 202.358C62.4427 203.734 62.9218 204.859 63.2477 205.164C63.3896 204.777 63.2537 203.585 62.8881 202.202C62.4605 200.823 61.9299 199.705 61.594 199.419" fill="#76A633"/>
<path d="M56.6364 206.604C57.1036 206.7 58.5349 206.513 60.1833 206.119C61.8073 205.681 63.1139 205.173 63.4432 204.876C62.9628 204.797 61.55 205.025 59.9345 205.461C58.3099 205.848 56.9894 206.313 56.6364 206.604" fill="#76A633"/>
<path d="M102.138 185.502C102.138 185.502 118.763 139.667 86.9183 102.378C86.9183 102.378 96.753 91.8914 119.465 88.59L125.787 98.4952L123.68 87.2292C123.68 87.2292 139.367 80.2383 165.124 85.4819L163.718 98.106L168.635 87.8122C168.635 87.8122 188.773 88.9787 200.715 100.436C200.715 100.436 171.679 145.883 186.782 185.502C186.782 185.502 146.392 210.264 102.138 185.502" fill="#C74F39"/>
<path d="M174.02 231.919L176.293 235.592C190.102 231.646 198.372 226.481 198.372 226.481L182.215 185.857H105.649L91.6 226.676C99.4812 230.745 107.18 233.702 114.606 235.788L116.42 231.919L117.353 236.524C139.127 242.063 158.384 240.145 172.656 236.567L174.02 231.919" fill="#963532"/>
<path d="M198.372 226.481L193.809 215.013C149.631 231.816 108.008 219.904 95.4455 215.503L91.6 226.676C99.4812 230.745 107.18 233.702 114.606 235.788L116.42 231.919L117.353 236.524C139.127 242.063 158.384 240.145 172.656 236.567L174.02 231.919L176.293 235.592C190.102 231.646 198.372 226.481 198.372 226.481" fill="#FBCA3B"/>
<path d="M96.7517 109.955H101.902V101.992H96.7517V109.955Z" fill="#A14130"/>
<path d="M124.613 110.341C124.269 110.005 123.662 109.203 122.907 108.095C122.721 107.816 122.523 107.519 122.314 107.208C122.131 106.887 121.94 106.55 121.741 106.2C121.347 105.498 120.935 104.739 120.517 103.945C118.943 100.739 117.759 98.0177 117.589 97.1347C118.223 97.8474 119.76 100.469 121.328 103.664C121.744 104.452 122.132 105.213 122.483 105.924C122.656 106.281 122.823 106.624 122.981 106.952C123.154 107.274 123.318 107.58 123.472 107.867C124.082 109.022 124.492 109.903 124.613 110.341" fill="#A14130"/>
<path d="M114.274 118.304C113.837 118.049 112.964 116.948 112.124 115.555C111.284 114.16 110.746 112.92 110.762 112.478C111.199 112.732 112.07 113.834 112.91 115.228C113.752 116.621 114.29 117.861 114.274 118.304Z" fill="#A14130"/>
<path d="M135.385 102.378C135.076 101.632 134.657 99.0486 134.565 95.976C134.523 95.2124 134.493 94.4767 134.476 93.7935C134.469 93.4514 134.465 93.1208 134.46 92.8066C134.442 92.4957 134.425 92.1973 134.41 91.9187C134.357 90.7998 134.369 89.9574 134.448 89.5599C134.619 89.9283 134.827 90.7527 135.037 91.8744C135.087 92.1552 135.138 92.4541 135.194 92.7677C135.223 93.0825 135.256 93.412 135.288 93.7558C135.348 94.4422 135.401 95.1817 135.444 95.9508C135.537 99.0245 135.58 101.588 135.385 102.378" fill="#A14130"/>
<path d="M150.604 114.613C150.579 114.455 150.581 114.212 150.604 113.903C150.62 113.75 150.638 113.58 150.657 113.393C150.669 113.205 150.683 113.003 150.698 112.787C150.789 111.927 150.835 110.841 150.929 109.658C151.011 108.472 151.109 107.375 151.267 106.504C151.407 105.633 151.622 104.993 151.774 104.708C151.874 105.019 151.879 105.668 151.897 106.54C151.895 107.41 151.889 108.506 151.807 109.699C151.713 110.894 151.571 111.998 151.321 112.863C151.26 113.077 151.203 113.279 151.15 113.464C151.078 113.646 151.009 113.813 150.948 113.962C150.82 114.258 150.702 114.48 150.604 114.613" fill="#A14130"/>
<path d="M156.691 92.2808C156.496 91.8784 156.499 90.569 156.725 89.027C156.947 87.5025 157.319 86.238 157.629 85.8718C157.825 86.2741 157.822 87.583 157.595 89.1256C157.374 90.649 157 91.9151 156.691 92.2808" fill="#A14130"/>
<path d="M134.867 115.105C134.566 114.75 134.212 113.473 134.012 111.93C133.813 110.402 133.831 109.101 134.032 108.687C134.333 109.041 134.687 110.317 134.887 111.862C135.086 113.389 135.068 114.69 134.867 115.105" fill="#A14130"/>
<path d="M167.931 106.263C167.953 105.893 168.16 105.121 168.51 104.095C168.599 103.839 168.696 103.567 168.798 103.281C168.921 103.002 169.052 102.711 169.187 102.409C169.462 101.804 169.77 101.159 170.101 100.49C170.43 99.8247 170.756 99.1908 171.069 98.604C171.23 98.3111 171.383 98.0297 171.53 97.761C171.663 97.4895 171.791 97.2322 171.911 96.9891C172.4 96.0208 172.817 95.3097 173.081 94.9982C173.06 95.3699 172.851 96.1418 172.503 97.1681C172.413 97.4243 172.315 97.6964 172.214 97.9816C172.089 98.2602 171.96 98.5514 171.826 98.8541C171.55 99.4579 171.242 100.104 170.912 100.773C170.582 101.438 170.256 102.071 169.942 102.659C169.782 102.952 169.629 103.234 169.483 103.502C169.348 103.773 169.221 104.031 169.101 104.273C168.611 105.241 168.195 105.953 167.931 106.263Z" fill="#A14130"/>
<path d="M189.004 105.875C189.031 105.605 189.207 105.05 189.564 104.357C189.91 103.657 190.414 102.815 190.973 101.914C191.512 101.007 192.036 100.188 192.387 99.5137C192.484 99.3468 192.574 99.1902 192.658 99.0457C192.733 98.899 192.802 98.7649 192.864 98.6433C192.996 98.403 193.118 98.2191 193.219 98.1069C193.241 98.2416 193.235 98.4496 193.204 98.7205C193.187 98.8557 193.165 99.0068 193.135 99.171C193.088 99.3314 193.036 99.5039 192.981 99.6894C192.765 100.438 192.307 101.32 191.757 102.244C191.189 103.159 190.603 103.967 190.123 104.597C189.631 105.225 189.262 105.691 189.004 105.875" fill="#A14130"/>
<path d="M175.658 117.14C175.61 116.924 175.664 116.484 175.809 115.903C175.871 115.608 175.984 115.289 176.141 114.954C176.289 114.615 176.456 114.253 176.648 113.883C177.488 112.429 178.486 111.357 178.936 111.119C178.918 111.575 178.258 112.784 177.445 114.191C177.261 114.549 177.078 114.891 176.895 115.205C176.704 115.516 176.537 115.809 176.404 116.072C176.119 116.596 175.854 116.978 175.658 117.14" fill="#A14130"/>
<path d="M107.99 203.76C107.85 203.175 108.022 201.324 108.448 199.154C108.809 196.968 109.289 195.153 109.631 194.632C109.791 195.208 109.68 197.068 109.318 199.257C108.89 201.445 108.347 203.254 107.99 203.76" fill="#7B2C2A"/>
<path d="M117.825 215.023C117.691 214.259 117.897 211.732 118.371 208.744C118.91 205.778 119.546 203.309 119.932 202.594C120.049 203.365 119.78 205.882 119.24 208.855C118.77 211.821 118.196 214.296 117.825 215.023" fill="#7B2C2A"/>
<path d="M144.285 212.886C144.039 211.828 143.876 208.272 143.903 204.048C143.89 202.992 143.888 201.98 143.897 201.036C143.904 200.566 143.912 200.111 143.918 199.679C143.914 199.246 143.911 198.835 143.908 198.45C143.904 196.905 143.953 195.75 144.05 195.213C144.205 195.734 144.376 196.883 144.537 198.431C144.574 198.819 144.612 199.23 144.653 199.664C144.671 200.098 144.69 200.553 144.71 201.025C144.745 201.971 144.769 202.988 144.782 204.048C144.755 208.281 144.545 211.827 144.285 212.886" fill="#7B2C2A"/>
<path d="M177.063 209.39C176.642 208.906 175.9 207.164 175.153 205.04C174.414 202.906 174.151 201.032 174.254 200.457C174.65 200.962 175.267 202.727 175.999 204.841C176.745 206.959 177.135 208.807 177.063 209.39" fill="#7B2C2A"/>
<path d="M180.81 196.379C180.327 195.833 179.379 193.879 178.336 191.493C178.1 190.886 177.886 190.301 177.697 189.754C177.606 189.48 177.517 189.216 177.433 188.964C177.379 188.706 177.328 188.459 177.281 188.226C177.103 187.298 177.025 186.606 177.065 186.28C177.274 186.571 177.568 187.223 177.892 188.099C177.97 188.318 178.052 188.552 178.14 188.798C178.246 189.04 178.359 189.294 178.475 189.557C178.702 190.086 178.935 190.656 179.166 191.255C180.206 193.627 180.816 195.72 180.81 196.379" fill="#7B2C2A"/>
<path d="M142.524 223.697C142.228 223.692 141.937 223.686 141.642 223.679C141.488 221.319 141.506 219.322 141.708 218.715C142.007 219.304 142.36 221.289 142.524 223.697" fill="#7B2C2A"/>
<path d="M141.942 228.812C141.839 228.498 141.78 227.834 141.77 226.957C141.769 226.737 141.768 226.505 141.767 226.259C141.751 226.013 141.732 225.755 141.714 225.487C141.681 224.951 141.66 224.377 141.648 223.776C141.646 223.744 141.644 223.711 141.642 223.677C141.937 223.684 142.227 223.69 142.523 223.696C142.524 223.712 142.525 223.729 142.527 223.746C142.539 224.356 142.538 224.942 142.527 225.486C142.519 225.759 142.51 226.02 142.502 226.27C142.475 226.519 142.434 226.757 142.399 226.98C142.252 227.87 142.091 228.523 141.942 228.812Z" fill="#CEA732"/>
<path d="M184.558 227.453C184.231 227.259 183.749 226.461 183.474 225.415C183.217 224.359 183.394 223.434 183.621 223.181C183.902 223.447 184.095 224.279 184.336 225.271C184.598 226.263 184.718 227.143 184.558 227.453Z" fill="#CEA732"/>
<path d="M107.287 229.008C107.095 228.617 107.11 227.336 107.354 225.83C107.675 224.345 108.128 223.125 108.457 222.792C108.626 223.202 108.541 224.47 108.221 225.949C107.984 227.427 107.6 228.651 107.287 229.008Z" fill="#CEA732"/>
<path d="M123.211 152.291C122.84 151.644 122.221 149.399 121.812 146.671C121.733 145.987 121.672 145.328 121.625 144.716C121.604 144.409 121.584 144.115 121.565 143.833C121.563 143.55 121.574 143.281 121.581 143.03C121.616 142.019 121.694 141.27 121.807 140.929C121.948 141.27 122.09 142.012 122.21 143.003C122.239 143.251 122.267 143.515 122.299 143.792C122.343 144.069 122.388 144.358 122.435 144.66C122.525 145.263 122.608 145.912 122.686 146.588C123.09 149.289 123.34 151.58 123.211 152.291" fill="#A14130"/>
<path d="M144.986 162.197C144.67 161.659 144.273 159.801 144.021 157.57C143.769 155.339 143.743 153.451 143.932 152.874C144.248 153.414 144.646 155.271 144.896 157.5C145.148 159.729 145.175 161.617 144.986 162.197" fill="#A14130"/>
<path d="M167.112 151.125C166.797 150.479 166.399 148.267 166.148 145.618C165.896 142.97 165.87 140.733 166.059 140.055C166.375 140.701 166.773 142.912 167.025 145.56C167.277 148.208 167.302 150.444 167.112 151.125Z" fill="#A14130"/>
<path d="M161.845 133.064C161.591 132.505 161.405 130.634 161.405 128.404C161.405 126.173 161.591 124.301 161.845 123.743C162.099 124.301 162.284 126.173 162.284 128.404C162.284 130.634 162.099 132.505 161.845 133.064Z" fill="#A14130"/>
<path d="M128.831 130.152C128.484 129.898 127.88 128.833 127.613 127.473C127.524 126.792 127.444 126.164 127.512 125.659C127.567 125.155 127.658 124.784 127.777 124.617C127.912 124.785 128.039 125.147 128.141 125.628C128.229 126.11 128.399 126.707 128.483 127.361C128.738 128.662 128.962 129.756 128.831 130.152" fill="#A14130"/>
<path d="M111.62 150.835C111.362 150.415 111.158 149.015 111.136 147.347C110.99 145.694 111.054 144.29 111.268 143.844C111.557 144.233 111.868 145.635 112.015 147.324C112.037 149.004 111.868 150.416 111.62 150.835" fill="#A14130"/>
<path d="M178.703 149.961C178.444 149.436 178.24 147.684 178.218 145.596C178.072 143.523 178.135 141.767 178.351 141.221C178.64 141.72 178.951 143.474 179.099 145.578C179.12 147.675 178.951 149.437 178.703 149.961" fill="#A14130"/>
<path d="M135.271 123.336L135.12 144.309C135.12 144.309 130.817 144.457 129.544 146.204C128.271 147.952 138.241 156.408 143.809 156.699C149.377 156.99 158.209 148.68 158.195 146.495C158.181 144.31 152.56 143.711 152.56 143.711L152.429 124.3L135.271 123.336Z" fill="#A8E2DA"/>
<path d="M100.346 135.735C100.346 135.735 110.862 128.892 130.628 129.514C130.628 129.514 133.94 143.512 118.372 145.845C102.805 148.178 100.346 135.735 100.346 135.735" fill="#FBCA3B"/>
<path d="M107.766 137.829C107.766 137.829 114.389 134.206 124.214 134.334C124.214 134.334 124.348 140.472 117.95 141.373C109.764 142.524 107.766 137.829 107.766 137.829Z" fill="#522B25"/>
<path d="M139.015 124.824C139.015 124.824 137.552 151.125 143.815 151.125C150.078 151.125 148.85 124.824 148.85 124.824C148.85 124.824 142.777 123.432 139.015 124.824Z" fill="#76D0BB"/>
<path d="M109.511 148.941L124.214 147.047V151.125L110.39 152.437L109.511 148.941Z" fill="white"/>
<path d="M187.324 135.735C187.324 135.735 176.809 128.892 157.042 129.514C157.042 129.514 153.731 143.512 169.298 145.845C184.866 148.178 187.324 135.735 187.324 135.735" fill="#FBCA3B"/>
<path d="M179.904 137.829C179.904 137.829 173.281 134.206 163.455 134.334C163.455 134.334 163.322 140.472 169.72 141.373C177.905 142.524 179.904 137.829 179.904 137.829Z" fill="#522B25"/>
<path d="M178.158 148.941L163.455 147.047V151.125L177.28 152.437L178.158 148.941" fill="white"/>
<path d="M139.538 176.502C139.538 176.502 130.927 199.778 131.641 201.817C132.353 203.856 155.838 204.534 157.327 201.089C158.145 199.195 150.803 176.502 150.803 176.502C150.803 176.502 144.044 173.588 139.538 176.502Z" fill="#A8E2DA"/>
<path d="M155.366 179.575C155.366 179.575 160.533 197.767 161.825 198.996C163.118 200.228 176.858 194.88 176.214 192.134C175.859 190.625 161.813 176.786 161.813 176.786C161.813 176.786 156.682 176.45 155.366 179.575" fill="#A8E2DA"/>
<path d="M134.65 179.966C134.65 179.966 129.483 198.157 128.191 199.387C126.897 200.619 113.158 195.271 113.802 192.525C114.155 191.015 128.201 177.177 128.201 177.177C128.201 177.177 133.334 176.841 134.65 179.966" fill="#A8E2DA"/>
<path d="M189.237 203.511C189.237 203.511 192.871 205.605 193.573 211.529L177.651 218.034C177.651 218.034 175.418 223.739 173.985 224.535C172.553 225.33 159.134 230.609 159.134 230.609L156.458 227.043L166.602 222.06L155.075 225.342L153.678 221.688L165.464 217.624L153.278 219.37L151.509 215.749L164.486 212.229L162.771 210.71L155.729 212.129C155.729 212.129 152.437 209.425 154.262 206.929L163.981 205.345L172.149 208.907L189.237 203.511" fill="#C74F39"/>
<path d="M188.771 205.505C188.771 205.505 191.464 208.32 191.347 210.748L176.234 216.283L171.913 215.313L174.02 211.331L188.771 205.505" fill="#A8E2DA"/>
<path d="M99.4375 203.511C99.4375 203.511 95.8044 205.605 95.1016 211.529L111.024 218.034C111.024 218.034 113.257 223.739 114.69 224.535C116.122 225.33 129.541 230.609 129.541 230.609L132.217 227.043L122.072 222.06L133.6 225.342L134.997 221.688L123.21 217.624L135.398 219.37L137.166 215.749L124.189 212.229L125.904 210.71L132.945 212.129C132.945 212.129 136.238 209.425 134.414 206.929L124.693 205.345L116.526 208.907L99.4375 203.511" fill="#C74F39"/>
<path d="M99.904 205.505C99.904 205.505 97.2107 208.32 97.3275 210.748L112.441 216.283L116.762 215.313L114.655 211.331L99.904 205.505" fill="#A8E2DA"/>
<path d="M94.936 120.975C94.936 120.975 97.5699 128.257 100.379 132.482C100.379 132.482 144.81 115.731 189.766 132.482C189.766 132.482 193.454 126.509 194.683 119.664C194.683 119.664 146.164 101.859 94.936 120.975" fill="#FBCA3B"/>
<path d="M110.338 123.526C110.303 124.577 108.97 125.401 107.703 125.372C106.435 125.344 105.155 124.463 105.189 123.412C105.224 122.362 106.566 121.267 107.833 121.296C109.1 121.324 110.371 122.476 110.338 123.526" fill="#F57830"/>
<path d="M120.455 120.975C120.42 122.027 119.087 122.85 117.82 122.821C116.552 122.794 115.273 121.913 115.306 120.861C115.341 119.812 116.683 118.716 117.95 118.745C119.217 118.773 120.488 119.925 120.455 120.975Z" fill="#F57830"/>
<path d="M129.998 119.449C129.964 120.501 128.63 121.324 127.363 121.296C126.095 121.268 124.817 120.387 124.85 119.335C124.884 118.286 126.227 117.19 127.494 117.219C128.76 117.247 130.033 118.399 129.998 119.449" fill="#F57830"/>
<path d="M139.841 118.935C139.808 119.987 138.474 120.81 137.207 120.782C135.939 120.754 134.66 119.873 134.693 118.822C134.728 117.772 136.07 116.677 137.338 116.705C138.605 116.733 139.875 117.886 139.841 118.935" fill="#F57830"/>
<path d="M148.534 118.935C148.5 119.987 147.166 120.81 145.899 120.782C144.632 120.754 143.353 119.873 143.386 118.822C143.421 117.772 144.763 116.677 146.03 116.705C147.297 116.733 148.569 117.886 148.534 118.935" fill="#F57830"/>
<path d="M158.195 118.935C158.161 119.987 156.827 120.81 155.56 120.782C154.292 120.754 153.013 119.873 153.047 118.822C153.081 117.772 154.424 116.677 155.691 116.705C156.958 116.733 158.229 117.886 158.195 118.935" fill="#F57830"/>
<path d="M167.229 119.449C167.194 120.501 165.861 121.324 164.594 121.296C163.326 121.268 162.046 120.387 162.08 119.335C162.114 118.286 163.457 117.19 164.724 117.219C165.991 117.247 167.262 118.399 167.229 119.449" fill="#F57830"/>
<path d="M176.83 120.977C176.796 122.029 175.462 122.852 174.195 122.823C172.928 122.796 171.648 121.915 171.682 120.864C171.716 119.814 173.059 118.718 174.326 118.747C175.593 118.775 176.864 119.927 176.83 120.977" fill="#F57830"/>
<path d="M185.896 123.441C185.912 124.493 184.619 125.359 183.351 125.373C182.084 125.386 180.763 124.548 180.747 123.496C180.73 122.446 182.02 121.308 183.287 121.295C184.554 121.281 185.879 122.391 185.896 123.441" fill="#F57830"/>
<path d="M183.225 81.6761L185.589 82.1671L184.891 79.4033C186.328 77.6056 187.879 76.0149 189.409 74.6349L190.924 76.0433L191.124 73.1624C195.212 69.8238 198.712 68.0945 198.712 68.0945C197.488 69.555 198.393 72.661 197.556 75.393L195.25 77.4606L197.573 77.61C197.576 79.6726 197.51 81.9969 197.171 84.5844L194.474 85.8774L196.698 87.3953C196.644 87.6614 196.599 87.923 196.537 88.1918C194.214 98.6658 179.94 104.925 179.94 104.925C176.842 95.4071 179.239 87.6083 183.225 81.6761Z" fill="#FBCA3B"/>
<path d="M192.391 77.6515C191.618 78.9532 189.613 83.4462 187.146 88.7889C186.565 90.1377 186.006 91.4312 185.487 92.636C185.234 93.2392 184.991 93.8206 184.759 94.374C184.557 94.9378 184.364 95.4726 184.183 95.9762C183.474 97.9934 182.991 99.5009 182.828 100.207C183.191 99.548 183.847 98.0859 184.675 96.1109C184.881 95.6166 185.098 95.0916 185.328 94.5393C185.58 93.9919 185.843 93.4182 186.117 92.821C186.651 91.6249 187.225 90.3391 187.823 88.9996C190.29 83.6575 192.016 79.0545 192.391 77.6515" fill="#D7A628"/>
<path d="M192.204 91.652C191.749 91.611 190.389 91.9071 188.858 92.3828C188.473 92.4879 188.104 92.5886 187.763 92.6932C187.422 92.7988 187.11 92.9072 186.826 92.9636C186.261 93.1037 185.837 93.2455 185.643 93.3632C185.854 93.4174 186.313 93.4245 186.937 93.3829C187.255 93.3747 187.591 93.3063 187.952 93.2252C188.313 93.1453 188.703 93.0566 189.101 92.9466C190.661 92.4633 191.888 91.9367 192.204 91.652" fill="#D7A628"/>
<path d="M184.142 87.4495C184.024 87.8315 184.164 89.0501 184.513 90.4744C184.881 91.885 185.346 93.0406 185.643 93.3608C185.754 92.9744 185.588 91.7602 185.218 90.3452C184.875 88.9379 184.435 87.7768 184.142 87.4495Z" fill="#D7A628"/>
<path d="M194.456 82.0081C194.118 81.9451 193.193 82.1531 192.164 82.5396C191.144 82.8965 190.341 83.3082 190.143 83.5632C190.465 83.6377 191.41 83.4543 192.464 83.0854C193.484 82.7016 194.281 82.2632 194.456 82.0081" fill="#D7A628"/>
<path d="M189.58 79.2098C189.409 79.472 189.377 80.3067 189.521 81.2844C189.735 82.2626 190.076 83.0574 190.331 83.2534C190.479 82.9677 190.443 82.1466 190.236 81.1996C190.094 80.2318 189.824 79.4347 189.58 79.2098" fill="#D7A628"/>
<path d="M108.143 82.1521L105.78 82.6437L106.479 79.8798C105.042 78.0822 103.489 76.4914 101.96 75.112L100.446 76.5194L100.244 73.6384C96.1574 70.3003 92.6556 68.5716 92.6556 68.5716C93.8812 70.031 92.9757 73.137 93.8125 75.8696L96.1184 77.9377L93.7954 78.0866C93.7927 80.1497 93.8581 82.4729 94.1973 85.061L96.8952 86.3534L94.6711 87.8714C94.7253 88.1374 94.7688 88.3996 94.8309 88.6689C97.1552 99.1418 111.429 105.402 111.429 105.402C114.527 95.8842 112.129 88.0843 108.143 82.1521" fill="#FBCA3B"/>
<path d="M98.9742 78.1286C99.7476 79.4286 101.752 83.9233 104.22 89.2665C104.801 90.6137 105.359 91.9077 105.879 93.112C106.132 93.7158 106.374 94.2966 106.607 94.8511C106.808 95.4144 107.001 95.9492 107.183 96.4528C107.891 98.4694 108.375 99.9775 108.538 100.683C108.175 100.024 107.518 98.5625 106.691 96.5875C106.485 96.0937 106.267 95.5676 106.037 95.0159C105.786 94.4685 105.523 93.8942 105.249 93.2981C104.715 92.1015 104.14 90.8157 103.542 89.4756C101.075 84.1346 99.3504 79.5316 98.9742 78.1286Z" fill="#D7A628"/>
<path d="M99.1637 92.126C99.619 92.0855 100.979 92.3822 102.51 92.8568C102.895 92.9624 103.264 93.0631 103.605 93.1677C103.946 93.2739 104.258 93.3817 104.543 93.4381C105.107 93.5783 105.532 93.72 105.726 93.8372C105.515 93.8919 105.056 93.8996 104.432 93.8569C104.114 93.8492 103.778 93.7802 103.416 93.6992C103.055 93.6193 102.664 93.5306 102.268 93.4211C100.707 92.9378 99.4798 92.4106 99.1637 92.126Z" fill="#D7A628"/>
<path d="M107.227 87.9266C107.346 88.3087 107.206 89.5266 106.858 90.951C106.488 92.3622 106.024 93.5172 105.727 93.8374C105.616 93.4515 105.782 92.2374 106.152 90.8223C106.496 89.415 106.935 88.2545 107.227 87.9266Z" fill="#D7A628"/>
<path d="M96.912 82.4847C97.2492 82.4212 98.1737 82.6303 99.2038 83.0162C100.224 83.3731 101.027 83.7853 101.224 84.0398C100.902 84.1143 99.9581 83.9304 98.9042 83.5614C97.8834 83.1782 97.0869 82.7398 96.912 82.4847" fill="#D7A628"/>
<path d="M101.788 79.6819C101.959 79.9441 101.992 80.7789 101.847 81.7565C101.634 82.7347 101.292 83.5296 101.038 83.7261C100.89 83.4403 100.923 82.6192 101.132 81.6711C101.275 80.7033 101.545 79.9068 101.788 79.6819" fill="#D7A628"/>
<path d="M154.871 69.7788L151.843 69.4395L154.205 66.4912C153.537 63.8434 152.62 61.3932 151.611 59.1981L149.059 60.2546L150.437 56.8224C147.546 51.3616 144.436 48 144.436 48C145.046 50.1721 142.253 53.44 141.699 56.944L143.226 60.2399L140.438 59.52C139.281 61.9215 138.056 64.6519 137.003 67.7951L139.422 70.3399L135.983 71.2519C135.896 71.582 135.8 71.9044 135.723 72.2422C132.567 85.3332 145.688 98.1167 145.688 98.1167C154.621 88.2263 156.194 78.2214 154.871 69.7788" fill="#FBCA3B"/>
<path d="M146.447 61.561C146.619 63.3734 146.439 69.3784 146.323 76.5499C146.246 78.3443 146.173 80.0659 146.104 81.6676C146.061 82.4679 146.018 83.2391 145.979 83.9738C145.898 84.7078 145.824 85.4052 145.753 86.0621C145.449 88.6825 145.17 90.6247 144.965 91.5093C144.91 90.6017 144.964 88.6464 145.104 86.0276C145.141 85.374 145.182 84.6772 145.223 83.9458C145.237 83.2112 145.251 82.4427 145.267 81.6424C145.314 80.0434 145.365 78.3251 145.416 76.5351C145.533 69.3642 146.1 63.3395 146.447 61.561" fill="#D7A628"/>
<path d="M138.832 77.9363C139.385 78.0639 140.804 78.9326 142.321 80.0756C142.71 80.3466 143.083 80.6055 143.421 80.8584C143.76 81.1134 144.062 81.3598 144.362 81.535C144.941 81.9149 145.356 82.2427 145.517 82.4546C145.24 82.4371 144.702 82.2696 143.998 81.98C143.632 81.8481 143.28 81.639 142.904 81.4047C142.528 81.1731 142.123 80.9202 141.722 80.6394C140.175 79.4745 139.041 78.3885 138.832 77.9363Z" fill="#D7A628"/>
<path d="M150.572 76.148C150.497 76.6406 149.65 78.0048 148.448 79.5282C147.23 81.0308 146.041 82.1957 145.517 82.4546C145.605 81.9614 146.476 80.6126 147.699 79.1078C148.886 77.5997 150.049 76.4184 150.572 76.148Z" fill="#D7A628"/>
<path d="M141.608 65.8398C142.035 65.8968 142.995 66.4951 143.979 67.3419C144.967 68.1493 145.672 68.9381 145.759 69.312C145.343 69.2748 144.345 68.6962 143.325 67.8608C142.35 67.0222 141.668 66.2039 141.608 65.8398" fill="#D7A628"/>
<path d="M148.851 64.4557C148.904 64.8263 148.475 65.8116 147.759 66.8943C146.962 67.9514 146.121 68.7456 145.715 68.8765C145.703 68.4867 146.202 67.5441 146.975 66.5205C147.68 65.4492 148.442 64.6237 148.851 64.4557Z" fill="#D7A628"/>
<path d="M154.652 97.4907C154.652 98.6566 147.627 104.919 146.31 104.919C144.466 104.919 137.266 99.2391 137.266 97.4907C137.266 96.0346 144.29 90.0624 146.31 90.0624C147.978 90.0624 154.652 95.889 154.652 97.4907Z" fill="#A8E2DA"/>
<path d="M186.001 106.564C185.668 107.446 178.563 110.811 177.566 110.552C176.171 110.19 172.34 104.477 172.838 103.154C173.253 102.052 180.275 98.9074 181.802 99.3032C183.066 99.6311 186.458 105.351 186.001 106.564" fill="#A8E2DA"/>
<path d="M103.971 107.498C104.305 108.379 111.408 111.744 112.406 111.485C113.801 111.123 117.632 105.41 117.134 104.088C116.718 102.985 109.697 99.8405 108.169 100.237C106.906 100.564 103.515 106.284 103.971 107.498Z" fill="#A8E2DA"/>
<path d="M151.072 97.4909C151.072 98.1768 146.94 101.861 146.165 101.861C145.081 101.861 140.846 98.5195 140.846 97.4909C140.846 96.6343 144.977 93.121 146.165 93.121C147.148 93.121 151.072 96.5489 151.072 97.4909Z" fill="#76D0BB"/>
<path d="M183.29 105.862C183.094 106.381 178.916 108.361 178.33 108.208C177.508 107.995 175.255 104.634 175.549 103.857C175.792 103.207 179.923 101.357 180.822 101.591C181.565 101.784 183.558 105.148 183.29 105.862" fill="#76D0BB"/>
<path d="M106.68 106.796C106.876 107.315 111.053 109.294 111.64 109.142C112.462 108.929 114.714 105.569 114.422 104.79C114.177 104.142 110.048 102.291 109.148 102.525C108.405 102.718 106.412 106.082 106.68 106.796Z" fill="#76D0BB"/>
<path d="M141.799 175.911C141.799 175.911 137.121 194.477 137.509 195.586C137.897 196.696 150.672 197.065 151.48 195.191C151.926 194.16 147.926 175.911 147.926 175.911C147.926 175.911 144.25 174.327 141.799 175.911Z" fill="#76D0BB"/>
<path d="M158.252 180.43C158.252 180.43 162.036 192.139 162.643 192.679C163.249 193.219 170.664 190.374 170.474 189.113C170.371 188.419 161.746 178.965 161.746 178.965C161.746 178.965 159.099 178.941 158.252 180.43" fill="#76D0BB"/>
<path d="M132.108 180.43C132.108 180.43 128.324 192.139 127.717 192.679C127.11 193.219 119.695 190.374 119.885 189.113C119.989 188.419 128.614 178.965 128.614 178.965C128.614 178.965 131.261 178.941 132.108 180.43Z" fill="#76D0BB"/>
<path d="M144.31 174.002C145.419 174.002 151.215 174.316 158.575 180.217C159.137 180.667 160.851 181.193 163.838 181.193C168.724 181.193 173.934 179.836 175.294 179.008C176.71 176.147 178.375 163.031 177.905 159.057C176.007 158.58 171.534 158.035 167.19 158.035C164.148 158.035 162.789 158.305 162.346 158.422C161.341 158.685 160.349 159.375 159.093 160.245C156.18 162.267 152.191 165.035 144.27 165.035C136.349 165.035 132.359 162.267 129.447 160.245C128.192 159.375 127.198 158.685 126.195 158.422C125.752 158.305 124.392 158.035 121.352 158.035C117.006 158.035 112.531 158.58 110.636 159.057C110.164 163.034 111.833 176.168 113.25 179.016C114.495 179.769 119.498 181.087 124.585 181.087C127.648 181.087 129.445 180.584 130.107 180.11C138.053 174.441 142.915 174.001 144.216 174.001L144.31 174.002ZM163.53 184.9C159.291 184.9 156.131 184.202 154.139 182.825C148.228 178.739 143.887 178.656 143.844 178.656L143.692 178.659C143.161 178.695 139.588 179.083 133.348 182.918C131.31 184.172 128.158 184.808 123.982 184.808C119.071 184.808 110.854 183.758 107.961 181.422C107.368 180.944 105.566 179.489 104.122 169.458C102.656 159.277 104.132 157.594 104.686 156.961C105.531 155.997 107.002 155.287 111.721 154.724C114.517 154.391 117.799 154.199 120.724 154.199C123.544 154.199 125.751 154.376 127.285 154.723C129.412 155.203 131.04 156.178 132.615 157.119C135.211 158.672 137.896 160.277 143.815 160.277C149.735 160.277 152.42 158.672 155.016 157.119C156.591 156.178 158.22 155.203 160.347 154.723C161.88 154.376 164.087 154.199 166.907 154.199C169.832 154.199 173.114 154.391 175.911 154.724C180.629 155.287 182.101 155.997 182.945 156.961C183.5 157.594 184.975 159.277 183.509 169.458C182.065 179.489 180.263 180.944 179.671 181.422C177.01 183.571 169.22 184.9 163.53 184.9Z" fill="#F0384B"/>
<path d="M144.309 173.999C145.418 174 151.215 174.314 158.575 180.215C159.136 180.665 160.851 181.191 163.838 181.191C168.723 181.191 173.934 179.834 175.293 179.006C176.709 176.145 178.375 163.029 177.905 159.055C176.007 158.578 171.533 158.032 167.189 158.032C164.147 158.032 162.788 158.303 162.345 158.42C161.34 158.683 160.349 159.373 159.093 160.243C156.18 162.265 152.19 165.032 144.269 165.032C136.348 165.032 132.359 162.265 129.446 160.243C128.191 159.373 127.198 158.683 126.195 158.42C125.751 158.303 124.392 158.032 121.352 158.032C117.005 158.032 112.531 158.578 110.635 159.055C110.164 163.032 111.832 176.165 113.249 179.014C114.494 179.766 119.497 181.085 124.584 181.085C127.647 181.085 129.445 180.581 130.107 180.108C138.052 174.439 142.915 173.999 144.215 173.999L144.309 173.999" fill="#522B25"/>
<path d="M175.011 157.613C175.201 159.798 174.821 163.655 170.824 163.508C167.208 163.508 166.066 159.721 165.114 157.682C165.114 160.013 165.495 164.674 162.069 165.257C157.381 166.054 155.218 163.946 154.458 161.323C154.076 163.655 154.785 166.78 151.792 167.733C146.083 169.549 145.132 166.13 143.228 164.236C143.228 164.236 142.98 168.737 137.138 168.363C134.854 168.218 132.951 164.382 132.951 162.343C129.525 169.549 122.292 165.257 122.483 157.973C122.674 160.304 121.151 164.674 116.964 163.801C113.729 163.072 113.919 159.285 113.919 157.246C113.919 157.246 123.034 154.565 127.424 156.706C131.815 158.848 143.26 169.051 159.4 157.613C162.546 156.371 175.011 157.613 175.011 157.613" fill="white"/>
<path d="M175.048 182.539C175.048 180.499 175.239 176.712 172.003 175.984C167.816 175.11 166.293 179.48 166.483 181.81C166.674 174.528 159.442 170.234 156.016 177.441C156.016 175.402 154.112 171.566 151.829 171.42C145.987 171.047 145.739 175.547 145.739 175.547C143.835 173.654 142.884 170.234 137.174 172.052C134.182 173.004 134.89 176.13 134.509 178.46C133.749 175.838 131.585 173.73 126.897 174.528C123.471 175.11 123.852 179.771 123.852 182.102C122.9 180.062 121.758 176.276 118.141 176.276C114.145 176.13 113.765 179.985 113.955 182.17C113.955 182.17 127.951 185.65 138.312 177.784C143.053 175.745 151.131 177.93 156.224 180.989C161.316 184.048 175.048 182.539 175.048 182.539" fill="white"/>
</svg>
