<svg width="20" height="20" viewBox="0 0 20 20" fill="none" xmlns="http://www.w3.org/2000/svg">
<path d="M7.99999 18H12V3C12 2.73478 11.8946 2.48043 11.7071 2.29289C11.5196 2.10536 11.2652 2 11 2H8.99998C8.73477 2 8.48041 2.10536 8.29288 2.29289C8.10534 2.48043 7.99999 2.73478 7.99999 3V18ZM14 18.268C14.304 18.4435 14.5565 18.696 14.732 19C14.9076 19.3041 15 19.6489 15 20H4.99999C4.99999 19.6489 5.09241 19.3041 5.26795 19C5.44348 18.696 5.69595 18.4435 5.99999 18.268V3C5.99999 2.20435 6.31606 1.44129 6.87866 0.87868C7.44127 0.31607 8.20434 0 8.99998 0L11 0C11.7956 0 12.5587 0.31607 13.1213 0.87868C13.6839 1.44129 14 2.20435 14 3V18.268ZM8.99998 9H11V11H8.99998V9ZM9.99998 5C9.73477 5 9.48041 4.89464 9.29288 4.70711C9.10534 4.51957 8.99998 4.26522 8.99998 4C8.99998 3.73478 9.10534 3.48043 9.29288 3.29289C9.48041 3.10536 9.73477 3 9.99998 3C10.2652 3 10.5196 3.10536 10.7071 3.29289C10.8946 3.48043 11 3.73478 11 4C11 4.26522 10.8946 4.51957 10.7071 4.70711C10.5196 4.89464 10.2652 5 9.99998 5ZM1.28599 6H18.719C18.871 6 19.021 6.03466 19.1576 6.10134C19.2942 6.16801 19.4138 6.26495 19.5073 6.38479C19.6008 6.50462 19.6658 6.6442 19.6973 6.79291C19.7288 6.94162 19.7259 7.09555 19.689 7.243L18.379 12.485C18.2708 12.9177 18.0212 13.3018 17.6697 13.5763C17.3181 13.8508 16.885 13.9999 16.439 14H3.58799C3.14323 14.0002 2.71112 13.8521 2.35995 13.5791C2.00879 13.3062 1.75862 12.924 1.64899 12.493L0.316985 7.246C0.279532 7.09843 0.276269 6.94426 0.307443 6.79524C0.338617 6.64622 0.403405 6.50628 0.496869 6.3861C0.590332 6.26592 0.710003 6.16867 0.846757 6.10176C0.983512 6.03484 1.13374 6.00004 1.28599 6ZM2.57199 8L3.58898 12H16.439L17.439 8H2.57099H2.57199Z" fill="#33BFA7"/>
</svg>
