<svg width="22" height="20" viewBox="0 0 22 20" fill="none" xmlns="http://www.w3.org/2000/svg">
<path d="M14.8853 0.000227399C14.408 -0.0069601 13.9667 0.155477 13.5763 0.595577L13.5676 0.605325L11.2952 2.85582L11.3234 2.8874C11.4759 3.05361 11.4629 3.3125 11.2946 3.46258C11.1262 3.61271 10.8676 3.596 10.7199 3.42552L10.451 3.124C10.4158 3.17324 10.3779 3.22104 10.3367 3.26677C10.1069 3.52192 9.8091 3.69119 9.49725 3.76194L9.74153 4.67394C9.85563 5.07734 9.35601 5.3665 9.06312 5.06647L7.21234 6.89942C7.27568 6.89574 7.33947 6.89335 7.40371 6.89335C9.22888 6.89335 10.7107 8.40345 10.7107 10.2478C10.7107 10.2838 10.7091 10.3195 10.708 10.3553L17.0842 3.44906C17.4549 2.98565 17.5194 2.51073 17.398 2.01911C17.2761 1.52532 16.94 1.02624 16.4932 0.652358C16.3546 0.536325 16.2059 0.432915 16.0514 0.344464L10.6043 6.03211C10.4507 6.19765 10.1913 6.20533 10.0282 6.04918C9.86511 5.89294 9.86152 5.63343 10.0203 5.47283L15.2282 0.0350417C15.1454 0.0197683 15.0629 0.00880736 14.9814 0.00386596C14.9493 0.00197924 14.9173 0.000721515 14.8854 0.000272296L14.8853 0.000227399ZM9.42506 1.66894C9.23531 1.66678 9.02633 1.75169 8.85981 1.93667C8.57559 2.25221 8.59396 2.66037 8.81879 2.86296C9.04367 3.06547 9.45165 3.04121 9.73587 2.72564C10.02 2.41011 10.0017 2.00186 9.77675 1.79935C9.69243 1.72343 9.58233 1.67932 9.46266 1.67056C9.45022 1.66966 9.43768 1.66912 9.42506 1.66899V1.66894ZM8.16949 4.54124C7.8465 4.53585 7.55721 4.64106 7.29006 4.94217L7.28152 4.95192L2.80128 9.38885C3.29048 9.41266 3.74316 9.57852 4.12136 9.84558C4.18452 9.31397 4.37054 8.81956 4.65076 8.39316L4.67053 8.36306L4.95758 7.99426C5.0436 7.89821 5.1356 7.80792 5.23205 7.72248L8.41733 4.56788C8.35569 4.55584 8.29451 4.54753 8.23449 4.5439C8.21266 4.54255 8.19101 4.54165 8.16945 4.54133L8.16949 4.54124ZM16.8529 5.18879C16.7529 5.1896 16.6542 5.19724 16.5569 5.21215L10.0285 12.2832C9.89521 12.4598 9.74495 12.6221 9.5804 12.7686L9.32367 13.0467C9.7684 13.1438 10.1833 13.3234 10.5518 13.5691C10.5517 13.5576 10.5509 13.5464 10.5509 13.5349C10.5509 12.9788 10.7551 12.4678 11.0913 12.0751L11.0874 12.0713L11.1484 12.0109C11.1937 11.9619 11.241 11.915 11.2904 11.8703L16.1049 7.10215C16.4877 6.68155 17.0058 6.50406 17.4893 6.53335C17.9793 6.563 18.4368 6.77696 18.8068 7.08661C19.1769 7.39621 19.4664 7.80693 19.583 8.27875C19.6184 8.42223 19.635 8.57253 19.6314 8.72446C19.8389 8.30121 19.8515 7.86668 19.7321 7.42541C19.5756 6.84726 19.1655 6.27209 18.6329 5.85463V5.85472C18.13 5.46075 17.5252 5.2117 16.9586 5.19032C16.9231 5.18906 16.888 5.18852 16.8529 5.18879ZM17.3886 7.3384C17.132 7.33363 16.9081 7.41431 16.694 7.65572L16.6853 7.66543L12.9986 11.3167C13.9993 11.4297 14.7987 12.2277 14.9356 13.2297L18.6331 9.22476C18.8332 8.97409 18.8633 8.73812 18.7978 8.47267C18.7318 8.20561 18.5429 7.92013 18.2879 7.70676C18.0329 7.49338 17.7188 7.35735 17.4404 7.34051C17.423 7.33943 17.4058 7.33871 17.3886 7.3384ZM7.40366 7.70213C7.18364 7.70213 6.97044 7.73119 6.76726 7.78523C6.85548 7.77346 6.94524 7.76682 7.03652 7.76682C8.14676 7.76682 9.06101 8.6648 9.06101 9.7688C9.06101 10.8728 8.14663 11.7708 7.03647 11.7708C5.92609 11.7708 5.01184 10.8728 5.01184 9.7688C5.01184 9.64168 5.02451 9.51756 5.04765 9.39699C4.95583 9.6627 4.90542 9.94881 4.90542 10.2478C4.90542 11.662 6.02277 12.7934 7.40366 12.7934C8.78456 12.7934 9.90177 11.6621 9.90177 10.2478C9.90177 8.83358 8.78456 7.70217 7.40366 7.70217V7.70213ZM7.03652 8.57541C6.3573 8.57541 5.82048 9.10805 5.82048 9.7688C5.82048 10.4296 6.35707 10.9622 7.03652 10.9622C7.7156 10.9622 8.25242 10.4296 8.25242 9.7688C8.25242 9.108 7.71587 8.57541 7.03647 8.57541H7.03652ZM6.88432 8.9059C7.27703 8.9059 7.60411 9.23275 7.60411 9.62555C7.60411 10.0183 7.27685 10.3452 6.88432 10.3452C6.49162 10.3452 6.16445 10.0184 6.16445 9.62555C6.16445 9.2328 6.4918 8.9059 6.88432 8.9059ZM2.67919 10.1943C1.7246 10.1943 0.952973 10.9743 0.952973 11.9552C0.952973 12.9361 1.7246 13.7161 2.67914 13.7161C3.63373 13.7161 4.40531 12.9361 4.40531 11.9552C4.40531 11.82 4.39013 11.6887 4.36232 11.5626C4.30805 11.4342 4.26214 11.3014 4.22396 11.1656C3.94109 10.5871 3.35634 10.1942 2.6791 10.1942L2.67919 10.1943ZM2.66301 10.6891C3.36335 10.6891 3.87972 11.3225 3.87972 12.0288C3.87972 12.7352 3.36321 13.3684 2.66297 13.3684C1.96264 13.3684 1.44617 12.7351 1.44617 12.0288C1.44617 11.3223 1.96277 10.6891 2.66301 10.6891V10.6891ZM19.4 10.7037C19.0897 10.6984 18.813 10.7989 18.5559 11.0886L18.5473 11.0984L14.2193 15.3847C15.4449 15.4578 16.4317 16.4437 16.5348 17.6724L20.8761 12.9703C21.118 12.6677 21.1564 12.3736 21.0773 12.053C21.0668 12.0106 21.0537 11.968 21.0384 11.9252L18.1911 14.9054C18.0379 15.0718 17.778 15.0801 17.6144 14.9239C17.4509 14.7675 17.4473 14.5076 17.6065 14.3469L20.5311 11.2857C20.5466 11.2691 20.5634 11.2538 20.5815 11.24C20.5462 11.2059 20.5094 11.1727 20.4716 11.141C20.1699 10.8886 19.7983 10.7265 19.4625 10.7062C19.4415 10.7049 19.4207 10.7041 19.4001 10.7038L19.4 10.7037ZM2.64864 11.3654C2.30768 11.3654 2.03141 11.6819 2.03141 12.0724C2.03141 12.4628 2.30768 12.7793 2.64864 12.7793C2.9896 12.7793 3.266 12.4628 3.266 12.0724C3.266 11.682 2.98964 11.3655 2.64868 11.3655L2.64864 11.3654ZM12.7539 12.1111C11.9826 12.1111 11.3595 12.7402 11.3595 13.5349C11.3595 14.3295 11.9826 14.9587 12.7539 14.9587C13.5252 14.9587 14.1483 14.3295 14.1483 13.5348C14.1483 12.7402 13.5252 12.1111 12.7539 12.1111ZM12.6513 12.6122C13.1633 12.6122 13.5174 13.074 13.5174 13.5597C13.5174 14.0455 13.1632 14.5071 12.6513 14.5071C12.1391 14.5071 11.7851 14.0455 11.7851 13.5597C11.7851 13.0739 12.1392 12.6122 12.6512 12.6122H12.6513ZM5.31201 12.8427L4.68189 13.5251C4.58441 13.6525 4.4757 13.7704 4.35688 13.8772L4.17782 14.0712C4.61015 14.3314 4.97932 14.6886 5.25622 15.1127C5.55787 14.4514 6.04693 13.895 6.65387 13.514C6.15371 13.3957 5.69672 13.1624 5.31206 12.8426L5.31201 12.8427ZM8.56031 13.7727C6.99568 13.7727 5.72956 15.0554 5.72956 16.6564C5.72956 18.2574 6.99573 19.5401 8.56036 19.5401C10.125 19.5401 11.3912 18.2574 11.3912 16.6564C11.3912 15.0554 10.1249 13.7727 8.56036 13.7727L8.56031 13.7727ZM2.07449 14.45C0.895832 14.6537 0 15.6926 0 16.9587C0 17.5889 0.222363 18.1627 0.590543 18.6055C0.361891 18.2613 0.228203 17.8478 0.228293 17.405V17.4048C0.228068 16.2229 1.1801 15.2488 2.35265 15.2488C3.52533 15.2488 4.47736 16.2229 4.47709 17.4049C4.47732 18.3443 3.87577 19.1519 3.04022 19.444C4.05645 19.2165 4.83934 18.3625 4.97528 17.2919C4.9397 17.0853 4.92106 16.8731 4.92106 16.6565C4.92106 16.5635 4.92452 16.4712 4.93121 16.3798C4.72008 15.4471 4.00973 14.7164 3.10244 14.4881C2.96475 14.5118 2.82347 14.5248 2.67919 14.5248C2.47075 14.5248 2.26833 14.4985 2.07445 14.45L2.07449 14.45ZM8.38512 14.4789C9.60641 14.4789 10.5953 15.4987 10.5953 16.7341C10.5953 17.9696 9.60627 18.9893 8.38512 18.9893C7.16383 18.9893 6.17496 17.9695 6.17496 16.7341C6.17496 15.4988 7.16401 14.479 8.38512 14.479V14.4789ZM8.38512 15.2874C7.61201 15.2874 6.98355 15.925 6.98355 16.7341C6.98355 17.5432 7.6117 18.1808 8.38512 18.1808C9.15831 18.1808 9.78668 17.5432 9.78668 16.7341C9.78668 15.9251 9.15858 15.2875 8.38512 15.2875V15.2874ZM12.0622 15.6534C12.1187 15.8554 12.1593 16.0641 12.1809 16.2783C12.3458 16.0792 12.5408 15.9067 12.7583 15.7671C12.7568 15.7672 12.7555 15.7673 12.754 15.7673C12.5124 15.7673 12.2799 15.7268 12.0622 15.6533V15.6534ZM2.35283 16.0573C1.62509 16.0573 1.03684 16.652 1.03707 17.4048V17.405C1.03684 18.1577 1.62509 18.7524 2.35283 18.7524C3.08043 18.7524 3.66881 18.1576 3.66859 17.4049V17.4048C3.66881 16.652 3.08043 16.0574 2.35283 16.0574V16.0573ZM8.35915 16.0688C8.76197 16.0688 9.03118 16.4257 9.03118 16.7855C9.03118 17.1453 8.76197 17.5021 8.35915 17.5021C7.95638 17.5021 7.68712 17.1452 7.68712 16.7855C7.68712 16.4257 7.95638 16.0688 8.35915 16.0688ZM14.0733 16.1885C13.1538 16.1885 12.4107 16.9397 12.4107 17.885C12.4107 18.8303 13.1538 19.5815 14.0733 19.5815C14.9929 19.5815 15.736 18.8303 15.736 17.885C15.736 16.9398 14.9929 16.1885 14.0733 16.1885ZM2.21613 16.7983C2.61886 16.7983 2.88807 17.1551 2.88807 17.5149C2.88807 17.8747 2.6189 18.2315 2.21613 18.2315C1.81336 18.2315 1.5441 17.8747 1.5441 17.5149C1.5441 17.1551 1.81336 16.7983 2.21613 16.7983V16.7983ZM14.2517 16.8622C14.9133 16.8622 15.4504 17.4151 15.4504 18.0768C15.4504 18.7385 14.9132 19.2913 14.2517 19.2913C13.5901 19.2913 13.0531 18.7384 13.0531 18.0768C13.0531 17.4151 13.5901 16.8622 14.2517 16.8622L14.2517 16.8622ZM14.2517 17.6708C14.036 17.6708 13.8617 17.8436 13.8617 18.0768C13.8617 18.31 14.0359 18.4827 14.2517 18.4827C14.4674 18.4827 14.6418 18.31 14.6418 18.0768C14.6418 17.8435 14.4675 17.6708 14.2517 17.6708L14.2517 17.6708Z" fill="#C7E6FF"/>
</svg>
