<svg width="252" height="445" viewBox="0 0 252 445" fill="none" xmlns="http://www.w3.org/2000/svg">
<path d="M117.536 194.905L86.2647 121.97L149.881 124.658L117.536 194.905Z" fill="#637C75"/>
<path d="M251.66 80.0832C251.735 124.312 195.49 160.262 126.033 160.379C56.5766 160.497 0.210308 124.737 0.135483 80.5087C0.0606577 36.28 56.3057 0.330281 125.762 0.212776C195.219 0.0952706 251.585 35.8545 251.66 80.0832Z" fill="#637C75"/>
<path d="M183.046 347.716C181.518 349.724 179.723 355.245 178.61 361.749C177.496 368.25 177.407 373.749 178.253 375.729C179.781 373.721 181.578 368.197 182.691 361.697C183.805 355.195 183.894 349.694 183.046 347.716Z" fill="#51843E"/>
<path d="M194.785 338.5C193.257 340.509 191.46 346.03 190.348 352.532C189.233 359.035 189.146 364.534 189.991 366.512C191.519 364.505 193.317 358.983 194.43 352.481C195.542 345.979 195.631 340.478 194.785 338.5Z" fill="#51843E"/>
<path d="M159.508 375.204C151.098 367.361 150.302 357.421 153.409 351.064C156.513 344.706 161.215 343.348 161.948 344.706C161.948 344.706 166.217 355.698 169.846 353.625C173.475 351.551 172.516 345.58 167.95 344.901C167.95 344.901 169.262 337.803 177.907 339.97C177.907 339.97 178.615 346.027 184.069 345.004C187.393 344.38 184.769 338.406 182.307 338.666C182.307 338.666 203.872 333.861 208.187 337.762C213.385 342.458 204.034 356.973 204.034 356.973C202.769 355.06 197.573 352.455 196.502 356.237C195.196 360.86 201.906 361.648 201.906 361.648C203.934 369.124 195.535 369.818 195.535 369.818C195.008 365.896 188.063 364.73 185.42 367.691C182.773 370.653 195.407 374.933 195.407 374.933C196.958 375.634 195.087 379.552 187.451 381.815C179.816 384.079 166.73 381.728 159.508 375.204Z" fill="#8FCD3C"/>
<path d="M203.842 342.359C201.439 344.314 192.982 350.436 182.784 357.616C180.188 359.363 177.696 361.041 175.375 362.601C174.213 363.375 173.09 364.121 172.022 364.831C170.919 365.502 169.869 366.143 168.882 366.744C164.931 369.135 161.961 370.877 160.559 371.626C161.824 370.707 164.667 368.819 168.523 366.331C169.485 365.71 170.513 365.05 171.591 364.354C172.643 363.627 173.748 362.867 174.892 362.077C177.195 360.506 179.672 358.819 182.25 357.059C192.439 349.885 201.134 343.991 203.842 342.359Z" fill="#76A633"/>
<path d="M169.246 356.9C169.553 357.388 169.956 359.107 170.177 361.161C170.313 362.182 170.363 363.129 170.425 363.881C170.481 364.631 170.478 365.201 170.402 365.476C170.239 365.24 170.033 364.696 169.824 363.95C169.613 363.205 169.473 362.261 169.338 361.23C169.115 359.171 169.07 357.443 169.246 356.9Z" fill="#76A633"/>
<path d="M180.971 369.891C180.234 369.794 178.064 368.975 175.566 367.882C174.301 367.371 173.179 366.818 172.258 366.434C171.345 366.032 170.681 365.692 170.402 365.476C170.77 365.497 171.518 365.672 172.504 365.962C173.497 366.235 174.667 366.724 175.948 367.237C178.464 368.341 180.463 369.428 180.971 369.891Z" fill="#76A633"/>
<path d="M189.798 359.694C189.244 359.843 187.438 359.858 185.307 359.548C184.246 359.385 183.278 359.162 182.538 358.885C181.793 358.627 181.312 358.285 181.133 358.105C181.44 358.109 181.971 358.271 182.727 358.395C183.47 358.539 184.419 358.682 185.455 358.838C187.533 359.141 189.295 359.43 189.798 359.694Z" fill="#76A633"/>
<path d="M179.691 350.562C179.969 351.008 180.205 352.522 180.435 354.305C180.557 355.196 180.67 356.01 180.797 356.65C180.899 357.3 181.055 357.759 181.039 358.021C180.84 357.86 180.468 357.43 180.21 356.781C179.93 356.138 179.723 355.299 179.595 354.388C179.358 352.56 179.483 351.025 179.691 350.562Z" fill="#76A633"/>
<path d="M195.864 341.955C196.101 342.336 196.254 343.572 196.229 345.035C196.264 346.504 196.11 347.743 195.877 348.115C195.626 347.754 195.417 346.516 195.384 345.039C195.41 343.555 195.615 342.315 195.864 341.955Z" fill="#76A633"/>
<path d="M202.821 348.24C202.387 348.432 200.92 348.533 199.177 348.467C197.448 348.351 196.009 348.102 195.6 347.866C196.052 347.69 197.513 347.633 199.234 347.749C200.951 347.813 202.39 348.017 202.821 348.24Z" fill="#76A633"/>
<path d="M159.667 309.4C155.219 302.346 156.792 294.955 160.44 290.797C164.086 286.637 167.819 286.382 168.06 287.492C168.06 287.492 168.798 296.197 171.9 295.252C175.003 294.306 175.595 289.791 172.406 288.577C172.406 288.577 174.903 283.594 180.752 286.536C180.752 286.536 179.957 291.075 184.165 291.185C186.73 291.251 186.106 286.473 184.252 286.276C184.252 286.276 201.055 286.151 203.364 289.682C206.146 293.931 196.166 303.071 196.166 303.071C195.655 301.473 192.42 298.753 190.819 301.349C188.861 304.523 193.595 306.154 193.595 306.154C193.457 311.938 187.169 311.124 187.169 311.124C187.634 308.174 182.81 306.232 180.236 307.98C177.658 309.731 185.966 314.843 185.966 314.843C186.948 315.6 184.73 318.17 178.658 318.624C172.588 319.079 163.531 315.304 159.667 309.4Z" fill="#8FCD3C"/>
<path d="M199.192 292.359C197.011 293.41 189.503 296.557 180.493 300.201C178.216 301.071 176.031 301.906 173.995 302.682C172.979 303.064 171.997 303.432 171.063 303.784C170.11 304.102 169.204 304.404 168.353 304.689C164.946 305.816 162.397 306.624 161.211 306.95C162.334 306.477 164.82 305.543 168.179 304.33C169.016 304.028 169.912 303.708 170.849 303.367C171.776 303.003 172.749 302.621 173.756 302.223C175.781 301.435 177.958 300.592 180.222 299.711C189.225 296.067 196.859 293.125 199.192 292.359Z" fill="#76A633"/>
<path d="M170.753 297.551C170.869 297.956 170.793 299.275 170.508 300.812C170.388 301.58 170.218 302.281 170.101 302.838C169.978 303.396 169.853 303.812 169.738 304C169.67 303.802 169.637 303.373 169.647 302.794C169.654 302.216 169.756 301.505 169.88 300.73C170.163 299.191 170.504 297.921 170.753 297.551Z" fill="#76A633"/>
<path d="M176.507 308.889C175.99 308.703 174.581 307.763 172.992 306.571C172.178 305.999 171.478 305.42 170.887 304.993C170.308 304.555 169.896 304.202 169.739 304C170.003 304.075 170.511 304.319 171.17 304.687C171.836 305.042 172.587 305.583 173.41 306.16C175.01 307.362 176.237 308.47 176.507 308.889Z" fill="#76A633"/>
<path d="M185.169 302.824C184.731 302.844 183.41 302.571 181.919 302.01C181.178 301.725 180.518 301.408 180.038 301.09C179.549 300.785 179.272 300.459 179.179 300.3C179.404 300.351 179.756 300.552 180.282 300.763C180.794 300.983 181.457 301.237 182.18 301.514C183.632 302.063 184.859 302.55 185.169 302.824Z" fill="#76A633"/>
<path d="M179.759 294.56C179.867 294.928 179.713 296.073 179.493 297.412C179.389 298.082 179.295 298.696 179.25 299.182C179.183 299.676 179.198 300.035 179.129 300.225C179.019 300.075 178.84 299.703 178.792 299.186C178.727 298.673 178.756 298.028 178.862 297.34C179.084 295.968 179.508 294.865 179.759 294.56Z" fill="#76A633"/>
<path d="M193.448 290.809C193.539 291.125 193.383 292.053 193.047 293.118C192.754 294.197 192.373 295.079 192.121 295.315C192.016 295.011 192.133 294.073 192.428 292.989C192.769 291.908 193.188 291.032 193.448 290.809Z" fill="#76A633"/>
<path d="M197.172 296.497C196.813 296.568 195.718 296.412 194.458 296.089C193.219 295.733 192.222 295.325 191.975 295.089C192.343 295.029 193.423 295.22 194.656 295.574C195.898 295.89 196.905 296.266 197.172 296.497Z" fill="#76A633"/>
<path d="M144.447 341.157L161.127 344.535L161.288 344.198L144.614 340.821L144.447 341.157Z" fill="#51843E"/>
<path d="M158.514 312.134C156.98 313.298 154.458 316.896 152.198 321.298C149.936 325.7 148.623 329.565 148.771 331.1C150.302 329.935 152.826 326.337 155.087 321.936C157.352 317.533 158.661 313.668 158.514 312.134Z" fill="#51843E"/>
<path d="M144.117 340.612L150.532 327.07L150.949 327.153L144.535 340.693L144.117 340.612Z" fill="#51843E"/>
<path d="M168.473 307.75C166.938 308.915 164.418 312.512 162.155 316.914C159.893 321.318 158.58 325.181 158.727 326.718C160.261 325.551 162.783 321.951 165.044 317.552C167.307 313.149 168.621 309.284 168.473 307.75Z" fill="#51843E"/>
<path d="M154.077 336.229L160.491 322.687L160.909 322.766L154.494 336.31L154.077 336.229Z" fill="#51843E"/>
<path d="M164.331 424.28C157.099 413.107 159.451 401.308 165.174 394.628C170.898 387.948 176.839 387.486 177.245 389.25C177.245 389.25 178.602 403.106 183.525 401.554C188.449 400.001 189.298 392.798 184.191 390.911C184.191 390.911 188.066 382.937 197.446 387.535C197.446 387.535 196.272 394.78 202.981 394.891C207.065 394.958 205.975 387.354 203.014 387.068C203.014 387.068 229.782 386.618 233.535 392.206C238.055 398.931 222.345 413.645 222.345 413.645C221.498 411.107 216.289 406.822 213.791 410.982C210.739 416.069 218.316 418.594 218.316 418.594C218.217 427.809 208.179 426.611 208.179 426.611C208.857 421.905 201.134 418.88 197.068 421.708C192.999 424.533 206.341 432.552 206.341 432.552C207.921 433.743 204.444 437.871 194.778 438.686C185.115 439.503 170.609 433.625 164.331 424.28Z" fill="#8FCD3C"/>
<path d="M226.945 396.532C223.491 398.241 211.597 403.366 197.317 409.312C193.708 410.729 190.243 412.091 187.02 413.358C185.405 413.983 183.85 414.586 182.368 415.159C180.858 415.681 179.42 416.176 178.072 416.643C172.666 418.489 168.622 419.813 166.738 420.352C168.518 419.582 172.461 418.057 177.785 416.074C179.116 415.58 180.533 415.054 182.022 414.501C183.49 413.905 185.03 413.28 186.63 412.631C189.837 411.348 193.285 409.969 196.877 408.532C211.143 402.593 223.242 397.79 226.945 396.532Z" fill="#76A633"/>
<path d="M181.743 405.235C181.94 405.879 181.845 407.981 181.426 410.432C181.247 411.657 180.992 412.779 180.815 413.668C180.635 414.557 180.441 415.222 180.264 415.525C180.15 415.21 180.09 414.528 180.092 413.606C180.092 412.685 180.24 411.55 180.42 410.313C180.84 407.854 181.357 405.824 181.743 405.235Z" fill="#76A633"/>
<path d="M191.15 423.211C190.321 422.92 188.056 421.445 185.5 419.57C184.19 418.673 183.062 417.758 182.115 417.088C181.183 416.399 180.52 415.844 180.264 415.525C180.688 415.639 181.502 416.023 182.556 416.596C183.628 417.154 184.832 418.004 186.158 418.911C188.732 420.799 190.708 422.547 191.15 423.211Z" fill="#76A633"/>
<path d="M204.822 413.415C204.125 413.456 202.011 413.04 199.626 412.17C198.441 411.727 197.382 411.232 196.61 410.732C195.826 410.253 195.376 409.739 195.226 409.487C195.586 409.565 196.151 409.879 196.993 410.205C197.814 410.551 198.874 410.946 200.032 411.377C202.357 412.226 204.322 412.988 204.822 413.415Z" fill="#76A633"/>
<path d="M196.034 400.333C196.211 400.918 195.986 402.746 195.666 404.881C195.516 405.951 195.379 406.93 195.314 407.708C195.219 408.491 195.251 409.065 195.144 409.367C194.965 409.13 194.673 408.539 194.588 407.719C194.471 406.901 194.506 405.873 194.659 404.777C194.986 402.586 195.637 400.824 196.034 400.333Z" fill="#76A633"/>
<path d="M217.761 394.152C217.911 394.653 217.684 396.132 217.17 397.834C216.725 399.559 216.14 400.968 215.742 401.35C215.569 400.865 215.735 399.372 216.181 397.638C216.702 395.911 217.351 394.511 217.761 394.152Z" fill="#76A633"/>
<path d="M223.811 403.156C223.241 403.276 221.493 403.043 219.481 402.548C217.499 402 215.904 401.364 215.502 400.991C216.088 400.892 217.813 401.178 219.785 401.724C221.768 402.209 223.38 402.792 223.811 403.156Z" fill="#76A633"/>
<path d="M51.3064 347.716C52.8337 349.724 54.6293 355.245 55.7425 361.749C56.8566 368.25 56.9452 373.749 56.0994 375.729C54.5713 373.721 52.7741 368.197 51.6616 361.697C50.5476 355.195 50.4582 349.694 51.3064 347.716Z" fill="#51843E"/>
<path d="M39.5672 338.5C41.0953 340.509 42.8925 346.03 44.0041 352.532C45.119 359.035 45.206 364.534 44.361 366.512C42.8337 364.505 41.0349 358.983 39.9225 352.481C38.81 345.979 38.7214 340.478 39.5672 338.5Z" fill="#51843E"/>
<path d="M74.8443 375.204C83.2549 367.361 84.05 357.421 80.9439 351.064C77.8393 344.706 73.1374 343.348 72.4043 344.706C72.4043 344.706 68.1358 355.698 64.5068 353.625C60.8771 351.551 61.8365 345.58 66.4023 344.901C66.4023 344.901 65.09 337.803 56.445 339.97C56.445 339.97 55.7377 346.027 50.2834 345.004C46.9598 344.38 49.5834 338.406 52.0451 338.666C52.0451 338.666 30.4801 333.861 26.1656 337.762C20.9674 342.458 30.3181 356.973 30.3181 356.973C31.5837 355.06 36.7794 352.455 37.8507 356.237C39.1565 360.86 32.4464 361.648 32.4464 361.648C30.4188 369.124 38.8174 369.818 38.8174 369.818C39.3442 365.896 46.2896 364.73 48.9325 367.691C51.5795 370.653 38.9455 374.933 38.9455 374.933C37.3948 375.634 39.2653 379.552 46.9018 381.815C54.5367 384.079 67.6227 381.728 74.8443 375.204Z" fill="#8FCD3C"/>
<path d="M30.5105 342.359C32.9134 344.314 41.37 350.436 51.5681 357.616C54.1643 359.363 56.6567 361.041 58.9774 362.601C60.139 363.375 61.2619 364.121 62.3301 364.831C63.4337 365.502 64.4833 366.143 65.4701 366.744C69.4213 369.135 72.3913 370.877 73.7929 371.626C72.5282 370.707 69.6855 368.819 65.8293 366.331C64.8675 365.71 63.8389 365.05 62.7611 364.354C61.709 363.627 60.6038 362.867 59.46 362.077C57.1569 360.506 54.6799 358.819 52.1022 357.059C41.9129 349.885 33.2171 343.991 30.5105 342.359Z" fill="#76A633"/>
<path d="M65.1061 356.9C64.7992 357.388 64.3964 359.107 64.1749 361.161C64.0388 362.182 63.9896 363.129 63.9268 363.881C63.8712 364.631 63.8744 365.201 63.9502 365.476C64.1137 365.24 64.3191 364.696 64.5285 363.95C64.7396 363.205 64.8789 362.261 65.0143 361.23C65.2374 359.171 65.2825 357.443 65.1061 356.9Z" fill="#76A633"/>
<path d="M53.3808 369.891C54.1187 369.794 56.288 368.975 58.786 367.882C60.0515 367.371 61.1728 366.818 62.0943 366.434C63.007 366.032 63.6707 365.692 63.9503 365.476C63.5821 365.497 62.8346 365.672 61.8478 365.962C60.8554 366.235 59.6849 366.724 58.4041 367.237C55.8884 368.341 53.8891 369.428 53.3808 369.891Z" fill="#76A633"/>
<path d="M44.5546 359.694C45.1088 359.843 46.914 359.858 49.0455 359.548C50.1064 359.385 51.0747 359.162 51.8141 358.885C52.5593 358.627 53.0402 358.285 53.2198 358.105C52.9121 358.109 52.3812 358.271 51.6256 358.395C50.8829 358.539 49.9332 358.682 48.8973 358.838C46.8198 359.141 45.0573 359.43 44.5546 359.694Z" fill="#76A633"/>
<path d="M54.6614 350.562C54.3835 351.008 54.1467 352.522 53.9171 354.305C53.7946 355.196 53.6819 356.01 53.5554 356.65C53.4531 357.3 53.2968 357.759 53.3129 358.021C53.5119 357.86 53.8841 357.43 54.141 356.781C54.4222 356.138 54.6292 355.299 54.7573 354.388C54.9941 352.56 54.8692 351.025 54.6614 350.562Z" fill="#76A633"/>
<path d="M38.4885 341.955C38.2517 342.336 38.0978 343.572 38.1236 345.035C38.0882 346.504 38.242 347.743 38.4756 348.115C38.7261 347.754 38.9348 346.516 38.9686 345.039C38.942 343.555 38.7374 342.315 38.4885 341.955Z" fill="#76A633"/>
<path d="M31.5312 348.24C31.9654 348.432 33.4323 348.533 35.1754 348.467C36.9041 348.351 38.3428 348.102 38.752 347.866C38.3001 347.69 36.8389 347.633 35.1182 347.749C33.4008 347.813 31.9622 348.017 31.5312 348.24Z" fill="#76A633"/>
<path d="M74.6856 309.4C79.133 302.346 77.5606 294.955 73.9123 290.797C70.2664 286.637 66.5335 286.382 66.2927 287.492C66.2927 287.492 65.5548 296.197 62.4519 295.252C59.3498 294.306 58.7577 289.791 61.9468 288.577C61.9468 288.577 59.4496 283.594 53.5998 286.536C53.5998 286.536 54.3957 291.075 50.1876 291.185C47.6227 291.251 48.2462 286.473 50.1005 286.276C50.1005 286.276 33.297 286.151 30.9883 289.682C28.206 293.931 38.1866 303.071 38.1866 303.071C38.6973 301.473 41.9324 298.753 43.5338 301.349C45.4905 304.523 40.7571 306.154 40.7571 306.154C40.8948 311.938 47.1837 311.124 47.1837 311.124C46.7181 308.174 51.5425 306.232 54.1162 307.98C56.6939 309.731 48.3864 314.843 48.3864 314.843C47.4044 315.6 49.6221 318.17 55.6942 318.624C61.7648 319.079 70.8214 315.304 74.6856 309.4Z" fill="#8FCD3C"/>
<path d="M35.1602 292.359C37.3408 293.41 44.8492 296.557 53.8592 300.201C56.1364 301.071 58.3219 301.906 60.3575 302.682C61.3733 303.064 62.3552 303.432 63.2888 303.784C64.2426 304.102 65.148 304.404 65.9995 304.689C69.4061 305.816 71.9548 306.624 73.1414 306.95C72.0185 306.477 69.531 305.543 66.1735 304.33C65.3357 304.028 64.4407 303.708 63.5031 303.367C62.5759 303.003 61.6036 302.621 60.5959 302.223C58.5708 301.435 56.3942 300.592 54.1299 299.711C45.1271 296.067 37.4931 293.125 35.1602 292.359Z" fill="#76A633"/>
<path d="M63.5998 297.551C63.483 297.956 63.5595 299.275 63.8439 300.812C63.9647 301.58 64.1346 302.281 64.2515 302.838C64.3731 303.396 64.4996 303.812 64.6139 304C64.6824 303.802 64.7154 303.373 64.705 302.794C64.6985 302.216 64.5962 301.505 64.4722 300.73C64.1894 299.191 63.8479 297.921 63.5998 297.551Z" fill="#76A633"/>
<path d="M57.8458 308.889C58.363 308.703 59.7711 307.763 61.3604 306.571C62.1748 305.999 62.8748 305.42 63.4653 304.993C64.0444 304.555 64.4569 304.202 64.614 304C64.3489 304.075 63.8406 304.319 63.1825 304.687C62.5163 305.042 61.7656 305.583 60.9423 306.16C59.3425 307.362 58.1157 308.47 57.8458 308.889Z" fill="#76A633"/>
<path d="M49.183 302.824C49.6213 302.844 50.9423 302.571 52.4334 302.01C53.1745 301.725 53.8342 301.408 54.3143 301.09C54.8033 300.785 55.0804 300.459 55.1738 300.3C54.9483 300.351 54.5963 300.552 54.0702 300.763C53.5587 300.983 52.8958 301.237 52.1724 301.514C50.7208 302.063 49.4932 302.55 49.183 302.824Z" fill="#76A633"/>
<path d="M54.5928 294.56C54.4849 294.928 54.6396 296.073 54.8595 297.412C54.9634 298.082 55.0568 298.696 55.1019 299.182C55.1688 299.676 55.1543 300.035 55.2236 300.225C55.3331 300.075 55.512 299.703 55.5603 299.186C55.6255 298.673 55.5957 298.028 55.4902 297.34C55.2679 295.968 54.8442 294.865 54.5928 294.56Z" fill="#76A633"/>
<path d="M40.9046 290.809C40.8136 291.125 40.9698 292.053 41.3058 293.118C41.5982 294.197 41.9792 295.079 42.2313 295.315C42.336 295.011 42.2192 294.073 41.9244 292.989C41.5837 291.908 41.1648 291.032 40.9046 290.809Z" fill="#76A633"/>
<path d="M90.2359 340.612L83.8206 327.07L83.4033 327.153L89.817 340.693L90.2359 340.612Z" fill="#51843E"/>
<path d="M65.8794 307.75C67.4139 308.915 69.9345 312.512 72.1964 316.914C74.4592 321.317 75.7722 325.181 75.6248 326.717C74.091 325.551 71.5689 321.952 69.3078 317.552C67.045 313.15 65.7312 309.284 65.8794 307.75Z" fill="#51843E"/>
<path d="M80.2753 336.229L73.8608 322.687L73.4435 322.766L79.858 336.31L80.2753 336.229Z" fill="#51843E"/>
<path d="M70.0215 424.28C77.2537 413.107 74.9015 401.308 69.1781 394.628C63.4548 387.948 57.5131 387.486 57.1071 389.25C57.1071 389.25 55.7498 403.106 50.8271 401.554C45.9037 400.001 45.0539 392.798 50.1618 390.911C50.1618 390.911 46.2863 382.937 36.9058 387.535C36.9058 387.535 38.0803 394.78 31.3718 394.891C27.2869 394.958 28.3776 387.354 31.3388 387.068C31.3388 387.068 4.56988 386.618 0.816877 392.206C-3.70341 398.931 12.0074 413.645 12.0074 413.645C12.854 411.107 18.0635 406.822 20.5614 410.982C23.612 416.069 16.0367 418.594 16.0367 418.594C16.135 427.809 26.1728 426.611 26.1728 426.611C25.4954 421.905 33.2173 418.88 37.2844 421.708C41.3532 424.533 28.0103 432.552 28.0103 432.552C26.4314 433.743 29.9081 437.871 39.5746 438.686C49.237 439.503 63.7432 433.625 70.0215 424.28Z" fill="#8FCD3C"/>
<path d="M7.40674 396.532C10.8601 398.241 22.7555 403.366 37.0353 409.312C40.6441 410.729 44.1087 412.091 47.3325 413.358C48.9468 413.983 50.5023 414.586 51.9837 415.159C53.494 415.681 54.9319 416.176 56.2796 416.643C61.6856 418.489 65.7302 419.813 67.6143 420.352C65.8341 419.582 61.891 418.057 56.5672 416.074C55.2356 415.58 53.8195 415.054 52.33 414.501C50.8623 413.905 49.3222 413.28 47.7224 412.631C44.5147 411.348 41.067 409.969 37.4751 408.532C23.209 402.593 11.1098 397.79 7.40674 396.532Z" fill="#76A633"/>
<path d="M52.6089 405.235C52.4124 405.879 52.5074 407.981 52.9263 410.432C53.1051 411.657 53.3597 412.779 53.5369 413.668C53.7173 414.557 53.9115 415.222 54.0879 415.525C54.2023 415.21 54.2619 414.528 54.2603 413.606C54.2603 412.685 54.112 411.55 53.9324 410.313C53.5119 407.854 52.9948 405.824 52.6089 405.235Z" fill="#76A633"/>
<path d="M43.2028 423.211C44.0317 422.92 46.2969 421.445 48.8521 419.57C50.1627 418.673 51.2904 417.758 52.2377 417.088C53.1698 416.399 53.8327 415.844 54.0881 415.525C53.6644 415.639 52.8508 416.023 51.7963 416.596C50.7249 417.154 49.5207 418.004 48.1948 418.911C45.6202 420.799 43.6443 422.547 43.2028 423.211Z" fill="#76A633"/>
<path d="M29.5303 413.415C30.2279 413.456 32.3416 413.04 34.726 412.17C35.9118 411.727 36.9702 411.232 37.7419 410.732C38.5265 410.253 38.9768 409.739 39.1267 409.487C38.7666 409.565 38.2011 409.879 37.3593 410.205C36.5385 410.551 35.4784 410.946 34.32 411.377C31.9952 412.226 30.0305 412.988 29.5303 413.415Z" fill="#76A633"/>
<path d="M38.3187 400.333C38.1415 400.918 38.3663 402.746 38.6861 404.881C38.8359 405.951 38.9728 406.93 39.0381 407.708C39.1331 408.491 39.1017 409.065 39.208 409.367C39.3861 409.13 39.6793 408.539 39.7639 407.719C39.8807 406.901 39.846 405.873 39.6938 404.777C39.3659 402.586 38.7151 400.824 38.3187 400.333Z" fill="#76A633"/>
<path d="M16.5919 394.152C16.4413 394.653 16.6685 396.132 17.1824 397.834C17.6279 399.559 18.2127 400.968 18.6106 401.35C18.7838 400.865 18.6179 399.372 18.1716 397.638C17.6496 395.911 17.002 394.511 16.5919 394.152Z" fill="#76A633"/>
<path d="M10.5413 403.156C11.1116 403.276 12.8588 403.043 14.871 402.548C16.8535 402 18.4484 401.364 18.8504 400.991C18.264 400.892 16.5393 401.178 14.5673 401.724C12.5841 402.209 10.9722 402.792 10.5413 403.156Z" fill="#76A633"/>
<path d="M66.0799 376.715C66.0799 376.715 86.3714 319.284 47.5026 272.562C47.5026 272.562 59.5067 259.422 87.2293 255.285L94.9456 267.697L92.3735 253.58C92.3735 253.58 111.521 244.821 142.96 251.391L141.244 267.209L147.246 254.311C147.246 254.311 171.825 255.772 186.402 270.129C186.402 270.129 150.961 327.072 169.395 376.715C169.395 376.715 120.096 407.741 66.0799 376.715Z" fill="#C74F39"/>
<path d="M153.82 434.875L156.595 439.477C173.45 434.532 183.544 428.061 183.544 428.061L163.823 377.16H70.3672L53.2189 428.305C62.8387 433.404 72.2361 437.109 81.3 439.722L83.5136 434.875L84.6527 440.645C111.23 447.585 134.735 445.182 152.156 440.699L153.82 434.875Z" fill="#963532"/>
<path d="M183.544 428.061L177.975 413.692C124.052 434.746 73.247 419.821 57.9128 414.306L53.2189 428.305C62.8387 433.404 72.2361 437.109 81.3 439.722L83.5136 434.875L84.6527 440.645C111.23 447.585 134.735 445.182 152.156 440.699L153.82 434.875L156.595 439.477C173.45 434.532 183.544 428.061 183.544 428.061Z" fill="#FBCA3B"/>
<path d="M59.5052 282.053H65.7926V272.076H59.5052V282.053Z" fill="#A14130"/>
<path d="M93.5152 282.54C93.0947 282.119 92.3536 281.114 91.4321 279.726C91.2049 279.376 90.9632 279.005 90.7087 278.614C90.4856 278.212 90.252 277.79 90.0095 277.352C89.5286 276.472 89.0251 275.521 88.5152 274.526C86.594 270.509 85.1489 267.099 84.941 265.993C85.7152 266.886 87.5913 270.17 89.5052 274.173C90.0127 275.162 90.4864 276.114 90.9149 277.006C91.126 277.453 91.3298 277.883 91.5223 278.293C91.7333 278.697 91.9347 279.08 92.1224 279.44C92.8667 280.887 93.367 281.992 93.5152 282.54Z" fill="#A14130"/>
<path d="M80.8922 292.517C80.3598 292.197 79.294 290.818 78.2686 289.072C77.2431 287.325 76.5858 285.771 76.6052 285.217C77.1392 285.536 78.2025 286.916 79.228 288.663C80.2551 290.409 80.9124 291.962 80.8922 292.517Z" fill="#A14130"/>
<path d="M106.662 272.563C106.285 271.628 105.774 268.391 105.661 264.541C105.609 263.584 105.573 262.662 105.552 261.806C105.544 261.378 105.539 260.963 105.533 260.57C105.511 260.18 105.49 259.806 105.472 259.457C105.407 258.055 105.422 257 105.518 256.502C105.727 256.963 105.981 257.996 106.238 259.402C106.298 259.753 106.361 260.128 106.429 260.521C106.465 260.915 106.504 261.328 106.544 261.759C106.617 262.619 106.681 263.546 106.734 264.509C106.847 268.361 106.901 271.573 106.662 272.563Z" fill="#A14130"/>
<path d="M125.239 287.894C125.209 287.696 125.211 287.392 125.239 287.005C125.259 286.813 125.28 286.6 125.305 286.365C125.319 286.131 125.336 285.878 125.355 285.606C125.465 284.529 125.521 283.168 125.636 281.685C125.736 280.199 125.856 278.825 126.049 277.733C126.22 276.643 126.482 275.84 126.668 275.484C126.789 275.873 126.796 276.687 126.817 277.779C126.815 278.868 126.808 280.242 126.708 281.737C126.593 283.235 126.419 284.618 126.115 285.701C126.04 285.97 125.971 286.223 125.906 286.455C125.818 286.683 125.733 286.892 125.66 287.079C125.503 287.45 125.359 287.727 125.239 287.894Z" fill="#A14130"/>
<path d="M132.669 259.909C132.431 259.405 132.434 257.764 132.71 255.832C132.981 253.922 133.436 252.338 133.814 251.879C134.053 252.383 134.049 254.023 133.773 255.956C133.502 257.865 133.046 259.451 132.669 259.909Z" fill="#A14130"/>
<path d="M106.029 288.508C105.662 288.063 105.229 286.463 104.985 284.529C104.742 282.615 104.764 280.984 105.01 280.466C105.377 280.91 105.809 282.508 106.053 284.445C106.297 286.358 106.275 287.988 106.029 288.508Z" fill="#A14130"/>
<path d="M146.388 277.43C146.415 276.966 146.668 275.999 147.095 274.713C147.204 274.392 147.323 274.051 147.447 273.694C147.597 273.344 147.757 272.979 147.921 272.601C148.258 271.843 148.633 271.035 149.037 270.196C149.439 269.363 149.837 268.568 150.219 267.833C150.415 267.466 150.602 267.114 150.782 266.777C150.944 266.437 151.1 266.114 151.247 265.81C151.844 264.596 152.353 263.706 152.676 263.315C152.649 263.781 152.394 264.748 151.969 266.034C151.86 266.355 151.74 266.696 151.617 267.053C151.465 267.402 151.307 267.767 151.143 268.147C150.806 268.903 150.431 269.713 150.027 270.551C149.625 271.384 149.227 272.178 148.844 272.914C148.649 273.281 148.461 273.634 148.283 273.97C148.119 274.31 147.963 274.633 147.817 274.937C147.219 276.149 146.711 277.042 146.388 277.43Z" fill="#A14130"/>
<path d="M172.109 276.943C172.142 276.605 172.356 275.909 172.793 275.042C173.215 274.165 173.83 273.109 174.513 271.981C175.171 270.844 175.81 269.818 176.238 268.973C176.356 268.764 176.467 268.568 176.569 268.387C176.661 268.203 176.746 268.035 176.821 267.882C176.982 267.581 177.131 267.351 177.254 267.21C177.281 267.379 177.274 267.64 177.235 267.979C177.215 268.149 177.188 268.338 177.152 268.544C177.094 268.745 177.031 268.961 176.963 269.193C176.7 270.131 176.141 271.236 175.47 272.394C174.776 273.541 174.061 274.553 173.475 275.343C172.874 276.13 172.424 276.713 172.109 276.943Z" fill="#A14130"/>
<path d="M155.819 291.058C155.76 290.786 155.826 290.235 156.003 289.507C156.079 289.138 156.216 288.738 156.408 288.318C156.589 287.894 156.793 287.44 157.027 286.976C158.052 285.155 159.271 283.811 159.82 283.513C159.798 284.084 158.992 285.599 158.001 287.362C157.775 287.811 157.552 288.239 157.329 288.633C157.096 289.023 156.892 289.389 156.73 289.72C156.382 290.376 156.058 290.855 155.819 291.058Z" fill="#A14130"/>
<path d="M73.2228 399.59C73.0512 398.857 73.2615 396.538 73.781 393.819C74.2217 391.081 74.8081 388.806 75.2254 388.153C75.4203 388.875 75.285 391.205 74.8427 393.948C74.3207 396.69 73.6578 398.957 73.2228 399.59Z" fill="#7B2C2A"/>
<path d="M85.2271 413.705C85.0635 412.747 85.3157 409.581 85.894 405.837C86.5514 402.121 87.3279 399.026 87.7992 398.13C87.9425 399.097 87.6139 402.25 86.9549 405.975C86.3806 409.692 85.6806 412.793 85.2271 413.705Z" fill="#7B2C2A"/>
<path d="M117.522 411.027C117.223 409.701 117.024 405.245 117.057 399.952C117.041 398.63 117.038 397.361 117.049 396.179C117.058 395.59 117.067 395.02 117.075 394.479C117.07 393.936 117.066 393.421 117.062 392.938C117.058 391.002 117.118 389.555 117.236 388.883C117.426 389.536 117.634 390.975 117.831 392.915C117.875 393.401 117.922 393.916 117.972 394.46C117.994 395.003 118.018 395.574 118.041 396.165C118.084 397.35 118.114 398.625 118.13 399.952C118.097 405.257 117.841 409.699 117.522 411.027Z" fill="#7B2C2A"/>
<path d="M157.535 406.647C157.021 406.04 156.115 403.856 155.203 401.196C154.301 398.522 153.98 396.174 154.106 395.454C154.589 396.085 155.343 398.297 156.236 400.946C157.147 403.601 157.623 405.916 157.535 406.647Z" fill="#7B2C2A"/>
<path d="M162.108 390.343C161.518 389.659 160.361 387.211 159.087 384.222C158.799 383.461 158.538 382.728 158.307 382.042C158.196 381.699 158.088 381.368 157.985 381.053C157.919 380.729 157.858 380.419 157.8 380.128C157.582 378.964 157.487 378.097 157.535 377.689C157.792 378.054 158.15 378.871 158.546 379.969C158.641 380.244 158.741 380.536 158.848 380.845C158.978 381.148 159.115 381.466 159.257 381.796C159.535 382.458 159.819 383.173 160.1 383.923C161.37 386.895 162.115 389.518 162.108 390.343Z" fill="#7B2C2A"/>
<path d="M115.375 424.571C115.013 424.564 114.659 424.556 114.299 424.547C114.11 421.591 114.132 419.089 114.378 418.328C114.743 419.067 115.175 421.554 115.375 424.571Z" fill="#7B2C2A"/>
<path d="M114.665 430.982C114.54 430.588 114.468 429.756 114.455 428.657C114.454 428.382 114.453 428.09 114.451 427.783C114.432 427.475 114.408 427.151 114.387 426.815C114.347 426.144 114.321 425.424 114.307 424.672C114.305 424.631 114.302 424.59 114.299 424.548C114.659 424.557 115.013 424.564 115.375 424.571C115.376 424.592 115.377 424.613 115.379 424.634C115.394 425.398 115.393 426.132 115.379 426.814C115.369 427.156 115.359 427.483 115.349 427.797C115.316 428.109 115.266 428.407 115.223 428.686C115.044 429.801 114.847 430.619 114.665 430.982Z" fill="#CEA732"/>
<path d="M166.68 429.279C166.281 429.035 165.692 428.035 165.357 426.725C165.043 425.401 165.26 424.242 165.537 423.925C165.879 424.259 166.115 425.301 166.409 426.544C166.729 427.788 166.876 428.89 166.68 429.279Z" fill="#CEA732"/>
<path d="M72.3666 431.226C72.1313 430.737 72.1499 429.132 72.4479 427.244C72.8394 425.383 73.3928 423.856 73.7948 423.438C74.001 423.951 73.8971 425.54 73.5064 427.394C73.2172 429.246 72.7484 430.779 72.3666 431.226Z" fill="#CEA732"/>
<path d="M91.8008 335.103C91.3473 334.293 90.5925 331.48 90.0931 328.063C89.9964 327.205 89.9215 326.38 89.8643 325.612C89.8393 325.228 89.8144 324.859 89.7918 324.506C89.7886 324.152 89.8023 323.815 89.8103 323.5C89.8538 322.233 89.9489 321.295 90.0866 320.867C90.2582 321.295 90.4322 322.225 90.578 323.466C90.6135 323.777 90.6481 324.107 90.6876 324.454C90.7407 324.801 90.7963 325.164 90.8535 325.543C90.9631 326.298 91.0646 327.112 91.1596 327.958C91.6534 331.343 91.9579 334.213 91.8008 335.103Z" fill="#A14130"/>
<path d="M118.38 347.514C117.995 346.84 117.51 344.512 117.203 341.716C116.894 338.92 116.863 336.556 117.094 335.832C117.48 336.509 117.965 338.835 118.271 341.629C118.579 344.422 118.612 346.787 118.38 347.514Z" fill="#A14130"/>
<path d="M145.388 333.642C145.003 332.833 144.517 330.062 144.21 326.742C143.902 323.425 143.871 320.622 144.102 319.772C144.487 320.582 144.973 323.352 145.281 326.67C145.588 329.988 145.62 332.789 145.388 333.642Z" fill="#A14130"/>
<path d="M138.958 311.011C138.648 310.31 138.421 307.965 138.421 305.171C138.421 302.376 138.648 300.03 138.958 299.331C139.268 300.03 139.494 302.376 139.494 305.171C139.494 307.965 139.268 310.31 138.958 311.011Z" fill="#A14130"/>
<path d="M98.6607 307.361C98.2378 307.043 97.4999 305.709 97.1745 304.005C97.0658 303.152 96.9683 302.365 97.0505 301.732C97.1173 301.1 97.2285 300.636 97.3743 300.426C97.5386 300.637 97.6941 301.09 97.8189 301.693C97.9261 302.297 98.1331 303.044 98.2354 303.865C98.5472 305.495 98.821 306.865 98.6607 307.361Z" fill="#A14130"/>
<path d="M77.6532 333.278C77.3382 332.751 77.0893 330.997 77.0627 328.907C76.8847 326.835 76.9628 325.076 77.2246 324.518C77.5766 325.005 77.956 326.761 78.1365 328.878C78.1631 330.984 77.9568 332.752 77.6532 333.278Z" fill="#A14130"/>
<path d="M159.535 332.183C159.22 331.526 158.971 329.33 158.944 326.714C158.765 324.116 158.843 321.916 159.106 321.232C159.459 321.858 159.838 324.055 160.019 326.691C160.044 329.319 159.838 331.527 159.535 332.183Z" fill="#A14130"/>
<path d="M106.525 298.82L106.34 325.099C106.34 325.099 101.087 325.285 99.5333 327.474C97.9803 329.664 110.149 340.26 116.946 340.624C123.741 340.989 134.522 330.577 134.505 327.839C134.488 325.101 127.627 324.35 127.627 324.35L127.467 300.028L106.525 298.82Z" fill="#A8E2DA"/>
<path d="M63.893 314.357C63.893 314.357 76.7293 305.783 100.856 306.563C100.856 306.563 104.898 324.102 85.8963 327.025C66.8944 329.948 63.893 314.357 63.893 314.357Z" fill="#FBCA3B"/>
<path d="M72.9505 316.982C72.9505 316.982 81.0341 312.443 93.0269 312.603C93.0269 312.603 93.1905 320.294 85.3808 321.422C75.3897 322.865 72.9505 316.982 72.9505 316.982Z" fill="#522B25"/>
<path d="M111.092 300.688C111.092 300.688 109.307 333.642 116.951 333.642C124.596 333.642 123.096 300.688 123.096 300.688C123.096 300.688 115.684 298.943 111.092 300.688Z" fill="#76D0BB"/>
<path d="M75.0811 330.905L93.0268 328.533V333.643L76.1532 335.286L75.0811 330.905Z" fill="white"/>
<path d="M170.058 314.357C170.058 314.357 157.223 305.783 133.096 306.563C133.096 306.563 129.054 324.102 148.056 327.025C167.057 329.948 170.058 314.357 170.058 314.357Z" fill="#FBCA3B"/>
<path d="M161.002 316.982C161.002 316.982 152.918 312.443 140.924 312.603C140.924 312.603 140.762 320.294 148.571 321.422C158.562 322.865 161.002 316.982 161.002 316.982Z" fill="#522B25"/>
<path d="M158.871 330.905L140.924 328.533V333.643L157.799 335.286L158.871 330.905Z" fill="white"/>
<path d="M111.732 365.437C111.732 365.437 101.221 394.601 102.092 397.157C102.962 399.712 131.628 400.562 133.444 396.244C134.443 393.871 125.481 365.437 125.481 365.437C125.481 365.437 117.231 361.786 111.732 365.437Z" fill="#A8E2DA"/>
<path d="M131.049 369.289C131.049 369.289 137.356 392.083 138.934 393.623C140.512 395.167 157.282 388.465 156.496 385.025C156.063 383.133 138.919 365.794 138.919 365.794C138.919 365.794 132.655 365.372 131.049 369.289Z" fill="#A8E2DA"/>
<path d="M105.765 369.776C105.765 369.776 99.4585 392.57 97.8812 394.111C96.3024 395.654 79.5327 388.954 80.3181 385.512C80.749 383.62 97.8941 366.282 97.8941 366.282C97.8941 366.282 104.159 365.861 105.765 369.776Z" fill="#A8E2DA"/>
<path d="M172.392 399.278C172.392 399.278 176.827 401.901 177.684 409.324L158.25 417.475C158.25 417.475 155.525 424.623 153.776 425.62C152.027 426.616 135.649 433.232 135.649 433.232L132.381 428.762L144.764 422.519L130.694 426.631L128.989 422.053L143.375 416.962L128.5 419.148L126.341 414.612L142.181 410.201L140.087 408.298L131.492 410.075C131.492 410.075 127.474 406.688 129.701 403.561L141.565 401.575L151.534 406.039L172.392 399.278Z" fill="#C74F39"/>
<path d="M171.825 401.78C171.825 401.78 175.112 405.307 174.969 408.35L156.523 415.285L151.248 414.069L153.82 409.08L171.825 401.78Z" fill="#A8E2DA"/>
<path d="M62.7861 399.278C62.7861 399.278 58.3516 401.901 57.4937 409.324L76.929 417.475C76.929 417.475 79.6541 424.623 81.4029 425.62C83.1517 426.616 99.5308 433.232 99.5308 433.232L102.797 428.762L90.4137 422.519L104.485 426.631L106.189 422.053L91.8032 416.962L106.679 419.148L108.837 414.612L92.9978 410.201L95.0914 408.298L103.686 410.075C103.686 410.075 107.705 406.688 105.478 403.561L93.6133 401.575L83.6447 406.039L62.7861 399.278Z" fill="#C74F39"/>
<path d="M63.3539 401.78C63.3539 401.78 60.0665 405.307 60.2091 408.35L78.6567 415.285L83.9306 414.069L81.3585 409.08L63.3539 401.78Z" fill="#A8E2DA"/>
<path d="M57.2907 295.863C57.2907 295.863 60.5056 304.988 63.9348 310.282C63.9348 310.282 118.166 289.292 173.039 310.282C173.039 310.282 177.542 302.798 179.041 294.221C179.041 294.221 119.82 271.911 57.2907 295.863Z" fill="#FBCA3B"/>
<path d="M76.0921 299.061C76.0502 300.378 74.4223 301.409 72.8756 301.374C71.3282 301.339 69.7662 300.235 69.8073 298.918C69.85 297.603 71.4885 296.23 73.0351 296.266C74.5817 296.301 76.1332 297.745 76.0921 299.061Z" fill="#F57830"/>
<path d="M88.4377 295.863C88.395 297.181 86.767 298.212 85.2204 298.176C83.6729 298.142 82.1118 297.038 82.1521 295.72C82.1948 294.406 83.8332 293.033 85.3799 293.068C86.9265 293.104 88.478 294.548 88.4377 295.863Z" fill="#F57830"/>
<path d="M100.088 293.95C100.046 295.268 98.4168 296.299 96.8702 296.264C95.3227 296.229 93.7624 295.125 93.8027 293.807C93.8446 292.493 95.4838 291.12 97.0305 291.156C98.5763 291.191 100.129 292.635 100.088 293.95Z" fill="#F57830"/>
<path d="M112.099 293.308C112.058 294.626 110.43 295.657 108.884 295.623C107.336 295.588 105.774 294.483 105.815 293.166C105.857 291.851 107.497 290.479 109.043 290.514C110.59 290.549 112.141 291.993 112.099 293.308Z" fill="#F57830"/>
<path d="M122.71 293.308C122.669 294.626 121.041 295.657 119.494 295.623C117.946 295.588 116.385 294.483 116.426 293.166C116.468 291.851 118.107 290.479 119.653 290.514C121.2 290.549 122.752 291.993 122.71 293.308Z" fill="#F57830"/>
<path d="M134.504 293.308C134.462 294.626 132.834 295.657 131.288 295.623C129.74 295.588 128.178 294.483 128.219 293.166C128.261 291.851 129.9 290.479 131.447 290.514C132.994 290.549 134.546 291.993 134.504 293.308Z" fill="#F57830"/>
<path d="M145.529 293.95C145.487 295.268 143.86 296.299 142.313 296.264C140.765 296.229 139.203 295.125 139.245 293.807C139.286 292.493 140.926 291.12 142.472 291.156C144.019 291.191 145.57 292.635 145.529 293.95Z" fill="#F57830"/>
<path d="M157.248 295.864C157.207 297.182 155.579 298.213 154.032 298.177C152.484 298.143 150.923 297.038 150.964 295.721C151.006 294.406 152.645 293.033 154.191 293.07C155.738 293.104 157.29 294.549 157.248 295.864Z" fill="#F57830"/>
<path d="M168.315 298.954C168.335 300.273 166.756 301.358 165.209 301.375C163.661 301.392 162.05 300.341 162.029 299.024C162.009 297.708 163.583 296.281 165.131 296.265C166.677 296.248 168.295 297.639 168.315 298.954Z" fill="#F57830"/>
<path d="M165.056 246.623L167.941 247.238L167.088 243.775C168.843 241.523 170.736 239.529 172.603 237.8L174.453 239.565L174.697 235.955C179.687 231.772 183.959 229.605 183.959 229.605C182.464 231.435 183.57 235.327 182.547 238.75L179.733 241.341L182.568 241.528C182.572 244.112 182.492 247.025 182.078 250.267L178.786 251.887L181.5 253.789C181.434 254.122 181.38 254.45 181.304 254.787C178.468 267.911 161.045 275.754 161.045 275.754C157.265 263.828 160.19 254.056 165.056 246.623Z" fill="#FBCA3B"/>
<path d="M176.245 241.58C175.301 243.211 172.854 248.841 169.842 255.535C169.133 257.225 168.45 258.846 167.817 260.356C167.508 261.112 167.211 261.84 166.929 262.534C166.681 263.24 166.446 263.91 166.225 264.541C165.36 267.069 164.77 268.958 164.571 269.842C165.014 269.016 165.815 267.184 166.826 264.71C167.077 264.09 167.343 263.433 167.623 262.741C167.931 262.055 168.251 261.336 168.586 260.588C169.238 259.089 169.939 257.478 170.669 255.799C173.681 249.106 175.787 243.338 176.245 241.58Z" fill="#D7A628"/>
<path d="M176.015 259.122C175.46 259.071 173.8 259.442 171.931 260.038C171.46 260.169 171.01 260.296 170.594 260.427C170.178 260.559 169.797 260.695 169.45 260.765C168.76 260.941 168.242 261.119 168.005 261.266C168.263 261.334 168.823 261.343 169.585 261.291C169.973 261.281 170.383 261.195 170.824 261.093C171.265 260.993 171.741 260.882 172.227 260.744C174.132 260.139 175.629 259.479 176.015 259.122Z" fill="#D7A628"/>
<path d="M166.173 253.859C166.029 254.338 166.2 255.865 166.626 257.649C167.075 259.417 167.642 260.865 168.006 261.266C168.141 260.782 167.938 259.26 167.486 257.487C167.068 255.724 166.531 254.269 166.173 253.859Z" fill="#D7A628"/>
<path d="M178.763 247.038C178.35 246.959 177.221 247.219 175.964 247.704C174.72 248.151 173.739 248.667 173.498 248.986C173.891 249.08 175.044 248.85 176.331 248.388C177.576 247.907 178.549 247.357 178.763 247.038Z" fill="#D7A628"/>
<path d="M172.81 243.529C172.603 243.858 172.563 244.904 172.739 246.129C173 247.355 173.416 248.351 173.727 248.596C173.908 248.238 173.865 247.209 173.612 246.023C173.439 244.81 173.108 243.811 172.81 243.529Z" fill="#D7A628"/>
<path d="M73.4097 247.217L70.5243 247.833L71.3781 244.37C69.6237 242.118 67.729 240.124 65.8626 238.396L64.0139 240.159L63.7682 236.55C58.7795 232.367 54.5053 230.201 54.5053 230.201C56.0012 232.03 54.896 235.921 55.9174 239.345L58.732 241.937L55.8965 242.123C55.8933 244.708 55.973 247.619 56.387 250.862L59.6801 252.481L56.9654 254.383C57.0315 254.717 57.0846 255.045 57.1604 255.383C59.9975 268.505 77.4197 276.349 77.4197 276.349C81.2009 264.423 78.2744 254.65 73.4097 247.217Z" fill="#FBCA3B"/>
<path d="M62.2198 242.176C63.1639 243.805 65.6104 249.437 68.6231 256.132C69.332 257.82 70.0142 259.441 70.6482 260.95C70.9567 261.707 71.2532 262.435 71.5367 263.129C71.7824 263.835 72.0184 264.505 72.2399 265.136C73.1051 267.663 73.6955 269.553 73.8945 270.437C73.4515 269.611 72.6492 267.78 71.6398 265.305C71.3877 264.686 71.1219 264.027 70.8415 263.336C70.5346 262.65 70.214 261.93 69.8797 261.183C69.228 259.684 68.5256 258.073 67.7958 256.394C64.7839 249.702 62.679 243.934 62.2198 242.176Z" fill="#D7A628"/>
<path d="M62.4496 259.716C63.0054 259.666 64.6656 260.037 66.5345 260.632C67.0049 260.764 67.4544 260.89 67.8709 261.022C68.2873 261.155 68.6683 261.29 69.0155 261.36C69.7043 261.536 70.223 261.714 70.4599 261.86C70.2021 261.929 69.6422 261.939 68.8802 261.885C68.4919 261.875 68.0819 261.789 67.6405 261.688C67.1999 261.587 66.723 261.476 66.2388 261.339C64.3329 260.733 62.8354 260.073 62.4496 259.716Z" fill="#D7A628"/>
<path d="M72.2917 254.455C72.4367 254.933 72.2651 256.459 71.8406 258.244C71.3895 260.012 70.8224 261.459 70.4599 261.861C70.3245 261.377 70.5275 259.856 70.9786 258.083C71.3983 256.319 71.9348 254.865 72.2917 254.455Z" fill="#D7A628"/>
<path d="M59.7025 247.633C60.1141 247.553 61.2426 247.815 62.5001 248.299C63.7455 248.746 64.7258 249.263 64.9666 249.582C64.5727 249.675 63.4208 249.444 62.1344 248.982C60.8882 248.502 59.9159 247.953 59.7025 247.633Z" fill="#D7A628"/>
<path d="M65.654 244.125C65.8626 244.453 65.9029 245.499 65.7265 246.724C65.4655 247.95 65.049 248.946 64.7381 249.192C64.5577 248.834 64.5987 247.805 64.8533 246.617C65.0273 245.405 65.3576 244.407 65.654 244.125Z" fill="#D7A628"/>
<path d="M130.446 231.714L126.75 231.289L129.632 227.595C128.817 224.277 127.697 221.207 126.466 218.457L123.351 219.781L125.033 215.48C121.504 208.638 117.709 204.426 117.709 204.426C118.453 207.147 115.044 211.242 114.368 215.632L116.231 219.762L112.829 218.86C111.416 221.869 109.921 225.29 108.636 229.229L111.588 232.417L107.391 233.56C107.285 233.974 107.167 234.378 107.073 234.801C103.222 251.204 119.237 267.221 119.237 267.221C130.14 254.829 132.06 242.293 130.446 231.714Z" fill="#FBCA3B"/>
<path d="M120.164 221.42C120.373 223.691 120.154 231.215 120.013 240.201C119.918 242.449 119.83 244.606 119.745 246.613C119.692 247.616 119.64 248.582 119.592 249.503C119.494 250.422 119.403 251.296 119.317 252.119C118.946 255.403 118.605 257.836 118.355 258.945C118.288 257.807 118.353 255.357 118.525 252.076C118.57 251.257 118.619 250.384 118.67 249.468C118.687 248.547 118.704 247.584 118.723 246.581C118.78 244.578 118.843 242.425 118.906 240.182C119.048 231.197 119.74 223.648 120.164 221.42Z" fill="#D7A628"/>
<path d="M110.869 241.938C111.544 242.098 113.276 243.187 115.128 244.619C115.603 244.958 116.058 245.283 116.471 245.6C116.885 245.919 117.254 246.228 117.62 246.447C118.327 246.923 118.832 247.334 119.03 247.6C118.691 247.578 118.034 247.368 117.175 247.005C116.728 246.84 116.299 246.578 115.84 246.284C115.381 245.994 114.887 245.677 114.397 245.325C112.509 243.866 111.124 242.505 110.869 241.938Z" fill="#D7A628"/>
<path d="M125.2 239.698C125.108 240.315 124.075 242.024 122.607 243.933C121.12 245.816 119.669 247.275 119.03 247.6C119.136 246.982 120.2 245.292 121.693 243.406C123.142 241.516 124.561 240.036 125.2 239.698Z" fill="#D7A628"/>
<path d="M114.258 226.78C114.78 226.851 115.952 227.601 117.153 228.662C118.359 229.674 119.219 230.662 119.325 231.131C118.818 231.084 117.599 230.359 116.354 229.312C115.164 228.261 114.331 227.236 114.258 226.78Z" fill="#D7A628"/>
<path d="M123.099 225.046C123.164 225.511 122.64 226.745 121.767 228.102C120.794 229.426 119.767 230.422 119.271 230.585C119.256 230.097 119.866 228.916 120.81 227.633C121.67 226.291 122.601 225.257 123.099 225.046Z" fill="#D7A628"/>
<path d="M130.179 266.436C130.179 267.897 121.605 275.744 119.997 275.744C117.746 275.744 108.958 268.627 108.958 266.436C108.958 264.612 117.532 257.129 119.997 257.129C122.033 257.129 130.179 264.429 130.179 266.436Z" fill="#A8E2DA"/>
<path d="M168.443 277.806C168.036 278.911 159.365 283.128 158.147 282.803C156.444 282.35 151.768 275.191 152.376 273.533C152.883 272.153 161.453 268.213 163.318 268.709C164.86 269.12 169 276.287 168.443 277.806Z" fill="#A8E2DA"/>
<path d="M68.317 278.975C68.7238 280.08 77.3938 284.296 78.6118 283.971C80.3147 283.517 84.9909 276.359 84.3835 274.702C83.876 273.32 75.3059 269.381 73.441 269.877C71.8992 270.287 67.7596 277.454 68.317 278.975Z" fill="#A8E2DA"/>
<path d="M125.809 266.436C125.809 267.296 120.766 271.912 119.82 271.912C118.496 271.912 113.327 267.725 113.327 266.436C113.327 265.363 118.37 260.961 119.82 260.961C121.019 260.961 125.809 265.256 125.809 266.436Z" fill="#76D0BB"/>
<path d="M165.134 276.927C164.896 277.578 159.796 280.058 159.08 279.866C158.076 279.6 155.327 275.389 155.685 274.414C155.982 273.601 161.024 271.282 162.121 271.575C163.028 271.817 165.462 276.032 165.134 276.927Z" fill="#76D0BB"/>
<path d="M71.6243 278.095C71.8644 278.746 76.9634 281.225 77.6795 281.034C78.6832 280.768 81.4318 276.557 81.0749 275.582C80.776 274.769 75.7366 272.451 74.637 272.743C73.7308 272.985 71.2981 277.2 71.6243 278.095Z" fill="#76D0BB"/>
<path d="M114.491 364.697C114.491 364.697 108.782 387.96 109.255 389.35C109.728 390.74 125.321 391.203 126.308 388.854C126.851 387.563 121.969 364.697 121.969 364.697C121.969 364.697 117.483 362.712 114.491 364.697Z" fill="#76D0BB"/>
<path d="M134.572 370.362C134.572 370.362 139.191 385.033 139.931 385.709C140.671 386.386 149.722 382.822 149.49 381.241C149.364 380.371 138.837 368.526 138.837 368.526C138.837 368.526 135.605 368.496 134.572 370.362Z" fill="#76D0BB"/>
<path d="M102.662 370.362C102.662 370.362 98.0429 385.033 97.3027 385.709C96.5616 386.386 87.5113 382.822 87.7433 381.241C87.8698 380.371 98.3974 368.526 98.3974 368.526C98.3974 368.526 101.628 368.496 102.662 370.362Z" fill="#76D0BB"/>
<path d="M117.555 362.303C118.909 362.303 125.984 362.696 134.967 370.091C135.653 370.655 137.745 371.314 141.391 371.314C147.355 371.314 153.714 369.613 155.374 368.576C157.102 364.991 159.135 348.557 158.561 343.577C156.245 342.98 150.785 342.296 145.482 342.296C141.769 342.296 140.111 342.636 139.569 342.782C138.343 343.112 137.132 343.976 135.599 345.066C132.044 347.599 127.174 351.067 117.506 351.067C107.837 351.067 102.968 347.599 99.4131 345.066C97.8809 343.976 96.6686 343.112 95.4442 342.782C94.9029 342.636 93.2435 342.296 89.5331 342.296C84.2279 342.296 78.7663 342.98 76.4528 343.577C75.8768 348.561 77.9132 365.017 79.6435 368.585C81.1628 369.529 87.2696 371.181 93.4787 371.181C97.2172 371.181 99.4115 370.55 100.219 369.957C109.917 362.853 115.853 362.302 117.44 362.302L117.555 362.303ZM141.015 375.959C135.84 375.959 131.984 375.084 129.552 373.359C122.337 368.239 117.038 368.134 116.986 368.134L116.801 368.138C116.153 368.184 111.792 368.669 104.175 373.475C101.687 375.046 97.8399 375.843 92.7424 375.843C86.7484 375.843 76.7186 374.527 73.1872 371.6C72.4638 371.001 70.2647 369.179 68.5013 356.609C66.7122 343.852 68.5134 341.744 69.1901 340.95C70.2212 339.743 72.0175 338.853 77.7771 338.148C81.1902 337.731 85.1961 337.491 88.7663 337.491C92.2083 337.491 94.9021 337.712 96.7749 338.147C99.3704 338.749 101.358 339.97 103.28 341.149C106.449 343.094 109.726 345.106 116.951 345.106C124.177 345.106 127.454 343.094 130.623 341.149C132.545 339.97 134.533 338.749 137.129 338.147C139.001 337.712 141.695 337.491 145.136 337.491C148.707 337.491 152.713 337.731 156.127 338.148C161.886 338.853 163.682 339.743 164.712 340.95C165.391 341.744 167.19 343.852 165.401 356.609C163.639 369.179 161.439 371.001 160.717 371.6C157.468 374.293 147.96 375.959 141.015 375.959Z" fill="#F0384B"/>
<path d="M117.555 362.303C118.909 362.303 125.984 362.696 134.967 370.091C135.653 370.655 137.746 371.314 141.391 371.314C147.355 371.314 153.715 369.613 155.374 368.576C157.102 364.991 159.135 348.557 158.562 343.577C156.245 342.98 150.785 342.296 145.482 342.296C141.769 342.296 140.111 342.636 139.569 342.782C138.343 343.112 137.133 343.976 135.6 345.066C132.044 347.599 127.175 351.067 117.506 351.067C107.838 351.067 102.968 347.599 99.4132 345.066C97.8811 343.976 96.6688 343.112 95.4443 342.782C94.903 342.636 93.2436 342.296 89.5333 342.296C84.228 342.296 78.7665 342.98 76.453 343.577C75.877 348.561 77.9134 365.017 79.6437 368.585C81.1629 369.528 87.2697 371.181 93.4788 371.181C97.2173 371.181 99.4116 370.55 100.22 369.956C109.917 362.853 115.853 362.302 117.44 362.302L117.555 362.303Z" fill="#522B25"/>
<path d="M155.03 341.769C155.262 344.507 154.797 349.339 149.919 349.156C145.505 349.156 144.112 344.411 142.949 341.856C142.949 344.776 143.414 350.616 139.232 351.346C133.51 352.346 130.87 349.704 129.942 346.418C129.477 349.339 130.342 353.255 126.689 354.449C119.72 356.724 118.559 352.44 116.235 350.068C116.235 350.068 115.933 355.706 108.802 355.239C106.014 355.057 103.691 350.25 103.691 347.695C99.5089 356.724 90.681 351.346 90.9138 342.22C91.1466 345.141 89.2882 350.616 84.1771 349.522C80.2283 348.608 80.4603 343.863 80.4603 341.308C80.4603 341.308 91.5864 337.95 96.9449 340.633C102.304 343.316 116.274 356.101 135.975 341.769C139.815 340.212 155.03 341.769 155.03 341.769Z" fill="white"/>
<path d="M155.075 373C155.075 370.444 155.308 365.699 151.358 364.786C146.247 363.691 144.389 369.166 144.621 372.086C144.854 362.961 136.026 357.581 131.845 366.611C131.845 364.057 129.521 359.25 126.734 359.067C119.603 358.6 119.3 364.239 119.3 364.239C116.976 361.867 115.816 357.581 108.846 359.859C105.194 361.052 106.058 364.969 105.593 367.889C104.665 364.603 102.025 361.961 96.3023 362.961C92.1207 363.691 92.5855 369.531 92.5855 372.452C91.4231 369.896 90.0295 365.151 85.6152 365.151C80.7376 364.969 80.2728 369.799 80.5048 372.538C80.5048 372.538 97.5887 376.898 110.235 367.041C116.022 364.487 125.882 367.225 132.098 371.057C138.314 374.89 155.075 373 155.075 373Z" fill="white"/>
</svg>
